<svg width="301" height="202" viewBox="0 0 301 202" fill="none" xmlns="http://www.w3.org/2000/svg">
<path d="M147.054 3.41764V32.8204H137.866V98.0578C137.866 103.877 136.437 108.165 133.578 110.921C130.822 113.576 126.278 115.311 119.949 116.128C113.721 116.843 104.022 117.2 90.8522 117.2H64.3591C64.0528 110.564 63.134 104.643 61.6026 99.436C60.0712 94.2293 57.0084 89.8393 52.4142 86.266C69.2596 87.1849 81.1023 87.6443 87.9426 87.6443C92.2305 87.6443 95.3953 87.4911 97.4372 87.1849C99.5812 86.7765 100.959 86.266 101.572 85.6535C102.185 85.0409 102.491 84.1221 102.491 82.897V32.8204H62.3683V40.3242H52.108V50.2783L62.9809 49.6657C62.5725 55.6892 62.3683 64.7244 62.3683 76.7714L52.108 77.6902V91.6259C52.108 100.202 51.2912 106.072 49.6577 109.237C48.1263 112.402 44.9615 114.444 40.1631 115.363C35.4668 116.179 26.2274 116.792 12.4449 117.2L8.61639 117.353C8.00383 110.819 7.23813 105.511 6.3193 101.427C5.40046 97.3431 3.56279 93.0552 0.806279 88.5631C5.80883 88.5631 9.33104 88.41 11.3729 88.1037C13.5168 87.6953 14.793 87.1338 15.2014 86.4192C15.7118 85.6024 15.9671 84.3263 15.9671 82.5907V80.2936L3.71593 81.0593C3.40965 75.1379 3.00128 69.9822 2.49081 65.5922C2.08244 61.1001 1.41884 56.7101 0.5 52.4222C7.44232 52.218 12.598 52.0139 15.9671 51.8097V40.3242H3.71593V13.2186H15.9671V0.661133H52.108V13.2186H61.6026V3.41764H147.054Z" fill="#FF5E1E"/>
<path d="M254.405 13.2186L254.558 28.2262C254.762 41.7025 254.864 51.7586 254.864 58.3947C254.864 73.7086 254.558 86.266 253.946 96.0669C253.537 101.682 252.516 106.072 250.883 109.237C249.351 112.3 246.901 114.597 243.532 116.128C240.265 117.66 235.62 118.681 229.596 119.191C229.086 110.615 228.371 103.418 227.453 97.5983C225.921 106.583 224.186 113.627 222.246 118.732L218.417 116.588C215.252 114.75 212.7 113.372 210.76 112.453C208.923 111.534 206.932 110.717 204.788 110.003V110.921H180.132V113.984H158.54V3.26449H204.788V96.5264C206.728 90.7071 208.106 84.5815 208.923 78.1496C209.841 71.7178 210.454 63.9077 210.76 54.7193L210.913 40.9368H207.391V13.2186H211.22V1.27369H236.641V13.2186H254.405ZM257.162 118.578V4.33648H300.5V118.578H280.439V117.047H277.376V118.578H257.162ZM277.376 27.4605V91.3196H280.439V27.4605H277.376ZM180.132 31.289V80.4467H184.114V31.289H180.132ZM229.903 83.5095C231.026 83.5095 231.74 83.3564 232.047 83.0501C232.455 82.6417 232.71 82.0292 232.812 81.2124C233.425 72.0241 233.833 58.5989 234.038 40.9368H231.128L230.822 53.4942C230.515 66.1537 229.954 76.1588 229.137 83.5095H229.903Z" fill="#5AC4C4"/>
<path d="M119.608 132.105L152.363 201.018H86.8535L119.608 132.105Z" fill="#FBDFB7"/>
<path d="M267.217 132.105L300.397 201.018H234.037L267.217 132.105Z" fill="#FBDFB7"/>
<path d="M11.9863 132.105H46.8681V201.018H11.9863V132.105Z" fill="#F6CE6E"/>
<rect x="34.957" y="138.061" width="6.38081" height="6.38081" fill="#263238"/>
<rect x="34.957" y="145.293" width="6.38081" height="6.38081" fill="#263238"/>
<rect x="34.957" y="152.524" width="6.38081" height="6.38081" fill="#263238"/>
<rect x="34.957" y="159.756" width="6.38081" height="6.38081" fill="#263238"/>
<rect x="34.957" y="166.987" width="6.38081" height="6.38081" fill="#263238"/>
<rect x="34.957" y="174.219" width="6.38081" height="6.38081" fill="#263238"/>
<rect x="34.957" y="181.45" width="6.38081" height="6.38081" fill="#263238"/>
<rect x="34.957" y="188.683" width="6.38081" height="6.38081" fill="#263238"/>
<rect x="26.875" y="138.061" width="6.38081" height="6.38081" fill="#263238"/>
<rect x="26.875" y="145.293" width="6.38081" height="6.38081" fill="#263238"/>
<rect x="26.875" y="152.524" width="6.38081" height="6.38081" fill="#263238"/>
<rect x="26.875" y="159.756" width="6.38081" height="6.38081" fill="#263238"/>
<rect x="26.875" y="166.987" width="6.38081" height="6.38081" fill="#263238"/>
<rect x="17.0918" y="154.651" width="6.38081" height="24.6725" fill="#263238"/>
<rect x="26.875" y="174.219" width="6.38081" height="6.38081" fill="#263238"/>
<rect x="26.875" y="181.45" width="6.38081" height="6.38081" fill="#263238"/>
<rect x="26.875" y="188.683" width="6.38081" height="6.38081" fill="#263238"/>
<path d="M49.846 201.018C58.8716 201.018 67.5275 197.388 73.9095 190.926C80.2916 184.464 83.877 175.7 83.877 166.562C83.877 157.423 80.2916 148.659 73.9095 142.198C67.5275 135.736 58.8716 132.105 49.846 132.105L49.846 166.562L49.846 201.018Z" fill="#5AC4C4"/>
<path fill-rule="evenodd" clip-rule="evenodd" d="M227.107 145.87L213.582 132.345L179.254 166.673L179.258 166.678L179.246 166.69L213.575 201.018L227.1 187.493L206.292 166.685L227.107 145.87Z" fill="#FF5E1E"/>
<path fill-rule="evenodd" clip-rule="evenodd" d="M166.285 136.277L171.395 133.219L172.924 135.773L174.384 134.899C174.872 135.714 175.251 136.583 175.5 137.457C175.748 138.33 175.862 139.191 175.834 139.991C175.806 140.79 175.637 141.512 175.336 142.115C175.152 142.486 174.92 142.807 174.647 143.072C175.11 143.86 175.469 144.623 175.735 145.362C176.614 147.804 176.472 149.958 175.798 151.817C175.129 153.663 173.943 155.197 172.763 156.432C172.172 157.05 171.578 157.599 171.046 158.076C170.878 158.226 170.719 158.367 170.568 158.501C170.232 158.799 169.938 159.059 169.695 159.292L169.552 159.429C168.27 160.655 166.181 162.654 165.399 165.621C164.604 168.64 165.137 172.792 169.652 178.294C175.006 178.508 179.288 183.47 179.288 189.56C179.288 195.785 174.812 200.832 169.292 200.832C163.771 200.832 159.295 195.785 159.295 189.56C159.295 183.672 163.297 178.839 168.4 178.331C164.177 172.94 163.564 168.661 164.432 165.366C165.287 162.119 167.56 159.948 168.838 158.728L168.838 158.727C168.895 158.673 168.95 158.621 169.002 158.57C169.26 158.323 169.578 158.042 169.923 157.736L169.923 157.736L169.923 157.736C170.071 157.605 170.223 157.47 170.378 157.331C170.903 156.861 171.475 156.332 172.04 155.741C173.172 154.556 174.255 153.139 174.858 151.476C175.457 149.826 175.591 147.912 174.795 145.701C174.558 145.045 174.239 144.359 173.824 143.646C173.357 143.867 172.83 143.971 172.263 143.954C171.59 143.934 170.873 143.742 170.156 143.389C169.438 143.036 168.733 142.529 168.081 141.897C167.428 141.264 166.841 140.52 166.354 139.705L167.814 138.831L166.285 136.277ZM168.654 137.337C168.956 137.156 169.055 136.765 168.874 136.462C168.693 136.16 168.301 136.061 167.999 136.242C167.696 136.423 167.598 136.815 167.779 137.118C167.96 137.42 168.352 137.518 168.654 137.337ZM171.429 134.932C171.61 135.234 171.511 135.626 171.209 135.807C170.906 135.988 170.515 135.89 170.334 135.587C170.153 135.285 170.251 134.893 170.553 134.712C170.856 134.531 171.248 134.63 171.429 134.932ZM178.288 189.56C178.288 195.349 174.151 199.832 169.292 199.832C164.432 199.832 160.295 195.349 160.295 189.56C160.295 184.055 164.035 179.731 168.58 179.319V182.216C167.398 182.554 166.527 183.714 166.527 185.094C166.527 186.477 167.403 187.639 168.589 187.974C168.583 188.005 168.58 188.037 168.58 188.07V191.898C168.58 192.175 168.804 192.398 169.08 192.398C169.356 192.398 169.58 192.175 169.58 191.898V188.07L169.58 188.055C170.972 187.901 172.057 186.634 172.057 185.094C172.057 183.554 170.972 182.287 169.58 182.132V179.292C174.313 179.465 178.288 183.885 178.288 189.56ZM171.057 185.094C171.057 186.257 170.199 187.071 169.292 187.071C168.386 187.071 167.527 186.257 167.527 185.094C167.527 183.93 168.386 183.116 169.292 183.116C170.199 183.116 171.057 183.93 171.057 185.094Z" fill="#FF5E1E"/>
</svg>
