<?xml version="1.0" encoding="utf-8"?>
<!-- Generator: Adobe Illustrator 27.0.0, SVG Export Plug-In . SVG Version: 6.00 Build 0)  -->
<svg version="1.1" id="圖層_1" xmlns="http://www.w3.org/2000/svg" xmlns:xlink="http://www.w3.org/1999/xlink" x="0px" y="0px"
	 viewBox="0 0 50 50" style="enable-background:new 0 0 50 50;" xml:space="preserve">
<style type="text/css">
	.st0{fill:#59241C;}
	.st1{fill:#D5804F;}
	.st2{fill:#A74823;}
	.st3{fill:#C2551C;}
	.st4{fill:#D06E2F;}
	.st5{fill:#D4891C;}
	.st6{fill:#BF571D;}
	.st7{fill:#D6A652;}
	.st8{fill:#D16F35;}
	.st9{fill:#9E4623;}
	.st10{fill:#7E8C50;}
	.st11{fill:#4B7235;}
	.st12{fill:#3B552A;}
	.st13{fill:#C3571B;}
	.st14{fill:#755655;}
	.st15{fill:#915243;}
</style>
<g id="圖層_2_00000154387014145858611940000015228076926973083579_">
</g>
<g>
	<rect x="6.4" y="19.9" class="st0" width="2.5" height="2.5"/>
	<rect x="8.9" y="19.9" class="st1" width="2.5" height="2.5"/>
	<rect x="13.9" y="19.9" class="st2" width="2.5" height="2.5"/>
	<rect x="11.4" y="19.9" class="st2" width="2.5" height="2.5"/>
	<rect x="16.4" y="19.9" class="st2" width="2.5" height="2.5"/>
	<rect x="18.9" y="19.9" class="st3" width="2.5" height="2.5"/>
	<rect x="21.4" y="19.9" class="st4" width="2.5" height="2.5"/>
	<rect x="23.9" y="19.9" class="st4" width="2.5" height="2.5"/>
	<rect x="26.4" y="19.9" class="st5" width="2.5" height="2.5"/>
	<rect x="28.9" y="19.9" class="st5" width="2.5" height="2.5"/>
	<rect x="31.4" y="19.9" class="st5" width="2.5" height="2.5"/>
	<rect x="33.9" y="19.9" class="st5" width="2.5" height="2.5"/>
	<rect x="36.4" y="19.9" class="st4" width="2.5" height="2.5"/>
	<rect x="38.9" y="19.9" class="st3" width="2.5" height="2.5"/>
	<rect x="41.4" y="19.9" class="st0" width="2.5" height="2.5"/>
	<rect x="8.9" y="17.4" class="st0" width="2.5" height="2.5"/>
	<rect x="13.9" y="17.4" class="st0" width="2.5" height="2.5"/>
	<rect x="11.4" y="17.4" class="st0" width="2.5" height="2.5"/>
	<rect x="16.4" y="17.4" class="st2" width="2.5" height="2.5"/>
	<rect x="18.9" y="17.4" class="st6" width="2.5" height="2.5"/>
	<rect x="21.4" y="17.4" class="st6" width="2.5" height="2.5"/>
	<rect x="23.9" y="17.4" class="st6" width="2.5" height="2.5"/>
	<rect x="26.4" y="17.4" class="st4" width="2.5" height="2.5"/>
	<rect x="28.9" y="17.4" class="st4" width="2.5" height="2.5"/>
	<rect x="31.4" y="17.4" class="st5" width="2.5" height="2.5"/>
	<rect x="33.9" y="17.4" class="st4" width="2.5" height="2.5"/>
	<rect x="36.4" y="17.4" class="st4" width="2.5" height="2.5"/>
	<rect x="38.9" y="17.4" class="st7" width="2.5" height="2.5"/>
	<rect x="41.4" y="17.4" class="st0" width="2.5" height="2.5"/>
	<rect x="3.9" y="22.4" class="st0" width="2.5" height="2.5"/>
	<rect x="6.4" y="22.4" class="st1" width="2.5" height="2.5"/>
	<rect x="8.9" y="22.4" class="st3" width="2.5" height="2.5"/>
	<rect x="13.9" y="22.4" class="st2" width="2.5" height="2.5"/>
	<rect x="11.4" y="22.4" class="st3" width="2.5" height="2.5"/>
	<rect x="16.4" y="22.4" class="st3" width="2.5" height="2.5"/>
	<rect x="18.9" y="22.4" class="st3" width="2.5" height="2.5"/>
	<rect x="21.4" y="22.4" class="st4" width="2.5" height="2.5"/>
	<rect x="23.9" y="22.4" class="st3" width="2.5" height="2.5"/>
	<rect x="26.4" y="22.4" class="st4" width="2.5" height="2.5"/>
	<rect x="28.9" y="22.4" class="st5" width="2.5" height="2.5"/>
	<rect x="31.4" y="22.4" class="st5" width="2.5" height="2.5"/>
	<rect x="33.9" y="22.4" class="st5" width="2.5" height="2.5"/>
	<rect x="36.4" y="22.4" class="st5" width="2.5" height="2.5"/>
	<rect x="38.9" y="22.4" class="st4" width="2.5" height="2.5"/>
	<rect x="41.4" y="22.4" class="st3" width="2.5" height="2.5"/>
	<rect x="3.9" y="24.9" class="st0" width="2.5" height="2.5"/>
	<rect x="6.4" y="24.9" class="st1" width="2.5" height="2.5"/>
	<rect x="8.9" y="24.9" class="st2" width="2.5" height="2.5"/>
	<rect x="13.9" y="24.9" class="st3" width="2.5" height="2.5"/>
	<rect x="11.4" y="24.9" class="st2" width="2.5" height="2.5"/>
	<rect x="16.4" y="24.9" class="st8" width="2.5" height="2.5"/>
	<rect x="18.9" y="24.9" class="st3" width="2.5" height="2.5"/>
	<rect x="21.4" y="24.9" class="st5" width="2.5" height="2.5"/>
	<rect x="23.9" y="24.9" class="st4" width="2.5" height="2.5"/>
	<rect x="26.4" y="24.9" class="st4" width="2.5" height="2.5"/>
	<rect x="28.9" y="24.9" class="st4" width="2.5" height="2.5"/>
	<rect x="31.4" y="24.9" class="st4" width="2.5" height="2.5"/>
	<rect x="33.9" y="24.9" class="st4" width="2.5" height="2.5"/>
	<rect x="36.4" y="24.9" class="st5" width="2.5" height="2.5"/>
	<rect x="38.9" y="24.9" class="st4" width="2.5" height="2.5"/>
	<rect x="41.4" y="24.9" class="st3" width="2.5" height="2.5"/>
	<rect x="3.9" y="27.4" class="st0" width="2.5" height="2.5"/>
	<rect x="6.4" y="27.4" class="st1" width="2.5" height="2.5"/>
	<rect x="8.9" y="27.4" class="st2" width="2.5" height="2.5"/>
	<rect x="13.9" y="27.4" class="st3" width="2.5" height="2.5"/>
	<rect x="11.4" y="27.4" class="st2" width="2.5" height="2.5"/>
	<rect x="16.4" y="27.4" class="st9" width="2.5" height="2.5"/>
	<rect x="18.9" y="27.4" class="st3" width="2.5" height="2.5"/>
	<rect x="21.4" y="27.4" class="st4" width="2.5" height="2.5"/>
	<rect x="23.9" y="27.4" class="st4" width="2.5" height="2.5"/>
	<rect x="26.4" y="27.4" class="st5" width="2.5" height="2.5"/>
	<rect x="28.9" y="27.4" class="st4" width="2.5" height="2.5"/>
	<rect x="31.4" y="27.4" class="st4" width="2.5" height="2.5"/>
	<rect x="33.9" y="27.4" class="st4" width="2.5" height="2.5"/>
	<rect x="36.4" y="27.4" class="st3" width="2.5" height="2.5"/>
	<rect x="38.9" y="27.4" class="st4" width="2.5" height="2.5"/>
	<rect x="41.4" y="27.4" class="st3" width="2.5" height="2.5"/>
	<rect x="3.9" y="29.9" class="st0" width="2.5" height="2.5"/>
	<rect x="6.4" y="29.9" class="st1" width="2.5" height="2.5"/>
	<rect x="8.9" y="29.9" class="st3" width="2.5" height="2.5"/>
	<rect x="13.9" y="29.9" class="st3" width="2.5" height="2.5"/>
	<rect x="11.4" y="29.9" class="st2" width="2.5" height="2.5"/>
	<rect x="16.4" y="29.9" class="st8" width="2.5" height="2.5"/>
	<rect x="18.9" y="29.9" class="st3" width="2.5" height="2.5"/>
	<rect x="21.4" y="29.9" class="st3" width="2.5" height="2.5"/>
	<rect x="23.9" y="29.9" class="st4" width="2.5" height="2.5"/>
	<rect x="26.4" y="29.9" class="st4" width="2.5" height="2.5"/>
	<rect x="28.9" y="29.9" class="st3" width="2.5" height="2.5"/>
	<rect x="31.4" y="29.9" class="st5" width="2.5" height="2.5"/>
	<rect x="33.9" y="29.9" class="st4" width="2.5" height="2.5"/>
	<rect x="36.4" y="29.9" class="st4" width="2.5" height="2.5"/>
	<rect x="38.9" y="29.9" class="st3" width="2.5" height="2.5"/>
	<rect x="41.4" y="29.9" class="st3" width="2.5" height="2.5"/>
	<rect x="3.9" y="32.4" class="st0" width="2.5" height="2.5"/>
	<rect x="6.4" y="32.4" class="st1" width="2.5" height="2.5"/>
	<rect x="8.9" y="32.4" class="st2" width="2.5" height="2.5"/>
	<rect x="13.9" y="32.4" class="st3" width="2.5" height="2.5"/>
	<rect x="11.4" y="32.4" class="st2" width="2.5" height="2.5"/>
	<rect x="16.4" y="32.4" class="st9" width="2.5" height="2.5"/>
	<rect x="18.9" y="32.4" class="st3" width="2.5" height="2.5"/>
	<rect x="21.4" y="32.4" class="st3" width="2.5" height="2.5"/>
	<rect x="23.9" y="32.4" class="st3" width="2.5" height="2.5"/>
	<rect x="26.4" y="32.4" class="st3" width="2.5" height="2.5"/>
	<rect x="28.9" y="32.4" class="st4" width="2.5" height="2.5"/>
	<rect x="31.4" y="32.4" class="st4" width="2.5" height="2.5"/>
	<rect x="33.9" y="32.4" class="st4" width="2.5" height="2.5"/>
	<rect x="36.4" y="32.4" class="st3" width="2.5" height="2.5"/>
	<rect x="38.9" y="32.4" class="st3" width="2.5" height="2.5"/>
	<rect x="41.4" y="32.4" class="st2" width="2.5" height="2.5"/>
	<rect x="6.4" y="34.8" class="st0" width="2.5" height="2.5"/>
	<rect x="8.9" y="34.8" class="st1" width="2.5" height="2.5"/>
	<rect x="13.9" y="34.8" class="st3" width="2.5" height="2.5"/>
	<rect x="11.4" y="34.8" class="st2" width="2.5" height="2.5"/>
	<rect x="16.4" y="34.8" class="st3" width="2.5" height="2.5"/>
	<rect x="18.9" y="34.8" class="st3" width="2.5" height="2.5"/>
	<rect x="21.4" y="34.8" class="st3" width="2.5" height="2.5"/>
	<rect x="23.9" y="34.8" class="st3" width="2.5" height="2.5"/>
	<rect x="26.4" y="34.8" class="st3" width="2.5" height="2.5"/>
	<rect x="28.9" y="34.8" class="st3" width="2.5" height="2.5"/>
	<rect x="31.4" y="34.8" class="st3" width="2.5" height="2.5"/>
	<rect x="33.9" y="34.8" class="st3" width="2.5" height="2.5"/>
	<rect x="36.4" y="34.8" class="st3" width="2.5" height="2.5"/>
	<rect x="38.9" y="34.8" class="st2" width="2.5" height="2.5"/>
	<rect x="41.4" y="34.8" class="st0" width="2.5" height="2.5"/>
	<rect x="43.9" y="22.4" class="st0" width="2.5" height="2.5"/>
	<rect x="43.9" y="24.9" class="st0" width="2.5" height="2.5"/>
	<rect x="43.9" y="27.4" class="st0" width="2.5" height="2.5"/>
	<rect x="43.9" y="29.9" class="st0" width="2.5" height="2.5"/>
	<rect x="43.9" y="32.4" class="st0" width="2.5" height="2.5"/>
	<rect x="26.4" y="2.4" class="st0" width="2.5" height="2.5"/>
	<rect x="28.9" y="2.4" class="st0" width="2.5" height="2.5"/>
	<rect x="23.9" y="4.9" class="st0" width="2.5" height="2.5"/>
	<rect x="26.4" y="4.9" class="st10" width="2.5" height="2.5"/>
	<rect x="28.9" y="4.9" class="st10" width="2.5" height="2.5"/>
	<rect x="31.4" y="4.9" class="st0" width="2.5" height="2.5"/>
	<rect x="13.9" y="7.4" class="st0" width="2.5" height="2.5"/>
	<rect x="16.4" y="7.4" class="st0" width="2.5" height="2.5"/>
	<rect x="18.9" y="7.4" class="st0" width="2.5" height="2.5"/>
	<rect x="21.4" y="7.4" class="st0" width="2.5" height="2.5"/>
	<rect x="23.9" y="7.4" class="st0" width="2.5" height="2.5"/>
	<rect x="26.4" y="7.4" class="st11" width="2.5" height="2.5"/>
	<rect x="28.9" y="7.4" class="st0" width="2.5" height="2.5"/>
	<rect x="13.9" y="9.9" class="st11" width="2.5" height="2.5"/>
	<rect x="11.4" y="9.9" class="st0" width="2.5" height="2.5"/>
	<rect x="16.4" y="9.9" class="st11" width="2.5" height="2.5"/>
	<rect x="18.9" y="9.9" class="st12" width="2.5" height="2.5"/>
	<rect x="21.4" y="9.9" class="st12" width="2.5" height="2.5"/>
	<rect x="23.9" y="9.9" class="st0" width="2.5" height="2.5"/>
	<rect x="26.4" y="9.9" class="st11" width="2.5" height="2.5"/>
	<rect x="28.9" y="9.9" class="st0" width="2.5" height="2.5"/>
	<rect x="31.4" y="9.9" class="st0" width="2.5" height="2.5"/>
	<rect x="8.9" y="12.4" class="st0" width="2.5" height="2.5"/>
	<rect x="13.9" y="12.4" class="st11" width="2.5" height="2.5"/>
	<rect x="11.4" y="12.4" class="st11" width="2.5" height="2.5"/>
	<rect x="16.4" y="12.4" class="st10" width="2.5" height="2.5"/>
	<rect x="18.9" y="12.4" class="st0" width="2.5" height="2.5"/>
	<rect x="21.4" y="12.4" class="st0" width="2.5" height="2.5"/>
	<rect x="23.9" y="12.4" class="st0" width="2.5" height="2.5"/>
	<rect x="26.4" y="12.4" class="st12" width="2.5" height="2.5"/>
	<rect x="28.9" y="12.4" class="st0" width="2.5" height="2.5"/>
	<rect x="31.4" y="12.4" class="st7" width="2.5" height="2.5"/>
	<rect x="33.9" y="12.4" class="st0" width="2.5" height="2.5"/>
	<rect x="36.4" y="12.4" class="st0" width="2.5" height="2.5"/>
	<rect x="6.4" y="14.9" class="st0" width="2.5" height="2.5"/>
	<rect x="8.9" y="14.9" class="st10" width="2.5" height="2.5"/>
	<rect x="13.9" y="14.9" class="st10" width="2.5" height="2.5"/>
	<rect x="11.4" y="14.9" class="st10" width="2.5" height="2.5"/>
	<rect x="16.4" y="14.9" class="st0" width="2.5" height="2.5"/>
	<rect x="18.9" y="14.9" class="st13" width="2.5" height="2.5"/>
	<rect x="21.4" y="14.9" class="st13" width="2.5" height="2.5"/>
	<rect x="23.9" y="14.9" class="st0" width="2.5" height="2.5"/>
	<rect x="26.4" y="14.9" class="st0" width="2.5" height="2.5"/>
	<rect x="28.9" y="14.9" class="st13" width="2.5" height="2.5"/>
	<rect x="31.4" y="14.9" class="st4" width="2.5" height="2.5"/>
	<rect x="33.9" y="14.9" class="st7" width="2.5" height="2.5"/>
	<rect x="36.4" y="14.9" class="st7" width="2.5" height="2.5"/>
	<rect x="38.9" y="14.9" class="st0" width="2.5" height="2.5"/>
	<rect x="8.9" y="39.8" class="st0" width="2.5" height="2.5"/>
	<rect x="13.9" y="39.8" class="st14" width="2.5" height="2.5"/>
	<rect x="11.4" y="39.8" class="st1" width="2.5" height="2.5"/>
	<rect x="16.4" y="39.8" class="st3" width="2.5" height="2.5"/>
	<rect x="18.9" y="39.8" class="st2" width="2.5" height="2.5"/>
	<rect x="21.4" y="39.8" class="st2" width="2.5" height="2.5"/>
	<rect x="23.9" y="39.8" class="st2" width="2.5" height="2.5"/>
	<rect x="26.4" y="39.8" class="st2" width="2.5" height="2.5"/>
	<rect x="28.9" y="39.8" class="st2" width="2.5" height="2.5"/>
	<rect x="31.4" y="39.8" class="st2" width="2.5" height="2.5"/>
	<rect x="33.9" y="39.8" class="st2" width="2.5" height="2.5"/>
	<rect x="36.4" y="39.8" class="st2" width="2.5" height="2.5"/>
	<rect x="38.9" y="39.8" class="st0" width="2.5" height="2.5"/>
	<rect x="6.4" y="37.3" class="st0" width="2.5" height="2.5"/>
	<rect x="8.9" y="37.3" class="st1" width="2.5" height="2.5"/>
	<rect x="13.9" y="37.3" class="st2" width="2.5" height="2.5"/>
	<rect x="11.4" y="37.3" class="st2" width="2.5" height="2.5"/>
	<rect x="16.4" y="37.3" class="st2" width="2.5" height="2.5"/>
	<rect x="18.9" y="37.3" class="st2" width="2.5" height="2.5"/>
	<rect x="21.4" y="37.3" class="st2" width="2.5" height="2.5"/>
	<rect x="23.9" y="37.3" class="st3" width="2.5" height="2.5"/>
	<rect x="26.4" y="37.3" class="st4" width="2.5" height="2.5"/>
	<rect x="28.9" y="37.3" class="st3" width="2.5" height="2.5"/>
	<rect x="31.4" y="37.3" class="st4" width="2.5" height="2.5"/>
	<rect x="33.9" y="37.3" class="st3" width="2.5" height="2.5"/>
	<rect x="36.4" y="37.3" class="st3" width="2.5" height="2.5"/>
	<rect x="38.9" y="37.3" class="st2" width="2.5" height="2.5"/>
	<rect x="41.4" y="37.3" class="st0" width="2.5" height="2.5"/>
	<rect x="13.9" y="42.3" class="st0" width="2.5" height="2.5"/>
	<rect x="11.4" y="42.3" class="st0" width="2.5" height="2.5"/>
	<rect x="16.4" y="42.3" class="st14" width="2.5" height="2.5"/>
	<rect x="18.9" y="42.3" class="st14" width="2.5" height="2.5"/>
	<rect x="21.4" y="42.3" class="st14" width="2.5" height="2.5"/>
	<rect x="23.9" y="42.3" class="st15" width="2.5" height="2.5"/>
	<rect x="26.4" y="42.3" class="st15" width="2.5" height="2.5"/>
	<rect x="28.9" y="42.3" class="st15" width="2.5" height="2.5"/>
	<rect x="31.4" y="42.3" class="st15" width="2.5" height="2.5"/>
	<rect x="33.9" y="42.3" class="st0" width="2.5" height="2.5"/>
	<rect x="36.4" y="42.3" class="st0" width="2.5" height="2.5"/>
	<rect x="16.4" y="44.8" class="st0" width="2.5" height="2.5"/>
	<rect x="18.9" y="44.8" class="st0" width="2.5" height="2.5"/>
	<rect x="21.4" y="44.8" class="st0" width="2.5" height="2.5"/>
	<rect x="23.9" y="44.8" class="st0" width="2.5" height="2.5"/>
	<rect x="26.4" y="44.8" class="st0" width="2.5" height="2.5"/>
	<rect x="28.9" y="44.8" class="st0" width="2.5" height="2.5"/>
	<rect x="31.4" y="44.8" class="st0" width="2.5" height="2.5"/>
</g>
</svg>
