<?xml version="1.0" encoding="utf-8"?>
<!-- Generator: Adobe Illustrator 27.0.0, SVG Export Plug-In . SVG Version: 6.00 Build 0)  -->
<svg version="1.1" id="圖層_1" xmlns="http://www.w3.org/2000/svg" xmlns:xlink="http://www.w3.org/1999/xlink" x="0px" y="0px"
	 viewBox="0 0 50 50" style="enable-background:new 0 0 50 50;" xml:space="preserve">
<style type="text/css">
	.st0{fill:#A1936A;}
	.st1{fill:#572521;}
	.st2{fill:#6D7E36;}
	.st3{fill:#749030;}
	.st4{fill:#B1B85A;}
	.st5{fill:#8FAA41;}
	.st6{fill:#74902F;}
	.st7{fill:#8FAA3E;}
	.st8{fill:#CB9173;}
	.st9{fill:#542724;}
	.st10{fill:#9E5F3E;}
	.st11{fill:#765A45;}
	.st12{fill:#5C5C5E;}
</style>
<g id="圖層_2_00000154387014145858611940000015228076926973083579_">
</g>
<g>
	<rect x="13.7" y="19" class="st0" width="2.5" height="2.5"/>
	<rect x="13.7" y="16.5" class="st1" width="2.5" height="2.5"/>
	<rect x="16.2" y="19" class="st2" width="2.5" height="2.5"/>
	<rect x="18.7" y="19" class="st3" width="2.5" height="2.5"/>
	<rect x="21.1" y="19" class="st2" width="2.5" height="2.5"/>
	<rect x="23.6" y="19" class="st3" width="2.5" height="2.5"/>
	<rect x="26.1" y="19" class="st4" width="2.5" height="2.5"/>
	<rect x="28.6" y="19" class="st4" width="2.5" height="2.5"/>
	<rect x="31.1" y="19" class="st4" width="2.5" height="2.5"/>
	<rect x="33.6" y="19" class="st5" width="2.5" height="2.5"/>
	<rect x="36.1" y="19" class="st6" width="2.5" height="2.5"/>
	<rect x="38.6" y="19" class="st1" width="2.5" height="2.5"/>
	<rect x="16.2" y="16.5" class="st0" width="2.5" height="2.5"/>
	<rect x="16.2" y="14" class="st1" width="2.5" height="2.5"/>
	<rect x="18.7" y="16.5" class="st2" width="2.5" height="2.5"/>
	<rect x="21.1" y="16.5" class="st3" width="2.5" height="2.5"/>
	<rect x="23.6" y="16.5" class="st7" width="2.5" height="2.5"/>
	<rect x="26.1" y="16.5" class="st5" width="2.5" height="2.5"/>
	<rect x="28.6" y="16.5" class="st4" width="2.5" height="2.5"/>
	<rect x="31.1" y="16.5" class="st5" width="2.5" height="2.5"/>
	<rect x="33.6" y="16.5" class="st5" width="2.5" height="2.5"/>
	<rect x="36.1" y="16.5" class="st1" width="2.5" height="2.5"/>
	<rect x="11.2" y="21.5" class="st0" width="2.5" height="2.5"/>
	<rect x="11.2" y="19" class="st1" width="2.5" height="2.5"/>
	<rect x="13.7" y="21.5" class="st2" width="2.5" height="2.5"/>
	<rect x="16.2" y="21.5" class="st2" width="2.5" height="2.5"/>
	<rect x="18.7" y="21.5" class="st2" width="2.5" height="2.5"/>
	<rect x="21.1" y="21.5" class="st3" width="2.5" height="2.5"/>
	<rect x="23.6" y="21.5" class="st3" width="2.5" height="2.5"/>
	<rect x="26.1" y="21.5" class="st5" width="2.5" height="2.5"/>
	<rect x="28.6" y="21.5" class="st4" width="2.5" height="2.5"/>
	<rect x="31.1" y="21.5" class="st4" width="2.5" height="2.5"/>
	<rect x="33.6" y="21.5" class="st4" width="2.5" height="2.5"/>
	<rect x="36.1" y="21.5" class="st7" width="2.5" height="2.5"/>
	<rect x="38.6" y="21.5" class="st1" width="2.5" height="2.5"/>
	<rect x="6.2" y="24" class="st1" width="2.5" height="2.5"/>
	<rect x="11.2" y="24" class="st2" width="2.5" height="2.5"/>
	<rect x="8.7" y="24" class="st0" width="2.5" height="2.5"/>
	<rect x="8.7" y="21.5" class="st1" width="2.5" height="2.5"/>
	<rect x="13.7" y="24" class="st2" width="2.5" height="2.5"/>
	<rect x="16.2" y="24" class="st3" width="2.5" height="2.5"/>
	<rect x="18.7" y="24" class="st3" width="2.5" height="2.5"/>
	<rect x="21.1" y="24" class="st3" width="2.5" height="2.5"/>
	<rect x="23.6" y="24" class="st5" width="2.5" height="2.5"/>
	<rect x="26.1" y="24" class="st5" width="2.5" height="2.5"/>
	<rect x="28.6" y="24" class="st5" width="2.5" height="2.5"/>
	<rect x="31.1" y="24" class="st5" width="2.5" height="2.5"/>
	<rect x="33.6" y="24" class="st5" width="2.5" height="2.5"/>
	<rect x="36.1" y="24" class="st5" width="2.5" height="2.5"/>
	<rect x="38.6" y="24" class="st5" width="2.5" height="2.5"/>
	<rect x="6.2" y="26.5" class="st1" width="2.5" height="2.5"/>
	<rect x="11.2" y="26.5" class="st2" width="2.5" height="2.5"/>
	<rect x="8.7" y="26.5" class="st0" width="2.5" height="2.5"/>
	<rect x="13.7" y="26.5" class="st3" width="2.5" height="2.5"/>
	<rect x="16.2" y="26.5" class="st7" width="2.5" height="2.5"/>
	<rect x="18.7" y="26.5" class="st3" width="2.5" height="2.5"/>
	<rect x="21.1" y="26.5" class="st5" width="2.5" height="2.5"/>
	<rect x="23.6" y="26.5" class="st5" width="2.5" height="2.5"/>
	<rect x="26.1" y="26.5" class="st5" width="2.5" height="2.5"/>
	<rect x="28.6" y="26.5" class="st5" width="2.5" height="2.5"/>
	<rect x="31.1" y="26.5" class="st4" width="2.5" height="2.5"/>
	<rect x="33.6" y="26.5" class="st5" width="2.5" height="2.5"/>
	<rect x="36.1" y="26.5" class="st5" width="2.5" height="2.5"/>
	<rect x="38.6" y="26.5" class="st4" width="2.5" height="2.5"/>
	<rect x="6.2" y="29" class="st1" width="2.5" height="2.5"/>
	<rect x="11.2" y="29" class="st2" width="2.5" height="2.5"/>
	<rect x="8.7" y="29" class="st0" width="2.5" height="2.5"/>
	<rect x="13.7" y="29" class="st3" width="2.5" height="2.5"/>
	<rect x="16.2" y="29" class="st3" width="2.5" height="2.5"/>
	<rect x="18.7" y="29" class="st3" width="2.5" height="2.5"/>
	<rect x="21.1" y="29" class="st5" width="2.5" height="2.5"/>
	<rect x="23.6" y="29" class="st5" width="2.5" height="2.5"/>
	<rect x="26.1" y="29" class="st4" width="2.5" height="2.5"/>
	<rect x="28.6" y="29" class="st4" width="2.5" height="2.5"/>
	<rect x="31.1" y="29" class="st4" width="2.5" height="2.5"/>
	<rect x="33.6" y="29" class="st4" width="2.5" height="2.5"/>
	<rect x="36.1" y="29" class="st5" width="2.5" height="2.5"/>
	<rect x="38.6" y="29" class="st5" width="2.5" height="2.5"/>
	<rect x="6.2" y="31.5" class="st1" width="2.5" height="2.5"/>
	<rect x="11.2" y="31.5" class="st2" width="2.5" height="2.5"/>
	<rect x="8.7" y="31.5" class="st0" width="2.5" height="2.5"/>
	<rect x="13.7" y="31.5" class="st3" width="2.5" height="2.5"/>
	<rect x="16.2" y="31.5" class="st7" width="2.5" height="2.5"/>
	<rect x="18.7" y="31.5" class="st3" width="2.5" height="2.5"/>
	<rect x="21.1" y="31.5" class="st4" width="2.5" height="2.5"/>
	<rect x="23.6" y="31.5" class="st5" width="2.5" height="2.5"/>
	<rect x="26.1" y="31.5" class="st5" width="2.5" height="2.5"/>
	<rect x="28.6" y="31.5" class="st4" width="2.5" height="2.5"/>
	<rect x="31.1" y="31.5" class="st4" width="2.5" height="2.5"/>
	<rect x="33.6" y="31.5" class="st5" width="2.5" height="2.5"/>
	<rect x="36.1" y="31.5" class="st5" width="2.5" height="2.5"/>
	<rect x="38.6" y="31.5" class="st4" width="2.5" height="2.5"/>
	<rect x="6.2" y="34" class="st1" width="2.5" height="2.5"/>
	<rect x="11.2" y="34" class="st2" width="2.5" height="2.5"/>
	<rect x="8.7" y="34" class="st0" width="2.5" height="2.5"/>
	<rect x="13.7" y="34" class="st3" width="2.5" height="2.5"/>
	<rect x="16.2" y="34" class="st3" width="2.5" height="2.5"/>
	<rect x="18.7" y="34" class="st3" width="2.5" height="2.5"/>
	<rect x="21.1" y="34" class="st5" width="2.5" height="2.5"/>
	<rect x="23.6" y="34" class="st5" width="2.5" height="2.5"/>
	<rect x="26.1" y="34" class="st5" width="2.5" height="2.5"/>
	<rect x="28.6" y="34" class="st5" width="2.5" height="2.5"/>
	<rect x="31.1" y="34" class="st5" width="2.5" height="2.5"/>
	<rect x="33.6" y="34" class="st5" width="2.5" height="2.5"/>
	<rect x="36.1" y="34" class="st5" width="2.5" height="2.5"/>
	<rect x="38.6" y="34" class="st5" width="2.5" height="2.5"/>
	<rect x="41.1" y="24" class="st1" width="2.5" height="2.5"/>
	<rect x="41.1" y="26.5" class="st1" width="2.5" height="2.5"/>
	<rect x="41.1" y="29" class="st1" width="2.5" height="2.5"/>
	<rect x="41.1" y="31.5" class="st1" width="2.5" height="2.5"/>
	<rect x="41.1" y="34" class="st1" width="2.5" height="2.5"/>
	<rect x="28.6" y="1.5" class="st1" width="2.5" height="2.5"/>
	<rect x="31.1" y="1.5" class="st1" width="2.5" height="2.5"/>
	<rect x="26.1" y="4" class="st1" width="2.5" height="2.5"/>
	<rect x="28.6" y="4" class="st8" width="2.5" height="2.5"/>
	<rect x="31.1" y="4" class="st8" width="2.5" height="2.5"/>
	<rect x="33.6" y="4" class="st1" width="2.5" height="2.5"/>
	<rect x="23.6" y="6.5" class="st1" width="2.5" height="2.5"/>
	<rect x="26.1" y="6.5" class="st9" width="2.5" height="2.5"/>
	<rect x="28.6" y="6.5" class="st10" width="2.5" height="2.5"/>
	<rect x="31.1" y="6.5" class="st1" width="2.5" height="2.5"/>
	<rect x="21.1" y="9" class="st1" width="2.5" height="2.5"/>
	<rect x="23.6" y="9" class="st2" width="2.5" height="2.5"/>
	<rect x="26.1" y="9" class="st9" width="2.5" height="2.5"/>
	<rect x="28.6" y="9" class="st10" width="2.5" height="2.5"/>
	<rect x="31.1" y="9" class="st9" width="2.5" height="2.5"/>
	<rect x="33.6" y="9" class="st1" width="2.5" height="2.5"/>
	<rect x="21.1" y="11.5" class="st2" width="2.5" height="2.5"/>
	<rect x="23.6" y="11.5" class="st3" width="2.5" height="2.5"/>
	<rect x="26.1" y="11.5" class="st5" width="2.5" height="2.5"/>
	<rect x="28.6" y="11.5" class="st9" width="2.5" height="2.5"/>
	<rect x="31.1" y="11.5" class="st5" width="2.5" height="2.5"/>
	<rect x="33.6" y="11.5" class="st6" width="2.5" height="2.5"/>
	<rect x="36.1" y="11.5" class="st1" width="2.5" height="2.5"/>
	<rect x="18.7" y="14" class="st2" width="2.5" height="2.5"/>
	<rect x="18.7" y="11.5" class="st1" width="2.5" height="2.5"/>
	<rect x="21.1" y="14" class="st2" width="2.5" height="2.5"/>
	<rect x="23.6" y="14" class="st3" width="2.5" height="2.5"/>
	<rect x="26.1" y="14" class="st5" width="2.5" height="2.5"/>
	<rect x="28.6" y="14" class="st5" width="2.5" height="2.5"/>
	<rect x="31.1" y="14" class="st5" width="2.5" height="2.5"/>
	<rect x="33.6" y="14" class="st4" width="2.5" height="2.5"/>
	<rect x="36.1" y="14" class="st1" width="2.5" height="2.5"/>
	<rect x="11.2" y="39" class="st0" width="2.5" height="2.5"/>
	<rect x="8.7" y="39" class="st1" width="2.5" height="2.5"/>
	<rect x="13.7" y="39" class="st2" width="2.5" height="2.5"/>
	<rect x="16.2" y="39" class="st3" width="2.5" height="2.5"/>
	<rect x="18.7" y="39" class="st7" width="2.5" height="2.5"/>
	<rect x="21.1" y="39" class="st3" width="2.5" height="2.5"/>
	<rect x="23.6" y="39" class="st3" width="2.5" height="2.5"/>
	<rect x="26.1" y="39" class="st3" width="2.5" height="2.5"/>
	<rect x="28.6" y="39" class="st5" width="2.5" height="2.5"/>
	<rect x="31.1" y="39" class="st5" width="2.5" height="2.5"/>
	<rect x="33.6" y="39" class="st4" width="2.5" height="2.5"/>
	<rect x="36.1" y="39" class="st6" width="2.5" height="2.5"/>
	<rect x="38.6" y="39" class="st1" width="2.5" height="2.5"/>
	<rect x="6.2" y="36.5" class="st1" width="2.5" height="2.5"/>
	<rect x="11.2" y="36.5" class="st2" width="2.5" height="2.5"/>
	<rect x="8.7" y="36.5" class="st0" width="2.5" height="2.5"/>
	<rect x="13.7" y="36.5" class="st3" width="2.5" height="2.5"/>
	<rect x="16.2" y="36.5" class="st3" width="2.5" height="2.5"/>
	<rect x="18.7" y="36.5" class="st3" width="2.5" height="2.5"/>
	<rect x="21.1" y="36.5" class="st3" width="2.5" height="2.5"/>
	<rect x="23.6" y="36.5" class="st3" width="2.5" height="2.5"/>
	<rect x="26.1" y="36.5" class="st5" width="2.5" height="2.5"/>
	<rect x="28.6" y="36.5" class="st4" width="2.5" height="2.5"/>
	<rect x="31.1" y="36.5" class="st5" width="2.5" height="2.5"/>
	<rect x="33.6" y="36.5" class="st5" width="2.5" height="2.5"/>
	<rect x="36.1" y="36.5" class="st5" width="2.5" height="2.5"/>
	<rect x="38.6" y="36.5" class="st6" width="2.5" height="2.5"/>
	<rect x="11.2" y="41.5" class="st1" width="2.5" height="2.5"/>
	<rect x="13.7" y="41.5" class="st11" width="2.5" height="2.5"/>
	<rect x="16.2" y="41.5" class="st2" width="2.5" height="2.5"/>
	<rect x="18.7" y="41.5" class="st2" width="2.5" height="2.5"/>
	<rect x="21.1" y="41.5" class="st2" width="2.5" height="2.5"/>
	<rect x="23.6" y="41.5" class="st2" width="2.5" height="2.5"/>
	<rect x="26.1" y="41.5" class="st3" width="2.5" height="2.5"/>
	<rect x="28.6" y="41.5" class="st3" width="2.5" height="2.5"/>
	<rect x="31.1" y="41.5" class="st3" width="2.5" height="2.5"/>
	<rect x="33.6" y="41.5" class="st3" width="2.5" height="2.5"/>
	<rect x="36.1" y="41.5" class="st1" width="2.5" height="2.5"/>
	<rect x="13.7" y="44" class="st1" width="2.5" height="2.5"/>
	<rect x="16.2" y="44" class="st12" width="2.5" height="2.5"/>
	<rect x="18.7" y="44" class="st12" width="2.5" height="2.5"/>
	<rect x="21.1" y="44" class="st12" width="2.5" height="2.5"/>
	<rect x="23.6" y="44" class="st12" width="2.5" height="2.5"/>
	<rect x="26.1" y="44" class="st3" width="2.5" height="2.5"/>
	<rect x="28.6" y="44" class="st3" width="2.5" height="2.5"/>
	<rect x="31.1" y="44" class="st7" width="2.5" height="2.5"/>
	<rect x="33.6" y="44" class="st1" width="2.5" height="2.5"/>
	<rect x="16.2" y="46.5" class="st1" width="2.5" height="2.5"/>
	<rect x="18.7" y="46.5" class="st1" width="2.5" height="2.5"/>
	<rect x="21.1" y="46.5" class="st1" width="2.5" height="2.5"/>
	<rect x="23.6" y="46.5" class="st1" width="2.5" height="2.5"/>
	<rect x="26.1" y="46.5" class="st1" width="2.5" height="2.5"/>
	<rect x="28.6" y="46.5" class="st1" width="2.5" height="2.5"/>
	<rect x="31.1" y="46.5" class="st1" width="2.5" height="2.5"/>
	<rect x="41.1" y="36.5" class="st1" width="2.5" height="2.5"/>
</g>
</svg>
