<?xml version="1.0" encoding="UTF-8"?>
<svg id="_圖層_2" data-name="圖層 2" xmlns="http://www.w3.org/2000/svg" viewBox="0 0 27.23 163.99">
  <defs>
    <style>
      .cls-1 {
        fill: #dfd9d8;
      }

      .cls-2 {
        fill: #301706;
      }

      .cls-3 {
        fill: #8b918e;
      }

      .cls-4 {
        fill: #c2bbbb;
      }

      .cls-5 {
        fill: none;
        stroke: #301706;
        stroke-miterlimit: 10;
        stroke-width: 5px;
      }
    </style>
  </defs>
  <g id="_機台" data-name="機台">
    <g>
      <g>
        <path class="cls-4" d="M2.5,154.18v4.75c6.11-.59,13.4-1.81,16.57-3.17,1.77-.76,3.81-3.22,5.62-5.9V2.5H13.66V139.88s-.24,8.68-11.16,14.3ZM16.68,34.47c0-1.02,.83-1.84,1.84-1.84s1.84,.83,1.84,1.84v7.1c0,1.02-.83,1.84-1.84,1.84s-1.84-.83-1.84-1.84v-7.1Zm0,43.91v-30.31c0-1.02,.83-1.84,1.84-1.84s1.84,.83,1.84,1.84v30.31h-.04c0,.06,.04,.12,.04,.18,0,1.02-.83,1.84-1.84,1.84s-1.84-.83-1.84-1.84c0-.06,.03-.12,.04-.18h-.04Z"/>
        <path class="cls-3" d="M13.66,139.88V2.5H2.5v5.94c.06,24.75,.29,118.95,0,126.44v19.3c10.91-5.62,11.16-14.3,11.16-14.3Z"/>
        <path class="cls-1" d="M18.52,43.42c1.02,0,1.84-.83,1.84-1.84v-7.1c0-1.02-.83-1.84-1.84-1.84s-1.84,.83-1.84,1.84v7.1c0,1.02,.83,1.84,1.84,1.84Z"/>
        <path class="cls-1" d="M18.52,80.41c1.02,0,1.84-.83,1.84-1.84,0-.06-.03-.12-.04-.18h.04v-30.31c0-1.02-.83-1.84-1.84-1.84s-1.84,.83-1.84,1.84v30.31h.04c0,.06-.04,.12-.04,.18,0,1.02,.83,1.84,1.84,1.84Z"/>
        <path class="cls-2" d="M24.72,154.78c.03-.76-.03-1.28-.03-1.28v.82s.02,.18,.03,.46Z"/>
        <path class="cls-1" d="M19.07,155.75c-3.17,1.36-10.46,2.59-16.57,3.17v2.55c8.29-.01,14.58-.06,16.37-.16,4.97-.27,5.78-4.4,5.86-6.55-.01-.28-.03-.46-.03-.46v-4.47c-1.81,2.68-3.85,5.14-5.62,5.9Z"/>
      </g>
      <path class="cls-5" d="M2.5,2.5H24.73V151.12c0,5.72-4.64,10.36-10.36,10.36H2.5V2.5h0Z"/>
    </g>
  </g>
</svg>