<?xml version="1.0" encoding="UTF-8"?>
<svg id="_圖層_2" data-name="圖層 2" xmlns="http://www.w3.org/2000/svg" viewBox="0 0 66.32 27.09">
  <defs>
    <style>
      .cls-1 {
        fill: #dfd9d8;
      }

      .cls-2 {
        fill: #8b918e;
      }

      .cls-3 {
        fill: #c2bbbb;
      }

      .cls-4 {
        fill: none;
        stroke: #301706;
        stroke-miterlimit: 10;
        stroke-width: 5px;
      }
    </style>
  </defs>
  <g id="_機台" data-name="機台">
    <g>
      <path class="cls-3" d="M63.82,22.04v-4.75c-.86,.44-1.77,.87-2.77,1.26-3.92,1.57-19.06,2.84-32.98,3.86h29.32c1.72,0,3.99-.14,6.44-.37Z"/>
      <path class="cls-2" d="M63.66,2.53l.17,14.76c-.86,.44-1.77,.87-2.77,1.26-3.92,1.57-19.06,2.84-32.98,3.86H5.74c-1.3,.54-2.38,1-3.24,1.37V2.5H59.08l4.58,.03Z"/>
      <path class="cls-2" d="M2.5,24.44v.16c.12-.05,.34-.1,.64-.16-.41,0-.64,0-.64,0Z"/>
      <path class="cls-1" d="M57.39,22.41H28.07c-11.46,.84-22.08,1.51-24.94,2.03,5.04,.03,39.42,.19,60.69,.15v-2.55c-2.45,.24-4.72,.37-6.44,.37Z"/>
      <path class="cls-1" d="M28.07,22.41H5.74c-1.3,.54-2.38,1-3.24,1.37v.65s.23,0,.64,0c2.85-.52,13.48-1.19,24.94-2.03Z"/>
      <rect class="cls-4" x="2.5" y="2.5" width="61.32" height="22.09"/>
    </g>
  </g>
</svg>