<?xml version="1.0" encoding="UTF-8"?>
<svg id="_圖層_2" data-name="圖層 2" xmlns="http://www.w3.org/2000/svg" viewBox="0 0 103.51 142.89">
  <defs>
    <style>
      .cls-1 {
        fill: #fff;
      }

      .cls-2 {
        fill: #dfd9d8;
      }

      .cls-3 {
        fill: #ab3528;
      }

      .cls-4 {
        fill: #8b918e;
      }

      .cls-5 {
        fill: #c2bbbb;
      }

      .cls-6 {
        fill: none;
        stroke: #301706;
        stroke-miterlimit: 10;
        stroke-width: 5px;
      }

      .cls-7 {
        fill: #d34035;
      }
    </style>
  </defs>
  <g id="_機台" data-name="機台">
    <g>
      <g>
        <g>
          <path class="cls-5" d="M86.82,132.8V31.89h-11.04V118.37s-.27,10.1-13.93,15.56c-7.48,2.99-56.72,4.91-59.36,6.04v.65s71.76,.36,78.49,0c6.74-.36,5.82-7.83,5.82-7.83Z"/>
          <path class="cls-4" d="M75.78,131.95V31.89h-11.17s.36,76.71,0,81.8c-.36,5.1-4.73,4.19-4.73,4.19H2.5v22.1c2.64-1.13,50.85,.38,59.43,0,14.69-.66,13.85-8.02,13.85-8.02Z"/>
          <g>
            <path class="cls-2" d="M80.13,46.07c-1.02,0-1.84,.28-1.84,.62v2.38c0,.34,.83,.62,1.84,.62s1.84-.28,1.84-.62v-2.38c0-.34-.83-.62-1.84-.62Z"/>
            <path class="cls-2" d="M81.97,51.26c0-.34-.83-.62-1.84-.62s-1.84,.28-1.84,.62v10.18h.04s-.04,.04-.04,.06c0,.34,.83,.62,1.84,.62s1.84-.28,1.84-.62c0-.02-.03-.04-.04-.06h.04v-10.18Z"/>
          </g>
          <path class="cls-6" d="M2.5,117.47H59.88s4.37,.91,4.73-4.19c.36-5.1,0-81.8,0-81.8h22.21v100.92s.91,7.46-5.82,7.83-78.49,0-78.49,0v-22.75Z"/>
        </g>
        <path class="cls-6" d="M64.76,105.34v26.05c0,.18-.08,1.04,0,2.18,.07,1.01,.17,2.4,.73,3.58,.94,1.99,2.96,2.89,3.91,3.24"/>
      </g>
      <g>
        <g>
          <path class="cls-7" d="M101.01,28.67c0-14.45-11.72-26.17-26.17-26.17-5.29,0-10.21,1.58-14.33,4.28,7.75,12.15,21,32.41,28.51,43.86,7.21-4.66,11.99-12.75,11.99-21.98Z"/>
          <path class="cls-3" d="M48.66,28.67c0,14.45,11.72,26.17,26.17,26.17,5.23,0,10.09-1.55,14.18-4.2-7.51-11.45-20.76-31.71-28.51-43.86-7.13,4.68-11.85,12.73-11.85,21.89Z"/>
        </g>
        <circle class="cls-6" cx="74.84" cy="28.67" r="26.17"/>
        <path class="cls-1" d="M92.28,32.12c0,.42-.04,.83-.06,1.24,1.32-2.27,2.09-4.89,2.09-7.7,0-8.47-6.87-15.34-15.34-15.34-2.2,0-4.28,.47-6.17,1.3,10.85,.56,19.49,9.52,19.49,20.51Z"/>
      </g>
    </g>
  </g>
</svg>