<?xml version="1.0" encoding="UTF-8"?>
<svg id="_圖層_2" data-name="圖層 2" xmlns="http://www.w3.org/2000/svg" viewBox="0 0 50.87 50.87">
  <defs>
    <style>
      .cls-1 {
        fill: #fff;
      }

      .cls-2 {
        fill: #ab3528;
      }

      .cls-3 {
        fill: none;
        stroke: #301706;
        stroke-miterlimit: 10;
        stroke-width: 5px;
      }

      .cls-4 {
        fill: #d34035;
      }
    </style>
  </defs>
  <g id="_機台" data-name="機台">
    <g>
      <g>
        <path class="cls-4" d="M48.37,25.44c0-12.67-10.27-22.94-22.94-22.94-4.64,0-8.95,1.39-12.55,3.75,6.79,10.65,18.4,28.4,24.98,38.44,6.32-4.09,10.51-11.18,10.51-19.26Z"/>
        <path class="cls-2" d="M2.5,25.44c0,12.67,10.27,22.94,22.94,22.94,4.58,0,8.84-1.36,12.43-3.68C31.28,34.66,19.67,16.9,12.88,6.25,6.63,10.35,2.5,17.41,2.5,25.44Z"/>
      </g>
      <circle class="cls-3" cx="25.44" cy="25.44" r="22.94"/>
      <path class="cls-1" d="M40.73,28.46c0,.37-.03,.72-.05,1.08,1.16-1.99,1.83-4.29,1.83-6.75,0-7.43-6.02-13.45-13.45-13.45-1.92,0-3.75,.41-5.41,1.14,9.51,.49,17.08,8.34,17.08,17.97Z"/>
    </g>
  </g>
</svg>