<?xml version="1.0" encoding="UTF-8"?>
<svg id="_圖層_2" data-name="圖層 2" xmlns="http://www.w3.org/2000/svg" viewBox="0 0 107.76 72">
  <defs>
    <style>
      .cls-1 {
        fill: #fff;
      }

      .cls-2 {
        fill: #ab3528;
      }

      .cls-3 {
        fill: #8b918e;
      }

      .cls-4 {
        fill: #c2bbbb;
      }

      .cls-5 {
        fill: none;
        stroke: #301706;
        stroke-miterlimit: 10;
        stroke-width: 5px;
      }

      .cls-6 {
        fill: #d34035;
      }

      .cls-7 {
        fill: #646866;
      }
    </style>
  </defs>
  <g id="_機台" data-name="機台">
    <g>
      <g>
        <path class="cls-4" d="M85.98,61.92V27.78h-10.03v19.7s-.25,10.1-12.65,15.56c-6.8,2.99-58.4,4.91-60.8,6.04v.65s72.07,.36,78.19,0c6.12-.36,5.29-7.83,5.29-7.83Z"/>
        <path class="cls-3" d="M86.45,61.06V27.78h-12.77s.42,9.92,0,15.02c-.42,5.1-5.41,4.19-5.41,4.19H2.5v22.1c3.02-1.13,58.32,.38,68.12,0,16.79-.66,15.83-8.02,15.83-8.02Z"/>
        <path class="cls-7" d="M87.25,53.45c-.12,1.62-1.59,7-15.83,7.56-9.8,.38-65.11-1.13-68.12,0v7.49c3.02-1.13,58.32,.38,68.12,0,16.79-.66,15.83-8.02,15.83-8.02v-7.03Z"/>
        <path class="cls-3" d="M29.66,31.05v.46c.02-.29,0-.46,0-.46Z"/>
        <path class="cls-5" d="M2.5,46.58H61.5s3.97,.91,4.3-4.19c.33-5.1,0-15.02,0-15.02h20.18V61.51s.83,7.46-5.29,7.83c-6.12,.36-78.19,0-78.19,0v-22.75Z"/>
        <path class="cls-5" d="M63.4,46.85v13.3c0,.18-.07,1.04,0,2.18,.07,1.01,.15,2.4,.66,3.58,.85,1.99,2.69,2.89,3.56,3.24"/>
      </g>
      <g>
        <g>
          <path class="cls-6" d="M105.26,32.53c0-16.58-13.44-30.03-30.03-30.03-6.07,0-11.71,1.82-16.44,4.91,8.89,13.94,24.09,37.19,32.71,50.33,8.27-5.35,13.76-14.63,13.76-25.21Z"/>
          <path class="cls-2" d="M45.2,32.53c0,16.58,13.44,30.03,30.03,30.03,6,0,11.58-1.78,16.27-4.81-8.62-13.14-23.82-36.38-32.71-50.33-8.18,5.36-13.59,14.6-13.59,25.11Z"/>
        </g>
        <circle class="cls-5" cx="75.23" cy="32.53" r="30.03"/>
        <path class="cls-1" d="M95.25,36.49c0,.48-.04,.95-.07,1.42,1.51-2.6,2.4-5.61,2.4-8.84,0-9.72-7.88-17.61-17.61-17.61-2.52,0-4.91,.54-7.08,1.49,12.45,.65,22.36,10.92,22.36,23.53Z"/>
      </g>
    </g>
  </g>
</svg>