<?xml version="1.0" encoding="UTF-8"?>
<svg id="_圖層_2" data-name="圖層 2" xmlns="http://www.w3.org/2000/svg" viewBox="0 0 100.27 190.05">
  <defs>
    <style>
      .cls-1 {
        fill: #fff;
      }

      .cls-2 {
        fill: #dfd9d8;
      }

      .cls-3 {
        fill: #ab3528;
      }

      .cls-4 {
        fill: #8b918e;
      }

      .cls-5 {
        fill: #c2bbbb;
      }

      .cls-6 {
        fill: none;
        stroke: #301706;
        stroke-miterlimit: 10;
        stroke-width: 5px;
      }

      .cls-7 {
        fill: #d34035;
      }
    </style>
  </defs>
  <g id="_機台" data-name="機台">
    <g>
      <g>
        <path class="cls-5" d="M86.02,179.97V28.16h-11.04V165.53s-.27,10.1-13.93,15.56c-7.48,2.99-55.92,4.91-58.56,6.04v.65s70.96,.36,77.69,0c6.74-.36,5.82-7.83,5.82-7.83Z"/>
        <path class="cls-4" d="M74.98,165.53V28.16h-11.17s.36,127.6,0,132.7c-.36,5.1-4.73,4.19-4.73,4.19H2.5v22.1c2.64-1.13,51.07-3.05,58.56-6.04,13.65-5.46,13.93-15.56,13.93-15.56Z"/>
        <g>
          <path class="cls-2" d="M79.85,58.29c-1.02,0-1.84,.83-1.84,1.84v7.1c0,1.02,.83,1.84,1.84,1.84s1.84-.83,1.84-1.84v-7.1c0-1.02-.83-1.84-1.84-1.84Z"/>
          <path class="cls-2" d="M81.69,73.74c0-1.02-.83-1.84-1.84-1.84s-1.84,.83-1.84,1.84v30.31h.04c0,.06-.04,.12-.04,.18,0,1.02,.83,1.84,1.84,1.84s1.84-.83,1.84-1.84c0-.06-.03-.12-.04-.18h.04v-30.31Z"/>
        </g>
        <path class="cls-2" d="M2.5,186.98s70.96,.36,77.69,0c6.74-.36,5.82-7.83,5.82-7.83v-3.65c-1.82,2.68-3.85,5.14-5.62,5.9-4.44,1.91-17,3.55-23,3.55H5.74c-1.3,.54-2.39,1-3.24,1.37v.65Z"/>
        <path class="cls-6" d="M2.5,164.63H59.08s4.37,.91,4.73-4.19c.36-5.1,0-132.7,0-132.7h22.21V179.56s.91,7.46-5.82,7.83-77.69,0-77.69,0v-22.75Z"/>
      </g>
      <g>
        <g>
          <path class="cls-7" d="M97.77,25.44c0-12.67-10.27-22.94-22.94-22.94-4.64,0-8.95,1.39-12.55,3.75,6.79,10.65,18.4,28.4,24.98,38.44,6.32-4.09,10.51-11.18,10.51-19.26Z"/>
          <path class="cls-3" d="M51.9,25.44c0,12.67,10.27,22.94,22.94,22.94,4.58,0,8.84-1.36,12.43-3.68-6.58-10.04-18.19-27.79-24.98-38.44-6.25,4.1-10.38,11.15-10.38,19.18Z"/>
        </g>
        <circle class="cls-6" cx="74.84" cy="25.44" r="22.94"/>
        <path class="cls-1" d="M90.13,28.46c0,.37-.03,.72-.05,1.08,1.16-1.99,1.83-4.29,1.83-6.75,0-7.43-6.02-13.45-13.45-13.45-1.92,0-3.75,.41-5.41,1.14,9.51,.49,17.08,8.34,17.08,17.97Z"/>
      </g>
    </g>
  </g>
</svg>