<?xml version="1.0" encoding="UTF-8"?>
<svg id="_圖層_2" data-name="圖層 2" xmlns="http://www.w3.org/2000/svg" viewBox="0 0 470.44 389.1">
  <defs>
    <style>
      .cls-1 {
        fill: none;
        stroke: #231815;
        stroke-miterlimit: 10;
        stroke-width: 5px;
      }

      .cls-2 {
        fill: #e7c46e;
      }

      .cls-3 {
        fill: #75664d;
      }

      .cls-4 {
        fill: #f5e9d0;
      }

      .cls-5 {
        fill: #bba16c;
      }
    </style>
  </defs>
  <g id="_機台" data-name="機台">
    <g>
      <g>
        <path class="cls-2" d="M2.5,2.5V386.6H467.94V2.5H2.5ZM410.22,254.55H60.22v-120H410.22v120Z"/>
        <path class="cls-5" d="M35.83,35.44c58.29-10.37,132.75-19.29,219.37-19.29,58.07,0,130.78,4.01,212.75,18.14V2.5H2.5V386.6h30.57c-11.35-46.35-20.62-103.93-20.62-170.13,0-71.48,10.81-132.93,23.38-181.03Z"/>
        <g>
          <line class="cls-1" x1="2.5" y1="2.5" x2="148.56" y2="123.03"/>
          <line class="cls-1" x1="321.88" y1="266.07" x2="467.94" y2="386.6"/>
          <line class="cls-1" x1="148.56" y1="266.07" x2="2.5" y2="386.6"/>
          <line class="cls-1" x1="467.94" y1="2.5" x2="321.88" y2="123.03"/>
        </g>
        <rect class="cls-1" x="2.5" y="2.5" width="465.44" height="384.1"/>
      </g>
      <g>
        <g>
          <path class="cls-3" d="M46.41,280.6c3.39,22.63,7.82,43.2,12.57,61.4,68.17,11.26,128.86,14.56,178.01,14.56,69.52,0,129.82-6.6,178.01-14.56,3.98-18.79,7.54-39.4,10.25-61.62-50.54,9.31-115.02,17.3-190.02,17.3s-138.45-7.86-188.81-17.08Z"/>
          <path class="cls-3" d="M424.42,103.28c-2.59-19.73-5.84-38.15-9.42-55.08-68.71-12.22-129.62-15.65-178.01-15.65-70.29,0-130.71,7.24-178.01,15.65-4.29,16.44-8.33,34.83-11.57,54.91,54.09-6.77,117.26-11.69,187.81-11.69s134.8,5,189.19,11.86Z"/>
          <path class="cls-4" d="M424.42,103.28c-54.39-6.85-118.05-11.86-189.19-11.86s-133.72,4.92-187.81,11.69c-4.45,27.6-7.4,58.42-7.4,91.99,0,30.97,2.51,59.58,6.4,85.5,50.36,9.22,114.41,17.08,188.81,17.08s139.48-7.99,190.02-17.3c3.2-26.26,5.19-54.77,5.19-85.28,0-33.06-2.34-63.78-6.02-91.82Zm-14.19,151.27H60.22v-120H410.22v120Z"/>
        </g>
        <path class="cls-1" d="M414.99,342c-48.19,7.96-108.48,14.56-178.01,14.56-49.15,0-109.84-3.3-178.01-14.56-10.2-39.03-18.97-88.89-18.97-146.9s8.77-107.87,18.97-146.9c47.3-8.41,107.72-15.65,178.01-15.65,48.38,0,109.3,3.43,178.01,15.65,8.68,40.99,15.44,90.58,15.44,146.9s-6.76,105.91-15.44,146.9Z"/>
      </g>
    </g>
  </g>
</svg>