<?xml version="1.0" encoding="UTF-8"?>
<svg id="_圖層_2" data-name="圖層 2" xmlns="http://www.w3.org/2000/svg" viewBox="0 0 1080.4 1188.33">
  <defs>
    <style>
      .cls-1 {
        fill: #97d3d5;
      }

      .cls-2, .cls-3, .cls-4, .cls-5, .cls-6, .cls-7 {
        stroke-miterlimit: 10;
      }

      .cls-2, .cls-3, .cls-4, .cls-5, .cls-7 {
        stroke-width: 5px;
      }

      .cls-2, .cls-3, .cls-6 {
        stroke: #231815;
      }

      .cls-2, .cls-4, .cls-7 {
        fill: none;
      }

      .cls-8 {
        fill: #fff;
      }

      .cls-9 {
        fill: #fafafa;
      }

      .cls-10 {
        fill: #78747f;
      }

      .cls-11 {
        fill: #c5615f;
      }

      .cls-12 {
        fill: #d2ebec;
      }

      .cls-3 {
        fill: #d5cfc6;
      }

      .cls-13 {
        fill: #8a8692;
      }

      .cls-14 {
        fill: #e0e0e0;
      }

      .cls-15 {
        fill: #f0d38e;
      }

      .cls-16 {
        fill: #615e67;
      }

      .cls-4, .cls-5 {
        stroke: #301706;
      }

      .cls-5 {
        fill: #a18861;
      }

      .cls-17 {
        fill: #cbab72;
      }

      .cls-18 {
        fill: #57b2b2;
      }

      .cls-19 {
        fill: #539d9b;
      }

      .cls-20 {
        fill: #cfaf74;
      }

      .cls-21 {
        fill: #f5e9d0;
      }

      .cls-22 {
        fill: #e16c65;
      }

      .cls-23 {
        fill: #bba16c;
      }

      .cls-6 {
        fill: #e5e530;
        stroke-width: 3px;
      }

      .cls-7 {
        opacity: .53;
        stroke: #8c8c8c;
      }

      .cls-24 {
        fill: #231815;
      }

      .cls-25 {
        fill: #d89529;
      }
    </style>
  </defs>
  <g id="_機台" data-name="機台">
    <g>
      <rect class="cls-3" x="72.48" y="942.4" width="76.92" height="97.16" rx="20.57" ry="20.57"/>
      <path class="cls-7" d="M116.53,1007.09c8.33,37.18,43.38,60.3,64.62,59.7,33.67-.94,66.4-37.73,85.18-97.65"/>
      <circle class="cls-24" cx="110.94" cy="990.98" r="23.07"/>
      <path class="cls-2" d="M110.94,990.98c8.33,37.18,24.64,57.44,44.72,63.07,37.75,10.59,76.92-32.65,95.7-92.57"/>
    </g>
    <g>
      <g>
        <g>
          <path class="cls-10" d="M919.75,608.91l-32.63,3.18c-4.34,.42-8.1-2.99-8.1-7.35v-72.31c0-4.35,3.73-7.75,8.06-7.36l32.63,2.98c3.8,.35,6.72,3.54,6.72,7.36v66.16c0,3.8-2.89,6.98-6.67,7.35Z"/>
          <path class="cls-13" d="M919.7,528.04l-32.63-2.98c-4.33-.39-8.06,3.01-8.06,7.36v3.33c1.08-.35,2.26-.5,3.48-.4l36.42,3.07c4.25,.36,7.5,3.65,7.5,7.6v-10.62c0-3.82-2.91-7.01-6.72-7.36Z"/>
        </g>
        <path class="cls-16" d="M917.23,592.58l-38.22,2.7v9.45c0,4.36,3.76,7.78,8.1,7.35l32.63-3.18c3.78-.37,6.67-3.55,6.67-7.35v-16.32c0,3.8-3.98,6.98-9.19,7.35Z"/>
      </g>
      <path class="cls-2" d="M919.75,608.91l-32.63,3.18c-4.34,.42-8.1-2.99-8.1-7.35v-72.31c0-4.35,3.73-7.75,8.06-7.36l32.63,2.98c3.8,.35,6.72,3.54,6.72,7.36v66.16c0,3.8-2.89,6.98-6.67,7.35Z"/>
    </g>
    <g>
      <path class="cls-15" d="M871.36,18.9c-16.97-16.97-48.8-16.32-52.16-16.25H299.56c-2.96,0-32.41-2.79-52.16,16.25-17.81,17.17-17.91,44.71-17.61,48.14V626.94H888.97V67.04c-.11-3.8,.13-30.41-17.61-48.14Z"/>
      <path class="cls-20" d="M245.23,44.76l6,554.35c.07,6.74,5.56,12.16,12.3,12.15l613.71-.85c8.56-.01,14.5,8.52,11.53,16.54h0s-659.18,0-659.18,0V67.04c-.3-3.43,1.26-45.93,26.17-55.1l-4.25,7.9c-4.12,7.66-6.28,16.22-6.28,24.91Z"/>
      <g>
        <path class="cls-23" d="M795.13,144.03H330.93c-11.86,0-21.47-9.61-21.47-21.47l-1.54-51.06c0-5.67,2.22-10.82,5.81-14.66-9.52,2.2-16.62,10.71-16.62,20.9l1.54,53.74c0,11.86,9.61,21.47,21.47,21.47h469.86c9.79,0,18.04-6.57,20.62-15.53-3.91,4.07-9.39,6.61-15.47,6.61Z"/>
        <path class="cls-23" d="M320.76,110.86h481.23c2.79-.06,27.82-.63,43.23,13.45-1.74-3.4-3.84-6.7-6.39-9.74-14.24-16.97-40.95-16.32-43.77-16.25H327.74c-2.49,0-27.2-2.79-43.77,16.25-2.67,3.07-4.86,6.47-6.67,10.01,17.3-16.22,40.98-13.71,43.47-13.71Z"/>
        <g>
          <path class="cls-2" d="M847.8,133.68c-2.17-7.22-5.57-14.77-10.94-21.17-14.24-16.97-40.95-16.32-43.77-16.25H325.76c-2.49,0-27.2-2.79-43.77,16.25-5.43,6.24-8.89,13.85-11.1,21.17"/>
          <g>
            <g>
              <path class="cls-12" d="M348.23,57.59c20.34,5,381.83,68.56,448.01,85.33,9.93-1.88,17.45-10.6,17.45-21.08l-1.54-51.06c0-11.86-9.61-21.47-21.47-21.47H326.48c-7.32,0-13.77,3.67-17.64,9.25,11.78-2.45,26.69-4.1,39.39-.98Z"/>
              <path class="cls-1" d="M306.56,121.84c0,11.86,9.61,21.47,21.47,21.47h464.19c1.38,0,2.72-.14,4.02-.39-66.18-16.77-427.66-80.33-448.01-85.33-12.7-3.12-27.62-1.46-39.39,.98-2.41,3.47-3.82,7.67-3.82,12.21l1.54,51.06Z"/>
            </g>
            <g>
              <path class="cls-2" d="M792.22,143.3H328.02c-11.86,0-21.47-9.61-21.47-21.47l-1.54-51.06c0-11.86,9.61-21.47,21.47-21.47h464.19c11.86,0,21.47,9.61,21.47,21.47l1.54,51.06c0,11.86-9.61,21.47-21.47,21.47Z"/>
              <path class="cls-8" d="M803.68,78.39s0-.05,0-.08c0-11.3-9.16-20.46-20.46-20.46-1.53,0-3.01,.18-4.44,.5,10.52,3.47,19.34,10.67,24.89,20.05Z"/>
            </g>
          </g>
        </g>
      </g>
      <g>
        <path class="cls-9" d="M299.5,32.14c-.32,0-.64-.02-.96-.02-24.12,0-44.04,17.94-47.18,41.19,9.51-19.66,26.94-34.75,48.14-41.17Z"/>
        <path class="cls-9" d="M813.35,32.14c.32,0,.64-.02,.96-.02,24.12,0,44.04,17.94,47.18,41.19-9.51-19.66-26.94-34.75-48.14-41.17Z"/>
      </g>
      <path class="cls-2" d="M870.67,18.9c-16.97-16.97-48.8-16.32-52.16-16.25H298.86c-2.96,0-32.41-2.79-52.16,16.25-17.81,17.17-17.91,44.71-17.61,48.14V626.94H888.28V67.04c-.11-3.8,.13-30.41-17.61-48.14Z"/>
    </g>
    <g>
      <polygon class="cls-6" points="840.39 377.83 840.39 363.62 812.55 385.97 840.39 408.33 840.39 394.11 865.57 394.11 865.57 377.83 840.39 377.83"/>
      <polygon class="cls-6" points="278.19 394.11 278.19 408.33 306.03 385.97 278.19 363.62 278.19 377.83 253 377.83 253 394.11 278.19 394.11"/>
    </g>
    <g>
      <g>
        <polygon class="cls-15" points="206.26 754.39 912.32 754.39 888.84 626.94 229.66 626.94 206.26 754.39"/>
        <polygon class="cls-17" points="229.66 818.12 888.84 818.12 912.32 754.39 206.26 754.39 229.66 818.12"/>
      </g>
      <g>
        <polygon class="cls-2" points="888.84 626.94 229.66 626.94 206.26 754.39 229.66 818.12 888.84 818.12 912.32 754.39 888.84 626.94"/>
        <line class="cls-2" x1="206.26" y1="754.39" x2="912.32" y2="754.39"/>
      </g>
    </g>
    <g>
      <g>
        <path class="cls-23" d="M315.53,730.65c-23.71,0-42.93-19.22-42.93-42.93,0-10.9,4.07-20.84,10.76-28.41-10.34,7.84-17.02,20.25-17.02,34.23,0,23.71,19.22,42.93,42.93,42.93,12.81,0,24.31-5.62,32.17-14.52-7.2,5.46-16.18,8.7-25.91,8.7Z"/>
        <g>
          <g>
            <circle class="cls-22" cx="316.31" cy="687.8" r="42.93"/>
            <path class="cls-11" d="M326.71,720.89c-22.29,0-40.36-18.07-40.36-40.36,0-14.45,7.6-27.12,19.02-34.25-18.41,4.84-31.99,21.59-31.99,41.52,0,23.71,19.22,42.93,42.93,42.93,14.58,0,27.45-7.27,35.21-18.38-6.85,5.34-15.45,8.54-24.81,8.54Z"/>
          </g>
          <circle class="cls-2" cx="316.31" cy="687.8" r="42.93"/>
        </g>
      </g>
      <g>
        <path class="cls-23" d="M432.7,730.65c-23.71,0-42.93-19.22-42.93-42.93,0-10.9,4.07-20.84,10.76-28.41-10.34,7.84-17.02,20.25-17.02,34.23,0,23.71,19.22,42.93,42.93,42.93,12.81,0,24.31-5.62,32.17-14.52-7.2,5.46-16.18,8.7-25.91,8.7Z"/>
        <g>
          <g>
            <circle class="cls-18" cx="433.48" cy="687.8" r="42.93"/>
            <path class="cls-19" d="M443.88,720.89c-22.29,0-40.36-18.07-40.36-40.36,0-14.45,7.6-27.12,19.02-34.25-18.41,4.84-31.99,21.59-31.99,41.52,0,23.71,19.22,42.93,42.93,42.93,14.58,0,27.45-7.27,35.21-18.38-6.85,5.34-15.45,8.54-24.81,8.54Z"/>
          </g>
          <circle class="cls-2" cx="433.48" cy="687.8" r="42.93"/>
        </g>
      </g>
      <g>
        <path class="cls-23" d="M710.31,706.23c-.15,6.6,.54,11.96,4.85,11.96h130.47c1.28,0,5.38-3.8,5.68-4.7l.93,3.69c.07,5.34-1.19,8.48-4.16,8.48l-135.93-.76c-1.65-.07-4.99-4.56-5.06-7.37-.05-1.97,.16-3.94,.58-5.86l2.63-5.43Z"/>
        <g>
          <path class="cls-8" d="M846.66,717.74h-130.47c-4.31,0-6.39-10.88-6.23-17.49l7.26-25.98c.32-2.35,3.51-4.16,7.34-4.16h112.24c3.83,0,7.02,1.81,7.34,4.16l6.73,26.93c.06,6.05-1.36,16.53-4.21,16.53Z"/>
          <path class="cls-14" d="M717.21,674.27l-7.26,25.98c-.15,6.6,1.92,17.49,6.23,17.49h130.47c2.85,0,4.27-10.49,4.21-16.53l-1.23,6.55c-1.36,1.11-3.16,1.44-3.16,1.44,0,0-110.79-.31-120.19-.17-7.16,.1-8.87-15.09-8.87-15.09,0,0,4.29-11.74,5.03-17.11,.47-3.35,2.56-5.54,4.06-6.71h-1.95c-3.83,0-7.02,1.81-7.34,4.16Z"/>
        </g>
        <path class="cls-2" d="M846.66,717.74h-130.47c-4.31,0-6.39-10.88-6.23-17.49l7.26-25.98c.32-2.35,3.51-4.16,7.34-4.16h112.24c3.83,0,7.02,1.81,7.34,4.16l6.73,26.93c.06,6.05-1.36,16.53-4.21,16.53Z"/>
      </g>
    </g>
    <g>
      <rect class="cls-5" x="240.61" y="768.17" width="79.16" height="8.57" rx="4.1" ry="4.1"/>
      <rect class="cls-5" x="245.61" y="783.23" width="79.16" height="8.57" rx="4.1" ry="4.1"/>
      <rect class="cls-5" x="249.61" y="799.03" width="79.16" height="8.57" rx="4.1" ry="4.1"/>
    </g>
    <g>
      <g>
        <path class="cls-15" d="M229.96,818.12v328.51c0,18.83,15.26,34.09,34.09,34.09H855.05c18.83,0,34.09-15.26,34.09-34.09v-328.51H229.96Zm542.9,199.17c0,21.24-17.22,38.46-38.46,38.46H384.7c-21.24,0-38.46-17.22-38.46-38.46v-35.74c0-21.24,17.22-38.46,38.46-38.46h349.71c21.24,0,38.46,17.22,38.46,38.46v35.74Z"/>
        <rect class="cls-20" x="229.96" y="818.12" width="659.17" height="23.48"/>
        <path class="cls-25" d="M229.96,1146.63c0,18.83,15.26,34.09,34.09,34.09H855.05c18.83,0,34.09-15.26,34.09-34.09v-23.88H229.96v23.88Z"/>
        <path class="cls-4" d="M264.05,1180.72H855.05c18.83,0,34.09-15.26,34.09-34.09v-328.51H229.96v328.51c0,18.83,15.26,34.09,34.09,34.09Z"/>
      </g>
      <g>
        <path class="cls-23" d="M747.63,1066.74H371.09c-21.24,0-38.46-17.22-38.46-38.46v-60.6c0-8.35,2.67-16.07,7.19-22.38-8.1,7.05-13.22,17.43-13.22,29.01v60.6c0,21.24,17.22,38.46,38.46,38.46h376.54c12.89,0,24.3-6.35,31.28-16.09-6.76,5.88-15.58,9.45-25.24,9.45Z"/>
        <path class="cls-15" d="M747.82,930.66H371.28c-21.24,0-38.46,17.22-38.46,38.46v60.6c0,21.24,17.22,38.46,38.46,38.46h376.54c21.24,0,38.46-17.22,38.46-38.46v-60.6c0-21.24-17.22-38.46-38.46-38.46Zm25.05,86.63c0,21.24-17.22,38.46-38.46,38.46H384.7c-21.24,0-38.46-17.22-38.46-38.46v-35.74c0-21.24,17.22-38.46,38.46-38.46h349.71c21.24,0,38.46,17.22,38.46,38.46v35.74Z"/>
        <path class="cls-20" d="M755.12,1060.74H378.58c-21.24,0-38.46-17.22-38.46-38.46v-60.6c0-8.8,2.97-16.91,7.94-23.4-9.26,7.02-15.24,18.14-15.24,30.66v60.6c0,21.24,17.22,38.46,38.46,38.46h376.54c12.44,0,23.49-5.91,30.52-15.07-6.45,4.89-14.5,7.8-23.22,7.8Z"/>
        <path class="cls-21" d="M747.82,930.66H371.28c-11.86,0-22.47,5.37-29.52,13.81,6.6-5.34,15-8.54,24.15-8.54h376.54c21.24,0,38.46,17.22,38.46,38.46v60.6c0,9.38-3.36,17.97-8.94,24.65,8.72-7.05,14.31-17.83,14.31-29.92v-60.6c0-21.24-17.22-38.46-38.46-38.46Z"/>
        <path class="cls-2" d="M747.82,930.66H371.28c-21.24,0-38.46,17.22-38.46,38.46v60.6c0,21.24,17.22,38.46,38.46,38.46h376.54c21.24,0,38.46-17.22,38.46-38.46v-60.6c0-21.24-17.22-38.46-38.46-38.46Zm25.05,86.63c0,21.24-17.22,38.46-38.46,38.46H384.7c-21.24,0-38.46-17.22-38.46-38.46v-35.74c0-21.24,17.22-38.46,38.46-38.46h349.71c21.24,0,38.46,17.22,38.46,38.46v35.74Z"/>
      </g>
    </g>
    <path class="cls-24" d="M115.26,1188.22H870.72c10.22,0,20.48,.26,30.7,0,.43-.01,.87,0,1.3,0,9.65,0,9.67-15,0-15H147.26c-10.22,0-20.48-.26-30.7,0-.43,.01-.87,0-1.3,0-9.65,0-9.67,15,0,15h0Z"/>
    <path class="cls-24" d="M7.24,1188.22H62.25c9.65,0,9.67-15,0-15H7.24c-9.65,0-9.67,15,0,15h0Z"/>
    <path class="cls-24" d="M934.77,1188.22h97.47c9.65,0,9.67-15,0-15h-97.47c-9.65,0-9.67,15,0,15h0Z"/>
    <path class="cls-24" d="M1058.87,1188.22h14.29c9.65,0,9.67-15,0-15h-14.29c-9.65,0-9.67,15,0,15h0Z"/>
  </g>
</svg>