<svg width="361" height="371" viewBox="0 0 361 371" fill="none" xmlns="http://www.w3.org/2000/svg">
<g clip-path="url(#clip0_2080_13286)">
<path d="M97.3937 370.166C47.8667 370.166 7.7171 346.984 7.7171 318.388C7.7171 289.791 47.8667 266.609 97.3937 266.609C146.921 266.609 187.07 289.791 187.07 318.388C187.07 346.984 146.921 370.166 97.3937 370.166Z" fill="#E0E0E0"/>
<path d="M231.365 345.308L254.02 332.233L272.515 342.896L269.438 334.016L287.898 337.582L266.362 325.1L335.201 285.384C335.83 285.174 336.18 284.51 335.97 283.881C335.865 283.531 335.586 283.251 335.201 283.112L172.629 189.589C171.406 188.96 169.937 188.96 168.679 189.589L65.0526 249.304C64.4232 249.513 64.0736 250.178 64.2834 250.807C64.3883 251.157 64.668 251.436 65.0526 251.576L227.414 345.308C228.638 345.938 230.106 345.938 231.365 345.308Z" fill="#E0E0E0"/>
<path d="M208.745 79.0392V72.8859C208.85 72.1867 209.304 71.5574 209.968 71.2777L246.923 49.9161C248.706 49.0071 250.838 49.0071 252.621 49.9161L358.835 111.239C359.499 111.519 359.954 112.148 360.059 112.882V119.035C359.954 119.769 359.499 120.399 358.835 120.713L321.88 142.04C320.097 142.949 317.965 142.949 316.182 142.04L209.968 80.6824C209.304 80.4027 208.85 79.7734 208.745 79.0392Z" fill="#F0F0F0"/>
<path d="M358.836 114.525L321.881 135.852C320.098 136.761 317.966 136.761 316.182 135.852L209.969 74.5291C208.396 73.5852 208.396 72.1517 209.969 71.2427L246.923 49.9161C248.707 49.0071 250.839 49.0071 252.622 49.9161L358.836 111.239C360.409 112.148 360.409 113.616 358.836 114.525Z" fill="#FBFBFC"/>
<path d="M319.049 136.552V142.705C320.028 142.705 321.006 142.495 321.915 142.006L358.835 120.714C359.499 120.434 359.954 119.805 360.059 119.071V112.918C360.059 112.638 359.954 112.393 359.779 112.148C360.233 112.953 359.884 113.862 358.835 114.491L321.88 135.817C321.006 136.307 320.028 136.552 319.049 136.552Z" fill="#E0E0E0"/>
<path d="M260.629 1.32031L229.408 19.4304V79.1799L260.629 61.0348V1.32031Z" fill="#E0E0E0"/>
<path d="M230.422 20.4459L260.628 3C262.481 4.95785 264.894 6.28639 267.551 6.81082L237.589 24.1868C237.589 24.1868 235.666 23.7323 230.422 20.4459Z" fill="white"/>
<path d="M240.49 24.0452C238.672 24.9542 236.504 24.9542 234.686 24.0452L229.617 21.1084C228.009 20.1645 228.009 18.6961 229.617 17.7521L259.369 0.585938L260.628 1.32013L231.365 18.3115C230.805 18.4863 230.526 19.1156 230.701 19.675C230.805 19.9896 231.05 20.2344 231.365 20.3393L236.12 23.0313C237.203 23.5907 238.497 23.5907 239.616 23.0313L268.809 6.03995L270.242 6.87903L240.49 24.0802V24.0452Z" fill="#455963"/>
<path d="M270.242 6.87891V66.5934L240.49 83.7945C238.672 84.7035 236.504 84.7035 234.686 83.7945L229.617 80.8577C228.952 80.5431 228.498 79.9138 228.428 79.1796V19.4301C228.498 20.1643 228.952 20.8286 229.617 21.1083L234.686 24.0451C236.504 24.9541 238.672 24.9541 240.49 24.0451L270.242 6.87891Z" fill="#37474E"/>
<path d="M237.59 24.7439C236.576 24.7439 235.597 24.5341 234.688 24.0446L229.619 21.1078C228.954 20.7932 228.5 20.1639 228.43 19.4297V79.1791C228.5 79.9133 228.954 80.5426 229.619 80.8573L234.688 83.7941C235.597 84.2486 236.576 84.4933 237.59 84.4933V24.7439Z" fill="#455963"/>
<path d="M273.391 8.66016L242.17 26.8052V86.5197L273.391 68.4096V8.66016Z" fill="#EBEBEB"/>
<path d="M243.183 27.8209L273.39 10.375C275.243 12.3329 277.655 13.6614 280.277 14.1858L250.315 31.5618C250.315 31.5618 248.392 31.1073 243.148 27.8209H243.183Z" fill="white"/>
<path d="M253.252 31.4202C251.434 32.3292 249.266 32.3292 247.448 31.4202L242.378 28.4834C240.77 27.5395 240.77 26.0711 242.378 25.1271L272.131 7.96094L273.389 8.69513L244.127 25.6865C243.567 25.8613 243.287 26.4906 243.462 27.05C243.567 27.3646 243.812 27.6094 244.127 27.7143L248.881 30.4063C249.965 30.9657 251.259 30.9657 252.378 30.4063L281.57 13.415L283.004 14.2191L253.252 31.4202Z" fill="#C9AA66"/>
<path d="M283.004 14.2227V73.9721L253.252 91.1383C251.434 92.0473 249.266 92.0473 247.448 91.1383L242.378 88.2015C241.714 87.8868 241.26 87.2575 241.19 86.5233V26.8088C241.26 27.543 241.714 28.1723 242.378 28.487L247.448 31.4238C249.266 32.3677 251.434 32.3677 253.252 31.4238L283.004 14.2227Z" fill="#F9E4D3"/>
<path d="M250.352 32.1228C249.373 32.1228 248.394 31.913 247.485 31.4235L242.345 28.4868C241.681 28.1721 241.227 27.5428 241.157 26.8086V86.5231C241.227 87.2573 241.681 87.8866 242.345 88.2012L247.415 91.138C248.289 91.5925 249.268 91.8372 250.282 91.8372V32.1228H250.352Z" fill="#C9AA66"/>
<path d="M283.773 47.2578V50.2995L279.159 52.6419V49.3905L283.773 47.2578Z" fill="#E0E0E0"/>
<path d="M279.79 50.4753L285.839 47.4336L292.621 51.3493L284.79 55.6845L279.79 50.4753Z" fill="white"/>
<path d="M289.02 56.7334V82.0457C288.985 83.0945 288.425 84.0035 287.551 84.5629L263.393 98.5126C263.043 98.7224 262.623 98.8272 262.204 98.8622L284.789 57.153C285.209 57.153 285.593 57.0131 285.943 56.8034L287.551 55.8594C288.355 55.4049 288.985 55.7895 288.985 56.6985L289.02 56.7334Z" fill="#A28A58"/>
<path d="M283.041 56.8388L279.335 52.7483L276.048 50.8604C275.769 50.3709 275.384 50.0213 275.594 49.6367L253.219 90.8915C253.009 91.346 252.974 92.22 253.498 92.5346L260.491 98.5131C261.015 98.7928 261.609 98.8977 262.204 98.8627L284.754 57.1884C284.16 57.2584 283.565 57.1185 283.041 56.8388Z" fill="#C9AA66"/>
<path d="M276.084 49.1831C275.28 49.6376 275.489 50.1271 276.084 50.8612L283.076 56.8397C283.985 57.2942 285.034 57.2942 285.943 56.8397L292.061 53.3086C292.865 52.8541 293.005 52.1898 292.376 51.8402C291.537 51.4906 290.593 51.5605 289.824 52.015L284.999 54.8818C284.684 55.0217 284.335 55.0217 284.055 54.8818L279.685 50.4067C279.685 50.4067 279.44 50.162 279.51 50.0222C279.51 49.9522 279.615 49.8823 279.685 49.8474L284.579 47.3301C285.384 46.8756 285.523 46.2113 284.894 45.8617C284.055 45.5121 283.111 45.582 282.342 46.0365L276.154 49.253L276.084 49.1831Z" fill="#C9AA66"/>
<path d="M319.75 23.2773L284.683 43.66V110.751L319.75 90.3687V23.2773Z" fill="#E0E0E0"/>
<path d="M285.837 44.7775L319.75 25.1641C321.813 27.3666 324.54 28.87 327.512 29.4294L293.879 48.938C293.879 48.938 291.711 48.4485 285.837 44.7775Z" fill="white"/>
<path d="M297.128 48.8337C295.065 49.8826 292.653 49.8826 290.59 48.8337L284.891 45.5473C283.073 44.4985 283.073 42.8203 284.891 41.7365L318.349 22.4727L319.783 23.2768L286.884 42.4008C286.255 42.6106 285.94 43.2748 286.15 43.9041C286.255 44.2538 286.534 44.5335 286.884 44.6383L292.198 47.68C293.422 48.3093 294.89 48.3093 296.114 47.68L328.978 28.6259L330.586 29.5699L297.163 48.8337H297.128Z" fill="#455963"/>
<path d="M330.551 29.5352V96.6265L297.127 115.96C295.065 117.009 292.652 117.009 290.59 115.96L284.891 112.674C284.122 112.324 283.632 111.59 283.562 110.786V43.6946C283.632 44.5337 284.157 45.2679 284.891 45.5825L290.59 48.9039C292.652 49.9528 295.065 49.9528 297.127 48.9039L330.551 29.5352Z" fill="#37474E"/>
<path d="M293.879 49.6034C292.76 49.6034 291.606 49.3587 290.627 48.8343L284.929 45.5129C284.16 45.1633 283.67 44.4291 283.6 43.625V110.716C283.67 111.555 284.195 112.29 284.929 112.604L290.627 115.891C291.641 116.415 292.76 116.695 293.879 116.66V49.6034Z" fill="#455963"/>
<path d="M334.082 31.5625L299.05 51.9451V119.037L334.082 98.6539V31.5625Z" fill="#EBEBEB"/>
<path d="M300.17 53.0277L334.117 33.4492C336.18 35.6518 338.907 37.1552 341.879 37.7145L308.211 57.2231C308.211 57.2231 306.043 56.7337 300.17 53.0277Z" fill="white"/>
<path d="M311.464 57.1189C309.401 58.1677 306.988 58.1677 304.926 57.1189L299.227 53.8325C297.409 52.7836 297.409 51.1055 299.227 50.0217L332.685 30.7578L334.119 31.5619L301.22 50.6859C300.591 50.8957 300.276 51.56 300.486 52.1893C300.591 52.5389 300.87 52.8186 301.22 52.9235L306.569 55.9652C307.793 56.5945 309.261 56.5945 310.485 55.9652L343.314 36.8761L344.922 37.8201L311.499 57.0839L311.464 57.1189Z" fill="#C9A861"/>
<path d="M344.922 37.8203V104.912L311.499 124.211C309.436 125.259 307.023 125.259 304.961 124.211L299.262 120.924C298.493 120.575 298.003 119.84 297.933 119.036V51.9448C298.003 52.7839 298.528 53.5181 299.262 53.8327L304.961 57.1191C307.023 58.168 309.436 58.168 311.499 57.1191L344.922 37.8203Z" fill="#F9E4D3"/>
<path opacity="0.1" d="M308.211 57.8888C307.092 57.8888 305.938 57.6441 304.96 57.1196L299.261 53.8332C298.492 53.4836 298.002 52.7494 297.932 51.9453V119.037C298.002 119.876 298.527 120.61 299.261 120.925L304.96 124.211C305.973 124.735 307.092 125.015 308.211 124.98V57.8888Z" fill="#040000"/>
<path d="M317.195 288.808L314.783 287.41L316.531 286.641C316.531 286.641 317.93 286.99 317.93 287.095C317.93 287.41 317.895 287.724 317.825 288.039L317.195 288.808Z" fill="#F9E4D3"/>
<path opacity="0.5" d="M317.195 288.808L314.783 287.41L316.531 286.641C316.531 286.641 317.93 286.99 317.93 287.095C317.93 287.41 317.895 287.724 317.825 288.039L317.195 288.808Z" fill="#040000"/>
<path d="M225.561 334.959C227.763 336.077 230.385 336.077 232.588 334.959L311.566 289.334L193.326 221.054L190.564 219.445L111.586 265.07C109.698 266.189 109.698 268.007 111.586 269.126L225.561 334.924V334.959Z" fill="#F9E4D3"/>
<path d="M255.208 248.812L282.793 264.685L300.623 254.406L321.355 266.398V281.327C321.355 283.145 319.328 285.732 318.593 285.312C317.23 285.627 315.901 286.117 314.643 286.711C312.58 287.9 310.657 289.298 308.944 290.941L245.664 254.406L255.243 248.847L255.208 248.812Z" fill="#F9E4D3"/>
<path opacity="0.15" d="M255.208 248.812L282.793 264.685L300.623 254.406L321.355 266.398V281.327C321.355 283.145 319.328 285.732 318.593 285.312C317.23 285.627 315.901 286.117 314.643 286.711C312.58 287.9 310.657 289.298 308.944 290.941L245.664 254.406L255.243 248.847L255.208 248.812Z" fill="#040000"/>
<path opacity="0.4" d="M321.355 281.291C321.355 283.005 319.572 285.347 318.733 285.312H318.559C318.559 285.312 316.041 283.739 315.797 283.704L313.419 275.837C313.419 275.837 313.559 266.642 313.419 266.642C313.874 265.314 314.398 264.02 314.992 262.762L321.355 266.433V281.326V281.291Z" fill="#040000"/>
<path d="M232.622 334.96L237.377 332.198L308.909 290.873C308.943 289.93 309.293 289.055 309.852 288.321C310.692 287.203 311.775 286.259 312.964 285.559C313.978 284.93 315.132 284.58 316.355 284.51C317.159 284.51 317.929 284.755 318.593 285.245C319.502 283.427 319.921 281.399 319.886 279.371H322.648C322.648 283.112 321.425 286.853 319.886 287.727L318.523 288.531C317.754 288.986 317.124 289.021 317.124 288.601V287.867C317.124 287.063 315.901 287.098 314.363 287.972C312.824 288.846 311.601 290.209 311.601 291.048V291.782C311.601 292.202 310.552 293.146 309.258 293.88L240.104 333.806L232.622 338.107C231.538 338.666 230.35 338.946 229.126 338.946V335.834C230.35 335.834 231.538 335.589 232.622 335.03V334.96Z" fill="#F9E4D3"/>
<path opacity="0.3" d="M232.622 334.96L237.377 332.198L308.909 290.873C308.943 289.93 309.293 289.055 309.852 288.321C310.692 287.203 311.775 286.259 312.964 285.559C313.978 284.93 315.132 284.58 316.355 284.51C317.159 284.51 317.929 284.755 318.593 285.245C319.502 283.427 319.921 281.399 319.886 279.371H322.648C322.648 283.112 321.425 286.853 319.886 287.727L318.523 288.531C317.754 288.986 317.124 289.021 317.124 288.601V287.867C317.124 287.063 315.901 287.098 314.363 287.972C312.824 288.846 311.601 290.209 311.601 291.048V291.782C311.601 292.202 310.552 293.146 309.258 293.88L240.104 333.806L232.622 338.107C231.538 338.666 230.35 338.946 229.126 338.946V335.834C230.35 335.834 231.538 335.589 232.622 335.03V334.96Z" fill="#040000"/>
<path d="M110.186 267.098V270.279C110.256 271.153 110.78 271.922 111.584 272.272H111.654L218.182 333.77L225.664 338.07C226.748 338.629 227.936 338.909 229.16 338.909V335.797C227.936 335.797 226.713 335.553 225.629 334.958L220.874 332.196L111.689 269.16C110.85 268.811 110.256 268.042 110.221 267.133L110.186 267.098Z" fill="#F9E4D3"/>
<path opacity="0.2" d="M110.186 267.098V270.279C110.256 271.153 110.78 271.922 111.584 272.272H111.654L218.182 333.77L225.664 338.07C226.748 338.629 227.936 338.909 229.16 338.909V335.797C227.936 335.797 226.713 335.553 225.629 334.958L220.874 332.196L111.689 269.16C110.85 268.811 110.256 268.042 110.221 267.133L110.186 267.098Z" fill="#040000"/>
<path d="M229.093 314.717V332.967C229.897 332.967 230.736 332.792 231.435 332.408L240.106 327.408L306.113 289.3V270.246L229.093 314.717Z" fill="#EBEBEB"/>
<path opacity="0.15" d="M269.367 302.058L250.872 312.722C250.872 312.722 252.76 310.729 260.102 306.533C267.2 302.478 269.332 302.023 269.332 302.023L269.367 302.058Z" fill="#040000"/>
<path d="M113.546 250.316V264.371C113.65 266.014 114.49 267.518 115.888 268.427L218.116 327.407L226.751 332.406C227.486 332.791 228.29 333.001 229.094 332.966V316.639L113.546 250.316Z" fill="#F5F5F5"/>
<path d="M309.958 268.079V284.231C309.958 284.231 310.133 284.127 310.203 284.092C311.217 283.462 312.37 283.078 313.559 283.043C314.363 283.043 315.132 283.287 315.762 283.777V264.758L309.923 268.079H309.958Z" fill="#37474E"/>
<path d="M306.111 289.335C306.146 288.391 306.495 287.517 307.055 286.782C307.335 286.398 307.649 286.013 307.999 285.664L308.348 285.349L308.768 284.964L309.118 284.685C309.362 284.51 309.642 284.335 309.887 284.16V268.043L306.076 270.281V289.3L306.111 289.335Z" fill="#E0E0E0"/>
<path d="M193.362 198.818L311.602 267.098V268.671C311.602 269.545 312.825 269.895 314.364 269.021C315.902 268.147 317.126 267.028 317.126 265.525L317.266 264.022L196.788 194.483L196.298 194.203C196.159 194.413 196.089 194.693 196.089 194.937V195.672C196.089 196.511 194.865 197.909 193.362 198.818Z" fill="#F9E4D3"/>
<path opacity="0.1" d="M193.362 198.818L311.602 267.098V268.671C311.602 269.545 312.825 269.895 314.364 269.021C315.902 268.147 317.126 267.028 317.126 265.525L317.266 264.022L196.788 194.483L196.298 194.203C196.159 194.413 196.089 194.693 196.089 194.937V195.672C196.089 196.511 194.865 197.909 193.362 198.818Z" fill="#040000"/>
<path d="M232.622 312.687L309.852 268.076C310.796 267.552 311.74 267.132 312.09 267.342L311.6 267.062L193.36 198.782L191.962 197.978C191.192 197.523 189.549 197.768 188.221 198.537L111.62 242.799C109.732 243.918 109.732 245.771 111.62 246.854L225.525 312.652C227.727 313.771 230.35 313.771 232.552 312.652L232.622 312.687Z" fill="#F9E4D3"/>
<path d="M196.262 194.168L196.751 194.448L317.264 263.987C317.264 263.987 317.404 263.742 317.508 263.672L317.928 263.427L318.802 262.938L319.851 262.343C320.27 262.064 320.83 262.099 321.214 262.483C321.284 262.483 321.319 262.553 321.354 262.623C321.494 262.763 321.634 262.938 321.704 263.113C321.844 263.322 321.949 263.567 322.019 263.777C322.123 264.022 322.193 264.301 322.263 264.581C322.333 264.861 322.368 265.175 322.438 265.525C322.473 265.7 322.508 265.91 322.508 266.084V266.539C322.508 266.888 322.543 267.238 322.543 267.588V264.196C322.543 262.309 320.97 259.896 319.012 258.777L205.037 192.98C203.079 191.861 200.282 191.651 198.779 192.525L197.345 193.364C197.345 193.364 196.996 193.574 196.751 193.714C196.541 193.819 196.366 193.959 196.262 194.168Z" fill="#F9E4D3"/>
<path d="M232.587 312.759L237.342 309.997L292.267 278.251L309.852 268.078C311.111 267.343 312.125 267.134 312.195 267.448C312.195 267.448 312.195 267.448 312.195 267.483V268.287C312.195 269.161 313.419 269.161 314.957 268.287C316.495 267.413 317.09 266.399 317.124 265.525V264.651C317.124 264.267 317.229 263.882 317.544 263.637L317.964 263.393L318.838 262.903L319.921 262.379C320.341 262.099 320.9 262.134 321.285 262.519C321.355 262.519 321.39 262.589 321.425 262.659C321.53 262.763 321.6 262.868 321.67 262.973C321.704 263.043 321.774 263.078 321.809 263.148C321.949 263.358 322.054 263.602 322.124 263.812C322.229 264.057 322.299 264.337 322.369 264.616C322.439 264.896 322.474 265.211 322.544 265.56C322.579 265.735 322.613 265.945 322.613 266.12V266.574C322.613 266.924 322.648 267.273 322.648 267.623V279.475H319.956V266.679L319.886 265.98C319.886 265.98 319.886 265.945 319.886 265.91C319.642 268.078 317.579 270 315.796 271.014C314.817 271.644 313.663 271.993 312.51 272.028C311.636 272.028 310.761 271.714 310.097 271.119L309.852 271.259L309.363 271.539L240.209 311.465L232.727 315.765H232.692C231.608 316.325 230.42 316.569 229.231 316.569V313.458C230.42 313.493 231.643 313.248 232.727 312.724L232.587 312.759Z" fill="#F9E4D3"/>
<path opacity="0.3" d="M232.587 312.759L237.342 309.997L292.267 278.251L309.852 268.078C311.111 267.343 312.125 267.134 312.195 267.448C312.195 267.448 312.195 267.448 312.195 267.483V268.287C312.195 269.161 313.419 269.161 314.957 268.287C316.495 267.413 317.09 266.399 317.124 265.525V264.651C317.124 264.267 317.229 263.882 317.544 263.637L317.964 263.393L318.838 262.903L319.921 262.379C320.341 262.099 320.9 262.134 321.285 262.519C321.355 262.519 321.39 262.589 321.425 262.659C321.53 262.763 321.6 262.868 321.67 262.973C321.704 263.043 321.774 263.078 321.809 263.148C321.949 263.358 322.054 263.602 322.124 263.812C322.229 264.057 322.299 264.337 322.369 264.616C322.439 264.896 322.474 265.211 322.544 265.56C322.579 265.735 322.613 265.945 322.613 266.12V266.574C322.613 266.924 322.648 267.273 322.648 267.623V279.475H319.956V266.679L319.886 265.98C319.886 265.98 319.886 265.945 319.886 265.91C319.642 268.078 317.579 270 315.796 271.014C314.817 271.644 313.663 271.993 312.51 272.028C311.636 272.028 310.761 271.714 310.097 271.119L309.852 271.259L309.363 271.539L240.209 311.465L232.727 315.765H232.692C231.608 316.325 230.42 316.569 229.231 316.569V313.458C230.42 313.493 231.643 313.248 232.727 312.724L232.587 312.759Z" fill="#040000"/>
<path opacity="0.1" d="M188.256 198.573C189.55 197.839 191.228 197.559 191.997 198.014L193.361 198.818C194.899 197.909 196.088 196.51 196.088 195.636V194.867C196.088 194.622 196.158 194.343 196.298 194.133C196.402 193.923 196.542 193.748 196.717 193.643C196.997 193.504 197.242 193.364 197.311 193.294L198.745 192.455C200.283 191.581 203.08 191.79 205.003 192.909L319.083 258.707L319.223 258.777L238.706 305.276C237.238 306.01 235.49 306.01 234.021 305.276L119.277 238.394L188.256 198.573Z" fill="#040000"/>
<path d="M110.186 244.793V247.974C110.256 248.848 110.78 249.617 111.584 249.967H111.654L218.182 311.465L225.664 315.765C226.748 316.324 227.936 316.604 229.16 316.569V313.457C227.936 313.457 226.713 313.213 225.629 312.618L220.874 309.856L111.689 246.821C110.85 246.471 110.256 245.667 110.221 244.758L110.186 244.793Z" fill="#F9E4D3"/>
<path opacity="0.2" d="M110.186 244.793V247.974C110.256 248.848 110.78 249.617 111.584 249.967H111.654L218.182 311.465L225.664 315.765C226.748 316.324 227.936 316.604 229.16 316.569V313.457C227.936 313.457 226.713 313.213 225.629 312.618L220.874 309.856L111.689 246.821C110.85 246.471 110.256 245.667 110.221 244.758L110.186 244.793Z" fill="#040000"/>
<path d="M245.139 298.565L242.097 296.817C242.936 296.537 243.81 296.467 244.649 296.642C245.453 297.027 245.139 298.565 245.139 298.565Z" fill="#040000"/>
<path d="M247.238 296.639C245.874 295.136 243.532 295.031 242.029 296.395C241.959 296.465 241.889 296.535 241.784 296.639C238.812 299.366 238.672 302.058 237.449 302.023C236.225 301.989 236.19 280.277 236.19 280.277L247.867 291.15L247.203 296.639H247.238Z" fill="#040000"/>
<path d="M124.768 217.769L124.593 217.664L126.481 216.581L207.103 170.012L324.609 246.053C326.497 247.172 326.916 248.78 325.378 249.654L322.616 251.228L247.239 294.755L246.714 294.37L124.768 217.734V217.769Z" fill="#455963"/>
<path d="M237.134 270.001L242.973 268.777V292.167C239.442 293.67 237.204 295.068 236.854 298.005L237.134 270.001Z" fill="#F9E4D3"/>
<path d="M245.593 292.48L320.236 249.373C321.634 248.464 322.508 246.96 322.578 245.317V222.277L247.201 266.154C247.201 266.154 246.292 269.406 243.635 270.454C240.978 271.503 243.005 272.517 243.005 272.517V292.166C245.313 291.921 245.593 292.48 245.593 292.48Z" fill="#EBEBEB"/>
<path d="M238.708 269.196C239.477 268.742 240.106 268.707 240.106 269.126V269.86C240.106 270.665 241.33 270.63 242.868 269.756C244.407 268.882 245.63 267.518 245.63 266.714V265.98C245.63 265.56 246.679 264.616 247.973 263.882L126.481 194.273L124.593 195.357C124.348 195.637 124.173 195.987 124.139 196.371V197.105C124.139 197.909 122.915 199.273 121.377 200.182C119.838 201.091 118.615 201.126 118.615 200.287V199.553C118.615 199.133 118.02 199.168 117.251 199.588L238.743 269.196H238.708Z" fill="#37474E"/>
<path d="M124.768 195.496L124.593 195.391L126.481 194.307L207.103 147.738L324.609 215.599C326.497 216.718 326.916 218.326 325.378 219.2L322.616 220.773L247.204 266.153L124.768 195.496Z" fill="#455963"/>
<path d="M118.578 198.855L239.965 268.919L235.7 272.24L114.732 202.387C115.012 201.478 115.606 200.708 116.34 200.149L118.543 198.855H118.578Z" fill="#455963"/>
<path d="M115.22 233.779C115.22 233.779 115.081 233.674 115.011 233.639C114.941 233.639 114.906 233.569 114.871 233.499C114.766 233.394 114.696 233.289 114.626 233.184C114.591 233.114 114.521 233.079 114.486 233.009C114.346 232.8 114.241 232.555 114.172 232.345C114.067 232.1 113.997 231.821 113.927 231.541C113.857 231.261 113.822 230.947 113.752 230.597C113.717 230.422 113.682 230.212 113.682 230.038V229.583C113.682 229.234 113.647 228.884 113.647 228.534V208.536C113.647 206.439 114.032 204.376 114.766 202.418L235.698 272.271L236.223 303.632L115.255 233.848V233.779H115.22Z" fill="#455963"/>
<path opacity="0.1" d="M235.734 272.236C235.734 272.236 140.464 227.625 131.793 223.535C126.095 220.843 123.228 226.506 124.626 232.38C125.815 237.519 130.849 242.763 130.849 242.763L115.292 233.813C115.292 233.813 115.152 233.708 115.082 233.673C115.012 233.673 114.977 233.604 114.942 233.534C114.837 233.429 114.767 233.324 114.697 233.219C114.662 233.149 114.592 233.114 114.557 233.044C114.417 232.834 114.313 232.59 114.243 232.38C114.138 232.135 114.068 231.855 113.998 231.576C113.928 231.296 113.893 230.981 113.823 230.632C113.788 230.457 113.753 230.247 113.753 230.072V229.618C113.753 229.268 113.718 228.919 113.718 228.569V208.501C113.718 206.403 114.103 204.341 114.837 202.383L235.734 272.236Z" fill="#040000"/>
<path d="M234.616 278.358H237.308C237.238 276.295 237.693 274.267 238.637 272.449C239.266 272.939 240.07 273.184 240.874 273.184C242.063 273.114 243.216 272.764 244.23 272.135C245.454 271.435 246.503 270.491 247.342 269.373C247.412 269.303 247.447 269.198 247.517 269.128C248.006 268.464 248.286 267.66 248.321 266.821L319.852 225.531L322.265 224.097L325.376 222.314C325.936 222.07 326.285 221.545 326.32 220.916V217.734C326.32 218.364 325.936 218.888 325.376 219.168L317.16 223.923L248.006 263.849C246.713 264.583 245.664 265.527 245.664 265.946V266.681C245.594 267.17 245.384 267.625 245.035 267.974C244.44 268.708 243.671 269.303 242.832 269.757C241.294 270.631 240.07 270.701 240.07 269.862V269.128C240.07 268.708 239.476 268.743 238.706 269.163L237.343 269.967C235.84 270.876 234.616 274.582 234.616 278.323V278.358Z" fill="#37474E"/>
<path d="M237.308 278.356V299.263L237.378 299.927C237.378 299.927 237.378 299.962 237.378 299.997C237.622 297.865 239.685 295.942 241.468 294.928C242.447 294.299 243.601 293.949 244.789 293.879C245.663 293.879 246.537 294.194 247.202 294.788L247.446 294.648L247.901 294.368L317.055 254.442L321.041 252.135C321.39 251.925 321.81 251.715 322.159 251.471L325.516 249.583C325.97 249.303 326.25 248.813 326.25 248.289V251.471C326.25 251.96 325.97 252.415 325.551 252.694C325.166 252.939 324.747 253.149 324.327 253.428L323.558 253.883L322.229 254.652C321.915 254.827 321.67 255.002 321.39 255.142L320.796 255.491L319.782 256.086L264.857 287.796L247.342 297.935C246.083 298.669 245.069 298.879 244.999 298.529V297.69C244.999 296.816 243.775 296.816 242.237 297.69C240.699 298.564 240.105 299.578 240.07 300.452V301.326C240.07 301.71 239.965 302.095 239.685 302.375L239.265 302.619C239.021 302.759 238.741 302.934 238.391 303.109L237.308 303.738C236.888 304.018 236.294 303.983 235.944 303.598C235.909 303.598 235.839 303.528 235.804 303.493C235.699 303.389 235.629 303.284 235.56 303.144C235.56 303.144 235.49 303.039 235.455 302.969C235.315 302.759 235.21 302.515 235.14 302.305C235.035 302.06 234.965 301.78 234.895 301.501C234.825 301.221 234.755 300.906 234.72 300.557C234.685 300.382 234.651 300.207 234.651 299.997V278.426H237.273L237.308 278.356Z" fill="#37474E"/>
<path opacity="0.1" d="M114.732 202.385L229.721 268.778L316.635 218.643C317.929 217.908 317.929 216.685 316.635 215.951L202.835 150.223L126.444 194.344L124.556 195.428C124.311 195.708 124.137 196.022 124.102 196.372V197.106C124.102 197.91 122.878 199.309 121.34 200.183C121.27 200.218 121.165 200.288 121.095 200.323L118.578 198.854L117.354 199.554L117.179 199.623L116.27 200.148C115.501 200.742 114.977 201.546 114.662 202.455L114.732 202.385Z" fill="#040000"/>
<path d="M310.168 219.095L306.707 217.242L309.854 216.473C310.448 217.207 310.588 218.221 310.168 219.095Z" fill="#F9E4D3"/>
<path opacity="0.5" d="M310.168 219.095L306.707 217.242L309.854 216.473C310.448 217.207 310.588 218.221 310.168 219.095Z" fill="#040000"/>
<path d="M218.533 265.211C220.736 266.33 223.358 266.33 225.561 265.211L304.539 219.586L186.299 152.425L183.537 150.816L104.558 195.323C102.671 196.441 102.671 198.259 104.558 199.378L218.533 265.211Z" fill="#F9E4D3"/>
<path d="M248.181 180.219L275.765 196.091L293.596 185.813L314.328 197.769V211.649C314.328 213.467 312.3 216.054 311.566 215.635C310.203 215.95 308.874 216.439 307.615 217.033C305.553 218.222 303.63 219.621 301.917 221.264L238.636 185.848L248.251 180.289L248.181 180.219Z" fill="#F9E4D3"/>
<path opacity="0.15" d="M248.181 180.219L275.765 196.091L293.596 185.813L314.328 197.769V211.649C314.328 213.467 312.3 216.054 311.566 215.635C310.203 215.95 308.874 216.439 307.615 217.033C305.553 218.222 303.63 219.621 301.917 221.264L238.636 185.848L248.251 180.289L248.181 180.219Z" fill="#040000"/>
<path d="M302.931 199.411V214.445C302.931 214.445 303.071 214.34 303.176 214.305C304.19 213.675 305.378 213.326 306.567 213.256C307.336 213.186 308.14 213.361 308.805 213.78V196.055L302.966 199.411H302.931Z" fill="#37474E"/>
<path d="M299.049 219.587C299.118 218.643 299.433 217.769 299.993 217.035C300.272 216.651 300.587 216.266 300.936 215.916L301.286 215.602L301.741 215.217L302.09 214.937C302.335 214.763 302.615 214.588 302.859 214.413V199.484L299.014 201.722V219.587H299.049Z" fill="#E0E0E0"/>
<path opacity="0.4" d="M314.293 211.579C314.293 213.397 312.265 215.985 311.531 215.565L308.769 213.747V202.35L311.531 197.595L313.034 197.07L314.293 197.805V211.614V211.579Z" fill="#040000"/>
<path d="M222.03 246.123V263.22C222.834 263.22 223.639 263.045 224.373 262.66L233.043 257.661L299.051 219.553V201.617L222.03 246.088V246.123Z" fill="#EBEBEB"/>
<path opacity="0.15" d="M294.051 213.117L275.591 223.78C275.591 223.78 277.479 221.788 284.821 217.627C291.953 213.572 294.051 213.117 294.051 213.117Z" fill="#040000"/>
<path d="M106.553 181.723V194.658C106.658 196.302 107.532 197.805 108.895 198.714L211.053 257.659L219.689 262.659C220.423 263.043 221.227 263.218 222.031 263.218V248.115L106.518 181.723H106.553Z" fill="#F5F5F5"/>
<path d="M186.299 130.224L304.539 198.469V200.042C304.539 200.916 305.763 201.266 307.301 200.357C308.84 199.448 310.063 198.364 310.063 196.861L310.203 195.357L189.725 125.819L189.236 125.539C189.096 125.749 189.061 126.029 189.026 126.273V127.007C189.026 127.881 187.802 129.315 186.299 130.189V130.224Z" fill="#F9E4D3"/>
<path opacity="0.1" d="M186.299 130.224L304.539 198.469V200.042C304.539 200.916 305.763 201.266 307.301 200.357C308.84 199.448 310.063 198.364 310.063 196.861L310.203 195.357L189.725 125.819L189.236 125.539C189.096 125.749 189.061 126.029 189.026 126.273V127.007C189.026 127.881 187.802 129.315 186.299 130.189V130.224Z" fill="#040000"/>
<path d="M225.56 244.059L302.79 199.482C303.734 198.958 304.678 198.539 305.027 198.748L304.538 198.469L186.298 130.223L184.934 129.419C184.165 128.965 182.487 129.245 181.193 129.979L104.557 174.24C102.669 175.359 102.669 177.177 104.557 178.296L218.532 244.094C220.735 245.212 223.357 245.212 225.56 244.094V244.059Z" fill="#F9E4D3"/>
<path d="M183.014 149.241L140.326 173.959C138.508 175.008 138.508 176.721 140.326 177.77L146.094 181.091C148.157 182.14 150.604 182.14 152.667 181.091L195.355 156.409C197.173 155.36 197.173 153.647 195.355 152.598L189.656 149.276C187.594 148.228 185.146 148.193 183.049 149.276L183.014 149.241Z" fill="white"/>
<path d="M228.499 236.156C228.499 236.156 228.779 236.156 228.884 236.051L286.885 202.663C287.235 202.453 287.374 201.998 287.165 201.614C287.095 201.509 286.99 201.404 286.885 201.334C285.207 200.355 284.612 198.188 285.591 196.474C285.906 195.95 286.361 195.495 286.885 195.181C287.13 195.041 287.27 194.796 287.27 194.517C287.27 194.237 287.13 193.992 286.885 193.852L190.041 137.949C189.796 137.809 189.517 137.809 189.272 137.949C185.531 140.116 180.881 140.116 177.14 137.949C176.896 137.809 176.616 137.809 176.371 137.949L118.44 171.407C118.195 171.547 118.055 171.791 118.055 172.071C118.055 172.351 118.195 172.596 118.44 172.735C120.118 173.714 120.712 175.882 119.733 177.595C119.419 178.12 118.964 178.574 118.44 178.889C118.195 179.029 118.055 179.273 118.055 179.553C118.055 179.833 118.195 180.077 118.44 180.217L215.249 236.086C215.493 236.226 215.773 236.226 216.018 236.086C219.759 233.918 224.374 233.918 228.114 236.086C228.219 236.156 228.359 236.191 228.499 236.191V236.156ZM285.172 201.928L228.499 234.548C224.478 232.415 219.654 232.415 215.633 234.548L120.223 179.448C122.216 177.49 122.286 174.274 120.328 172.281C120.293 172.246 120.258 172.211 120.223 172.176L176.791 139.522C180.811 141.655 185.636 141.655 189.657 139.522L285.137 194.656C283.144 196.614 283.074 199.831 285.032 201.824C285.067 201.859 285.102 201.893 285.137 201.928H285.172Z" fill="white"/>
<path d="M189.234 125.539L189.723 125.819L310.201 195.392C310.201 195.392 310.341 195.148 310.481 195.043L310.866 194.798L311.74 194.309C312.089 194.134 312.439 193.924 312.823 193.679C313.243 193.4 313.837 193.434 314.187 193.819C314.257 193.819 314.292 193.889 314.327 193.959C314.467 194.099 314.606 194.274 314.676 194.448C314.816 194.658 314.921 194.903 314.991 195.148C315.096 195.392 315.166 195.672 315.236 195.917C315.306 196.196 315.376 196.511 315.411 196.861C315.446 197.036 315.48 197.21 315.48 197.42V195.532C315.48 193.644 313.907 191.232 311.949 190.113L197.974 124.28C196.086 123.162 193.22 122.952 191.716 123.826L190.283 124.665H190.213C190.213 124.665 189.863 124.875 189.619 125.015C189.619 125.015 189.339 125.329 189.269 125.504L189.234 125.539Z" fill="#F9E4D3"/>
<path d="M225.559 265.21L230.314 262.448L301.776 221.194C301.846 220.25 302.16 219.376 302.72 218.641C303.559 217.523 304.643 216.579 305.831 215.879C306.88 215.25 308.069 214.866 309.257 214.831C310.062 214.831 310.831 215.075 311.495 215.565C312.404 213.747 312.859 211.684 312.824 209.656H315.516C315.516 213.397 314.292 217.138 312.754 218.012L311.39 218.816C310.621 219.271 310.027 219.306 310.027 218.886V218.152C310.027 217.348 308.803 217.383 307.265 218.257C305.726 219.131 304.503 220.564 304.503 221.333V222.068C304.503 222.487 303.454 223.431 302.16 224.165L233.006 264.092L225.524 268.427C224.441 268.986 223.252 269.266 222.028 269.266V266.154C223.252 266.154 224.476 265.875 225.524 265.28L225.559 265.21Z" fill="#F9E4D3"/>
<path opacity="0.3" d="M225.559 265.21L230.314 262.448L301.776 221.194C301.846 220.25 302.16 219.376 302.72 218.641C303.559 217.523 304.643 216.579 305.831 215.879C306.88 215.25 308.069 214.866 309.257 214.831C310.062 214.831 310.831 215.075 311.495 215.565C312.404 213.747 312.859 211.684 312.824 209.656H315.516C315.516 213.397 314.292 217.138 312.754 218.012L311.39 218.816C310.621 219.271 310.027 219.306 310.027 218.886V218.152C310.027 217.348 308.803 217.383 307.265 218.257C305.726 219.131 304.503 220.564 304.503 221.333V222.068C304.503 222.487 303.454 223.431 302.16 224.165L233.006 264.092L225.524 268.427C224.441 268.986 223.252 269.266 222.028 269.266V266.154C223.252 266.154 224.476 265.875 225.524 265.28L225.559 265.21Z" fill="#040000"/>
<path d="M225.524 244.094L230.279 241.332L285.204 209.622L302.789 199.483C304.048 198.749 305.062 198.539 305.132 198.889V199.693C305.132 200.567 306.355 200.567 307.894 199.693C309.432 198.819 310.026 197.805 310.061 196.931V196.057C310.061 195.672 310.166 195.288 310.481 195.008L310.866 194.763C311.11 194.623 311.39 194.449 311.74 194.274C312.089 194.099 312.439 193.889 312.823 193.644C313.243 193.365 313.837 193.4 314.187 193.784C314.257 193.784 314.292 193.854 314.327 193.924C314.432 194.029 314.502 194.134 314.571 194.239C314.606 194.274 314.641 194.344 314.676 194.414C314.816 194.623 314.921 194.868 314.991 195.113C315.096 195.358 315.166 195.637 315.236 195.882C315.306 196.162 315.376 196.476 315.411 196.826C315.446 197.001 315.48 197.176 315.48 197.385V209.657H312.788V198.085L312.718 197.42C312.718 197.42 312.718 197.385 312.718 197.35C312.474 199.483 310.411 201.441 308.628 202.42C307.649 203.014 306.53 203.364 305.377 203.434C304.503 203.434 303.628 203.119 302.964 202.525L302.719 202.665L302.23 202.944L233.076 242.87L225.594 247.171H225.524C224.44 247.73 223.287 247.975 222.063 247.975V244.863C223.252 244.898 224.475 244.653 225.559 244.094H225.524Z" fill="#F9E4D3"/>
<path opacity="0.3" d="M225.524 244.094L230.279 241.332L285.204 209.622L302.789 199.483C304.048 198.749 305.062 198.539 305.132 198.889V199.693C305.132 200.567 306.355 200.567 307.894 199.693C309.432 198.819 310.026 197.805 310.061 196.931V196.057C310.061 195.672 310.166 195.288 310.481 195.008L310.866 194.763C311.11 194.623 311.39 194.449 311.74 194.274C312.089 194.099 312.439 193.889 312.823 193.644C313.243 193.365 313.837 193.4 314.187 193.784C314.257 193.784 314.292 193.854 314.327 193.924C314.432 194.029 314.502 194.134 314.571 194.239C314.606 194.274 314.641 194.344 314.676 194.414C314.816 194.623 314.921 194.868 314.991 195.113C315.096 195.358 315.166 195.637 315.236 195.882C315.306 196.162 315.376 196.476 315.411 196.826C315.446 197.001 315.48 197.176 315.48 197.385V209.657H312.788V198.085L312.718 197.42C312.718 197.42 312.718 197.385 312.718 197.35C312.474 199.483 310.411 201.441 308.628 202.42C307.649 203.014 306.53 203.364 305.377 203.434C304.503 203.434 303.628 203.119 302.964 202.525L302.719 202.665L302.23 202.944L233.076 242.87L225.594 247.171H225.524C224.44 247.73 223.287 247.975 222.063 247.975V244.863C223.252 244.898 224.475 244.653 225.559 244.094H225.524Z" fill="#040000"/>
<path d="M103.092 176.199V179.381C103.161 180.255 103.686 181.024 104.49 181.374H104.525L211.018 242.836L218.5 247.171C219.584 247.731 220.772 248.01 221.996 248.01V244.899C220.772 244.899 219.549 244.654 218.465 244.06L213.71 241.298L104.525 178.227C103.721 177.877 103.161 177.073 103.092 176.199Z" fill="#F9E4D3"/>
<path opacity="0.2" d="M103.092 176.199V179.381C103.161 180.255 103.686 181.024 104.49 181.374H104.525L211.018 242.836L218.5 247.171C219.584 247.731 220.772 248.01 221.996 248.01V244.899C220.772 244.899 219.549 244.654 218.465 244.06L213.71 241.298L104.525 178.227C103.721 177.877 103.161 177.073 103.092 176.199Z" fill="#040000"/>
<path d="M103.092 197.387V200.568C103.161 201.442 103.686 202.211 104.49 202.561H104.525L211.018 264.023L218.5 268.359C219.584 268.918 220.772 269.198 221.996 269.198V266.086C220.772 266.086 219.549 265.841 218.465 265.247L213.71 262.485L104.525 199.414C103.721 199.065 103.161 198.261 103.092 197.352V197.387Z" fill="#F9E4D3"/>
<path opacity="0.2" d="M103.092 197.387V200.568C103.161 201.442 103.686 202.211 104.49 202.561H104.525L211.018 264.023L218.5 268.359C219.584 268.918 220.772 269.198 221.996 269.198V266.086C220.772 266.086 219.549 265.841 218.465 265.247L213.71 262.485L104.525 199.414C103.721 199.065 103.161 198.261 103.092 197.352V197.387Z" fill="#040000"/>
<path d="M290.973 214.902V257.591L284.819 250.458L278.666 264.688V222.035L290.973 214.902Z" fill="#F9E4D3"/>
<path opacity="0.5" d="M290.973 214.902V257.591L284.819 250.458L278.666 264.688V222.035L290.973 214.902Z" fill="#040000"/>
<path d="M266.362 303.809V315.381C266.362 319.227 268.425 322.758 271.746 324.681L287.898 334.015L272.515 332.232L275.592 341.113L259.44 331.778C256.118 329.855 254.056 326.324 254.056 322.478V310.906L266.362 303.809Z" fill="#F9E4D3"/>
<path opacity="0.5" d="M266.362 303.809V315.381C266.362 319.227 268.425 322.758 271.746 324.681L287.898 334.015L272.515 332.232L275.592 341.113L259.44 331.778C256.118 329.855 254.056 326.324 254.056 322.478V310.906L266.362 303.809Z" fill="#040000"/>
<path d="M34.0432 107.079V96.6949L42.8186 95.9258C42.8186 95.9258 43.0633 95.9258 43.1682 95.9957L51.9436 100.995C52.2582 101.205 52.3281 101.59 52.1184 101.904C52.1184 101.904 52.1184 101.939 52.0834 101.974L42.7836 112.078L34.0432 107.114V107.079Z" fill="#F9E4D3"/>
<path d="M42.7823 112.079L52.0821 101.976C52.3268 101.731 52.3268 101.311 52.0821 101.067C51.9422 100.927 51.7674 100.857 51.5576 100.892L42.7823 101.661V112.079Z" fill="#F9E4D3"/>
<path d="M34.0407 96.66L42.7811 101.694L51.5565 100.925C51.5565 100.925 51.7662 100.925 51.8711 100.96C51.1719 100.541 43.5153 96.1705 43.2006 95.9957C43.0957 95.9258 42.9559 95.9258 42.816 95.9258L34.0407 96.66Z" fill="#F9E4D3"/>
<path opacity="0.5" d="M34.0407 96.66L42.7811 101.694L51.5565 100.925C51.5565 100.925 51.7662 100.925 51.8711 100.96C51.1719 100.541 43.5153 96.1705 43.2006 95.9957C43.0957 95.9258 42.9559 95.9258 42.816 95.9258L34.0407 96.66Z" fill="white"/>
<path d="M42.7814 89.9482C42.6766 87.7107 41.4878 85.6829 39.5999 84.4593L37.0128 82.9909C35.0199 81.977 32.6775 81.977 30.6847 82.9909L3.23983 98.8635C1.35191 100.087 0.198158 102.115 0.0583115 104.352V136.098C0.198158 138.335 1.35191 140.363 3.23983 141.552L5.82699 143.02C7.8198 144.034 10.1622 144.034 12.155 143.02L20.2661 138.335L30.8246 132.252L39.6349 127.182C41.4879 125.959 42.6766 123.931 42.8164 121.693V89.9482H42.7814Z" fill="#F9E4D3"/>
<path d="M15.3037 117.952C15.3037 115.854 15.7583 113.791 16.5973 111.904C17.3665 109.911 18.695 108.163 20.4781 106.939C23.1352 105.366 25.3377 108.547 25.6874 112.288C26.002 108.163 28.1696 102.429 30.8267 100.891C32.0154 99.9816 33.7285 100.121 34.7075 101.275C35.6864 102.569 36.1409 104.177 36.036 105.785C36.036 112.113 32.2252 117.847 29.0786 123.86L25.7223 130.188L22.331 127.811C19.1495 125.504 15.3387 124.28 15.3037 117.952Z" fill="#FBFBFC"/>
<path opacity="0.2" d="M0.0607052 136.028C0.200552 138.266 1.38924 140.294 3.27717 141.517L5.86435 142.986C7.68236 143.895 9.78004 144 11.668 143.231C10.1996 143.79 9.04585 142.951 9.04585 141.133V109.388C9.08081 108.269 9.43044 107.22 9.98982 106.276L1.0746 101.137C0.480247 102.081 0.165605 103.164 0.130643 104.248V135.993L0.0607052 136.028Z" fill="#040000"/>
<path opacity="0.5" d="M42.6758 89.0392C42.2912 87.7107 41.0675 87.2562 39.5991 88.0953L12.1193 103.968C11.1754 104.562 10.4062 105.366 9.88175 106.345L0.966545 101.206C1.52593 100.262 2.29509 99.4578 3.23906 98.8635L30.649 82.9909C32.6418 81.977 34.9842 81.977 36.977 82.9909L39.5642 84.4942C41.1724 85.5431 42.2562 87.1863 42.6408 89.0742L42.6758 89.0392Z" fill="white"/>
<path d="M111.238 158.052C97.8482 157.598 91.2404 164.485 83.1293 176.163C75.0182 187.84 52.7127 220.284 52.7127 220.284L70.0886 230.318L108.127 178.155L111.273 158.052H111.238Z" fill="#F3A4A4"/>
<path d="M123.334 72.7458C152.387 74.1793 164.134 97.254 160.113 118.371C156.617 136.691 142.842 146.585 124.103 146.585H121.76C101.343 146.585 87.7775 125.678 85.2603 114.385C79.3867 88.1989 97.6367 71.4523 123.368 72.7109L123.334 72.7458Z" fill="#37474E"/>
<path d="M51.696 345.515C50.9968 363.065 79.7353 366.527 105.013 354.465C124.067 345.375 132.597 338.802 149.938 325.866C171.44 309.784 177.873 285.451 162.559 256.537L89.4546 252.727C76.7285 267.48 30.8589 287.094 15.6506 321.951C8.27365 340.375 33.6208 350.095 51.7659 345.515H51.696Z" fill="#455963"/>
<path d="M51.6987 345.518C53.5866 328.981 66.2077 320.8 77.0109 312.794C87.814 304.788 110.539 290.873 110.539 290.873C110.539 290.873 99.2465 293.495 88.8978 282.832C89.5271 287.482 92.2192 291.572 96.1698 294.055C96.1698 294.055 64.7393 312.025 55.2997 327.268C51.8735 332.687 50.5799 339.19 51.7336 345.518H51.6987Z" fill="#37474E"/>
<path d="M128.965 158.051H137.355C145.466 158.61 153.508 159.239 153.508 159.239C166.478 163.924 166.443 174.168 167.073 179.552C168.017 187.174 165.884 191.509 163.367 198.711L151.375 233.358C151.375 233.358 156.025 243.707 162.528 256.503C132.461 273.284 95.9258 267.69 86.8707 255.419C86.4861 252.832 87.8147 225.352 89.2831 212.101C80.5776 205.179 78.9344 192.593 85.5771 183.643C96.8697 168.19 107.183 158.89 111.239 158.051H128.93H128.965Z" fill="#F9E4D3"/>
<path opacity="0.3" d="M128.965 158.051H137.355C145.466 158.61 153.508 159.239 153.508 159.239C166.478 163.924 166.443 174.168 167.073 179.552C168.017 187.174 165.884 191.509 163.367 198.711L151.375 233.358C151.375 233.358 156.025 243.707 162.528 256.503C132.461 273.284 95.9258 267.69 86.8707 255.419C86.4861 252.832 87.8147 225.352 89.2831 212.101C80.5776 205.179 78.9344 192.593 85.5771 183.643C96.8697 168.19 107.183 158.89 111.239 158.051H128.93H128.965Z" fill="#040000"/>
<path opacity="0.15" d="M153.82 238.638C154.834 240.84 156.163 243.637 157.736 246.819C158.016 247.378 158.261 247.937 158.575 248.532C158.925 249.266 159.274 250 159.659 250.734C160.603 252.587 161.547 254.545 162.526 256.503C161.407 257.132 160.288 257.692 159.17 258.251C139.067 268.25 116.656 268.74 101.728 264.299C111.867 265.663 122.18 265.208 132.144 262.971C141.934 260.733 148.017 250.979 145.744 241.19C145.744 241.085 145.674 240.945 145.674 240.84C145.604 240.525 145.5 240.211 145.36 239.896C143.472 235.246 139.276 235.841 139.276 235.841C143.192 233.288 145.919 229.233 146.828 224.653L148.401 219.828C152.037 208.885 152.212 197.068 148.926 186.02L148.856 185.706L161.617 178.434L163.854 179.972C164.554 182.209 164.973 184.552 165.078 186.894V189.551C165.078 190.076 165.008 190.565 164.973 191.09C164.938 191.614 164.903 191.894 164.833 192.313C164.763 192.733 164.729 193.152 164.659 193.607C164.589 194.061 164.449 194.656 164.344 195.145C164.274 195.46 164.204 195.81 164.134 196.089C163.924 196.928 163.68 197.767 163.4 198.606L151.408 233.253C151.408 233.253 152.282 235.316 153.855 238.638H153.82Z" fill="#040000"/>
<path d="M98.8276 90.7148C96.9397 91.6588 91.8004 101.518 92.2898 122.915C92.7094 141.06 98.5829 145.535 101.555 146.828C104.526 148.122 110.19 147.318 115.749 146.409V157.317C115.749 157.317 108.092 166.232 108.582 171.197C109.071 176.161 119.63 177.385 126.797 172.49C131.447 169.134 135.432 164.973 138.544 160.184V133.857C138.544 133.857 141.551 137.179 147.704 133.123C153.857 129.068 154.766 120.677 151.2 117.076C147.634 113.475 139.977 114.629 138.544 119.593C138.544 119.593 129.559 121.166 117.532 113.44C104.526 105.084 100.541 98.4064 98.8276 90.7148Z" fill="#F3A4A4"/>
<path d="M95.8524 111.029L100.922 108.617C100.328 107.253 98.7543 106.589 97.3908 107.183C97.3558 107.183 97.3208 107.218 97.2509 107.253C95.8525 107.953 95.2231 109.631 95.8175 111.064L95.8524 111.029Z" fill="#273238"/>
<path d="M118.509 108.127L123.264 111.134C124.103 109.91 123.789 108.232 122.565 107.393C122.565 107.393 122.495 107.358 122.46 107.323C121.132 106.484 119.383 106.833 118.474 108.127H118.509Z" fill="#273238"/>
<path d="M138.719 114.594L138.404 125.712C135.432 125.781 132.95 123.439 132.88 120.432C132.88 120.362 132.88 120.258 132.88 120.188C133.02 117.076 135.572 114.594 138.719 114.594Z" fill="#37474E"/>
<path d="M114.557 117.672C114.557 118.93 115.571 119.944 116.829 119.979C118.088 119.979 119.102 118.965 119.137 117.707C119.137 116.483 118.193 115.469 116.969 115.399C115.676 115.364 114.627 116.343 114.557 117.637V117.672Z" fill="#273238"/>
<path d="M112.602 133.754L106.589 135.642C107.043 137.285 108.722 138.264 110.4 137.844C110.435 137.844 110.47 137.844 110.505 137.809C112.183 137.25 113.092 135.432 112.602 133.754Z" fill="#E88B8B"/>
<path d="M96.9044 116.727C96.9044 117.985 97.9183 118.999 99.1769 119.034C100.436 119.034 101.449 118.02 101.484 116.762C101.484 115.538 100.54 114.524 99.3167 114.454C98.0232 114.419 96.9743 115.398 96.9044 116.692V116.727Z" fill="#273238"/>
<path d="M108.055 115.398L107.705 129.138L100.468 126.901L108.055 115.398Z" fill="#E88B8B"/>
<path d="M115.711 146.446C121.55 145.677 133.542 142.251 135.43 137.496C135.43 137.496 134.8 140.468 131.234 143.544C127.668 146.621 115.711 150.082 115.711 150.082V146.446Z" fill="#E88B8B"/>
<path d="M30.5796 196.51C30.5796 196.51 30.8243 193.154 26.3842 189.903C21.9441 186.651 16.2104 184.029 14.3225 175.918L8.23913 179.414L18.4829 196.615L30.5796 196.475V196.51Z" fill="#F9E4D3"/>
<path opacity="0.75" d="M30.5796 196.51C30.5796 196.51 30.8243 193.154 26.3842 189.903C21.9441 186.651 16.2104 184.029 14.3225 175.918L8.23913 179.414L18.4829 196.615L30.5796 196.475V196.51Z" fill="white"/>
<path d="M30.5809 196.511C30.5809 196.511 37.2236 193.19 51.7677 196.197C66.3117 199.204 78.1987 203.084 106.168 202.455L98.9309 206.65L26.3506 202.455L30.5809 196.511Z" fill="#F9E4D3"/>
<path opacity="0.75" d="M30.5809 196.511C30.5809 196.511 37.2236 193.19 51.7677 196.197C66.3117 199.204 78.1987 203.084 106.168 202.455L98.9309 206.65L26.3506 202.455L30.5809 196.511Z" fill="white"/>
<path d="M106.133 202.488L132.109 285.977L124.837 290.172L98.8958 206.649L106.133 202.488Z" fill="#F9E4D3"/>
<path opacity="0.8" d="M106.133 202.488L132.109 285.977L124.837 290.172L98.8958 206.649L106.133 202.488Z" fill="white"/>
<path opacity="0.1" d="M106.133 202.488L132.109 285.977L124.837 290.172L98.8958 206.649L106.133 202.488Z" fill="#040000"/>
<g opacity="0.1">
<path d="M14.3597 180.429C15.024 182.177 16.0378 183.786 17.3314 185.114C18.625 186.478 20.0235 187.736 21.4919 188.925C22.9602 190.044 24.3237 191.267 25.5824 192.631C26.1767 193.295 26.6662 194.029 27.0507 194.834C27.4353 195.603 27.6101 196.442 27.5752 197.281L28.4492 197.421C28.4492 196.407 28.2394 195.393 27.75 194.484C27.2955 193.61 26.7711 192.841 26.1068 192.106C24.7783 190.778 23.3448 189.554 21.8065 188.47C20.3032 187.387 18.8697 186.198 17.5412 184.904C16.2126 183.611 15.1288 182.072 14.3597 180.359V180.429Z" fill="#040000"/>
<path d="M15.5111 185.148C16.1405 186.197 16.8746 187.141 17.7487 188.015C18.5878 188.889 19.4268 189.728 20.2659 190.637C21.07 191.511 21.8043 192.455 22.4685 193.504C23.0978 194.483 23.4824 195.567 23.6222 196.721L24.5312 196.616C24.3215 195.357 23.7971 194.169 23.0629 193.12C22.3287 192.141 21.5246 191.197 20.6156 190.358C19.7415 189.519 18.8325 188.715 17.9585 187.875C17.0495 187.071 16.2453 186.162 15.5461 185.148H15.5111Z" fill="#040000"/>
<path d="M78.1992 203.086C74.2136 202.737 70.2629 202.142 66.3822 201.338C62.4665 200.534 58.5858 199.59 54.705 198.681C50.7893 197.737 46.8037 197.213 42.8181 197.143C40.7903 197.073 38.7975 197.143 36.7697 197.388C35.7558 197.493 34.7419 197.702 33.763 197.947C32.7141 198.192 31.7352 198.681 30.8961 199.345L31.5254 199.975C32.2596 199.38 33.0987 198.961 33.9728 198.716C34.9167 198.436 35.8607 198.262 36.8396 198.122C38.7975 197.877 40.7903 197.772 42.7481 197.772C46.7337 197.772 50.7194 198.227 54.6001 199.101C58.4809 199.94 62.3966 200.814 66.3123 201.548C70.228 202.282 74.2136 202.772 78.1643 203.086H78.1992Z" fill="#040000"/>
<path d="M59.0039 202.736C56.7664 202.421 54.5288 201.967 52.2913 201.547C50.0537 201.128 47.8162 200.708 45.5786 200.428C43.3061 200.079 41.0336 199.939 38.7261 199.974C36.3837 199.974 34.0763 200.394 31.9086 201.233L32.2582 202.037C34.321 201.163 36.5236 200.708 38.7261 200.638C40.9637 200.533 43.2362 200.638 45.4737 200.883C47.7113 201.128 49.9838 201.442 52.2213 201.827C54.4589 202.212 56.6964 202.491 58.9689 202.771L59.0039 202.736Z" fill="#040000"/>
</g>
<path d="M8.24101 175.289L20.1979 195.672L48.0273 285.208L44.3913 287.306L32.4694 262.274L4.63994 177.352L8.24101 175.289Z" fill="#F9E4D3"/>
<path opacity="0.2" d="M16.5612 197.769L4.63923 177.352L32.4687 262.273L44.3906 287.306L16.5612 197.769Z" fill="#040000"/>
<path d="M32.1199 202.559L103.686 207.139L131.551 296.675L127.915 298.773L56.3483 294.193L28.5188 204.656L32.1199 202.559Z" fill="#F9E4D3"/>
<path opacity="0.2" d="M100.085 209.236L127.914 298.773L56.3476 294.193L28.5181 204.656L100.085 209.236Z" fill="#040000"/>
<path d="M115.292 294.612C115.292 294.612 115.571 294.542 115.641 294.437C115.711 294.332 115.746 294.158 115.711 294.018C114.942 291.57 116.306 289.018 118.753 288.249C119.277 288.074 119.837 288.004 120.431 288.039C120.571 288.039 120.711 287.969 120.816 287.864C120.92 287.76 120.955 287.585 120.885 287.445L99.6987 219.34C99.6987 219.34 99.489 219.025 99.3142 219.025C95.3285 218.745 91.9023 216.053 90.6786 212.242C90.6087 212.068 90.4689 211.928 90.2941 211.928L41.138 208.781C41.138 208.781 40.8583 208.851 40.7534 208.956C40.6485 209.061 40.6485 209.236 40.6835 209.376C41.138 210.809 40.8583 212.417 39.9143 213.606C39.0053 214.83 37.502 215.459 35.9986 215.354C35.8588 215.354 35.7189 215.424 35.6141 215.529C35.5092 215.634 35.4742 215.809 35.5441 215.948L56.6959 284.054C56.7659 284.228 56.9057 284.368 57.0805 284.368C61.0661 284.648 64.4924 287.34 65.716 291.151C65.7859 291.326 65.9258 291.466 66.1006 291.466L115.257 294.612H115.292ZM119.837 287.165C116.795 287.34 114.453 289.927 114.627 292.969C114.627 293.214 114.662 293.458 114.697 293.703L66.4153 290.591C65.0518 286.676 61.5206 283.914 57.3952 283.494L36.4881 216.263C39.5298 216.088 41.8722 213.501 41.6974 210.459C41.6974 210.215 41.6624 209.97 41.6275 209.725L89.8745 212.837C91.238 216.753 94.7692 219.514 98.8946 219.934L119.802 287.165H119.837Z" fill="#FBFBFC"/>
<path opacity="0.3" d="M103.686 207.137L100.085 209.234L127.915 298.771L131.551 296.673L103.686 207.137Z" fill="#040000"/>
<path d="M28.5182 204.657L16.5963 197.77L44.4258 287.306C46.2787 292.131 50.3692 294.299 56.3477 294.194L28.5182 204.657Z" fill="#F9E4D3"/>
<path opacity="0.3" d="M28.5182 204.657L16.5963 197.77L44.4258 287.306C46.5234 292.411 50.7188 294.369 56.3477 294.194L28.5182 204.657Z" fill="#040000"/>
<path d="M20.6156 195.427C22.8182 194.133 27.2583 194.622 30.5797 196.51C33.901 198.398 34.7401 200.985 32.5375 202.314L28.5169 204.656L16.595 197.769L20.231 195.671L20.6156 195.427Z" fill="#455963"/>
<path d="M34.8828 225.073C30.5825 225.143 25.9326 224.618 23.8349 221.052L21.073 212.207C23.6951 215.773 27.1213 217.661 32.4705 217.486L34.8828 225.073Z" fill="#E0E0E0"/>
<path d="M20.1953 195.672C20.8945 199.098 25.2997 201.266 32.1172 202.559L28.4812 204.657C22.6076 203.993 18.7269 201.615 16.5593 197.77L20.1953 195.672Z" fill="#F9E4D3"/>
<path d="M153.471 159.277C160.918 159.732 168.819 162.179 172.175 175.639C175.532 189.1 184.762 234.235 185.496 240.283C186.23 246.332 186.335 251.261 171.791 255.911C155.359 261.156 128.753 263.218 121.236 263.638C107.392 264.372 98.1616 260.316 93.7215 252.345C89.2814 244.374 88.0228 233.781 100.469 238.92C113.65 244.374 119.209 244.514 119.209 244.514L116.691 236.368C120.817 238.151 124.313 243.815 128.438 244.514C132.109 245.143 160.044 235.459 160.044 235.459L150.534 194.903C150.534 194.903 141.864 169.346 153.506 159.277H153.471Z" fill="#F3A4A4"/>
<path d="M152.108 144.244C153.682 145.957 155.325 147.6 157.038 149.104C160.359 152.355 162.737 155.187 164.275 159.557C165.813 163.928 165.638 169.172 162.807 172.878C159.975 176.584 155.185 178.297 153.227 182.387C152.283 184.345 152.073 186.583 151.759 188.75C151.094 193.435 149.661 198.12 146.759 201.896C142.074 208.014 132.11 211.091 125.747 205.532C123.754 203.609 122.321 201.162 121.622 198.435C119.804 192.981 119.944 187.072 121.971 181.723C123.859 177.038 127.53 173.262 130.887 169.451C133.893 166.06 137.844 161.62 138.508 156.935C138.508 156.935 138.648 148.195 138.578 144.069C138.578 142.042 138.578 140.014 140.536 138.93C142.039 138.021 143.717 137.462 145.466 137.252C148.158 137.112 148.612 137.462 148.612 137.462C149.346 139.944 150.535 142.251 152.143 144.244H152.108Z" fill="#37474E"/>
<path d="M18.5525 219.583C19.4266 216.717 22.6081 222.101 24.0415 230.247C25.37 238.078 27.223 246.224 27.223 246.224L29.3906 252.867C29.3906 252.867 24.2163 249.685 20.0209 240.91C15.8255 232.135 16.1402 227.625 18.5875 219.548L18.5525 219.583Z" fill="#F3A4A4"/>
</g>
<defs>
<clipPath id="clip0_2080_13286">
<rect width="360" height="369.579" fill="white" transform="matrix(-1 0 0 1 360.059 0.585938)"/>
</clipPath>
</defs>
</svg>
