<svg width="401" height="359" viewBox="0 0 401 359" fill="none" xmlns="http://www.w3.org/2000/svg">
<g clip-path="url(#clip0_2080_13444)">
<path d="M361.889 300.442L308.689 269.736C308.083 269.526 307.756 268.873 307.966 268.266C308.083 267.916 308.339 267.659 308.689 267.543L342.896 247.826C344.086 247.219 345.509 247.219 346.699 247.826L399.899 278.532C400.505 278.742 400.832 279.396 400.622 280.002C400.505 280.352 400.249 280.609 399.899 280.726L365.692 300.442C364.502 301.049 363.102 301.049 361.912 300.442H361.889Z" fill="#E0E0E0"/>
<path d="M131.452 358.847C180.82 358.847 220.841 335.739 220.841 307.234C220.841 278.729 180.82 255.621 131.452 255.621C82.0834 255.621 42.0625 278.729 42.0625 307.234C42.0625 335.739 82.0834 358.847 131.452 358.847Z" fill="#E0E0E0"/>
<path d="M215.849 330.426C248.001 330.426 274.065 315.372 274.065 296.803C274.065 278.233 248.001 263.18 215.849 263.18C183.697 263.18 157.633 278.233 157.633 296.803C157.633 315.372 183.697 330.426 215.849 330.426Z" fill="#E0E0E0"/>
<path d="M42.5741 263.481L43.2974 252.071C43.2974 252.071 42.6208 237.511 28.1776 224.071C19.4043 215.904 12.1477 220.291 10.3277 224.748C8.50773 229.204 10.0244 235.947 18.541 242.247C31.8875 252.117 43.0874 267.727 44.5574 278.81L42.5508 263.481H42.5741Z" fill="#37474E"/>
<path d="M42.1327 260.26C41.8994 260.283 41.666 260.143 41.596 259.91C35.0161 238.163 16.1629 225.12 15.9296 224.98C15.7196 224.816 15.6496 224.513 15.8129 224.303C15.8129 224.303 15.8129 224.303 15.8129 224.28C15.9762 224.046 16.2796 223.976 16.5129 224.14C16.6996 224.28 35.9027 237.51 42.576 259.606C42.646 259.863 42.506 260.143 42.2493 260.236L42.1327 260.283V260.26Z" fill="white"/>
<path d="M43.1578 263.875C43.0644 262.639 42.6211 261.449 41.8278 260.469C40.4278 258.835 37.9778 258.322 36.7878 256.525C36.3212 255.639 35.9478 254.682 35.6678 253.725C34.7812 251.625 33.1478 249.945 31.0712 249.012C28.9945 248.102 26.7079 247.799 24.4912 248.125C22.7879 248.335 21.1546 248.849 19.4746 249.082C13.9213 249.875 8.78805 244.789 3.25809 248.195C-0.0552127 250.272 0.178118 253.889 2.02144 256.899C2.9781 258.439 4.19142 259.815 5.59141 260.959C7.08473 262.219 8.64805 262.989 8.81138 265.182C8.92805 266.769 8.41472 268.355 8.43805 269.965C8.55472 272.625 9.83804 275.099 11.938 276.755C14.038 278.365 16.5113 279.415 19.1013 279.835C21.0146 280.208 23.2313 280.488 24.3046 282.122C24.7479 283.008 25.0512 283.988 25.1912 284.968C26.1246 288.188 28.3879 290.825 31.3979 292.248C34.4078 293.625 37.7445 294.138 41.0344 293.718C43.8578 293.532 46.5877 292.505 48.851 290.802C52.6077 287.722 50.4377 281.935 47.9644 278.715C46.8911 277.292 45.5611 276.079 44.5577 274.609C42.5744 271.669 42.9011 269.125 43.0878 265.765C43.1578 265.135 43.1811 264.482 43.1344 263.829L43.1578 263.875Z" fill="#455963"/>
<path d="M46.0763 285.485C45.913 285.508 45.7263 285.438 45.633 285.274C32.2165 261.101 10.6566 254.358 10.4466 254.288C10.2366 254.218 10.0966 253.985 10.1666 253.775C10.2366 253.565 10.47 253.425 10.7033 253.495C10.9133 253.565 32.7765 260.425 46.3797 284.878C46.4963 285.088 46.4263 285.321 46.2163 285.438C46.1697 285.461 46.123 285.485 46.0763 285.485Z" fill="white"/>
<path d="M33.2652 268.848H33.1719C27.2686 268.591 18.332 270.971 18.262 270.995C18.052 271.065 17.8187 270.948 17.7487 270.715C17.7487 270.715 17.7487 270.715 17.7487 270.691C17.6787 270.481 17.8187 270.248 18.0287 270.178C18.402 270.085 27.1753 267.751 33.1952 268.008C33.4285 268.008 33.6152 268.171 33.6385 268.381C33.6619 268.591 33.4752 268.801 33.2652 268.825V268.848Z" fill="white"/>
<path d="M28.9698 264.856C28.7365 264.856 28.5498 264.716 28.5032 264.506C28.1532 261.52 28.2465 258.51 28.7365 255.547C28.7832 255.313 28.9932 255.173 29.2265 255.22C29.4598 255.267 29.5998 255.477 29.5532 255.687C29.0865 258.557 28.9932 261.496 29.3432 264.39C29.3665 264.623 29.2032 264.833 28.9698 264.856Z" fill="white"/>
<path opacity="0.3" d="M389.634 94.9449L227.469 1.33231C225.042 -0.0676764 223.082 1.07565 223.082 3.87562V132.301C223.245 135.405 224.879 138.251 227.469 139.954L389.634 233.567C392.061 234.967 394.021 233.824 394.021 231.024V102.598C393.857 99.4948 392.224 96.6482 389.634 94.9449Z" fill="#58B3B3"/>
<path opacity="0.5" d="M389.634 94.9449L227.469 1.33231C225.042 -0.0676764 223.082 1.07565 223.082 3.87562V132.301C223.245 135.405 224.879 138.251 227.469 139.954L389.634 233.567C392.061 234.967 394.021 233.824 394.021 231.024V102.598C393.857 99.4948 392.224 96.6482 389.634 94.9449Z" fill="white"/>
<path opacity="0.3" d="M390.496 209.417V192.967L379.81 186.83V199.174L376.286 197.097V176.517L369.147 172.411V180.647L365.577 178.594V195.044L358.437 190.984V178.594L354.867 176.541V172.434L351.297 170.381V166.274L347.727 164.221V168.327L344.157 166.274V170.381L340.587 168.327V172.434L333.447 168.327V155.984L322.76 149.847V170.381L319.214 168.327V155.984L312.074 151.854V164.197L308.504 162.144V158.037L301.387 153.931V145.694L294.247 141.588V145.694L290.677 143.618V155.984L287.107 153.931V137.481L283.537 135.428V131.321L279.967 129.268V125.161L276.397 123.108V127.214L272.827 125.161V129.268L269.257 127.214V147.771L265.687 145.718V137.504L255.117 131.368V135.544L247.861 131.368V123.131L244.291 121.078V116.971L240.721 114.918V110.811L237.151 108.758V112.864L233.581 110.811V114.918L230.011 112.864V121.101L222.871 116.971V132.441C223.034 135.544 224.668 138.391 227.258 140.094L389.47 233.66C391.896 235.06 393.856 233.917 393.856 231.117V211.54L390.333 209.487L390.496 209.417Z" fill="#58B3B3"/>
<g opacity="0.3">
<path d="M225.485 1.61322C226.022 1.63655 226.558 1.79989 227.025 2.10322L389.19 95.7158C391.524 97.2791 392.994 99.8224 393.18 102.622V231.048C393.18 231.725 393.017 233.311 391.617 233.311C391.08 233.288 390.544 233.125 390.077 232.821L227.912 139.185C225.578 137.645 224.108 135.079 223.922 132.279V3.87654C223.922 3.19988 224.085 1.61322 225.485 1.61322ZM225.485 0.726562C224.038 0.726562 223.035 1.86989 223.035 3.87654V132.302C223.198 135.405 224.832 138.252 227.422 139.955L389.634 233.568C390.24 233.941 390.917 234.128 391.617 234.175C393.064 234.175 394.067 233.031 394.067 231.025V102.599C393.904 99.4957 392.27 96.6491 389.68 94.9458L227.468 1.33322C226.862 0.959894 226.185 0.773229 225.485 0.726562Z" fill="#58B3B3"/>
</g>
<path opacity="0.5" d="M269.841 67.7638L340.144 108.363C344.344 110.79 347.75 116.67 347.75 121.523V141.007C347.75 145.837 344.367 147.82 340.144 145.393L269.841 104.794C265.641 102.367 262.234 96.4869 262.234 91.6336V72.1505C262.234 67.2738 265.641 65.3372 269.841 67.7638Z" fill="white"/>
<g opacity="0.5">
<path d="M343.548 146.86C342.265 146.814 341.028 146.44 339.932 145.764L269.629 105.164C265.312 102.668 261.812 96.6009 261.812 91.631V72.1478C261.812 69.6278 262.699 67.7612 264.262 66.8745C265.826 65.9878 267.902 66.1512 270.072 67.4112L340.375 108.011C344.692 110.507 348.192 116.574 348.192 121.544V141.027C348.192 143.547 347.305 145.414 345.765 146.3C345.088 146.674 344.342 146.884 343.572 146.86H343.548ZM266.456 67.1545C265.849 67.1545 265.242 67.2945 264.706 67.6212C263.422 68.3678 262.699 69.9778 262.699 72.1478V91.631C262.699 96.3209 266.012 102.061 270.072 104.418L340.375 145.017C342.265 146.114 344.015 146.3 345.322 145.554C346.628 144.807 347.328 143.197 347.328 141.027V121.544C347.328 116.854 344.015 111.114 339.955 108.757L269.629 68.1811C268.672 67.5745 267.576 67.2245 266.456 67.1778V67.1545Z" fill="#58B3B3"/>
</g>
<g opacity="0.5">
<path d="M281.04 83.7218C281.764 84.1418 282.417 84.6785 282.977 85.3085C283.56 85.9385 284.05 86.6385 284.494 87.3851C284.914 88.0851 285.24 88.8084 285.497 89.5784C285.707 90.1851 285.847 90.8384 285.894 91.4918C285.894 91.6084 285.87 91.7251 285.777 91.8184C285.707 91.8884 285.614 91.8884 285.544 91.8184L283.397 90.5818C283.257 90.4884 283.14 90.3951 283.024 90.2551C282.907 90.0918 282.814 89.9518 282.744 89.7884C282.744 89.7184 282.674 89.6018 282.604 89.4384C282.51 89.2518 282.417 89.0651 282.3 88.9018C282.16 88.6918 281.997 88.4818 281.81 88.2951C281.6 88.0851 281.344 87.8751 281.087 87.7351C280.9 87.6185 280.69 87.5251 280.48 87.4551C280.317 87.3851 280.154 87.3618 279.967 87.3618C279.827 87.3618 279.687 87.4318 279.594 87.5485C279.477 87.7118 279.43 87.8985 279.454 88.1085C279.454 88.3651 279.5 88.5984 279.617 88.8318C279.757 89.1118 279.944 89.3684 280.154 89.6018C280.457 89.9518 280.784 90.2784 281.134 90.5818L282.65 91.9351C283.234 92.4484 283.747 92.9851 284.237 93.5917C284.68 94.1284 285.054 94.7117 285.357 95.3417C285.66 95.9484 285.894 96.6017 286.034 97.255C286.197 97.9784 286.267 98.7017 286.244 99.4484C286.267 100.172 286.15 100.872 285.87 101.525C285.66 102.015 285.287 102.412 284.82 102.645C284.307 102.878 283.747 102.925 283.21 102.808C282.487 102.668 281.81 102.388 281.18 102.015C280.41 101.572 279.734 101.035 279.127 100.382C278.52 99.7284 277.984 99.0284 277.54 98.2584C277.12 97.535 276.77 96.765 276.49 95.9717C276.257 95.2951 276.117 94.5717 276.094 93.8484C276.094 93.7317 276.117 93.6151 276.21 93.5217C276.28 93.4517 276.374 93.4517 276.444 93.5217L278.59 94.7584C278.73 94.8284 278.847 94.9217 278.94 95.0617C279.034 95.1784 279.127 95.3184 279.197 95.4817L279.407 95.9251C279.5 96.1584 279.617 96.3684 279.757 96.6017C279.92 96.8817 280.107 97.115 280.317 97.3484C280.55 97.605 280.83 97.8384 281.157 98.0017C281.6 98.2817 282.09 98.4684 282.604 98.5384C283 98.585 283.187 98.3284 283.187 97.8384C283.187 97.5817 283.117 97.3017 282.977 97.0917C282.79 96.765 282.58 96.485 282.347 96.205C282.067 95.9017 281.694 95.5517 281.25 95.1551C280.807 94.7584 280.294 94.2684 279.687 93.7317C278.637 92.8217 277.774 91.6784 277.214 90.4184C276.677 89.1818 276.42 87.8284 276.444 86.4985C276.444 85.8451 276.537 85.2151 276.77 84.6085C276.957 84.1185 277.284 83.6985 277.704 83.3952C278.147 83.1152 278.66 82.9985 279.174 83.0452C279.85 83.1152 280.527 83.3485 281.11 83.7218H281.04Z" fill="#58B3B3"/>
<path d="M297.419 93.4283C297.559 93.5216 297.676 93.6616 297.746 93.8016C297.839 93.9883 297.886 94.175 297.886 94.3616V97.0916C297.886 97.2316 297.863 97.3949 297.746 97.4883C297.653 97.5583 297.513 97.5583 297.419 97.4883L294.526 95.8083V108.805C294.526 108.945 294.503 109.108 294.386 109.225C294.293 109.295 294.153 109.295 294.059 109.225L291.913 107.988C291.773 107.895 291.656 107.755 291.586 107.615C291.493 107.428 291.446 107.242 291.446 107.055V94.0583L288.553 92.3783C288.413 92.285 288.296 92.145 288.226 92.005C288.133 91.8183 288.086 91.6316 288.086 91.445V88.7617C288.086 88.6217 288.109 88.4583 288.226 88.365C288.319 88.295 288.459 88.295 288.553 88.365L297.396 93.4516L297.419 93.4283Z" fill="#58B3B3"/>
<path d="M305.515 98.0966C305.725 98.2366 305.912 98.4232 306.005 98.6566C306.098 98.8899 306.192 99.0999 306.238 99.3565L309.832 117.393C309.855 117.533 309.878 117.673 309.902 117.813C309.902 117.93 309.878 118.046 309.785 118.14C309.715 118.21 309.598 118.21 309.528 118.14L307.452 116.95C307.242 116.856 307.078 116.67 306.985 116.46C306.892 116.296 306.845 116.133 306.798 115.946L306.332 113.59L301.945 111.07L301.478 112.913C301.455 113.03 301.385 113.146 301.292 113.24C301.198 113.333 301.035 113.31 300.825 113.17L298.772 112.05C298.655 111.98 298.562 111.863 298.515 111.723C298.445 111.583 298.422 111.42 298.398 111.28C298.398 111.163 298.422 111.046 298.468 110.93L302.062 97.0466C302.108 96.8832 302.178 96.7432 302.295 96.6266C302.412 96.5099 302.575 96.5099 302.785 96.6266L305.445 98.1199L305.515 98.0966ZM302.878 107.64L305.515 109.18L304.185 102.367L302.878 107.64Z" fill="#58B3B3"/>
<path d="M317.368 105.002C318.068 105.422 318.722 105.912 319.305 106.472C319.865 107.032 320.355 107.685 320.752 108.385C321.172 109.108 321.475 109.902 321.662 110.718C321.895 111.628 321.988 112.562 321.988 113.472C322.035 114.452 321.872 115.432 321.475 116.342C321.195 116.925 320.658 117.322 320.028 117.415L322.058 124.625C322.058 124.625 322.105 124.835 322.105 124.928C322.105 125.045 322.082 125.162 321.988 125.255C321.918 125.325 321.802 125.325 321.732 125.255L319.492 123.972C319.282 123.855 319.118 123.692 319.025 123.482C318.932 123.295 318.862 123.108 318.815 122.898L316.995 116.412L315.478 115.525V120.938C315.478 121.078 315.455 121.242 315.338 121.335C315.245 121.405 315.105 121.405 315.012 121.335L312.865 120.098C312.725 120.005 312.608 119.865 312.538 119.702C312.445 119.538 312.398 119.352 312.398 119.142V102.785C312.398 102.645 312.422 102.482 312.538 102.388C312.632 102.318 312.772 102.318 312.865 102.388L317.322 104.978L317.368 105.002ZM315.502 111.605L317.368 112.678C317.695 112.912 318.115 113.005 318.512 112.935C318.815 112.842 318.978 112.445 318.978 111.722C319.002 111.115 318.862 110.485 318.512 109.972C318.208 109.528 317.835 109.178 317.368 108.922L315.502 107.848V111.628V111.605Z" fill="#58B3B3"/>
<path d="M333.494 114.264C333.634 114.357 333.727 114.497 333.797 114.661C333.89 114.824 333.937 115.011 333.937 115.221V117.904C333.937 118.044 333.89 118.207 333.797 118.301C333.704 118.371 333.587 118.371 333.494 118.301L330.6 116.644V129.641C330.6 129.781 330.577 129.944 330.46 130.037C330.367 130.107 330.227 130.107 330.134 130.037L328.01 128.847C327.87 128.754 327.777 128.614 327.707 128.451C327.614 128.287 327.567 128.101 327.567 127.891V114.894L324.674 113.237C324.534 113.144 324.417 113.004 324.347 112.841C324.254 112.677 324.207 112.491 324.207 112.281V109.597C324.207 109.457 324.23 109.294 324.347 109.177C324.44 109.108 324.58 109.108 324.674 109.177L333.47 114.264H333.494Z" fill="#58B3B3"/>
</g>
<path opacity="0.3" d="M239.089 15.8239C242.239 17.8772 244.223 21.3305 244.433 25.0872C244.433 28.4938 242.029 29.8704 239.089 28.1671C235.939 26.1138 233.956 22.6838 233.746 18.9039C233.746 15.5206 236.126 14.1206 239.089 15.8239Z" fill="#58B3B3"/>
<path d="M242.167 22.7778C242.167 22.1711 242.05 21.5878 241.794 21.0278C241.584 20.4445 241.187 19.9545 240.674 19.5811C239.904 19.1145 239.25 20.0478 239.157 21.1445C239.064 19.9545 238.434 18.2745 237.664 17.8312C237.314 17.5978 236.824 17.6445 236.544 17.9478C236.264 18.3212 236.124 18.7878 236.147 19.2545C236.147 21.0978 237.244 22.7545 238.154 24.5278L239.134 26.3711L240.114 25.6711C241.024 24.9944 242.144 24.6444 242.144 22.8011L242.167 22.7778Z" fill="#FBFBFC"/>
<path opacity="0.3" d="M255.118 25.0859C258.291 27.1392 260.298 30.5692 260.508 34.3492C260.508 37.7558 258.104 39.1324 255.164 37.4291C252.014 35.3758 250.031 31.9225 249.821 28.1659C249.774 24.7592 252.154 23.3826 255.118 25.0859Z" fill="#58B3B3"/>
<path d="M258.128 32.0644C258.128 31.4578 257.988 30.8745 257.754 30.3145C257.544 29.7311 257.148 29.2178 256.634 28.8678C255.865 28.4245 255.211 29.3345 255.118 30.4311C255.025 29.2411 254.395 27.5612 253.625 27.1178C253.275 26.8612 252.785 26.9078 252.481 27.2345C252.201 27.6078 252.061 28.0745 252.085 28.5411C252.085 30.3845 253.181 32.0411 254.091 33.8144L255.071 35.6577L256.098 34.9578C256.985 34.3044 258.104 33.9311 258.104 32.0878L258.128 32.0644Z" fill="#FBFBFC"/>
<path opacity="0.3" d="M271.148 34.3504C274.298 36.4037 276.281 39.857 276.491 43.6136C276.491 47.0203 274.088 48.3969 271.148 46.6936C267.974 44.6636 265.991 41.2337 265.758 37.477C265.758 34.0237 268.184 32.6471 271.148 34.3504Z" fill="#58B3B3"/>
<path d="M274.183 41.3012C274.183 40.6946 274.043 40.1112 273.809 39.5512C273.576 38.9679 273.179 38.4779 272.689 38.1046C271.919 37.6379 271.266 38.5712 271.173 39.6679C271.079 38.4779 270.449 36.7979 269.679 36.3546C269.329 36.1213 268.839 36.1679 268.559 36.4713C268.279 36.8446 268.139 37.3113 268.163 37.7779C268.163 39.6212 269.259 41.2779 270.193 43.0512L271.173 44.8945L272.153 44.1945C273.086 43.5179 274.206 43.1679 274.206 41.3246L274.183 41.3012Z" fill="#FBFBFC"/>
<path d="M286.827 44.6163L361.563 87.7593C363.756 89.1359 365.179 91.4692 365.366 94.0592C365.366 96.3225 363.663 97.1858 361.563 95.9725L286.827 52.8296C284.633 51.4529 283.21 49.1196 283.023 46.5296C283.047 44.2663 284.75 43.403 286.827 44.6163Z" fill="#FBFBFC"/>
<path opacity="0.5" d="M285.148 47.7183C285.242 49.0016 285.942 50.1916 287.038 50.8683L362.124 94.2679C363.174 94.8745 364.014 94.4546 364.014 93.3112C363.921 92.0279 363.221 90.8613 362.124 90.1613L287.038 46.7616C285.988 46.155 285.148 46.575 285.148 47.7183Z" fill="#58B3B3"/>
<g opacity="0.3">
<path d="M369.262 94.7105C369.262 94.7105 369.262 94.5238 369.262 94.4538C369.262 94.3838 369.285 94.3138 369.355 94.2905L371.058 93.2639L371.222 93.1705C371.222 93.1705 371.362 93.1472 371.432 93.1705L372.388 93.7305C372.388 93.7305 372.505 93.8472 372.528 93.9172C372.575 94.0105 372.598 94.1039 372.598 94.1972V102.037C372.598 102.037 372.598 102.177 372.528 102.224C372.528 102.27 372.435 102.27 372.388 102.224L371.362 101.617C371.362 101.617 371.245 101.5 371.222 101.43C371.175 101.337 371.175 101.267 371.152 101.174V95.8538L370.218 96.4138C370.218 96.4138 370.125 96.4605 370.055 96.4138C369.985 96.3672 369.938 96.2972 369.915 96.2038L369.285 94.7105H369.262Z" fill="#58B3B3"/>
<path d="M376.4 95.9712C376.797 96.2045 377.123 96.4845 377.427 96.8579C377.706 97.2079 377.963 97.5812 378.127 97.9778C378.313 98.3978 378.453 98.8178 378.546 99.2845C378.64 99.7278 378.686 100.171 378.71 100.638V102.808C378.71 103.204 378.64 103.578 378.546 103.974C378.476 104.278 378.337 104.558 378.127 104.791C377.94 104.978 377.683 105.094 377.427 105.094C377.053 105.094 376.703 104.978 376.4 104.768C376.003 104.534 375.677 104.231 375.373 103.881C375.093 103.531 374.86 103.158 374.673 102.761C374.487 102.341 374.347 101.921 374.253 101.454C374.16 101.011 374.113 100.568 374.09 100.101V97.9312C374.09 97.5345 374.16 97.1612 374.253 96.7645C374.323 96.4612 374.463 96.1812 374.673 95.9479C374.86 95.7612 375.117 95.6445 375.373 95.6445C375.747 95.6445 376.097 95.7612 376.4 95.9712ZM377.287 101.851V99.7978C377.287 99.5878 377.286 99.3778 377.24 99.1912C377.216 99.0045 377.17 98.8412 377.1 98.6545C377.03 98.4912 376.96 98.3512 376.843 98.2112C376.727 98.0712 376.61 97.9545 376.447 97.8612C376.33 97.7912 376.19 97.7445 376.05 97.7445C375.957 97.7445 375.863 97.8145 375.793 97.8845C375.723 98.0012 375.677 98.1178 375.653 98.2345C375.63 98.3978 375.607 98.5845 375.607 98.7712V100.824C375.607 101.011 375.607 101.221 375.653 101.408C375.653 101.594 375.723 101.758 375.793 101.944C375.863 102.108 375.933 102.248 376.05 102.388C376.167 102.528 376.283 102.644 376.447 102.738C376.563 102.808 376.703 102.854 376.843 102.854C376.937 102.854 377.03 102.784 377.1 102.714C377.17 102.598 377.216 102.481 377.24 102.364C377.24 102.201 377.24 102.014 377.24 101.828H377.287V101.851Z" fill="#58B3B3"/>
<path d="M384.499 103.508C384.499 103.718 384.499 103.951 384.453 104.161C384.429 104.348 384.383 104.534 384.289 104.698C384.22 104.861 384.103 105.001 383.986 105.141C383.846 105.281 383.706 105.398 383.52 105.491L382.423 106.144L384.406 107.288C384.406 107.288 384.523 107.404 384.546 107.474C384.593 107.544 384.616 107.638 384.616 107.731V109.014C384.616 109.014 384.616 109.154 384.546 109.201C384.499 109.248 384.43 109.248 384.406 109.201L380.23 106.798C380.23 106.798 380.113 106.681 380.09 106.611C380.043 106.541 380.02 106.448 380.02 106.354V105.304C380.02 105.188 380.02 105.071 380.066 104.954C380.09 104.861 380.16 104.791 380.253 104.744L382.61 103.508C382.773 103.438 382.889 103.298 382.959 103.134C383.006 102.994 383.029 102.831 383.029 102.668V102.411C383.029 102.294 382.983 102.178 382.936 102.061C382.89 101.921 382.82 101.804 382.726 101.688C382.633 101.548 382.516 101.454 382.376 101.361C382.283 101.291 382.143 101.244 382.026 101.268C381.933 101.268 381.863 101.338 381.816 101.408C381.77 101.478 381.723 101.571 381.7 101.641C381.7 101.734 381.653 101.781 381.653 101.828C381.653 101.874 381.583 101.968 381.536 101.991C381.466 101.991 381.396 101.968 381.35 101.921L380.37 101.361C380.37 101.361 380.276 101.268 380.253 101.198C380.23 101.128 380.206 101.058 380.206 100.988C380.206 100.661 380.253 100.358 380.346 100.054C380.416 99.7976 380.556 99.5643 380.766 99.3777C380.953 99.2143 381.186 99.121 381.443 99.0977C381.793 99.0977 382.12 99.2143 382.4 99.401C382.75 99.611 383.053 99.8676 383.31 100.171C383.566 100.474 383.799 100.824 383.986 101.174C384.149 101.548 384.289 101.921 384.383 102.318C384.476 102.691 384.499 103.088 384.499 103.484V103.508Z" fill="#58B3B3"/>
<path d="M387.299 108.362L387.415 108.666C387.415 108.666 387.509 108.876 387.579 108.992C387.649 109.109 387.719 109.202 387.812 109.296C387.905 109.389 387.999 109.482 388.139 109.552C388.232 109.622 388.349 109.646 388.465 109.669C388.559 109.692 388.652 109.692 388.722 109.669C388.815 109.622 388.862 109.552 388.909 109.459C388.955 109.319 388.979 109.179 388.979 109.039C388.979 108.759 388.909 108.479 388.769 108.246C388.629 107.989 388.442 107.802 388.209 107.662C388.139 107.616 388.069 107.592 387.999 107.592H387.672C387.672 107.592 387.579 107.592 387.555 107.592L386.319 106.892C386.319 106.892 386.202 106.776 386.155 106.706C386.109 106.636 386.085 106.542 386.109 106.449L386.342 102.249C386.342 102.249 386.342 102.109 386.412 102.062C386.459 102.016 386.529 102.016 386.552 102.062L389.935 103.999C389.935 103.999 390.052 104.116 390.075 104.186C390.122 104.256 390.145 104.349 390.145 104.442V105.726C390.145 105.726 390.145 105.866 390.075 105.912C390.029 105.959 389.959 105.959 389.935 105.912L387.649 104.582L387.602 105.632C387.602 105.632 387.812 105.632 387.929 105.632C388.069 105.656 388.209 105.702 388.349 105.796C388.675 105.982 388.979 106.216 389.235 106.472C389.492 106.752 389.725 107.079 389.912 107.429C390.099 107.802 390.262 108.176 390.355 108.596C390.472 109.039 390.519 109.482 390.519 109.926C390.519 110.322 390.472 110.719 390.332 111.116C390.239 111.372 390.075 111.606 389.842 111.769C389.632 111.909 389.375 111.979 389.119 111.932C388.815 111.886 388.512 111.769 388.232 111.606C387.882 111.396 387.555 111.139 387.275 110.836C386.995 110.532 386.762 110.206 386.575 109.856C386.389 109.506 386.225 109.156 386.132 108.782C386.039 108.432 385.969 108.082 385.969 107.732C385.969 107.662 385.969 107.616 386.015 107.569C386.062 107.546 386.109 107.546 386.155 107.569L387.159 108.152C387.159 108.152 387.299 108.269 387.345 108.339C387.345 108.386 387.369 108.409 387.392 108.456L387.299 108.362Z" fill="#58B3B3"/>
</g>
<path d="M199.767 287.072C199.697 286.932 194.891 278.555 194.891 278.555C194.891 278.555 195.917 279.162 200.771 276.432C202.591 275.335 204.271 274.029 205.811 272.582L209.031 278.765C211.084 280.935 215.354 278.579 220.254 276.689C221.07 276.362 221.91 276.012 222.727 275.639H222.774C225.457 274.752 228.607 275.685 226.39 278.742C224.174 281.799 219.74 283.899 215.657 285.765C210.734 288.052 202.054 291.949 199.791 287.072H199.767Z" fill="#AC6466"/>
<path d="M235.701 276.828C236.284 277.598 236.681 278.508 236.798 279.465C236.961 280.491 235.374 284.551 231.524 287.771C227.674 290.991 222.308 292.555 219.974 293.908C217.641 295.261 215.681 297.361 212.881 298.878C210.081 300.395 207.234 301.515 203.734 300.348C202.964 299.648 201.821 297.851 201.984 297.595C202.311 297.058 235.701 276.828 235.701 276.828Z" fill="#273238"/>
<path d="M210.013 279.465C212.277 280.282 216.033 278.322 220.21 276.712C224.153 275.195 228.353 272.559 231.363 272.792C234.373 273.025 237.5 275.685 234.863 280.818C234.093 282.312 232.366 285.018 230.71 286.162C226.51 289.032 222.38 290.245 219.58 291.762C215.94 293.745 214.283 296.008 210.807 297.362C206.303 299.112 203.037 298.692 201.917 297.665C200.797 296.638 197.437 286.815 199.467 286.512C199.467 286.512 201.147 289.522 207.913 284.388C210.877 282.148 210.293 280.142 209.967 279.442L210.013 279.465Z" fill="#58B3B3"/>
<path opacity="0.4" d="M210.013 279.465C212.277 280.282 216.033 278.322 220.21 276.712C224.153 275.195 228.353 272.559 231.363 272.792C234.373 273.025 237.5 275.685 234.863 280.818C234.093 282.312 232.366 285.018 230.71 286.162C226.51 289.032 222.38 290.245 219.58 291.762C215.94 293.745 214.283 296.008 210.807 297.362C206.303 299.112 203.037 298.692 201.917 297.665C200.797 296.638 197.437 286.815 199.467 286.512C199.467 286.512 201.147 289.522 207.913 284.388C210.877 282.148 210.293 280.142 209.967 279.442L210.013 279.465Z" fill="#040000"/>
<path d="M224.314 281.469C224.314 281.469 222.774 277.362 219.368 277.082C218.738 276.966 218.084 277.222 217.711 277.759C217.711 277.759 220.721 277.432 222.984 282.146C222.984 282.146 223.218 282.426 223.824 282.146C224.034 282.029 224.454 281.819 224.361 281.469H224.314Z" fill="#FBFBFC"/>
<path d="M215.122 278.74C215.122 278.74 215.075 278.6 215.775 278.274C216.055 278.134 216.358 278.087 216.662 278.157C216.662 278.157 219.298 278.554 220.838 282.847C220.885 283.22 220.675 283.594 220.302 283.734C219.998 283.944 219.578 283.85 219.368 283.547C219.368 283.547 219.368 283.524 219.368 283.5C219.368 283.5 217.665 278.974 215.122 278.74Z" fill="#FBFBFC"/>
<path d="M212.625 279.534C212.625 279.534 212.695 279.231 213.231 279.091C213.931 278.904 214.141 279.091 214.141 279.091C214.141 279.091 216.241 280.351 217.221 284.037C217.221 284.037 217.455 284.644 216.591 284.924C215.728 285.204 215.705 284.481 215.705 284.481C215.705 284.481 214.141 279.884 212.578 279.534H212.625Z" fill="#FBFBFC"/>
<path d="M180.567 226.73C187.357 237.184 207.751 273.91 207.751 273.91C207.751 273.91 202.734 281.517 194.894 280.7L165.074 236.11L180.567 226.73Z" fill="#37474E"/>
<path d="M228.307 302.401C227.28 301.397 222.707 293.884 222.707 293.884C222.707 293.884 226.137 295.027 231.2 292.694C233.767 291.504 235.704 288.074 235.704 288.074L239.53 295.424C241.397 297.757 245.55 296.031 250.567 294.537C251.453 294.281 252.27 294.001 253.133 293.651H253.18C255.933 293.021 258.99 294.187 256.54 297.034C254.09 299.881 249.517 301.631 245.247 303.171C240.16 305.061 232.134 306.181 228.307 302.377V302.401Z" fill="#AC6466"/>
<path d="M267.925 294.188C268.508 295.074 268.835 296.101 268.859 297.151C268.952 298.271 266.899 302.447 262.489 305.574C258.079 308.701 252.199 309.891 249.585 311.174C246.972 312.457 244.709 314.487 241.559 315.864C238.409 317.241 235.282 318.221 231.619 316.634C230.849 315.817 229.822 313.787 229.962 313.531C230.382 312.854 267.902 294.188 267.902 294.188H267.925Z" fill="#273238"/>
<path d="M240.251 294.652C240.601 294.815 240.975 294.932 241.348 295.049C241.721 295.119 242.095 295.119 242.468 295.049C243.355 294.979 244.241 294.815 245.105 294.582C247.228 294.045 249.305 293.275 251.428 292.669C255.814 291.385 260.504 288.935 263.701 289.449C266.898 289.962 270.351 292.949 267.061 298.268C265.801 300.322 264.191 302.142 262.324 303.635C257.798 306.692 252.571 307.345 249.468 308.722C245.408 310.518 243.425 312.805 239.575 313.995C234.605 315.488 231.151 314.742 230.031 313.528C229.401 312.852 229.145 308.792 227.885 305.828C226.788 303.285 226.578 301.442 227.558 301.372C227.838 301.675 228.141 301.932 228.491 302.165C228.888 302.468 229.331 302.702 229.798 302.842C230.451 303.005 231.151 303.075 231.828 303.098C233.041 303.215 234.278 303.145 235.468 302.865C235.795 302.795 236.098 302.632 236.355 302.375C236.611 301.978 236.728 301.512 236.681 301.068V299.855C236.681 299.622 236.681 299.412 236.775 299.202C236.891 298.968 237.078 298.758 237.288 298.595C237.965 298.105 238.525 297.475 238.921 296.729C239.131 296.099 239.201 295.445 239.131 294.792C239.131 294.675 239.131 294.559 239.201 294.465C239.318 294.325 239.551 294.372 239.738 294.465C239.925 294.559 240.135 294.582 240.345 294.652H240.251Z" fill="#58B3B3"/>
<path opacity="0.4" d="M240.251 294.652C240.601 294.815 240.975 294.932 241.348 295.049C241.721 295.119 242.095 295.119 242.468 295.049C243.355 294.979 244.241 294.815 245.105 294.582C247.228 294.045 249.305 293.275 251.428 292.669C255.814 291.385 260.504 288.935 263.701 289.449C266.898 289.962 270.351 292.949 267.061 298.268C265.801 300.322 264.191 302.142 262.324 303.635C257.798 306.692 252.571 307.345 249.468 308.722C245.408 310.518 243.425 312.805 239.575 313.995C234.605 315.488 231.151 314.742 230.031 313.528C229.401 312.852 229.145 308.792 227.885 305.828C226.788 303.285 226.578 301.442 227.558 301.372C227.838 301.675 228.141 301.932 228.491 302.165C228.888 302.468 229.331 302.702 229.798 302.842C230.451 303.005 231.151 303.075 231.828 303.098C233.041 303.215 234.278 303.145 235.468 302.865C235.795 302.795 236.098 302.632 236.355 302.375C236.611 301.978 236.728 301.512 236.681 301.068V299.855C236.681 299.622 236.681 299.412 236.775 299.202C236.891 298.968 237.078 298.758 237.288 298.595C237.965 298.105 238.525 297.475 238.921 296.729C239.131 296.099 239.201 295.445 239.131 294.792C239.131 294.675 239.131 294.559 239.201 294.465C239.318 294.325 239.551 294.372 239.738 294.465C239.925 294.559 240.135 294.582 240.345 294.652H240.251Z" fill="#040000"/>
<path d="M255.325 298.129C255.325 298.129 254.042 293.602 250.425 292.972C249.749 292.809 249.049 293.019 248.582 293.555C248.582 293.555 251.825 293.462 253.855 298.689C253.855 298.689 254.065 299.015 254.742 298.759C254.952 298.689 255.465 298.502 255.349 298.129H255.325Z" fill="#FBFBFC"/>
<path d="M245.734 294.419C245.734 294.419 245.734 294.279 246.481 293.975C246.784 293.835 247.111 293.835 247.438 293.905C247.438 293.905 250.168 294.559 251.498 299.295C251.498 299.692 251.241 300.065 250.844 300.182C250.494 300.369 250.051 300.252 249.864 299.902C249.864 299.902 249.864 299.902 249.864 299.879C249.864 299.879 248.441 294.885 245.758 294.419H245.734Z" fill="#FBFBFC"/>
<path d="M243.004 295.002C243.004 295.002 243.097 294.676 243.704 294.582C244.451 294.442 244.684 294.722 244.684 294.722C244.684 294.722 246.831 296.262 247.554 300.299C247.554 300.299 247.741 300.975 246.807 301.185C245.874 301.395 245.874 300.625 245.874 300.625C245.874 300.625 244.637 295.562 243.004 295.002Z" fill="#FBFBFC"/>
<path d="M213.42 241.734C218.32 250.461 230.523 276.547 236.8 289.497C233.65 293.347 229.147 295.867 224.2 296.567L191.207 251.208L201.03 242.948L213.397 241.758L213.42 241.734Z" fill="#455963"/>
<path d="M101 232.75C101 232.75 140.83 220.733 147.76 218.82C154.69 216.907 167.383 214.387 171.279 216.137C175.176 217.886 177.346 220.943 179.726 224.676C182.176 228.55 183.996 232.096 183.996 232.096C183.996 232.096 157.91 239.236 142.136 239.236C126.363 239.236 101.023 232.773 101.023 232.773L101 232.75Z" fill="#37474E"/>
<path d="M103.778 217.094C101.281 225.634 98.0146 240.824 109.518 251.93C113.998 256.27 139.711 270.037 155.484 265.207C173.124 259.793 194.17 249.363 194.17 249.363C194.17 249.363 204.81 249.993 208.287 247.987C211.764 245.98 213.864 242.69 213.397 241.734C207.89 230.324 203.317 224.397 191.417 225.587C176.857 227.034 152.591 231.467 152.591 231.467L103.755 217.094H103.778Z" fill="#455963"/>
<path d="M163.041 155.306C155.505 148.703 144.911 151.713 139.031 157.43C130.025 166.203 124.658 177.333 126.641 182.863C128.951 189.186 163.041 155.306 163.041 155.306Z" fill="#455963"/>
<path d="M252.15 193.926C252.314 192.829 251.427 191.592 249.63 190.682L228.747 180.019C225.551 178.596 221.957 178.362 218.597 179.319L199.511 185.899C197.854 186.482 196.921 187.276 196.874 188.069C196.828 188.652 196.524 190.892 196.501 191.522C196.478 192.152 196.898 192.642 197.784 193.086C199.931 194.182 204.714 194.532 208.494 193.902L213.324 193.086C217.104 192.432 221.887 192.806 224.011 193.879C225.294 194.509 226.344 195.559 226.951 196.866L225.831 200.762C225.574 201.462 225.574 202.255 225.831 202.955L225.481 204.192C225.061 205.662 224.921 207.202 228.561 208.812C230.894 209.979 233.671 209.862 235.887 208.532L250.68 198.896C251.264 198.569 251.66 198.009 251.777 197.379C251.847 196.819 252.057 194.579 252.127 194.019L252.15 193.926Z" fill="#455963"/>
<path d="M227.931 199.455L228.001 189.329L221.701 187.672L221.141 193.015C222.144 193.155 223.124 193.435 224.034 193.855C225.317 194.485 226.367 195.535 226.974 196.842L226.507 198.405L227.931 199.455Z" fill="#273238"/>
<path d="M250.986 191.59C252.899 193.34 253.039 193.853 252.503 200.783C251.966 207.69 250.403 207.876 248.629 206.686C246.856 205.496 245.666 202.206 243.473 203.56L250.963 191.59H250.986Z" fill="#455963"/>
<path d="M198.183 189.656C200.329 190.752 205.113 191.102 208.893 190.472L213.723 189.656C217.503 189.002 222.286 189.376 224.409 190.449C226.532 191.522 227.909 193.599 227.489 195.069L225.856 200.739C225.436 202.209 225.296 203.749 228.936 205.359C231.269 206.526 234.046 206.409 236.262 205.079L251.056 195.466C252.969 194.229 252.339 192.082 249.632 190.706L228.749 180.042C225.552 178.619 221.959 178.386 218.599 179.342L199.513 185.922C196.619 186.926 196.013 188.606 198.159 189.702L198.183 189.656Z" fill="#58B3B3"/>
<path opacity="0.2" d="M198.183 189.656C200.329 190.752 205.113 191.102 208.893 190.472L213.723 189.656C217.503 189.002 222.286 189.376 224.409 190.449C226.532 191.522 227.909 193.599 227.489 195.069L225.856 200.739C225.436 202.209 225.296 203.749 228.936 205.359C231.269 206.526 234.046 206.409 236.262 205.079L251.056 195.466C252.969 194.229 252.339 192.082 249.632 190.706L228.749 180.042C225.552 178.619 221.959 178.386 218.599 179.342L199.513 185.922C196.619 186.926 196.013 188.606 198.159 189.702L198.183 189.656Z" fill="#040000"/>
<path d="M244.545 190.634C244.499 190.401 244.359 190.214 244.125 190.121C243.379 189.771 242.539 189.748 241.769 190.028C241.395 190.168 241.209 190.378 241.209 190.588C241.209 190.798 241.139 191.264 241.115 191.404C241.092 191.544 241.255 191.801 241.535 191.964C242.282 192.314 243.122 192.338 243.892 192.081C244.242 191.941 244.429 191.731 244.452 191.521C244.475 191.311 244.545 190.798 244.545 190.634Z" fill="#273238"/>
<path d="M239.504 192.689C239.481 192.455 239.318 192.245 239.084 192.152C238.338 191.802 237.498 191.779 236.728 192.059C236.378 192.199 236.191 192.409 236.168 192.595C236.144 192.782 236.074 193.295 236.074 193.482C236.098 193.715 236.261 193.925 236.494 194.019C237.241 194.369 238.081 194.392 238.851 194.135C239.201 193.995 239.388 193.785 239.411 193.599C239.434 193.412 239.504 192.875 239.504 192.712V192.689Z" fill="#37474E"/>
<path d="M239.807 190.447C239.807 190.26 239.667 190.05 239.387 189.887C238.641 189.537 237.801 189.513 237.031 189.77C236.681 189.91 236.494 190.12 236.471 190.33C236.448 190.54 236.401 191.03 236.377 191.17C236.354 191.31 236.494 191.567 236.797 191.73C237.544 192.08 238.384 192.103 239.154 191.823C239.504 191.683 239.714 191.473 239.714 191.263C239.714 191.053 239.784 190.587 239.807 190.423V190.447Z" fill="#273238"/>
<path d="M244.241 192.921C244.241 192.734 244.124 192.524 243.821 192.361C243.074 192.011 242.234 191.964 241.464 192.244C241.114 192.384 240.928 192.594 240.904 192.781C240.881 192.968 240.834 193.481 240.811 193.668C240.788 193.854 240.928 194.064 241.231 194.251C241.978 194.601 242.818 194.624 243.588 194.344C243.938 194.204 244.124 193.994 244.148 193.808C244.171 193.621 244.241 193.061 244.241 192.921Z" fill="#37474E"/>
<path d="M241.767 190.004C241.067 190.284 240.997 190.797 241.604 191.124C242.35 191.474 243.19 191.497 243.96 191.241C244.66 190.961 244.73 190.447 244.124 190.097C243.377 189.747 242.537 189.724 241.767 190.004Z" fill="#455963"/>
<path d="M236.728 192.082C236.028 192.362 235.958 192.876 236.565 193.202C237.311 193.552 238.151 193.576 238.921 193.319C239.621 193.039 239.691 192.526 239.085 192.176C238.338 191.826 237.498 191.802 236.728 192.082Z" fill="#455963"/>
<path d="M237.033 189.793C236.333 190.073 236.263 190.587 236.869 190.913C237.616 191.263 238.456 191.31 239.226 191.03C239.926 190.75 239.996 190.237 239.389 189.91C238.643 189.56 237.803 189.537 237.033 189.793Z" fill="#455963"/>
<path d="M241.466 192.268C240.766 192.548 240.696 193.061 241.303 193.388C242.05 193.738 242.89 193.761 243.66 193.504C244.36 193.224 244.429 192.711 243.8 192.384C243.053 192.034 242.213 191.988 241.443 192.268H241.466Z" fill="#455963"/>
<path d="M225.553 181.396L223.337 180.159L220.817 181.186L218.6 179.949L216.08 180.999L215.987 181.933L217.27 182.656L215.777 183.263L215.66 184.196L217.9 185.433L220.397 184.383L222.637 185.619L225.133 184.593L225.25 183.659L223.967 182.936L225.46 182.329L225.553 181.396Z" fill="#37474E"/>
<path d="M223.337 180.159L220.817 181.186L218.601 179.949L216.081 180.999L218.297 182.236L215.777 183.263L217.994 184.499L220.514 183.473L222.731 184.709L225.251 183.659L223.034 182.423L225.554 181.396L223.337 180.159Z" fill="#455963"/>
<path d="M220.512 183.473L220.395 184.383L217.898 185.433L217.992 184.499L220.512 183.473Z" fill="#273238"/>
<path d="M223.031 182.421L223.965 182.935L225.458 182.328L225.551 181.395L223.031 182.421Z" fill="#273238"/>
<path d="M225.25 183.656L225.133 184.59L222.637 185.616L222.73 184.706L225.25 183.656Z" fill="#273238"/>
<path d="M218.294 182.233L216.078 180.996L215.961 181.976L217.268 182.653L218.294 182.233Z" fill="#273238"/>
<path d="M199.326 179.386C204.599 178.196 207.726 179.106 212.206 178.92C213.653 178.873 214.889 178.08 215.589 178.22C216.943 178.476 216.849 179.9 215.963 180.856C215.076 181.813 214.073 182.723 210.199 183.33C206.886 183.866 206.746 183.47 202.873 184.683L198.626 186.69L197.133 183.026L199.349 179.386H199.326Z" fill="#AC6466"/>
<path d="M208.752 178.942C205.952 177.752 202.872 177.379 199.885 177.916C195.592 178.942 197.132 183.329 197.132 183.329L208.752 178.942Z" fill="#AC6466"/>
<path d="M187.614 156.661L174.898 168.024L158.098 162.144L170.091 145.461L187.614 156.661Z" fill="#AC6466"/>
<path d="M200.258 134.82C200.258 134.82 204.528 141.284 204.038 141.937C203.548 142.59 200.398 143.15 200.398 143.15L200.258 134.82Z" fill="#95494C"/>
<path d="M188.407 116.948C197.04 118.768 199.537 122.571 200.353 136.244C201.24 150.571 199.747 155.074 197.857 157.011C196.573 158.317 189.527 158.551 185.957 157.571C181.5 156.334 171.42 152.764 166.66 145.554C161.107 137.084 159.637 125.581 165.61 120.868C174.01 114.264 184.907 116.201 188.407 116.948Z" fill="#AC6466"/>
<path d="M186.352 157.665C190.062 158.598 195.755 158.225 197.458 157.291C195.358 157.688 193.212 157.548 191.182 156.918C189.152 156.335 187.238 155.448 185.488 154.281L186.352 157.665Z" fill="#95494C"/>
<path d="M202.244 122.851C199.771 124.461 196.807 125.091 193.914 125.488C194.101 127.821 193.307 130.085 192.537 132.301C192.001 133.818 190.088 138.601 188.151 135.918C186.774 133.981 185.514 132.208 182.808 132.605C178.328 133.281 177.721 138.998 180.544 142.474C183.368 145.951 186.028 144.621 186.028 144.621C186.028 144.621 186.308 150.758 182.948 155.074C179.284 156.848 175.061 157.011 171.258 155.541C166.988 154.024 160.898 148.471 158.704 144.178C152.684 132.371 152.894 121.218 160.618 117.975C161.504 112.398 165.891 109.925 170.838 108.758C177.768 107.171 184.838 111.651 191.534 108.945C192.957 108.385 194.264 107.545 195.711 107.078C196.504 106.728 197.414 106.751 198.184 107.148C198.744 107.638 199.117 108.315 199.211 109.061C199.607 110.391 199.491 111.815 198.861 113.028C199.864 112.515 200.914 112.141 202.011 111.931C203.131 111.721 204.274 112.025 205.161 112.725C205.907 113.471 206.327 114.475 206.351 115.525C206.584 118.465 204.717 121.241 202.267 122.851H202.244Z" fill="#273238"/>
<path d="M160.524 119.842L155.367 116.808C156.254 115.408 158.12 114.988 159.497 115.875C160.827 116.715 161.27 118.465 160.524 119.842Z" fill="#273238"/>
<path d="M163.042 155.306C153.546 152.46 145.706 153.906 133.293 165.736C119.689 178.663 109.656 200.643 106.156 224.349C106.156 224.349 106.623 235.292 119.316 242.596C132.779 250.319 153.593 248.429 161.946 234.522C161.946 234.522 163.696 222.133 169.249 215.506C172.842 211.213 181.149 201.716 187.309 194.949C192.652 189.046 198.229 174.65 189.829 167.883C187.356 165.9 184.952 164.383 181.522 162.12C172.819 163.66 161.479 158.503 163.042 155.306Z" fill="#58B3B3"/>
<path opacity="0.75" d="M163.042 155.306C153.546 152.46 145.706 153.906 133.293 165.736C119.689 178.663 109.656 200.643 106.156 224.349C106.156 224.349 106.623 235.292 119.316 242.596C132.779 250.319 153.593 248.429 161.946 234.522C161.946 234.522 163.696 222.133 169.249 215.506C172.842 211.213 181.149 201.716 187.309 194.949C192.652 189.046 198.229 174.65 189.829 167.883C187.356 165.9 184.952 164.383 181.522 162.12C172.819 163.66 161.479 158.503 163.042 155.306Z" fill="white"/>
<path opacity="0.1" d="M188.056 194.042L188.476 193.506L188.662 193.249L189.129 192.596C189.129 192.596 189.199 192.479 189.246 192.432C189.432 192.152 189.642 191.849 189.829 191.546C189.829 191.522 189.852 191.499 189.876 191.452C190.062 191.172 190.226 190.892 190.389 190.566L190.506 190.356C190.646 190.076 190.809 189.796 190.949 189.469C190.972 189.422 191.019 189.376 191.042 189.306C191.602 188.233 192.092 187.113 192.512 185.969V185.899C193.562 183.169 194.122 180.253 194.146 177.336C191.276 182.073 187.566 186.249 183.226 189.702C177.672 194.089 171.139 197.169 165.889 201.882C160.336 206.899 155.926 213.292 151.049 218.962C149.089 221.226 146.219 225.729 143.233 225.496C139.593 225.216 136.793 220.316 135.253 217.002C132.826 211.729 131.006 205.289 127.716 200.482C124.846 196.282 120.273 190.776 115.326 192.246C110.846 202.466 107.766 213.246 106.18 224.306C106.18 224.306 106.646 235.249 119.34 242.552C120.46 243.205 121.65 243.789 122.84 244.302C123.213 244.372 123.586 244.442 123.936 244.535C125.756 245.002 127.436 245.889 129.303 246.285L129.979 246.425L130.726 246.565L131.543 246.682L132.219 246.775L133.106 246.892L133.713 246.939L134.669 247.009H138.379L139.266 246.962L139.966 246.915L140.759 246.845L141.529 246.752L142.253 246.659L143.139 246.519L143.699 246.402C144.073 246.332 144.446 246.262 144.819 246.169L145.053 246.122C151.959 244.489 158.329 240.639 162.039 234.455C162.039 234.455 162.133 233.849 162.319 232.869C162.389 232.589 162.436 232.262 162.506 231.912C162.646 231.235 162.833 230.419 163.043 229.532C163.789 226.406 164.863 223.349 166.216 220.409C166.706 219.382 167.266 218.379 167.873 217.422C168.176 216.956 168.502 216.489 168.829 216.046L169.342 215.439L170.066 214.552C173.449 210.562 179.656 203.469 184.976 197.519L187.379 194.882L187.962 194.206L188.102 193.972L188.056 194.042Z" fill="#58B3B3"/>
<path d="M243.986 207.971C241.046 212.661 240.486 215.601 227.769 216.581C227.769 216.581 203.923 231.537 196.27 234.291C188.616 237.044 185.84 232.727 184.253 225.797C182.667 218.867 178.467 192.688 178.467 192.688C178.467 192.688 175.153 176.541 188.71 167.371C194.45 171.758 197.483 176.238 198.44 183.961C199.56 193.201 201.216 214.877 201.216 214.877C201.216 214.877 221.33 206.104 224.363 203.094C225.25 202.137 226.066 201.134 226.766 200.037C228.049 198.288 229.846 196.374 230.359 194.064C231.153 190.401 232.833 190.914 233.439 192.921C234.139 195.511 234.116 198.241 233.369 200.807C233.369 200.807 239.576 205.684 242.633 204.051L243.449 203.514C244.149 203.024 245.106 203.094 245.713 203.724C245.876 204.564 245.736 205.101 243.939 207.971H243.986Z" fill="#AC6466"/>
<path d="M187.171 165.902C194.824 169.496 198.581 175.259 199.351 183.986C200.121 192.712 201.194 207.855 201.194 207.855C201.194 207.855 200.728 213.385 193.401 215.952C189.201 217.492 184.534 216.955 180.801 214.505L177.768 194.765C177.768 194.765 173.474 173.416 187.148 165.902H187.171Z" fill="#455963"/>
<path d="M131.635 229.718C119.129 214.411 107.486 196.025 97.849 190.471C80.5124 180.485 45.3261 202.418 41.4528 252.468C37.6028 302.517 74.5625 330.564 110.286 338.264C128.579 342.183 152.612 338.217 162.038 334.95C190.785 324.987 206.861 311.057 213.791 291.807C221.328 270.714 215.635 258.021 205.811 252.608C201.378 250.228 196.291 249.388 191.345 250.228C156.415 255.711 141.342 241.548 131.635 229.694V229.718Z" fill="#58B3B3"/>
<path opacity="0.2" d="M175.292 329.655L176.879 328.908C179.399 316.635 177.976 305.131 172.632 294.468C167.359 284.085 158.422 274.332 145.193 264.648C125.686 250.415 118.009 236.905 110.613 223.839C107.906 219.056 105.34 214.529 102.236 210.049C95.3297 200.086 88.4464 194.859 80.5831 193.576C77.3631 193.086 74.0965 193.202 70.9465 193.902C69.8732 194.602 68.7999 195.372 67.7266 196.212C71.7632 194.812 76.0798 194.369 80.3265 194.976C87.7931 196.166 94.3497 201.229 101.046 210.842C104.103 215.229 106.646 219.756 109.353 224.515C116.819 237.722 124.566 251.349 144.329 265.745C161.409 278.252 182.386 298.062 175.316 329.631L175.292 329.655Z" fill="#040000"/>
<path opacity="0.1" d="M110.285 338.285C128.578 342.205 152.611 338.238 162.038 334.972C190.784 325.009 206.861 311.079 213.791 291.829C213.977 291.315 214.141 290.802 214.304 290.312L213.884 290.149C206.534 287.746 198.624 290.615 191.321 293.205C172.981 299.715 152.285 304.522 134.528 296.565C122.838 291.292 110.798 283.126 104.592 271.926C98.3851 260.726 95.5151 247.939 91.0118 235.969C88.9818 230.579 87.0918 223.603 82.4952 218.353C78.2019 213.453 72.5553 209.883 66.022 209.883C60.6787 209.883 55.7321 211.493 51.1121 216.953C46.1422 226.519 42.5489 238.419 41.4755 252.536C37.6022 302.539 74.5619 330.585 110.285 338.285Z" fill="#040000"/>
<path d="M366.137 296.661L391.033 282.288C392.363 281.425 393.18 279.978 393.273 278.415V278.695C393.18 277.131 392.363 275.685 391.033 274.821L340.937 245.888C339.537 245.188 337.88 245.188 336.457 245.888L311.56 260.261C310.23 261.125 309.414 262.548 309.32 264.135V263.855C309.414 265.418 310.23 266.865 311.56 267.728L361.657 296.661C363.057 297.385 364.713 297.385 366.137 296.661Z" fill="#37474E"/>
<path d="M363.918 259.144L391.054 274.801C392.384 275.664 393.201 277.111 393.294 278.674V278.394C393.201 279.958 392.384 281.404 391.054 282.268L366.158 296.641C365.458 297.014 364.711 297.177 363.918 297.177V259.121V259.144Z" fill="#273238"/>
<path d="M391.056 277.411L366.16 291.808C364.76 292.531 363.08 292.531 361.68 291.808L311.584 262.875C310.347 262.175 310.347 261.008 311.584 260.285L336.48 245.912C337.88 245.212 339.537 245.212 340.96 245.912L391.056 274.845C392.293 275.545 392.293 276.688 391.056 277.411Z" fill="#455963"/>
<path d="M391.055 272.677V275.057L365.202 289.967C364.922 290.13 364.595 290.247 364.268 290.293C363.708 290.387 363.125 290.27 362.612 289.967L311.582 260.497V258.023L361.678 287.027C363.078 287.75 364.735 287.75 366.158 287.027L391.055 272.677Z" fill="#58B3B3"/>
<path opacity="0.2" d="M391.058 272.676V275.056L365.205 289.966C364.925 290.129 364.598 290.246 364.272 290.292H363.898V287.562C364.692 287.562 365.462 287.399 366.138 287.026L391.035 272.676H391.058Z" fill="#040000"/>
<path d="M366.16 287.05L391.056 272.676C392.386 271.813 393.203 270.366 393.296 268.803V264.206C393.203 262.62 392.386 261.196 391.056 260.333L340.96 231.4C339.56 230.7 337.904 230.7 336.48 231.4L311.584 245.773C310.254 246.637 309.437 248.083 309.344 249.647V254.243C309.437 255.806 310.254 257.206 311.584 258.046L361.68 287.05C363.08 287.773 364.737 287.796 366.16 287.073V287.05Z" fill="#37474E"/>
<path d="M363.918 244.652L391.054 260.332C392.384 261.196 393.201 262.642 393.294 264.206V268.802C393.201 270.389 392.384 271.812 391.054 272.675L366.158 287.049C365.481 287.422 364.711 287.609 363.918 287.585V244.652Z" fill="#273238"/>
<path d="M391.056 262.899L366.16 277.273C364.76 277.973 363.103 277.973 361.68 277.273L311.584 248.34C310.347 247.64 310.347 246.473 311.584 245.703L336.48 231.33C337.88 230.63 339.537 230.63 340.96 231.33L391.056 260.263C392.293 261.009 392.293 262.176 391.056 262.899Z" fill="#455963"/>
<path d="M356.313 251.467C359.067 253.054 359.067 255.621 356.313 257.207C353.163 258.794 349.477 258.794 346.327 257.207C343.573 255.621 343.573 253.054 346.327 251.467C349.477 249.881 353.187 249.881 356.313 251.467Z" fill="#58B3B3"/>
<path d="M315.644 253.145C316.158 253.472 316.484 254.055 316.531 254.662C316.531 255.222 316.134 255.455 315.644 255.199C315.131 254.872 314.804 254.289 314.758 253.682C314.758 253.122 315.154 252.865 315.644 253.145Z" fill="#58B3B3"/>
<path d="M315.644 256.528C316.158 256.878 316.484 257.438 316.531 258.045C316.531 258.605 316.134 258.838 315.644 258.581C315.131 258.255 314.804 257.671 314.758 257.065C314.758 256.505 315.154 256.248 315.644 256.528Z" fill="#58B3B3"/>
<path d="M89.5429 108.105V94.9448L100.649 93.9648C100.813 93.9648 100.976 93.9648 101.116 94.0582C101.536 94.2915 110.496 99.4481 110.636 99.5181C111.009 99.7515 111.149 100.241 110.916 100.615C110.893 100.661 110.846 100.708 110.799 100.755L99.0161 113.518L89.5195 108.058L89.5429 108.105Z" fill="#58B3B3"/>
<path d="M99.0156 113.543L110.799 100.78C111.102 100.453 111.102 99.9396 110.776 99.6362C110.612 99.4729 110.379 99.4029 110.146 99.4262L99.039 100.383V113.543H99.0156Z" fill="#58B3B3"/>
<path d="M89.543 94.922L99.0396 100.382L110.146 99.402C110.286 99.402 110.403 99.402 110.543 99.4486C109.656 98.912 101.536 94.2453 101.14 94.0353C101 93.942 100.836 93.9187 100.673 93.942L89.5663 94.8987L89.543 94.922Z" fill="#58B3B3"/>
<path opacity="0.5" d="M89.543 94.922L99.0396 100.382L110.146 99.402C110.286 99.402 110.403 99.402 110.543 99.4486C109.656 98.912 101.536 94.2453 101.14 94.0353C101 93.942 100.836 93.9187 100.673 93.942L89.5663 94.8987L89.543 94.922Z" fill="white"/>
<path d="M99.0406 84.4426C98.9239 82.5059 97.8973 80.7326 96.2873 79.6593L94.0473 78.3759C92.3207 77.4893 90.2673 77.4893 88.5407 78.3759L54.101 98.3024C52.4676 99.3524 51.441 101.126 51.3477 103.062V140.955C51.441 142.892 52.4676 144.665 54.101 145.739L56.341 147.045C58.0676 147.909 60.1209 147.909 61.8476 147.045L96.2873 127.119C97.9206 126.069 98.9473 124.272 99.0406 122.336V84.4426Z" fill="#58B3B3"/>
<path opacity="0.2" d="M51.3241 140.959C51.4174 142.896 52.4441 144.669 54.0774 145.742L56.3174 147.049C57.8807 147.842 59.724 147.912 61.3574 147.259C60.0507 147.749 59.0707 147.002 59.0707 145.439V107.546C59.094 106.589 59.374 105.656 59.8874 104.816L52.1174 100.336C51.6274 101.153 51.3474 102.086 51.3008 103.066V140.959H51.3241Z" fill="#040000"/>
<path opacity="0.5" d="M98.947 83.6511C98.6203 82.4845 97.5704 82.1112 96.3104 82.8345L61.8473 102.761C61.0307 103.274 60.354 103.974 59.9107 104.814L52.1641 100.334C52.6307 99.4943 53.2841 98.771 54.1007 98.281L88.5404 78.3545C90.2671 77.4912 92.3204 77.4912 94.0471 78.3545L96.3104 79.6612C97.7104 80.5712 98.667 82.0178 98.9703 83.6511H98.947Z" fill="white"/>
<path d="M71.6478 105.632L74.7511 103.835V106.122L77.8778 104.325V109.225L81.0044 107.428V102.528L84.1077 100.732V98.4217L87.2343 96.625V98.9117L90.361 97.115V102.015L93.4643 100.218V107.428L90.361 109.225V112.818L87.2343 114.638V118.231L84.1077 120.028V123.621L81.0044 125.441V129.035L77.8778 130.831V127.238L74.7511 129.035V125.441L71.6478 127.238V123.621L68.5212 125.441V121.825L65.3945 123.621V116.435L68.5212 114.638V109.738L71.6478 107.918V105.632Z" fill="white"/>
</g>
<defs>
<clipPath id="clip0_2080_13444">
<rect width="400" height="358.117" fill="white" transform="translate(0.667969 0.726562)"/>
</clipPath>
</defs>
</svg>
