<svg width="75" height="68" viewBox="0 0 75 68" fill="none" xmlns="http://www.w3.org/2000/svg">
<path d="M4.31023 50.2374C3.86023 49.5674 3.60023 48.9074 3.42023 48.0174C3.02023 45.9974 3.02023 42.7573 2.81023 40.9373C2.61023 39.1173 2.20023 38.7173 1.80023 38.3073C1.40023 37.9073 0.990234 37.4974 0.990234 36.8974C0.990234 36.2974 1.39023 35.4873 2.00023 33.2573C2.61023 31.0373 3.42023 27.3974 4.02023 23.9574C4.53023 21.0874 4.89023 18.3474 5.24023 15.9974C8.29023 15.4674 9.29023 15.9573 10.2902 16.3773C11.5002 16.8773 12.7202 17.2874 13.7302 17.6874C14.7402 18.0874 15.5502 18.4974 16.1602 18.4974C16.7702 18.4974 17.1702 18.0973 17.5802 17.4873C17.9802 16.8773 18.3902 16.0674 18.7902 15.4674C19.1902 14.8574 19.6002 14.4573 20.0002 14.2573C20.4002 14.0573 20.8102 14.0573 21.2102 14.2573C21.6102 14.4573 22.0202 14.8673 22.4202 15.0673C22.8202 15.2673 23.2302 15.2673 23.4302 15.0673C23.6302 14.8673 23.6302 14.4574 23.4302 13.8574C23.2302 13.2474 22.8202 12.4473 23.0302 11.8373C23.2302 11.2273 24.0402 10.8273 25.0502 9.81734C26.0602 8.80734 27.2702 7.18734 28.4902 6.17734C29.7002 5.16734 30.9202 4.75734 31.9302 4.15734C32.9402 3.54734 33.7502 2.74735 34.5602 2.33735C35.3702 1.93735 36.1802 1.93735 36.9902 1.93735C37.8002 1.93735 38.6102 1.93735 39.6202 2.13735C40.6302 2.33735 41.8402 2.74735 42.4502 2.74735C43.0602 2.74735 43.0602 2.34735 43.4602 2.13735C43.8602 1.93735 44.6702 1.93734 45.4802 1.73734C46.2902 1.53734 47.1002 1.12734 47.7002 0.927344C48.3102 0.727344 48.7102 0.727344 48.9102 0.927344C49.1102 1.12734 49.1102 1.53735 49.9202 2.33735C50.7302 3.14735 52.3502 4.35735 53.3602 5.36735C54.3702 6.37735 54.7802 7.18735 55.3802 7.79735C55.9902 8.40735 56.7902 8.80734 57.4002 9.20734C58.0102 9.60734 58.4102 10.0173 58.6102 10.4173C58.8102 10.8173 58.8102 11.2273 58.6102 11.6273C58.4102 12.0273 58.0002 12.4373 57.6002 12.8373C57.2002 13.2373 56.7902 13.6474 56.7902 14.0474C56.7902 14.4474 57.1902 14.8573 57.8002 15.8673C58.4102 16.8773 59.2202 18.4974 59.8202 19.7074C60.4302 20.9174 60.8302 21.7273 61.2402 22.5373C61.6402 23.3473 62.0502 24.1573 62.2502 24.7573C62.4502 25.3673 62.4502 25.7673 62.8602 25.9673C63.2602 26.1673 64.0702 26.1673 64.4802 25.9673C64.8802 25.7673 64.8802 25.3574 65.0902 25.3574C65.3002 25.3574 65.7002 25.7573 65.9002 25.7573C66.1002 25.7573 66.1002 25.3573 66.1002 24.9473C66.1002 24.5373 66.1002 24.1373 66.5002 23.5373C66.9002 22.9273 67.7102 22.1173 68.1202 21.9173C68.5202 21.7173 68.5202 22.1173 68.5202 22.5273V23.7374C68.5202 24.1374 68.5202 24.5473 69.4302 24.7473C70.2202 24.9273 71.7202 24.9473 74.5102 24.9473C74.0502 26.3973 73.7102 28.0374 73.3702 29.3974C72.9702 31.0174 72.5602 32.2274 70.9402 34.0474C69.3202 35.8674 66.4902 38.2973 64.0702 40.7173C61.6502 43.1373 59.6202 45.5673 58.4102 46.7873C57.2002 47.9973 56.7902 47.9974 56.5902 48.6074C56.3902 49.2174 56.3902 50.4274 56.3902 51.2374C56.3902 52.0474 56.3902 52.4474 56.1902 52.8574C55.9902 53.2574 55.5802 53.6673 54.7702 54.0673C53.9602 54.4673 52.7502 54.8774 51.9402 55.0774C51.1302 55.2774 50.7302 55.2773 50.3202 55.6873C49.9202 56.0873 49.5102 56.8973 49.3102 57.9073C49.1102 58.9173 49.1102 60.1273 49.1102 60.9373C49.1102 61.7473 49.1102 62.1474 48.9102 62.3574C48.7102 62.5574 48.3002 62.5574 47.9002 62.3574C47.5002 62.1574 47.0902 61.7473 46.4902 61.7473C45.8902 61.7473 45.0702 62.1473 44.4702 62.7573C43.8602 63.3673 43.4602 64.1773 43.2602 64.7773C43.0602 65.3873 43.0602 65.7874 42.6502 65.9874C42.2502 66.1874 41.4402 66.1874 40.4302 66.3874C39.4202 66.5873 38.2102 66.9974 36.9902 67.1973C35.7802 67.3973 34.5602 67.3973 33.7602 66.9973C32.9502 66.5973 32.5502 65.7874 31.5402 65.5774C30.5302 65.3774 28.9102 65.7773 27.2902 65.7773C25.6702 65.7773 24.0602 65.3774 23.0402 64.7674C22.0302 64.1574 21.6302 63.3574 21.2202 63.3574C20.8102 63.3574 20.4102 64.1673 19.9102 64.8773C19.8602 64.9473 19.8102 65.0074 19.7602 65.0774C19.4502 64.9274 19.2402 64.8773 19.1002 64.7773C18.8002 64.5773 18.8002 64.1674 18.8002 63.7674C18.8002 63.3674 18.8002 62.9573 19.0002 62.7573C19.2002 62.5573 19.6102 62.5574 19.8102 62.3574C20.0102 62.1574 20.0102 61.7474 20.2102 61.5474C20.4102 61.3474 20.8202 61.3474 21.2202 61.5474C21.6202 61.7474 22.0302 62.1573 22.4302 62.1573C22.8302 62.1573 23.2402 61.7574 23.2402 61.5474C23.2402 61.3374 22.8402 61.3474 22.6302 61.1474C22.4302 60.9474 22.4302 60.5374 22.4302 60.1374C22.4302 59.7374 22.4302 59.3274 22.6302 59.3274C22.8302 59.3274 23.2402 59.7273 23.6402 59.9373C24.0402 60.1373 24.4502 60.1373 24.6502 59.9373C24.8502 59.7373 24.8502 59.3274 24.8502 58.9274C24.8502 58.5274 24.8502 58.1174 24.6502 57.9174C24.4502 57.7174 24.0402 57.7174 23.6402 57.5174C23.2402 57.3174 22.8302 56.9074 22.4302 56.7074C22.0302 56.5074 21.6202 56.5074 21.4202 56.2974C21.2202 56.0974 21.2202 55.6873 21.2202 55.0873C21.2202 54.4873 21.2202 53.6673 21.4202 53.0673C21.6202 52.4573 22.0302 52.0574 22.4302 51.8574C22.8302 51.6574 23.2402 51.6574 23.4402 51.4574C23.6402 51.2574 23.6402 50.8474 23.4402 50.4473C23.2402 50.0473 22.8302 49.6373 22.4302 49.4373C22.0302 49.2373 21.6202 49.2373 21.2202 49.4373C20.8202 49.6373 20.4102 50.0474 20.2102 50.0474C20.0102 50.0474 20.0102 49.6474 20.0102 49.2374C20.0102 48.8274 20.0102 48.4273 19.6102 48.2273C19.2102 48.0273 18.4002 48.0274 17.9902 47.8274C17.5902 47.6274 17.5902 47.2174 17.3802 47.0174C17.1802 46.8174 16.7702 46.8174 16.5702 47.0174C16.3702 47.2174 16.3702 47.6273 15.7602 47.6273C15.1502 47.6273 13.9402 47.2273 13.1302 46.8173C12.3202 46.4173 11.9202 46.0073 11.3102 45.8073C10.7002 45.6073 9.89023 45.6073 9.09023 45.8073C8.28023 46.0073 7.47023 46.4173 6.76023 47.2273C6.26023 47.7973 5.81023 48.5673 4.31023 50.2573V50.2374Z" fill="#EEEF99"/>
<path d="M18.8605 66.3472C19.2305 65.7772 19.5105 65.4272 19.7605 65.0972C19.4505 64.9472 19.2405 64.8972 19.1005 64.7972C18.8005 64.5972 18.8005 64.1872 18.8005 63.7872C18.8005 63.3872 18.8005 62.9772 19.0005 62.7772C19.2005 62.5772 19.6105 62.5772 19.8105 62.3772C20.0105 62.1772 20.0105 61.7672 20.2105 61.5672C20.4105 61.3672 20.8205 61.3672 21.2205 61.5672C21.6205 61.7672 22.0305 62.1773 22.4305 62.1773C22.8305 62.1773 23.2405 61.7772 23.2405 61.5672C23.2405 61.3572 22.8405 61.3672 22.6305 61.1672C22.4305 60.9672 22.4305 60.5572 22.4305 60.1572C22.4305 59.7572 22.4305 59.3472 22.6305 59.3472C22.8305 59.3472 23.2405 59.7473 23.6405 59.9573C24.0405 60.1573 24.4505 60.1573 24.6505 59.9573C24.8505 59.7573 24.8505 59.3472 24.8505 58.9472C24.8505 58.5472 24.8505 58.1372 24.6505 57.9372C24.4505 57.7372 24.0405 57.7372 23.6405 57.5372C23.2405 57.3372 22.8305 56.9272 22.4305 56.7272C22.0305 56.5272 21.6205 56.5272 21.4205 56.3172C21.2205 56.1172 21.2205 55.7072 21.2205 55.1072C21.2205 54.5072 21.2205 53.6872 21.4205 53.0872C21.6205 52.4772 22.0305 52.0772 22.4305 51.8772C22.8305 51.6772 23.2405 51.6772 23.4405 51.4772C23.6405 51.2772 23.6405 50.8672 23.4405 50.4672C23.2405 50.0672 22.8305 49.6573 22.4305 49.4573C22.0305 49.2573 21.6205 49.2573 21.2205 49.4573C20.8205 49.6573 20.4105 50.0672 20.2105 50.0672C20.0105 50.0672 20.0105 49.6672 20.0105 49.2572C20.0105 48.8472 20.0105 48.4472 19.6105 48.2472C19.2105 48.0472 18.4005 48.0472 17.9905 47.8472C17.5905 47.6472 17.5905 47.2372 17.3805 47.0372C17.1805 46.8372 16.7705 46.8372 16.5705 47.0372C16.3705 47.2372 16.3705 47.6473 15.7605 47.6473C15.1505 47.6473 13.9405 47.2472 13.1305 46.8372C12.3205 46.4372 11.9205 46.0272 11.3105 45.8272C10.7005 45.6272 9.89055 45.6272 9.09055 45.8272C8.28055 46.0272 7.47055 46.4372 6.76055 47.2472C6.26055 47.8172 5.81055 48.5872 4.31055 50.2772C4.88055 51.1272 5.75055 52.0072 7.17055 53.4172C9.70055 55.9472 13.9405 60.1872 18.8005 66.2572C18.8205 66.2972 18.8405 66.3472 18.8705 66.3872L18.8605 66.3472Z" fill="#EEEF99"/>
</svg>
