<svg width="90" height="78" viewBox="0 0 90 78" fill="none" xmlns="http://www.w3.org/2000/svg">
<path d="M0.470932 24.6122C2.29093 25.1422 3.11094 25.3822 3.79094 25.5422C5.10094 25.8421 5.91093 25.8421 6.72093 26.2521C7.53093 26.6521 8.34094 27.4622 9.35094 28.2722C10.3609 29.0821 11.5709 29.8922 12.1809 30.7022C12.7909 31.5121 12.7909 32.3221 12.7909 33.1321C12.7909 33.9422 12.7909 34.7522 12.5909 35.7621C12.3909 36.7721 11.9809 37.9821 11.5809 38.7921C11.1809 39.6021 10.7709 40.0022 10.3709 40.4122C9.97094 40.8122 9.56093 41.2221 8.95093 41.6222C8.34093 42.0222 7.54093 42.4321 6.73093 42.6321C5.92093 42.8321 5.11094 42.8321 4.71094 43.0322C4.31094 43.2322 4.31094 43.6421 4.10094 44.4521C3.90094 45.2621 3.49093 46.4722 3.69093 47.4822C3.89093 48.4921 4.70094 49.3022 5.51094 50.3121C6.32094 51.3221 7.13093 52.5322 7.53093 53.7522C7.93093 54.9622 7.93093 56.1822 8.14093 56.9822C8.34093 57.7922 8.75094 58.1922 9.96094 58.6021C11.1709 59.0022 13.2009 59.4122 14.6109 59.2122C16.0309 59.0121 16.8309 58.2022 17.4409 58.0022C18.0509 57.8022 18.4509 58.2022 18.6509 59.4122C18.8509 60.6222 18.8509 62.6521 19.0609 64.2621C19.2609 65.8821 19.6709 67.0921 20.0709 68.3021C20.4809 69.5121 20.8809 70.7321 21.6909 72.3421C22.5009 73.9622 23.7109 75.9822 24.5209 76.7922C24.7809 77.0522 25.0009 77.1921 25.2309 77.2321C25.7009 77.3221 26.1909 77.0022 27.1509 76.5921C28.5609 75.9821 30.9909 75.1821 33.0109 74.3721C35.0309 73.5621 36.6509 72.7522 37.8609 72.1522C39.0709 71.5422 39.8809 71.1422 40.0809 69.9322C40.2809 68.7222 39.8809 66.7021 39.8809 65.4821C39.8809 64.2621 40.2909 63.8621 43.5209 61.8421C46.7609 59.8221 52.8209 56.1821 56.2609 53.9521C59.7009 51.7321 60.5109 50.9221 61.1109 49.9122C61.7209 48.9022 62.1209 47.6922 62.5209 47.4822C62.9309 47.2822 63.3309 48.0921 64.1409 48.2921C64.9509 48.4921 66.1609 48.0922 66.9709 47.4822C67.7809 46.8722 68.1809 46.0722 68.5909 45.2621C68.9909 44.4521 69.4009 43.6421 70.8109 42.6321C72.2309 41.6222 74.6509 40.4122 76.2709 39.6021C77.8909 38.7921 78.7009 38.3921 80.0109 38.1821C80.9209 38.0421 82.0809 38.0022 84.3409 38.3922C84.3409 38.3922 84.3509 38.3922 84.3609 38.3922C85.1709 37.9921 85.9809 37.9921 86.7909 37.7822C87.6009 37.5821 88.4109 37.1721 88.8109 36.7721C89.2109 36.3721 89.2109 35.9621 89.0109 35.3621C88.8109 34.7521 88.4009 33.9421 87.5909 33.3421C86.7809 32.7321 85.5709 32.3321 84.5609 32.1321C83.5509 31.9321 82.7409 31.9321 82.1309 31.1222C81.5209 30.3122 81.1209 28.6922 80.3109 27.2822C79.5009 25.8722 78.2909 24.6522 76.8709 24.0422C75.4509 23.4321 73.8409 23.4321 72.4209 23.2321C71.0109 23.0321 69.7909 22.6221 68.5809 22.2221C67.3709 21.8221 66.1509 21.4121 65.1409 21.0121C64.1309 20.6122 63.3209 20.2022 62.1109 20.0021C60.9009 19.8021 59.2809 19.8022 57.8609 19.6021C56.4509 19.4021 55.2309 18.9921 54.4209 18.3921C53.6109 17.7821 53.2109 16.9722 52.0909 15.9622C50.9809 14.9522 49.1609 13.7422 47.9409 11.3122C41.8709 10.1022 41.8709 9.49215 41.4709 8.18215C41.0709 6.87215 40.2609 4.84215 39.2509 3.43215C38.2409 2.01215 37.0309 1.21215 35.4109 1.00215C33.7909 0.802151 31.7709 1.20215 29.5509 2.42215C27.3309 3.63215 24.9009 5.65215 22.6809 7.27215C20.4609 8.89215 18.4309 10.1022 17.2209 11.5222C16.0109 12.9422 15.6009 14.5522 15.2009 15.7722C14.7909 16.9822 14.3909 17.7921 13.9909 18.4021C13.5909 19.0121 13.1809 19.4121 11.7709 20.2221C10.3509 21.0321 7.93093 22.2421 5.91093 23.0521C4.15093 23.7621 2.69094 24.1521 0.460938 24.6521L0.470932 24.6122Z" fill="#EEEF99"/>
</svg>
