<svg width="228" height="426" viewBox="0 0 228 426" fill="none" xmlns="http://www.w3.org/2000/svg">
<g clip-path="url(#clip0_2154_11386)">
<path d="M151.51 144.057C150.6 143.077 149.67 143.077 148.62 143.077H143.57C141.55 143.077 139.12 143.077 137.91 142.877C136.7 142.677 136.7 142.267 136.49 141.667C136.29 141.057 135.88 140.247 134.67 138.837C133.46 137.417 131.43 135.397 130.22 134.587C129.01 133.777 128.6 134.187 127.79 134.787C126.98 135.397 125.77 136.207 124.76 136.807C123.75 137.417 122.94 137.817 122.13 138.017C121.32 138.217 120.51 138.217 119.91 138.627C119.3 139.027 118.9 139.837 118.7 140.447C118.5 141.057 118.5 141.457 118.3 141.657C118.1 141.857 117.69 141.857 116.89 142.057C116.08 142.257 114.87 142.667 114.06 143.267C113.25 143.877 112.85 144.687 112.44 144.887C112.04 145.087 111.63 144.687 111.23 144.277C110.82 143.877 110.42 143.467 110.02 143.467C109.62 143.467 109.21 143.867 108.61 144.677C108 145.487 107.19 146.697 106.59 147.107C105.98 147.507 105.58 147.107 104.97 146.907C104.36 146.707 103.56 146.707 102.75 146.507C101.94 146.307 101.13 145.897 100.73 145.897C100.33 145.897 100.33 146.297 99.9196 146.707C99.5196 147.107 98.7096 147.517 98.0996 148.327C97.4896 149.137 97.0896 150.347 96.6896 150.957C96.2896 151.567 95.8796 151.567 95.6796 151.157C95.4796 150.757 95.4796 149.947 95.2696 149.537C95.0696 149.137 94.6596 149.137 93.8596 149.137H91.0296C90.2196 149.137 89.8196 149.137 89.4096 149.747C89.0096 150.357 88.5996 151.567 87.9896 152.377C87.3796 153.187 86.5696 153.587 86.1696 154.597C85.7696 155.607 85.7696 157.227 85.5596 158.237C85.3596 159.247 84.9496 159.657 84.5496 160.057C84.1496 160.457 83.7396 160.867 83.5396 161.477C83.3396 162.087 83.3396 162.887 83.1396 163.297C82.9396 163.697 82.5296 163.697 82.1296 163.497C81.7296 163.297 81.3196 162.887 80.5096 162.887C79.6996 162.887 78.4896 163.287 76.8696 163.287C75.2496 163.287 73.2296 162.887 71.6096 162.277C69.9896 161.667 68.7796 160.857 67.5696 160.257C66.5896 159.767 65.6096 159.407 64.9496 158.967C64.4996 159.337 64.1096 159.587 63.6296 159.747C62.7196 160.047 61.5096 160.047 60.8996 160.257C60.2896 160.457 60.2896 160.867 60.4996 161.267C60.6996 161.667 61.1096 162.077 61.3096 162.687C61.5096 163.297 61.5096 164.107 61.7096 165.317C61.9096 166.527 62.3196 168.147 62.7196 169.157C63.1196 170.167 63.5296 170.577 63.7296 171.587C63.9296 172.597 63.9296 174.217 63.7296 176.037C63.5296 177.857 63.1196 179.877 63.1196 181.087C63.1196 182.297 63.5196 182.707 64.3296 183.107C65.1396 183.507 66.3496 183.917 66.9596 184.527C67.5696 185.137 67.5696 185.937 67.9696 186.547C68.3696 187.157 69.1796 187.557 69.9896 187.557C70.7996 187.557 71.6096 187.157 72.2096 186.947C72.8196 186.747 73.2196 186.747 73.4196 186.947C73.6196 187.147 73.6196 187.557 73.6196 188.157C73.6196 188.757 73.6196 189.577 73.4196 190.177C73.2196 190.787 72.8096 191.187 72.4096 191.387C72.0096 191.587 71.5996 191.587 70.7896 191.587C70.2396 191.587 69.4996 191.587 68.3096 192.357C68.4696 192.497 68.6196 192.647 68.7696 192.797C69.1696 193.197 69.5796 193.607 69.5796 194.007C69.5796 194.407 69.1796 194.817 68.9696 195.427C68.7696 196.037 68.7696 196.847 68.7696 197.857C68.7696 198.867 68.7696 200.077 68.5696 200.887C68.3696 201.697 67.9596 202.097 67.7596 202.907C67.5596 203.717 67.5596 204.927 67.5596 206.147V209.387C67.5596 210.197 67.5596 210.597 67.7596 210.597C67.9596 210.597 68.3696 210.197 69.1796 210.197C69.9896 210.197 71.1996 210.597 72.4096 210.807C73.6196 211.007 74.8396 211.007 76.0496 210.607C77.2596 210.207 78.4796 209.397 79.4896 209.187C80.4996 208.987 81.3096 209.387 81.9196 209.587C82.5296 209.787 82.9296 209.787 83.1296 209.987C83.3296 210.187 83.3296 210.597 83.5296 210.997C83.7296 211.397 84.1396 211.807 85.1496 212.207C86.1596 212.607 87.7796 213.017 88.9896 213.417C90.1996 213.817 91.0096 214.227 91.6196 214.837C92.2296 215.447 92.6296 216.257 92.8296 217.057C93.0296 217.867 93.0296 218.677 92.8296 219.277C92.6296 219.887 92.2196 220.287 92.4296 220.697C92.6296 221.097 93.4396 221.507 94.4496 222.517C95.4596 223.527 96.6696 225.147 97.6896 226.357C98.6996 227.567 99.5096 228.377 100.72 228.577C101.93 228.777 103.55 228.377 104.76 228.377C105.66 228.377 106.34 228.597 107.04 228.797C107.29 228.867 107.53 228.927 107.8 228.987C108.81 229.187 110.02 229.187 112.15 229.187H121.35C121.35 228.787 121.75 228.377 122.56 227.367C123.37 226.357 124.58 224.737 125.39 223.327C126.2 221.907 126.6 220.697 127.01 220.087C127.41 219.477 127.82 219.477 129.03 219.277C130.24 219.077 132.27 218.667 133.48 218.467C134.69 218.267 135.1 218.267 135.3 217.657C135.5 217.047 135.5 215.837 135.5 214.827C135.5 213.817 135.5 213.007 136.31 212.197C137.12 211.387 138.74 210.577 139.75 210.177C140.76 209.777 141.17 209.777 141.77 207.347C142.38 204.917 143.19 200.067 143.79 197.237C144.4 194.407 144.8 193.597 144.8 192.987C144.8 192.377 144.4 191.977 143.79 191.367C143.18 190.757 142.38 189.947 141.57 189.347C140.76 188.737 139.95 188.337 139.55 187.927C139.15 187.527 139.15 187.117 139.75 186.107C140.36 185.097 141.57 183.477 142.38 182.267C143.19 181.057 143.59 180.247 144 179.437C144.4 178.627 144.81 177.817 145.21 176.807C145.61 175.797 146.02 174.587 146.42 172.967C146.82 171.347 147.23 169.327 147.23 167.917C147.23 166.507 146.83 165.697 146.42 165.087C146.02 164.477 145.61 164.077 145.21 163.667C144.81 163.257 144.4 162.857 144.2 162.247C144 161.637 144 160.827 145.01 159.017C146.02 157.197 148.04 154.367 149.46 152.547C150.88 150.727 151.68 149.917 151.89 149.107C152.09 148.297 151.69 147.487 151.49 146.677C151.29 145.867 151.29 145.057 151.49 144.247C151.51 144.167 151.53 144.097 151.55 144.017L151.51 144.057Z" fill="#EAF6FD"/>
<path d="M3.31023 287.237C2.86023 286.567 2.60023 285.907 2.42023 285.017C2.02023 282.997 2.02023 279.757 1.81023 277.937C1.61023 276.117 1.20023 275.717 0.800234 275.307C0.400234 274.907 -0.00976562 274.497 -0.00976562 273.897C-0.00976562 273.297 0.390234 272.487 1.00023 270.257C1.61023 268.037 2.42023 264.397 3.02023 260.957C3.53023 258.087 3.89023 255.347 4.24023 252.997C7.29023 252.467 8.29023 252.957 9.29023 253.377C10.5002 253.877 11.7202 254.287 12.7302 254.687C13.7402 255.087 14.5502 255.497 15.1602 255.497C15.7702 255.497 16.1702 255.097 16.5802 254.487C16.9802 253.877 17.3902 253.067 17.7902 252.467C18.1902 251.857 18.6002 251.457 19.0002 251.257C19.4002 251.057 19.8102 251.057 20.2102 251.257C20.6102 251.457 21.0202 251.867 21.4202 252.067C21.8202 252.267 22.2302 252.267 22.4302 252.067C22.6302 251.867 22.6302 251.457 22.4302 250.857C22.2302 250.247 21.8202 249.447 22.0302 248.837C22.2302 248.227 23.0402 247.827 24.0502 246.817C25.0602 245.807 26.2702 244.187 27.4902 243.177C28.7002 242.167 29.9202 241.757 30.9302 241.157C31.9402 240.547 32.7502 239.747 33.5602 239.337C34.3702 238.937 35.1802 238.937 35.9902 238.937C36.8002 238.937 37.6102 238.937 38.6202 239.137C39.6302 239.337 40.8402 239.747 41.4502 239.747C42.0602 239.747 42.0602 239.347 42.4602 239.137C42.8602 238.937 43.6702 238.937 44.4802 238.737C45.2902 238.537 46.1002 238.127 46.7002 237.927C47.3102 237.727 47.7102 237.727 47.9102 237.927C48.1102 238.127 48.1102 238.537 48.9202 239.337C49.7302 240.147 51.3502 241.357 52.3602 242.367C53.3702 243.377 53.7802 244.187 54.3802 244.797C54.9902 245.407 55.7902 245.807 56.4002 246.207C57.0102 246.607 57.4102 247.017 57.6102 247.417C57.8102 247.817 57.8102 248.227 57.6102 248.627C57.4102 249.027 57.0002 249.437 56.6002 249.837C56.2002 250.237 55.7902 250.647 55.7902 251.047C55.7902 251.447 56.1902 251.857 56.8002 252.867C57.4102 253.877 58.2202 255.497 58.8202 256.707C59.4302 257.917 59.8302 258.727 60.2402 259.537C60.6402 260.347 61.0502 261.157 61.2502 261.757C61.4502 262.367 61.4502 262.767 61.8602 262.967C62.2602 263.167 63.0702 263.167 63.4802 262.967C63.8802 262.767 63.8802 262.357 64.0902 262.357C64.3002 262.357 64.7002 262.757 64.9002 262.757C65.1002 262.757 65.1002 262.357 65.1002 261.947C65.1002 261.537 65.1002 261.137 65.5002 260.537C65.9002 259.927 66.7102 259.117 67.1202 258.917C67.5202 258.717 67.5202 259.117 67.5202 259.527V260.737C67.5202 261.137 67.5202 261.547 68.4302 261.747C69.2202 261.927 70.7202 261.947 73.5102 261.947C73.0502 263.397 72.7102 265.037 72.3702 266.397C71.9702 268.017 71.5602 269.227 69.9402 271.047C68.3202 272.867 65.4902 275.297 63.0702 277.717C60.6502 280.137 58.6202 282.567 57.4102 283.787C56.2002 284.997 55.7902 284.997 55.5902 285.607C55.3902 286.217 55.3902 287.427 55.3902 288.237C55.3902 289.047 55.3902 289.447 55.1902 289.857C54.9902 290.257 54.5802 290.667 53.7702 291.067C52.9602 291.467 51.7502 291.877 50.9402 292.077C50.1302 292.277 49.7302 292.277 49.3202 292.687C48.9202 293.087 48.5102 293.897 48.3102 294.907C48.1102 295.917 48.1102 297.127 48.1102 297.937C48.1102 298.747 48.1102 299.147 47.9102 299.357C47.7102 299.557 47.3002 299.557 46.9002 299.357C46.5002 299.157 46.0902 298.747 45.4902 298.747C44.8902 298.747 44.0702 299.147 43.4702 299.757C42.8602 300.367 42.4602 301.177 42.2602 301.777C42.0602 302.387 42.0602 302.787 41.6502 302.987C41.2502 303.187 40.4402 303.187 39.4302 303.387C38.4202 303.587 37.2102 303.997 35.9902 304.197C34.7802 304.397 33.5602 304.397 32.7602 303.997C31.9502 303.597 31.5502 302.787 30.5402 302.577C29.5302 302.377 27.9102 302.777 26.2902 302.777C24.6702 302.777 23.0602 302.377 22.0402 301.767C21.0302 301.157 20.6302 300.357 20.2202 300.357C19.8102 300.357 19.4102 301.167 18.9102 301.877C18.8602 301.947 18.8102 302.007 18.7602 302.077C18.4502 301.927 18.2402 301.877 18.1002 301.777C17.8002 301.577 17.8002 301.167 17.8002 300.767C17.8002 300.367 17.8002 299.957 18.0002 299.757C18.2002 299.557 18.6102 299.557 18.8102 299.357C19.0102 299.157 19.0102 298.747 19.2102 298.547C19.4102 298.347 19.8202 298.347 20.2202 298.547C20.6202 298.747 21.0302 299.157 21.4302 299.157C21.8302 299.157 22.2402 298.757 22.2402 298.547C22.2402 298.337 21.8402 298.347 21.6302 298.147C21.4302 297.947 21.4302 297.537 21.4302 297.137C21.4302 296.737 21.4302 296.327 21.6302 296.327C21.8302 296.327 22.2402 296.727 22.6402 296.937C23.0402 297.137 23.4502 297.137 23.6502 296.937C23.8502 296.737 23.8502 296.327 23.8502 295.927C23.8502 295.527 23.8502 295.117 23.6502 294.917C23.4502 294.717 23.0402 294.717 22.6402 294.517C22.2402 294.317 21.8302 293.907 21.4302 293.707C21.0302 293.507 20.6202 293.507 20.4202 293.297C20.2202 293.097 20.2202 292.687 20.2202 292.087C20.2202 291.487 20.2202 290.667 20.4202 290.067C20.6202 289.457 21.0302 289.057 21.4302 288.857C21.8302 288.657 22.2402 288.657 22.4402 288.457C22.6402 288.257 22.6402 287.847 22.4402 287.447C22.2402 287.047 21.8302 286.637 21.4302 286.437C21.0302 286.237 20.6202 286.237 20.2202 286.437C19.8202 286.637 19.4102 287.047 19.2102 287.047C19.0102 287.047 19.0102 286.647 19.0102 286.237C19.0102 285.827 19.0102 285.427 18.6102 285.227C18.2102 285.027 17.4002 285.027 16.9902 284.827C16.5902 284.627 16.5902 284.217 16.3802 284.017C16.1802 283.817 15.7702 283.817 15.5702 284.017C15.3702 284.217 15.3702 284.627 14.7602 284.627C14.1502 284.627 12.9402 284.227 12.1302 283.817C11.3202 283.417 10.9202 283.007 10.3102 282.807C9.70024 282.607 8.89023 282.607 8.09023 282.807C7.28023 283.007 6.47023 283.417 5.76023 284.227C5.26023 284.797 4.81023 285.567 3.31023 287.257V287.237Z" fill="#EEEF99"/>
<path d="M138.92 24.1675C140.74 24.6975 141.56 24.9375 142.24 25.0975C143.55 25.3975 144.36 25.3975 145.17 25.8075C145.98 26.2075 146.79 27.0175 147.8 27.8275C148.81 28.6375 150.02 29.4475 150.63 30.2575C151.24 31.0675 151.24 31.8775 151.24 32.6875C151.24 33.4975 151.24 34.3075 151.04 35.3175C150.84 36.3275 150.43 37.5375 150.03 38.3475C149.63 39.1575 149.22 39.5575 148.82 39.9675C148.42 40.3675 148.01 40.7775 147.4 41.1775C146.79 41.5775 145.99 41.9875 145.18 42.1875C144.37 42.3875 143.56 42.3875 143.16 42.5875C142.76 42.7875 142.76 43.1975 142.55 44.0075C142.35 44.8175 141.94 46.0275 142.14 47.0375C142.34 48.0475 143.15 48.8575 143.96 49.8675C144.77 50.8775 145.58 52.0875 145.98 53.3075C146.38 54.5175 146.38 55.7375 146.59 56.5375C146.79 57.3475 147.2 57.7475 148.41 58.1575C149.62 58.5575 151.65 58.9675 153.06 58.7675C154.48 58.5675 155.28 57.7575 155.89 57.5575C156.5 57.3575 156.9 57.7575 157.1 58.9675C157.3 60.1775 157.3 62.2075 157.51 63.8175C157.71 65.4375 158.12 66.6475 158.52 67.8575C158.93 69.0675 159.33 70.2875 160.14 71.8975C160.95 73.5175 162.16 75.5375 162.97 76.3475C163.23 76.6075 163.45 76.7475 163.68 76.7875C162.58 78.6375 161.3 80.4075 160.44 81.8075C159.33 83.6275 158.92 84.8375 158.72 86.3575C158.57 87.4775 158.53 88.7675 158.03 89.8575C157.99 89.7975 157.96 89.7475 157.91 89.6875C157.3 88.8775 156.09 88.0675 154.88 87.4675C153.67 86.8575 152.45 86.4575 150.63 85.2475C148.81 84.0375 146.38 82.0175 144.77 80.7975C143.15 79.5875 142.34 79.1775 142.14 78.5775C141.94 77.9675 142.34 77.1675 142.55 75.9475C142.75 74.7375 142.75 73.1175 142.95 71.9075C143.15 70.6975 143.56 69.8875 143.35 69.0775C143.15 68.2675 142.34 67.4575 141.53 66.8575C140.72 66.2475 139.91 65.8475 137.89 65.2375C135.87 64.6275 132.63 63.8175 130.41 63.0175C128.19 62.2075 126.97 61.3975 126.16 60.5875C125.35 59.7775 124.95 58.9675 124.34 58.1575C123.73 57.3475 122.92 56.5375 121.91 55.3275C120.9 54.1175 119.69 52.4975 118.47 51.4875C117.26 50.4775 116.04 50.0675 114.63 49.4675C113.21 48.8575 111.6 48.0475 110.18 47.6475C108.77 47.2475 107.55 47.2475 106.34 46.9375C105.6 46.7575 104.86 46.4575 103.58 46.2575C104.9 44.5075 106.23 42.9075 107.55 41.5875C109.17 39.9675 110.79 38.7575 112 37.9475C113.21 37.1375 114.02 36.7375 116.25 35.3175C118.47 33.8975 122.11 31.4775 124.13 29.8575C126.15 28.2375 126.56 27.4275 128.78 26.6275C131 25.8175 135.05 25.0075 137.88 24.4075C138.24 24.3275 138.58 24.2575 138.9 24.1875L138.92 24.1675Z" fill="#DBE7ED"/>
<path d="M138.15 110.257C142.79 109.087 143.98 108.487 144.97 107.997C145.98 107.487 146.79 107.087 148 105.667C149.21 104.257 150.83 101.827 152.25 100.007C153.67 98.1873 154.88 96.9773 155.89 95.7573C156.9 94.5473 157.71 93.3273 158.11 92.3173C158.49 91.3773 158.51 90.6073 158.02 89.8573C157.98 89.7973 157.95 89.7473 157.9 89.6873C157.29 88.8773 156.08 88.0673 154.87 87.4673C153.66 86.8573 152.44 86.4573 150.62 85.2473C148.8 84.0373 146.37 82.0173 144.76 80.7973C143.14 79.5873 142.33 79.1773 142.13 78.5773C141.93 77.9673 142.33 77.1673 142.54 75.9473C142.74 74.7373 142.74 73.1173 142.94 71.9073C143.14 70.6973 143.55 69.8873 143.34 69.0773C143.14 68.2673 142.33 67.4573 141.52 66.8573C140.71 66.2473 139.9 65.8473 137.88 65.2373C135.86 64.6273 132.62 63.8173 130.4 63.0173C128.18 62.2073 126.96 61.3973 126.15 60.5873C125.34 59.7773 124.94 58.9673 124.33 58.1573C123.72 57.3473 122.91 56.5373 121.9 55.3273C120.89 54.1173 119.68 52.4973 118.46 51.4873C117.25 50.4773 116.03 50.0673 114.62 49.4673C113.2 48.8573 111.59 48.0473 110.17 47.6473C108.76 47.2473 107.54 47.2473 106.33 46.9373C105.59 46.7573 104.85 46.4573 103.57 46.2573C103.28 46.6473 102.98 47.0473 102.69 47.4473C101.07 49.6673 99.4496 52.0973 97.6296 54.1173C96.5196 55.3473 95.3296 56.4373 94.3496 57.5973C95.6596 58.1773 96.0796 58.2473 96.3196 58.5673C96.6196 58.9673 96.6196 59.7773 97.2296 60.1873C97.8396 60.5873 99.0496 60.5873 100.06 60.5873C101.07 60.5873 101.88 60.5873 102.69 60.7873C103.5 60.9873 104.31 61.3973 104.91 61.9973C105.52 62.6073 105.92 63.4173 106.12 64.2173C106.32 65.0273 106.32 65.8373 106.52 66.4373C106.72 67.0473 107.13 67.4473 107.33 67.8473C107.53 68.2473 107.53 68.6573 107.53 69.0573C107.53 69.4573 107.53 69.8673 107.33 70.0673C107.13 70.2673 106.72 70.2673 106.52 70.0673C106.32 69.8673 106.32 69.4573 106.12 69.0573C105.92 68.6573 105.51 68.2473 105.11 68.0473C104.71 67.8473 104.3 67.8473 104.1 67.6473C103.9 67.4473 103.9 67.0373 103.49 66.8373C103.09 66.6373 102.28 66.6373 101.67 66.8373C101.06 67.0373 100.66 67.4473 100.05 67.8473C99.4396 68.2473 98.6296 68.6573 98.0296 69.2673C97.4196 69.8773 97.0196 70.6873 96.6196 71.6973C96.2196 72.7073 95.8096 73.9173 95.6096 74.8273C95.4296 75.6273 95.4096 76.1873 94.5896 77.1373C94.5896 77.1373 94.5896 77.1373 94.5996 77.1473C94.9996 77.5473 95.8096 77.5473 96.8196 77.7573C97.8296 77.9573 99.0396 78.3673 100.06 78.5673C101.07 78.7673 101.88 78.7673 102.49 79.1773C103.1 79.5773 103.5 80.3873 104.92 81.6073C106.34 82.8273 108.76 84.4373 110.38 85.6473C112 86.8573 112.81 87.6673 113.62 88.2773C114.43 88.8873 115.24 89.2873 116.05 89.4873C116.86 89.6873 117.67 89.6873 118.27 89.8873C118.88 90.0873 119.28 90.4973 120.49 90.8973C121.7 91.2973 123.73 91.7073 125.34 92.1073C126.96 92.5073 128.17 92.9173 128.98 93.1173C129.79 93.3173 130.19 93.3173 130.8 93.5173C131.41 93.7173 132.22 94.1273 133.23 95.1373C134.24 96.1473 135.45 97.7673 136.26 98.9773C137.07 100.187 137.47 100.997 138.08 101.407C138.69 101.807 139.49 101.807 139.7 102.017C139.9 102.217 139.5 102.627 139.3 103.227C139.1 103.837 139.1 104.647 139.1 105.657C139.1 106.667 139.1 107.877 138.8 108.787C138.62 109.317 138.35 109.737 138.14 110.237L138.15 110.257Z" fill="#EEEF99"/>
<path d="M59.7695 113.477C59.9295 113.197 60.0895 112.927 60.2595 112.647C62.6895 108.507 65.1095 104.257 68.7495 96.9771C69.9595 94.5471 72.3895 92.1271 74.0095 90.3071C75.6295 88.4871 76.4395 87.2771 77.4495 86.6671C78.4595 86.0571 79.6695 86.0571 80.8895 85.8571C82.0995 85.6571 83.3195 85.2471 84.5295 83.8371C85.7395 82.4171 86.9595 79.9971 87.9695 78.5771C88.9795 77.1671 89.7895 76.7571 90.1895 75.9471C90.3395 75.6571 90.4295 75.3071 90.4995 74.9271C90.9995 74.7071 91.3195 74.3471 91.5095 74.0271C91.8095 73.5171 91.8095 73.1171 92.0195 72.9171C92.2195 72.7171 92.6295 72.7171 92.8295 72.9171C93.0295 73.1171 93.0295 73.5271 93.2295 73.9271C93.4295 74.3271 93.8395 74.7371 94.0395 75.3471C94.2395 75.9571 94.2395 76.7671 94.6495 77.1671C95.0495 77.5671 95.8595 77.5671 96.8695 77.7771C97.8795 77.9771 99.0895 78.3871 100.11 78.5871C101.12 78.7871 101.93 78.7871 102.54 79.1971C103.15 79.5971 103.55 80.4071 104.97 81.6271C106.39 82.8471 108.81 84.4571 110.43 85.6671C112.05 86.8771 112.86 87.6871 113.67 88.2971C114.48 88.9071 115.29 89.3071 116.1 89.5071C116.91 89.7071 117.72 89.7071 118.32 89.9071C118.93 90.1071 119.33 90.5171 120.54 90.9171C121.75 91.3171 123.78 91.7271 125.39 92.1271C127.01 92.5271 128.22 92.9371 129.03 93.1371C129.84 93.3371 130.24 93.3371 130.85 93.5371C131.46 93.7371 132.27 94.1471 133.28 95.1571C134.29 96.1671 135.5 97.7871 136.31 98.9971C137.12 100.207 137.52 101.017 138.13 101.427C138.74 101.827 139.54 101.827 139.75 102.037C139.95 102.237 139.55 102.647 139.35 103.247C139.15 103.857 139.15 104.667 139.15 105.677C139.15 106.687 139.15 107.897 138.85 108.807C138.67 109.337 138.4 109.757 138.19 110.257C138.11 110.277 138.02 110.297 137.94 110.317C136.73 111.527 136.73 112.747 136.32 113.757C135.92 114.767 135.11 115.577 134.7 115.777C134.3 115.977 134.3 115.577 133.89 115.377C133.48 115.177 132.68 115.177 131.46 115.577C130.25 115.977 128.63 116.787 127.62 117.597C126.61 118.407 126.21 119.217 125.8 119.617C125.4 120.017 124.99 120.017 124.59 120.017C124.19 120.017 123.78 120.017 123.18 120.627C122.57 121.237 121.76 122.447 121.16 123.057C120.55 123.667 120.15 123.667 119.74 123.667H118.32C117.71 123.667 116.91 123.667 116.1 124.277C115.29 124.887 114.48 126.097 113.88 126.497C113.27 126.897 112.87 126.497 112.26 126.297C111.65 126.097 110.85 126.097 110.24 125.897C109.63 125.697 109.23 125.287 109.03 124.887C108.83 124.487 108.83 124.077 108.63 123.877C108.43 123.677 108.02 123.677 107.42 123.877C106.81 124.077 106 124.487 105.4 124.687C104.79 124.887 104.39 124.887 103.78 124.687C103.17 124.487 102.37 124.077 101.56 123.877C100.75 123.677 99.9395 123.677 99.1295 123.677H96.9095C96.2995 123.677 95.8995 123.677 95.4995 123.477C95.0995 123.277 94.6895 122.867 94.0795 122.267C93.4695 121.657 92.6595 120.857 92.0595 120.447C91.4495 120.047 91.0495 120.047 90.2395 120.047C89.4295 120.047 88.2195 120.047 87.4095 120.247C86.5995 120.447 86.1995 120.857 85.3895 121.257C84.5795 121.657 83.3695 122.067 82.1595 122.667C80.9495 123.277 79.7295 124.087 78.7195 124.287C77.7095 124.487 76.8995 124.087 76.0895 123.887C75.2795 123.687 74.4695 123.687 73.2595 123.077C72.0495 122.467 70.4295 121.257 69.0095 120.447C67.5895 119.637 66.3795 119.237 65.3695 118.627C64.3595 118.017 63.5495 117.207 62.8395 116.507C62.2795 115.947 61.7895 115.457 59.8295 113.497L59.7695 113.477Z" fill="#EAF6FD"/>
<path d="M138.92 24.1673C140.74 24.6973 141.56 24.9373 142.24 25.0973C143.55 25.3973 144.36 25.3973 145.17 25.8073C145.98 26.2073 146.79 27.0173 147.8 27.8273C148.81 28.6373 150.02 29.4473 150.63 30.2573C151.24 31.0673 151.24 31.8773 151.24 32.6873C151.24 33.4973 151.24 34.3073 151.04 35.3173C150.84 36.3273 150.43 37.5373 150.03 38.3473C149.63 39.1573 149.22 39.5573 148.82 39.9673C148.42 40.3673 148.01 40.7773 147.4 41.1773C146.79 41.5773 145.99 41.9873 145.18 42.1873C144.37 42.3873 143.56 42.3873 143.16 42.5873C142.76 42.7873 142.76 43.1973 142.55 44.0073C142.35 44.8173 141.94 46.0273 142.14 47.0373C142.34 48.0473 143.15 48.8573 143.96 49.8673C144.77 50.8773 145.58 52.0873 145.98 53.3073C146.38 54.5173 146.38 55.7373 146.59 56.5373C146.79 57.3473 147.2 57.7473 148.41 58.1573C149.62 58.5573 151.65 58.9673 153.06 58.7673C154.48 58.5673 155.28 57.7573 155.89 57.5573C156.5 57.3573 156.9 57.7573 157.1 58.9673C157.3 60.1773 157.3 62.2073 157.51 63.8173C157.71 65.4373 158.12 66.6473 158.52 67.8573C158.93 69.0673 159.33 70.2873 160.14 71.8973C160.95 73.5173 162.16 75.5373 162.97 76.3473C163.23 76.6073 163.45 76.7473 163.68 76.7873C164.15 76.8773 164.64 76.5573 165.6 76.1473C167.01 75.5373 169.44 74.7373 171.46 73.9273C173.48 73.1173 175.1 72.3073 176.31 71.7073C177.52 71.0973 178.33 70.6973 178.53 69.4873C178.73 68.2773 178.33 66.2573 178.33 65.0373C178.33 63.8173 178.74 63.4173 181.97 61.3973C185.21 59.3773 191.27 55.7373 194.71 53.5073C198.15 51.2873 198.96 50.4773 199.56 49.4673C200.17 48.4573 200.57 47.2473 200.97 47.0373C201.38 46.8373 201.78 47.6473 202.59 47.8473C203.4 48.0473 204.61 47.6473 205.42 47.0373C206.23 46.4273 206.63 45.6273 207.04 44.8173C207.44 44.0073 207.85 43.1973 209.26 42.1873C210.68 41.1773 213.1 39.9673 214.72 39.1573C216.34 38.3473 217.15 37.9473 218.46 37.7373C219.37 37.5973 220.53 37.5573 222.79 37.9473C222.79 37.9473 222.8 37.9473 222.81 37.9473C223.62 37.5473 224.43 37.5473 225.24 37.3373C226.05 37.1373 226.86 36.7273 227.26 36.3273C227.66 35.9273 227.66 35.5173 227.46 34.9173C227.26 34.3073 226.85 33.4973 226.04 32.8973C225.23 32.2873 224.02 31.8873 223.01 31.6873C222 31.4873 221.19 31.4873 220.58 30.6773C219.97 29.8673 219.57 28.2473 218.76 26.8373C217.95 25.4273 216.74 24.2073 215.32 23.5973C213.9 22.9873 212.29 22.9873 210.87 22.7873C209.46 22.5873 208.24 22.1773 207.03 21.7773C205.82 21.3773 204.6 20.9673 203.59 20.5673C202.58 20.1673 201.77 19.7573 200.56 19.5573C199.35 19.3573 197.73 19.3573 196.31 19.1573C194.9 18.9573 193.68 18.5473 192.87 17.9473C192.06 17.3373 191.66 16.5273 190.54 15.5173C189.43 14.5073 187.61 13.2973 186.39 10.8673C180.32 9.65733 180.32 9.04733 179.92 7.73733C179.52 6.42733 178.71 4.39733 177.7 2.98733C176.69 1.56733 175.48 0.767326 173.86 0.557326C172.24 0.357326 170.22 0.757326 168 1.97733C165.78 3.18733 163.35 5.20733 161.13 6.82733C158.91 8.44733 156.88 9.65733 155.67 11.0773C154.46 12.4973 154.05 14.1073 153.65 15.3273C153.24 16.5373 152.84 17.3473 152.44 17.9573C152.04 18.5673 151.63 18.9673 150.22 19.7773C148.8 20.5873 146.38 21.7973 144.36 22.6073C142.6 23.3173 141.14 23.7073 138.91 24.2073L138.92 24.1673Z" fill="#EEEF99"/>
<path d="M147.02 106.687C148.01 108.517 148.95 109.947 149.62 111.027C150.43 112.337 150.83 113.147 151.44 113.557C152.05 113.957 152.85 113.957 153.87 113.957C154.89 113.957 156.09 113.957 157.1 113.757C158.11 113.557 158.92 113.147 159.93 113.147C160.94 113.147 162.15 113.547 163.37 114.157C164.58 114.767 165.8 115.577 167.21 115.977C168.63 116.377 170.24 116.377 171.25 116.587C172.26 116.787 172.67 117.197 173.47 117.597C174.28 117.997 175.49 118.407 177.31 118.807C179.13 119.207 181.56 119.617 182.97 119.617C184.38 119.617 184.79 119.217 185.6 118.607C186.41 117.997 187.62 117.187 188.43 116.587C189.24 115.977 189.64 115.577 190.05 115.577C190.46 115.577 190.86 115.977 191.47 116.387C192.08 116.787 192.89 117.197 194.1 117.197C195.31 117.197 196.93 116.797 198.65 116.897C200.03 116.977 201.48 117.387 205.13 118.167C205.29 117.437 205.61 116.757 206.03 115.777C206.64 114.357 207.44 112.337 208.66 110.317C209.87 108.297 211.49 106.277 212.3 104.457C213.11 102.637 213.11 101.017 213.51 99.8071C213.92 98.5971 214.72 97.7871 215.13 96.3671C215.53 94.9471 215.53 92.9271 216.14 91.1071C216.75 89.2871 217.96 87.6671 218.57 86.6571C219.18 85.6471 219.18 85.2371 218.97 85.0371C218.77 84.8371 218.36 84.8371 217.15 83.6271C215.94 82.4171 213.91 79.9871 212.7 78.5671C211.49 77.1571 211.08 76.7471 210.88 76.3471C210.68 75.9471 210.68 75.5371 210.48 74.3271C210.28 73.1171 209.87 71.0971 209.67 69.0671C209.47 67.0471 209.47 65.0271 209.26 63.8071C209.06 62.5971 208.65 62.1871 208.86 61.1771C209.06 60.1671 209.87 58.5471 210.48 57.1371C211.09 55.7271 211.49 54.5071 212.1 52.8871C212.71 51.2671 213.51 49.2471 214.93 47.0271C216.35 44.8071 218.37 42.3771 219.78 40.7571C221.18 39.1571 221.99 38.3471 222.79 37.9371C220.54 37.5371 219.38 37.5871 218.46 37.7271C217.15 37.9271 216.34 38.3371 214.72 39.1471C213.1 39.9571 210.68 41.1671 209.26 42.1771C207.85 43.1871 207.44 43.9971 207.04 44.8071C206.64 45.6171 206.23 46.4271 205.42 47.0271C204.61 47.6371 203.4 48.0371 202.59 47.8371C201.78 47.6371 201.38 46.8271 200.97 47.0271C200.57 47.2271 200.16 48.4471 199.56 49.4571C198.95 50.4671 198.14 51.2771 194.71 53.4971C191.27 55.7171 185.21 59.3571 181.97 61.3871C178.74 63.4071 178.33 63.8171 178.33 65.0271C178.33 66.2371 178.74 68.2571 178.53 69.4771C178.33 70.6871 177.52 71.0971 176.31 71.6971C175.1 72.3071 173.48 73.1171 171.46 73.9171C169.44 74.7271 167.01 75.5371 165.6 76.1371C164.64 76.5471 164.15 76.8671 163.68 76.7771C162.58 78.6271 161.3 80.3971 160.44 81.7971C159.33 83.6171 158.92 84.8271 158.72 86.3471C158.57 87.4671 158.53 88.7571 158.03 89.8471C158.52 90.5971 158.49 91.3671 158.12 92.3071C157.72 93.3171 156.91 94.5271 155.9 95.7471C154.89 96.9571 153.68 98.1771 152.26 99.9971C150.84 101.817 149.23 104.247 148.01 105.657C147.65 106.077 147.33 106.407 147.03 106.677L147.02 106.687Z" fill="#EAF6FD"/>
<path d="M163.601 114.277C160.171 118.557 158.221 120.947 156.701 122.547C154.881 124.467 153.671 125.277 153.061 125.887C152.451 126.497 152.451 126.897 152.451 127.907C152.451 128.917 152.451 130.537 152.651 131.947C152.851 133.357 153.261 134.577 154.071 136.197C154.881 137.817 156.091 139.837 156.501 140.847C156.901 141.857 156.501 141.857 155.691 141.857C154.881 141.857 153.671 141.857 152.861 142.257C152.051 142.657 151.651 143.467 151.451 144.277C151.251 145.087 151.251 145.897 151.451 146.707C151.651 147.517 152.061 148.327 151.851 149.137C151.651 149.947 150.841 150.757 149.421 152.577C148.011 154.397 145.981 157.227 144.971 159.047C143.961 160.867 143.961 161.677 144.161 162.277C144.361 162.887 144.771 163.287 145.171 163.697C145.571 164.107 145.981 164.507 146.381 165.117C146.781 165.727 147.191 166.537 147.191 167.947C147.191 169.357 146.791 171.387 146.381 172.997C145.981 174.617 145.571 175.827 145.171 176.837C144.771 177.847 144.361 178.657 143.961 179.467C143.561 180.277 143.151 181.087 142.341 182.297C141.531 183.507 140.321 185.127 139.711 186.137C139.101 187.147 139.101 187.557 139.511 187.957C139.911 188.357 140.721 188.767 141.531 189.377C142.341 189.987 143.151 190.797 143.751 191.397C144.361 192.007 144.761 192.407 144.761 193.017C144.761 193.627 144.361 194.427 143.751 197.267C143.141 200.097 142.341 204.947 141.731 207.377C141.121 209.807 140.721 209.807 139.711 210.207C138.701 210.607 137.081 211.417 136.271 212.227C135.461 213.037 135.461 213.847 135.461 214.857C135.461 215.867 135.461 217.077 135.261 217.687C135.061 218.297 134.651 218.297 133.441 218.497C132.231 218.697 130.211 219.107 128.991 219.307C127.781 219.507 127.371 219.507 126.971 220.117C126.571 220.727 126.161 221.937 125.351 223.357C124.541 224.767 123.331 226.387 122.521 227.397C121.711 228.407 121.311 228.817 121.311 229.217C121.311 229.617 121.711 230.027 122.121 230.427C122.521 230.827 122.931 231.237 123.131 231.637C123.331 232.037 123.331 232.447 122.931 232.647C122.531 232.847 121.721 232.847 120.911 233.047C120.101 233.247 119.291 233.657 118.481 233.857C117.671 234.057 116.861 234.057 116.461 234.257C116.061 234.457 116.061 234.867 116.061 235.467C116.061 236.067 116.061 236.877 116.261 237.487C116.461 238.097 116.871 238.497 117.881 238.697C118.891 238.897 120.511 238.897 121.721 239.097C122.931 239.297 123.741 239.707 123.941 240.307C124.141 240.917 123.741 241.727 123.541 242.737C123.351 243.707 123.341 244.857 123.691 245.837C123.711 245.877 123.721 245.927 123.741 245.977C124.141 246.987 124.951 247.797 127.381 249.207C129.811 250.627 133.851 252.647 136.281 254.057C138.711 255.467 139.521 256.277 140.121 256.487C140.731 256.687 141.131 256.287 141.741 256.087C142.351 255.887 143.161 255.887 143.761 256.287C144.371 256.687 144.771 257.497 146.591 258.917C148.411 260.337 151.641 262.357 153.671 263.367C155.691 264.377 156.501 264.377 157.311 264.377C158.121 264.377 158.931 264.377 159.331 264.177C159.731 263.977 159.731 263.567 159.941 263.167C160.141 262.767 160.551 262.357 160.751 261.757C160.951 261.147 160.951 260.337 162.171 256.097C163.381 251.847 165.811 244.167 167.221 239.917C168.641 235.667 169.041 234.867 169.241 234.257C169.441 233.647 169.441 233.247 169.441 232.637C169.441 232.027 169.441 231.217 169.041 230.417C168.641 229.607 167.831 228.797 167.631 228.397C167.431 227.997 167.831 227.997 169.451 227.187C171.071 226.377 173.901 224.757 175.521 224.157C177.141 223.547 177.541 223.957 178.051 224.457C178.481 224.887 178.971 225.377 181.311 226.987C181.401 226.857 181.501 226.727 181.591 226.587C181.991 225.977 182.401 225.177 182.601 224.367C182.801 223.557 182.801 222.747 182.191 221.437C181.581 220.127 180.371 218.307 180.371 217.087C180.371 214.657 181.581 214.057 182.191 213.147C182.801 212.237 182.801 211.027 183.401 207.187C184.011 203.347 185.221 196.877 186.031 191.417C186.841 185.957 187.241 181.507 187.651 178.277C188.051 175.047 188.461 173.017 188.861 170.797C189.261 168.577 189.671 166.147 190.481 163.927C191.291 161.707 192.501 159.677 193.111 158.467C193.721 157.257 193.721 156.847 193.511 156.037C193.311 155.227 192.901 154.017 192.701 152.797C192.501 151.587 192.501 150.367 192.701 149.157C192.901 147.947 193.311 146.727 193.911 145.117C194.521 143.497 195.331 141.477 195.731 140.267C196.131 139.057 196.131 138.647 195.731 137.637C195.331 136.627 194.521 135.007 194.311 134.197C194.111 133.387 194.511 133.387 196.531 131.977C198.551 130.557 202.191 127.727 204.011 126.117C205.831 124.497 205.831 124.097 205.631 123.087C205.431 122.077 205.021 120.457 205.021 119.247C205.021 118.867 205.061 118.527 205.131 118.197C201.471 117.407 200.031 117.007 198.651 116.927C196.931 116.827 195.311 117.227 194.101 117.227C192.891 117.227 192.081 116.827 191.471 116.417C190.861 116.017 190.461 115.607 190.051 115.607C189.641 115.607 189.241 116.007 188.431 116.617C187.621 117.227 186.411 118.027 185.601 118.637C184.791 119.247 184.391 119.647 182.971 119.647C181.551 119.647 179.131 119.247 177.311 118.837C175.491 118.437 174.281 118.027 173.471 117.627C172.661 117.227 172.261 116.817 171.251 116.617C170.241 116.417 168.621 116.417 167.211 116.007C165.881 115.627 164.731 114.897 163.601 114.307V114.277Z" fill="#DBE7ED"/>
<path d="M118.501 379.717C118.501 379.717 118.501 379.667 118.491 379.647C117.281 376.007 117.881 373.577 118.191 371.157C118.491 368.727 118.491 366.307 119.101 364.487C119.711 362.667 120.921 361.457 121.931 359.637C122.941 357.817 123.751 355.387 123.951 353.567C124.151 351.747 123.751 350.537 124.151 348.517C124.551 346.497 125.771 343.667 126.371 341.437C126.981 339.217 126.981 337.597 127.991 335.367C129.001 333.147 131.021 330.317 135.071 325.457C139.111 320.607 145.181 313.727 148.411 309.887C151.651 306.047 152.051 305.237 152.051 304.427C152.051 303.617 151.651 302.807 151.441 301.797C151.241 300.787 151.241 299.577 152.051 298.967C152.861 298.357 154.481 298.357 155.691 298.357C156.901 298.357 157.711 298.357 158.321 297.957C158.931 297.547 159.331 296.747 161.151 293.507C162.971 290.267 166.201 284.607 169.041 280.167C171.871 275.717 174.301 272.487 175.111 270.257C175.921 268.037 175.111 266.817 174.711 265.607C174.311 264.397 174.311 263.177 174.101 261.767C173.901 260.347 173.491 258.737 173.701 257.517C173.901 256.307 174.711 255.497 176.131 251.857C177.541 248.217 179.571 241.747 180.581 237.907C181.591 234.067 181.591 232.847 181.391 231.637C181.191 230.427 180.781 229.207 180.781 228.397C180.781 227.777 181.021 227.397 181.311 226.977C178.981 225.377 178.481 224.877 178.051 224.447C177.541 223.937 177.141 223.537 175.521 224.147C173.901 224.757 171.071 226.367 169.451 227.177C167.831 227.987 167.431 227.987 167.631 228.387C167.831 228.787 168.641 229.597 169.041 230.407C169.441 231.217 169.441 232.027 169.441 232.627C169.441 233.227 169.441 233.637 169.241 234.247C169.041 234.857 168.631 235.667 167.221 239.907C165.801 244.157 163.381 251.837 162.171 256.087C160.961 260.337 160.961 261.137 160.751 261.747C160.551 262.357 160.141 262.757 159.941 263.157C159.741 263.567 159.741 263.967 159.331 264.167C158.931 264.367 158.121 264.367 157.311 264.367C156.501 264.367 155.691 264.367 153.671 263.357C151.651 262.347 148.411 260.327 146.591 258.907C144.771 257.497 144.371 256.687 143.761 256.277C143.151 255.877 142.351 255.877 141.741 256.077C141.131 256.277 140.731 256.687 140.121 256.477C139.511 256.277 138.711 255.467 136.281 254.047C133.851 252.627 129.811 250.607 127.381 249.197C124.951 247.787 124.141 246.977 123.741 245.967C123.721 245.927 123.701 245.877 123.691 245.827C122.511 246.227 121.651 246.367 120.711 246.767C119.301 247.377 117.681 248.587 116.461 249.397C115.251 250.207 114.441 250.607 113.631 251.417C112.821 252.227 112.011 253.437 111.201 254.447C110.391 255.457 109.581 256.267 108.981 257.077C108.371 257.887 107.971 258.697 107.561 259.707C107.161 260.717 106.751 261.927 106.551 262.937C106.351 263.947 106.351 264.757 106.151 267.387C105.951 270.017 105.541 274.467 105.341 277.497C105.141 280.527 105.141 282.147 104.941 283.157C104.741 284.167 104.331 284.567 103.931 284.977C103.531 285.377 103.121 285.787 102.721 286.187C102.311 286.587 101.911 286.997 101.511 287.597C101.111 288.207 100.701 289.017 100.501 289.817C100.301 290.627 100.301 291.437 100.501 292.247C100.701 293.057 101.111 293.867 101.511 294.467C101.911 295.077 102.321 295.477 102.721 296.897C103.121 298.307 103.531 300.737 103.931 302.157C104.331 303.577 104.741 303.977 105.951 304.987C107.161 305.997 109.191 307.617 110.201 308.827C111.211 310.037 111.211 310.847 111.211 312.067C111.211 313.287 111.211 314.897 111.011 316.107C110.811 317.317 110.401 318.127 109.801 318.737C109.191 319.347 108.391 319.747 106.361 320.557C104.341 321.367 101.101 322.577 99.491 323.587C97.871 324.597 97.871 325.407 97.471 327.227C97.071 329.047 96.261 331.877 95.451 334.307C94.641 336.737 93.831 338.757 93.431 340.377C93.031 341.997 93.031 343.207 93.231 344.217C93.431 345.227 93.841 346.037 94.651 348.257C95.461 350.477 96.671 354.117 97.281 356.747C97.891 359.377 97.891 360.997 97.891 362.407C97.891 363.817 97.891 365.037 98.091 365.847C98.291 366.657 98.701 367.057 99.501 367.267C100.311 367.467 101.521 367.467 102.131 367.877C102.741 368.277 102.741 369.087 102.741 370.097C102.741 371.107 102.741 372.317 102.941 373.127C103.141 373.937 103.551 374.337 104.151 374.947C104.761 375.557 105.561 376.357 106.371 376.767C107.181 377.177 107.991 377.177 109.001 377.577C110.011 377.977 111.221 378.787 112.441 379.197C113.651 379.597 114.871 379.597 116.991 379.597C117.471 379.597 117.991 379.597 118.521 379.667L118.501 379.717Z" fill="#EAF6FD"/>
<path d="M45.6804 140.718C46.9304 140.888 46.9904 141.318 47.3204 141.558C47.7204 141.858 48.5304 141.857 48.9404 142.067C49.3404 142.267 49.3404 142.678 49.1404 143.078C48.9404 143.478 48.5304 143.887 48.5304 144.287C48.5304 144.688 48.9304 145.097 49.1404 145.707C49.3404 146.317 49.3404 147.128 49.5404 147.728C49.7404 148.338 50.1504 148.738 50.7504 148.938C51.3604 149.138 52.1704 149.138 52.7704 149.338C53.3804 149.538 53.7804 149.948 54.1904 150.548C54.5904 151.158 55.0004 151.967 56.0104 152.767C57.0204 153.577 58.6404 154.387 60.0504 154.987C61.4704 155.597 62.6804 155.998 63.2904 156.608C63.9004 157.218 63.9004 158.027 64.5004 158.627C65.1004 159.227 66.3204 159.638 67.5304 160.248C68.7404 160.858 69.9604 161.667 71.5704 162.267C73.1904 162.877 75.2104 163.278 76.8304 163.278C78.4504 163.278 79.6604 162.877 80.4704 162.877C81.2804 162.877 81.6804 163.277 82.0904 163.487C82.4904 163.687 82.9004 163.688 83.1004 163.287C83.3004 162.887 83.3004 162.078 83.5004 161.468C83.7004 160.858 84.1104 160.458 84.5104 160.048C84.9104 159.648 85.3204 159.237 85.5204 158.228C85.7204 157.218 85.7204 155.597 86.1304 154.588C86.5304 153.578 87.3404 153.167 87.9504 152.368C88.5604 151.557 88.9604 150.347 89.3704 149.737C89.7804 149.127 90.1804 149.127 90.9904 149.127H93.8204C94.6304 149.127 95.0304 149.128 95.2304 149.528C95.4304 149.928 95.4304 150.737 95.6404 151.147C95.8404 151.548 96.2504 151.548 96.6504 150.948C97.0504 150.338 97.4604 149.127 98.0604 148.317C98.6704 147.507 99.4704 147.108 99.8804 146.698C100.29 146.298 100.29 145.888 100.69 145.888C101.09 145.888 101.9 146.288 102.71 146.498C103.52 146.698 104.33 146.697 104.93 146.897C105.54 147.097 105.94 147.507 106.55 147.097C107.16 146.697 107.96 145.478 108.57 144.668C109.18 143.858 109.58 143.457 109.98 143.457C110.38 143.457 110.79 143.857 111.19 144.267C111.59 144.667 112 145.077 112.4 144.877C112.8 144.677 113.21 143.868 114.02 143.257C114.83 142.647 116.04 142.248 116.85 142.048C117.66 141.848 118.06 141.847 118.26 141.647C118.46 141.447 118.46 141.038 118.66 140.438C118.86 139.828 119.27 139.018 119.87 138.618C120.48 138.218 121.29 138.217 122.09 138.007C122.9 137.807 123.71 137.398 124.72 136.798C125.73 136.188 126.94 135.378 127.75 134.778C128.56 134.168 128.96 133.768 130.18 134.578C131.39 135.388 133.41 137.408 134.63 138.828C135.84 140.238 136.25 141.047 136.45 141.657C136.65 142.267 136.65 142.667 137.87 142.868C139.08 143.068 141.51 143.067 143.53 143.067H148.58C149.63 143.067 150.57 143.068 151.47 144.048C151.69 143.318 152.09 142.618 152.82 142.257C153.63 141.857 154.84 141.858 155.65 141.858C156.46 141.858 156.86 141.857 156.46 140.847C156.06 139.837 154.84 137.818 154.03 136.198C153.22 134.578 152.82 133.368 152.61 131.948C152.41 130.528 152.41 128.918 152.41 127.908C152.41 126.898 152.41 126.488 153.02 125.888C153.63 125.278 154.84 124.468 156.66 122.548C158.18 120.938 160.13 118.558 163.56 114.278C163.48 114.238 163.41 114.198 163.33 114.158C162.12 113.548 160.9 113.147 159.89 113.147C158.88 113.147 158.07 113.547 157.06 113.757C156.05 113.957 154.84 113.958 153.83 113.958C152.82 113.958 152.01 113.958 151.4 113.558C150.79 113.158 150.39 112.348 149.58 111.028C148.91 109.948 147.97 108.518 146.98 106.688C146.26 107.337 145.64 107.637 144.93 107.997C143.92 108.507 142.71 109.107 137.85 110.327C136.64 111.537 136.64 112.758 136.23 113.768C135.83 114.778 135.02 115.587 134.61 115.787C134.21 115.987 134.21 115.588 133.8 115.388C133.39 115.188 132.59 115.188 131.37 115.588C130.16 115.988 128.54 116.797 127.53 117.607C126.52 118.417 126.12 119.228 125.71 119.628C125.31 120.028 124.9 120.028 124.5 120.028C124.1 120.028 123.69 120.028 123.09 120.638C122.48 121.248 121.67 122.457 121.07 123.067C120.46 123.677 120.06 123.677 119.65 123.677H118.23C117.62 123.677 116.82 123.677 116.01 124.287C115.2 124.897 114.39 126.108 113.79 126.507C113.18 126.907 112.78 126.508 112.17 126.308C111.56 126.108 110.76 126.108 110.15 125.908C109.54 125.708 109.14 125.297 108.94 124.897C108.74 124.497 108.74 124.088 108.54 123.888C108.34 123.688 107.93 123.688 107.33 123.888C106.72 124.088 105.91 124.498 105.31 124.698C104.7 124.898 104.3 124.898 103.69 124.698C103.08 124.498 102.28 124.088 101.47 123.888C100.66 123.688 99.8504 123.688 99.0404 123.688H96.8204C96.2104 123.688 95.8104 123.688 95.4104 123.488C95.0104 123.288 94.6004 122.878 93.9904 122.278C93.3804 121.668 92.5704 120.868 91.9704 120.458C91.3604 120.058 90.9604 120.058 90.1504 120.058C89.3404 120.058 88.1304 120.057 87.3204 120.257C86.5104 120.457 86.1104 120.868 85.3004 121.268C84.4904 121.668 83.2804 122.077 82.0704 122.677C80.8604 123.287 79.6404 124.097 78.6304 124.298C77.6204 124.498 76.8104 124.097 76.0004 123.897C75.1904 123.697 74.3804 123.698 73.1704 123.088C71.9604 122.478 70.3404 121.268 68.9204 120.458C67.5004 119.648 66.2904 119.248 65.2804 118.638C64.2704 118.028 63.4604 117.218 62.7504 116.518C62.1904 115.958 61.7004 115.467 59.7404 113.507C57.4804 117.358 55.2804 121.058 53.9604 123.698C52.5404 126.528 52.1404 128.148 51.3304 130.368C50.5204 132.587 49.3104 135.417 47.8904 137.647C47.1804 138.757 46.4304 139.718 45.6504 140.748L45.6804 140.718Z" fill="#EEEF99"/>
<path d="M18.6797 188.368C19.1497 188.648 19.5997 188.868 20.0097 189.078C21.0197 189.588 21.8297 189.988 22.4397 190.188C23.0497 190.388 23.4497 190.388 23.8497 190.388C24.2497 190.388 24.6597 190.388 25.6697 190.188C26.6797 189.988 28.2997 189.578 29.3097 189.178C30.3197 188.778 30.7197 188.368 31.7397 188.168C32.7497 187.968 34.3697 187.968 35.9897 187.968C37.6097 187.968 39.2297 187.968 40.6397 188.368C42.0597 188.768 43.2697 189.578 45.0897 189.988C46.9097 190.388 49.3397 190.388 51.3597 190.598C53.3797 190.798 54.9997 191.208 57.2197 191.408C59.4397 191.608 62.2797 191.608 64.0897 191.608C65.8997 191.608 66.7197 191.608 67.3297 191.808C67.7097 191.938 68.0097 192.138 68.2897 192.378C69.4797 191.608 70.2197 191.608 70.7697 191.608C71.5797 191.608 71.9797 191.608 72.3897 191.408C72.7897 191.208 73.1997 190.798 73.3997 190.198C73.5997 189.588 73.5997 188.788 73.5997 188.178C73.5997 187.568 73.5997 187.168 73.3997 186.968C73.1997 186.768 72.7897 186.768 72.1897 186.968C71.5797 187.168 70.7797 187.578 69.9697 187.578C69.1597 187.578 68.3497 187.178 67.9497 186.568C67.5497 185.958 67.5497 185.148 66.9397 184.548C66.3297 183.938 65.1197 183.538 64.3097 183.128C63.4997 182.728 63.0997 182.318 63.0997 181.108C63.0997 179.898 63.4997 177.868 63.7097 176.058C63.9097 174.238 63.9097 172.618 63.7097 171.608C63.5097 170.598 63.0997 170.188 62.6997 169.178C62.2997 168.168 61.8897 166.548 61.6897 165.338C61.4897 164.128 61.4897 163.318 61.2897 162.708C61.0897 162.098 60.6797 161.698 60.4797 161.288C60.2797 160.888 60.2797 160.478 60.8797 160.278C61.4897 160.078 62.6997 160.078 63.6097 159.768C64.0897 159.608 64.4897 159.358 64.9297 158.988C64.7697 158.888 64.6297 158.778 64.5197 158.658C63.9097 158.048 63.9097 157.248 63.3097 156.638C62.6997 156.028 61.4897 155.628 60.0697 155.018C58.6597 154.408 57.0397 153.598 56.0297 152.798C55.0197 151.988 54.6097 151.178 54.2097 150.578C53.8097 149.968 53.3997 149.568 52.7897 149.368C52.1797 149.168 51.3697 149.168 50.7697 148.968C50.1597 148.768 49.7597 148.358 49.5597 147.758C49.3597 147.148 49.3597 146.338 49.1597 145.738C48.9597 145.128 48.5497 144.728 48.5497 144.318C48.5497 143.908 48.9497 143.508 49.1597 143.108C49.3597 142.708 49.3597 142.298 48.9597 142.098C48.5597 141.898 47.7497 141.898 47.3397 141.588C47.0197 141.348 46.9497 140.908 45.6997 140.748C44.9097 141.788 44.0997 142.898 43.2897 144.318C41.6697 147.148 40.0597 151.188 38.8397 153.818C37.6297 156.448 36.8197 157.658 35.8097 159.078C34.7997 160.498 33.5897 162.108 32.3697 163.728C31.1597 165.348 29.9397 166.958 28.5297 169.188C27.1097 171.408 25.4997 174.248 24.3797 177.478C23.2697 180.718 22.6597 184.348 19.0197 187.988C18.9097 188.128 18.7997 188.258 18.6997 188.388L18.6797 188.368Z" fill="#DBE7ED"/>
<path d="M43.9911 352.137C44.5011 351.447 44.5411 351.057 44.6911 350.837C44.8911 350.537 45.3011 350.537 45.7011 350.537C46.1011 350.537 46.5111 350.537 46.7111 350.337C46.9111 350.137 46.9111 349.727 47.1111 349.527C47.3111 349.327 47.7211 349.327 47.9211 349.127C48.1211 348.927 48.1211 348.517 48.3211 348.317C48.5211 348.117 48.9311 348.117 48.9311 347.917C48.9311 347.717 48.5311 347.307 48.3211 346.907C48.1211 346.507 48.1211 346.097 47.9211 345.897C47.7211 345.697 47.3111 345.697 47.1111 345.497C46.9111 345.297 46.9111 344.887 46.7111 344.487C46.5111 344.087 46.1011 343.677 45.7011 343.277C45.3011 342.877 44.8911 342.467 44.6911 342.467C44.4911 342.467 44.4911 342.867 44.2911 343.077C44.0911 343.287 43.6811 343.277 43.4811 343.077C43.2811 342.877 43.2811 342.467 42.8711 342.267C42.4611 342.067 41.6611 342.067 41.2511 342.267C40.8411 342.467 40.8511 342.877 40.6411 343.077C40.4411 343.277 40.0311 343.277 39.6311 343.277C39.2311 343.277 38.8211 343.277 38.6211 343.077C38.4211 342.877 38.4211 342.467 38.6211 342.267C38.8211 342.067 39.2311 342.067 39.6311 341.867C40.0311 341.667 40.4411 341.257 40.4411 341.057C40.4411 340.857 40.0411 340.857 39.6311 340.657C39.2311 340.457 38.8211 340.047 38.6211 339.647C38.4211 339.247 38.4211 338.837 38.8211 338.637C39.2211 338.437 40.0311 338.437 40.4411 338.637C40.8411 338.837 40.8411 339.247 41.0511 339.447C41.2511 339.647 41.6611 339.647 41.8611 338.837C42.0611 338.027 42.0611 336.407 41.8611 335.197C41.6611 333.987 41.2511 333.177 40.8511 332.567C40.4511 331.957 40.0411 331.557 39.8411 331.147C39.6411 330.747 39.6411 330.337 39.2311 330.137C38.8311 329.937 38.0211 329.937 37.6111 329.737C37.2111 329.537 37.2111 329.127 37.4111 328.927C37.6111 328.727 38.0211 328.727 38.4211 328.527C38.8211 328.327 39.2311 327.917 39.2311 327.517C39.2311 327.117 38.8311 326.707 38.6211 326.307C38.4211 325.897 38.4211 325.497 38.6211 325.297C38.8211 325.097 39.2311 325.097 39.6311 325.097C40.0311 325.097 40.4411 325.097 40.6411 324.697C40.8411 324.297 40.8411 323.487 40.6411 322.877C40.4411 322.267 40.0311 321.867 39.8311 321.457C39.6311 321.057 39.6311 320.647 39.4311 320.447C39.2311 320.247 38.8211 320.247 38.6211 320.047C38.4211 319.847 38.4211 319.437 38.2211 319.437C38.0211 319.437 37.6111 319.837 37.6111 320.247C37.6111 320.657 38.0111 321.057 38.2211 321.457C38.4211 321.857 38.4211 322.267 38.0211 322.467C37.6211 322.667 36.8111 322.667 36.4011 322.867C36.0011 323.067 36.0011 323.477 35.7911 323.677C35.5911 323.877 35.1811 323.877 34.7811 323.677C34.3811 323.477 33.9711 323.067 33.5711 322.667C33.1711 322.267 32.7611 321.857 32.3611 321.857C31.9611 321.857 31.5511 322.257 31.0511 322.767C30.6711 323.147 30.2311 323.587 29.5111 324.827C28.8111 323.917 27.9911 322.877 26.4011 320.037C24.4911 316.617 21.4811 310.607 17.8711 303.387C18.3111 302.707 18.6311 302.337 18.9111 301.937C19.4211 301.227 19.8211 300.417 20.2211 300.417C20.6211 300.417 21.0311 301.227 22.0411 301.827C23.0511 302.437 24.6711 302.837 26.2911 302.837C27.9111 302.837 29.5311 302.437 30.5411 302.637C31.5511 302.837 31.9611 303.647 32.7611 304.057C33.5711 304.457 34.7811 304.457 35.9911 304.257C37.2011 304.057 38.4211 303.647 39.4311 303.447C40.4411 303.247 41.2511 303.247 41.6511 303.047C42.0511 302.847 42.0511 302.437 42.2611 301.837C42.4611 301.227 42.8711 300.427 43.4711 299.817C44.0811 299.207 44.8911 298.807 45.4911 298.807C46.0911 298.807 46.5011 299.207 46.9011 299.417C47.3011 299.617 47.7111 299.617 47.9111 299.417C48.1111 299.217 48.1111 298.807 48.1111 297.997C48.1111 297.187 48.1111 295.977 48.3111 294.967C48.5111 293.957 48.9211 293.147 49.3211 292.747C49.7211 292.337 50.1311 292.337 50.9411 292.137C51.7511 291.937 52.9611 291.527 53.7711 291.127C54.5811 290.727 54.9811 290.317 55.1911 289.917C55.3911 289.517 55.3911 289.107 55.3911 288.297C55.3911 287.487 55.3911 286.277 55.5911 285.667C55.7911 285.057 56.2011 285.057 57.4111 283.847C58.6211 282.637 60.6511 280.207 63.0711 277.777C65.4911 275.347 68.3311 272.927 69.9411 271.107C71.5611 269.287 71.9611 268.077 72.3711 266.457C72.7711 264.837 73.1811 262.817 73.7911 261.197C74.4011 259.577 75.2111 258.367 75.8111 256.947C76.4211 255.527 76.8211 253.917 78.0311 252.697C79.2411 251.477 81.2611 250.677 83.2911 249.667C85.3111 248.657 87.3311 247.447 88.5511 246.227C89.7611 245.017 90.1711 243.797 90.9811 242.587C91.7911 241.377 93.0011 240.157 94.6211 238.947C96.2411 237.737 98.2611 236.517 99.8811 235.507C101.501 234.497 102.711 233.687 103.621 232.977C104.461 232.327 105.041 231.757 107.011 228.847C107.261 228.917 107.501 228.977 107.771 229.037C108.781 229.237 109.991 229.237 112.121 229.237H121.321C121.321 229.637 121.721 230.047 122.131 230.447C122.531 230.847 122.941 231.257 123.141 231.657C123.341 232.057 123.341 232.467 122.941 232.667C122.541 232.867 121.731 232.867 120.921 233.067C120.111 233.267 119.301 233.677 118.491 233.877C117.681 234.077 116.871 234.077 116.471 234.277C116.071 234.477 116.071 234.887 116.071 235.487C116.071 236.087 116.071 236.897 116.271 237.507C116.471 238.117 116.881 238.517 117.891 238.717C118.901 238.917 120.521 238.917 121.731 239.117C122.941 239.317 123.751 239.727 123.951 240.327C124.151 240.937 123.751 241.747 123.551 242.757C123.361 243.727 123.351 244.877 123.701 245.857C122.521 246.257 121.661 246.397 120.721 246.797C119.311 247.407 117.691 248.617 116.471 249.427C115.261 250.237 114.451 250.637 113.641 251.447C112.831 252.257 112.021 253.467 111.211 254.477C110.401 255.487 109.591 256.297 108.991 257.107C108.381 257.917 107.981 258.727 107.571 259.737C107.171 260.747 106.761 261.957 106.561 262.967C106.361 263.977 106.361 264.787 106.161 267.417C105.961 270.047 105.551 274.497 105.351 277.527C105.151 280.557 105.151 282.177 104.951 283.187C104.751 284.197 104.341 284.597 103.941 285.007C103.541 285.407 103.131 285.817 102.731 286.217C102.321 286.617 101.921 287.027 101.521 287.627C101.121 288.237 100.711 289.047 100.511 289.847C100.311 290.657 100.311 291.467 100.511 292.277C100.711 293.087 101.121 293.897 101.521 294.497C101.921 295.107 102.331 295.507 102.731 296.927C103.131 298.337 103.541 300.767 103.941 302.187C103.981 302.317 104.021 302.447 104.051 302.557C101.501 301.757 101.431 301.317 101.111 301.077C100.711 300.777 99.9011 300.777 99.0911 301.177C98.2811 301.577 97.4711 302.387 96.6611 303.197C95.8511 304.007 95.0411 304.817 94.6411 305.417C94.2411 306.027 94.2411 306.427 94.0311 306.427C93.8211 306.427 93.4211 306.017 92.8211 305.417C92.2111 304.807 91.4011 303.997 90.6011 303.397C89.7911 302.787 88.9811 302.387 88.1711 302.387C87.3611 302.387 86.5511 302.787 86.1511 303.197C85.7511 303.607 85.7511 304.007 85.3411 304.207C84.9411 304.407 84.1311 304.407 83.3211 304.007C82.5111 303.607 81.7011 302.797 81.3011 302.187C80.9011 301.577 80.9011 301.177 80.6911 300.977C80.4911 300.777 80.0811 300.777 79.6811 300.777C79.2811 300.777 78.8711 300.777 78.2611 301.187C77.6511 301.587 76.8411 302.397 76.0411 302.597C75.2311 302.797 74.4211 302.397 73.8211 302.197C73.2111 301.997 72.8111 301.997 72.2011 301.997C71.5911 301.997 70.7911 301.997 70.1811 302.197C69.5711 302.397 69.1711 302.807 68.9711 303.617C68.7711 304.427 68.7711 305.637 67.9611 306.647C67.1511 307.657 65.5311 308.467 64.7311 309.077C63.9211 309.687 63.9211 310.087 63.1111 310.287C62.3011 310.487 60.6811 310.487 59.4711 310.487C58.2611 310.487 57.4511 310.487 56.6411 310.687C55.8311 310.887 55.0211 311.297 54.4211 311.497C53.8111 311.697 53.4111 311.697 53.2111 312.107C53.0111 312.507 53.0111 313.317 53.0111 316.357V334.757C53.0111 335.567 53.0111 336.377 53.2111 336.977C53.4111 337.587 53.8211 337.987 54.2211 338.387C54.6211 338.797 55.0311 339.197 55.2311 339.797C55.4311 340.407 55.4311 341.217 55.2311 342.017C55.0311 342.827 54.6211 343.637 54.4211 344.447C54.2211 345.257 54.2211 346.067 54.0211 347.077C53.8211 348.087 53.4111 349.297 53.0111 350.517C52.6111 351.737 52.2011 352.947 51.7011 353.857C51.3311 354.527 50.9011 355.027 50.2211 355.737C50.0011 355.617 49.7911 355.497 49.5811 355.377C48.1611 354.567 46.9511 353.757 46.1411 353.207C45.3311 352.647 44.9311 352.347 44.3211 352.197C44.2311 352.177 44.1311 352.157 44.0311 352.137H43.9911Z" fill="#EAF6FD"/>
<path d="M118.5 379.717C119.7 385.747 119.09 390.577 118.99 393.597C118.89 396.627 119.29 397.847 119.9 398.647C120.51 399.457 121.32 399.857 121.72 400.267C122.12 400.677 122.12 401.077 121.21 402.187C120.3 403.297 118.48 405.117 118.48 406.327C118.48 408.757 117.87 411.787 117.77 413.907C117.67 416.027 118.07 417.247 118.07 418.857C118.07 420.467 117.67 422.497 117.46 423.707C117.26 424.917 117.26 425.327 116.95 425.527C116.65 425.727 116.04 425.727 115.64 425.327C115.24 424.927 115.03 424.117 114.93 423.107C114.83 422.097 114.83 420.887 111.19 419.667C108.76 417.237 108.16 416.637 107.65 416.327C107.14 416.027 106.74 416.027 106.44 416.627C106.14 417.237 105.93 418.447 105.83 419.557C105.73 420.667 105.73 421.677 105.32 422.187C104.92 422.687 104.11 422.687 103.5 421.787C102.89 420.877 102.49 419.057 101.38 417.137C100.27 415.217 98.4502 413.197 97.1302 411.577C95.8202 409.957 95.0102 408.747 94.6002 407.937C94.2002 407.127 94.2002 406.727 94.4002 405.717C94.6002 404.707 95.0102 403.087 95.4102 401.677C95.8102 400.267 96.2202 399.047 96.4202 398.137C96.6202 397.227 96.6202 396.617 95.4102 394.197C90.5602 386.917 88.7402 383.887 87.8302 382.167C86.9202 380.447 86.9202 380.047 86.5202 379.637C86.1202 379.237 85.3102 378.827 82.4802 376.507C79.6502 374.177 74.8002 369.937 68.7302 363.867C67.5202 362.657 66.3002 362.047 65.2902 361.537C64.2802 361.037 63.4702 360.627 62.8602 360.227C62.2502 359.827 61.8502 359.417 61.4402 358.807C61.0402 358.197 60.6302 357.387 60.2302 356.787C59.8302 356.177 59.4202 355.777 59.0202 355.977C58.6202 356.177 58.2102 356.987 57.8102 357.597C57.4102 358.207 57.0002 358.607 56.3902 358.607C55.7802 358.607 54.9702 358.207 53.7602 357.597C52.7302 357.077 51.4002 356.417 50.1602 355.737C50.8402 355.037 51.2702 354.527 51.6402 353.857C52.1502 352.947 52.5502 351.737 52.9502 350.517C53.3502 349.297 53.7602 348.087 53.9602 347.077C54.1602 346.067 54.1602 345.257 54.3602 344.447C54.5602 343.637 54.9702 342.827 55.1702 342.017C55.3702 341.207 55.3702 340.397 55.1702 339.797C54.9702 339.187 54.5602 338.787 54.1602 338.387C53.7602 337.987 53.3502 337.577 53.1502 336.977C52.9502 336.367 52.9502 335.557 52.9502 334.757V316.357C52.9502 313.327 52.9502 312.517 53.1502 312.107C53.3502 311.707 53.7602 311.707 54.3602 311.497C54.9702 311.297 55.7702 310.887 56.5802 310.687C57.3902 310.487 58.2002 310.487 59.4102 310.487C60.6202 310.487 62.2402 310.487 63.0502 310.287C63.8602 310.087 63.8602 309.677 64.6702 309.077C65.4802 308.467 67.1002 307.667 67.9002 306.647C68.7102 305.637 68.7102 304.427 68.9102 303.617C69.1102 302.807 69.5202 302.407 70.1202 302.197C70.7302 301.997 71.5402 301.997 72.1402 301.997C72.7402 301.997 73.1502 301.997 73.7602 302.197C74.3702 302.397 75.1802 302.807 75.9802 302.597C76.7902 302.397 77.6002 301.587 78.2002 301.187C78.8102 300.777 79.2102 300.777 79.6202 300.777C80.0302 300.777 80.4302 300.777 80.6302 300.977C80.8302 301.177 80.8302 301.587 81.2402 302.187C81.6402 302.797 82.4502 303.607 83.2602 304.007C84.0702 304.407 84.8802 304.407 85.2802 304.207C85.6802 304.007 85.6802 303.597 86.0902 303.197C86.5002 302.797 87.3002 302.387 88.1102 302.387C88.9202 302.387 89.7302 302.787 90.5402 303.397C91.3502 304.007 92.1602 304.807 92.7602 305.417C93.3702 306.027 93.7702 306.427 93.9702 306.427C94.1702 306.427 94.1702 306.017 94.5802 305.417C94.9802 304.807 95.7902 303.997 96.6002 303.197C97.4102 302.387 98.2202 301.577 99.0302 301.177C99.8402 300.767 100.65 300.767 101.05 301.077C101.38 301.317 101.44 301.767 103.99 302.557C104.36 303.677 104.8 304.097 105.9 305.017C107.11 306.027 109.14 307.647 110.15 308.857C111.16 310.067 111.16 310.877 111.16 312.097C111.16 313.317 111.16 314.927 110.96 316.137C110.76 317.347 110.35 318.157 109.75 318.767C109.14 319.377 108.34 319.777 106.31 320.587C104.29 321.397 101.05 322.607 99.4402 323.617C97.8202 324.627 97.8202 325.437 97.4202 327.257C97.0202 329.077 96.2102 331.907 95.4002 334.337C94.5902 336.767 93.7802 338.787 93.3802 340.407C92.9802 342.027 92.9802 343.237 93.1802 344.247C93.3802 345.257 93.7902 346.067 94.6002 348.287C95.4102 350.507 96.6202 354.147 97.2302 356.777C97.8402 359.407 97.8402 361.027 97.8402 362.437C97.8402 363.847 97.8402 365.067 98.0402 365.877C98.2402 366.687 98.6502 367.087 99.4502 367.297C100.26 367.497 101.47 367.497 102.08 367.907C102.69 368.307 102.69 369.117 102.69 370.127C102.69 371.137 102.69 372.347 102.89 373.157C103.09 373.967 103.5 374.367 104.1 374.977C104.71 375.587 105.51 376.387 106.32 376.797C107.13 377.207 107.94 377.207 108.95 377.607C109.96 378.007 111.17 378.817 112.39 379.227C113.6 379.627 114.82 379.627 116.94 379.627C117.42 379.627 117.94 379.627 118.47 379.697L118.5 379.717Z" fill="#EEEF99"/>
<path d="M4.25 252.997C7.3 252.467 8.3 252.957 9.3 253.377C10.51 253.877 11.73 254.287 12.74 254.687C13.75 255.087 14.56 255.497 15.17 255.497C15.78 255.497 16.18 255.097 16.59 254.487C16.99 253.877 17.4 253.067 17.8 252.467C18.2 251.857 18.61 251.457 19.01 251.257C19.41 251.057 19.82 251.057 20.22 251.257C20.62 251.457 21.03 251.867 21.43 252.067C21.83 252.267 22.24 252.267 22.44 252.067C22.64 251.867 22.64 251.457 22.44 250.857C22.24 250.247 21.83 249.447 22.04 248.837C22.24 248.227 23.05 247.827 24.06 246.817C25.07 245.807 26.28 244.187 27.5 243.177C28.71 242.167 29.93 241.757 30.94 241.157C31.95 240.547 32.76 239.747 33.57 239.337C34.38 238.937 35.19 238.937 36 238.937C36.81 238.937 37.62 238.937 38.63 239.137C39.64 239.337 40.85 239.747 41.46 239.747C42.07 239.747 42.07 239.347 42.47 239.137C42.87 238.937 43.68 238.937 44.49 238.737C45.3 238.537 46.11 238.127 46.71 237.927C47.32 237.727 47.72 237.727 47.92 237.927C48.12 238.127 48.12 238.537 48.93 239.337C49.74 240.147 51.36 241.357 52.37 242.367C53.38 243.377 53.79 244.187 54.39 244.797C55 245.407 55.8 245.807 56.41 246.207C57.02 246.607 57.42 247.017 57.62 247.417C57.82 247.817 57.82 248.227 57.62 248.627C57.42 249.027 57.01 249.437 56.61 249.837C56.21 250.237 55.8 250.647 55.8 251.047C55.8 251.447 56.2 251.857 56.81 252.867C57.42 253.877 58.23 255.497 58.83 256.707C59.44 257.917 59.84 258.727 60.25 259.537C60.65 260.347 61.06 261.157 61.26 261.757C61.46 262.367 61.46 262.767 61.87 262.967C62.27 263.167 63.08 263.167 63.49 262.967C63.89 262.767 63.89 262.357 64.1 262.357C64.31 262.357 64.71 262.757 64.91 262.757C65.11 262.757 65.11 262.357 65.11 261.947C65.11 261.537 65.11 261.137 65.51 260.537C65.91 259.927 66.72 259.117 67.13 258.917C67.53 258.717 67.53 259.117 67.53 259.527V260.737C67.53 261.137 67.53 261.547 68.44 261.747C69.23 261.927 70.73 261.947 73.52 261.947C73.61 261.667 73.7 261.397 73.8 261.137C74.41 259.517 75.22 258.307 75.82 256.887C76.43 255.467 76.83 253.857 78.04 252.637C79.25 251.417 81.27 250.617 83.3 249.607C85.32 248.597 87.34 247.387 88.56 246.167C89.77 244.957 90.18 243.737 90.99 242.527C91.8 241.317 93.01 240.097 94.63 238.887C96.25 237.677 98.27 236.457 99.89 235.447C101.51 234.437 102.72 233.627 103.63 232.917C104.47 232.267 105.05 231.697 107.02 228.787C106.32 228.587 105.64 228.367 104.74 228.367C103.53 228.367 101.91 228.767 100.7 228.567C99.49 228.367 98.68 227.557 97.67 226.347C96.66 225.137 95.45 223.517 94.43 222.507C93.42 221.497 92.61 221.087 92.41 220.687C92.21 220.277 92.61 219.877 92.81 219.267C93.01 218.657 93.01 217.857 92.81 217.047C92.61 216.237 92.2 215.427 91.6 214.827C90.99 214.217 90.18 213.817 88.97 213.407C87.76 213.007 86.14 212.597 85.13 212.197C84.12 211.797 83.71 211.387 83.51 210.987C83.45 210.857 83.4 210.737 83.37 210.617C82.59 211.007 81.9 211.057 81.49 211.187C80.88 211.387 80.88 211.797 80.88 212.197V213.617C80.88 214.227 80.88 215.027 80.68 215.437C80.48 215.837 80.07 215.837 79.47 215.637C78.86 215.437 78.05 215.027 76.44 215.027C74.83 215.027 72.4 215.427 70.78 215.427C69.16 215.427 68.35 215.027 67.75 215.027C67.15 215.027 66.74 215.427 66.13 215.637C65.52 215.837 64.71 215.837 64.11 215.637C63.5 215.437 63.1 215.027 62.49 215.027C61.88 215.027 61.07 215.427 60.47 215.637C59.86 215.837 59.46 215.837 58.85 215.837H56.83C56.22 215.837 55.82 215.837 55.41 215.637C55.01 215.437 54.6 215.027 54.2 214.627C53.8 214.227 53.39 213.817 52.78 213.207C52.17 212.597 51.36 211.787 50.96 211.187C50.56 210.577 50.56 210.177 50.35 209.977C50.15 209.777 49.74 209.777 48.93 209.777H42.46C41.65 209.777 41.25 209.777 40.84 209.977C40.44 210.177 40.03 210.587 38.82 211.397C37.61 212.207 35.59 213.417 34.17 214.637C32.76 215.847 31.95 217.067 31.34 217.467C30.73 217.867 30.33 217.467 29.92 217.067C29.52 216.667 29.11 216.257 28.71 216.257C28.31 216.257 27.9 216.657 27.29 217.877C26.68 219.087 25.87 221.117 25.27 222.127C24.66 223.137 24.26 223.137 23.85 223.137C23.44 223.137 23.04 223.137 22.64 222.937C22.24 222.737 21.83 222.327 21.43 222.327C21.03 222.327 20.62 222.727 20.22 222.937C19.82 223.137 19.41 223.137 19.01 223.337C18.61 223.537 18.2 223.947 17.8 224.347C17.4 224.747 16.99 225.157 16.79 225.767C16.59 226.377 16.59 227.187 16.39 227.587C16.19 227.987 15.78 227.987 15.38 228.397C14.98 228.797 14.57 229.607 14.17 229.817C13.77 230.017 13.36 229.617 12.75 229.207C12.14 228.807 11.34 228.397 10.73 227.997C10.12 227.597 9.72 227.187 9.31 226.987C8.91 226.787 8.5 226.787 8 227.087C7.52 227.377 6.96 227.927 4.87 227.987C5.07 229.307 5.32 230.467 5.47 231.637C5.67 233.257 5.67 234.877 5.67 237.097C5.67 239.317 5.67 242.157 5.47 244.577C5.27 247.007 4.86 249.027 4.46 251.657C4.39 252.087 4.33 252.537 4.26 252.997H4.25Z" fill="#DBE7ED"/>
<path d="M18.6798 188.367C19.1498 188.647 19.5998 188.867 20.0098 189.077C21.0198 189.587 21.8298 189.987 22.4398 190.187C23.0498 190.387 23.4498 190.387 23.8498 190.387C24.2498 190.387 24.6598 190.387 25.6698 190.187C26.6798 189.987 28.2998 189.577 29.3098 189.177C30.3198 188.777 30.7198 188.367 31.7398 188.167C32.7498 187.967 34.3698 187.967 35.9898 187.967C37.6098 187.967 39.2298 187.967 40.6398 188.367C42.0598 188.767 43.2698 189.577 45.0898 189.987C46.9098 190.387 49.3398 190.387 51.3598 190.597C53.3798 190.797 54.9998 191.207 57.2198 191.407C59.4398 191.607 62.2798 191.607 64.0898 191.607C65.8998 191.607 66.7198 191.607 67.3298 191.807C67.9398 192.007 68.3398 192.417 68.7498 192.817C69.1498 193.217 69.5598 193.627 69.5598 194.027C69.5598 194.427 69.1598 194.837 68.9498 195.447C68.7498 196.057 68.7498 196.867 68.7498 197.877C68.7498 198.887 68.7498 200.097 68.5498 200.907C68.3498 201.717 67.9398 202.117 67.7398 202.927C67.5398 203.737 67.5398 204.947 67.5398 206.167V209.407C67.5398 210.217 67.5398 210.617 67.7398 210.617C67.9398 210.617 68.3498 210.217 69.1598 210.217C69.9698 210.217 71.1798 210.617 72.3898 210.827C73.5998 211.027 74.8198 211.027 76.0298 210.627C77.2398 210.227 78.4598 209.417 79.4698 209.207C80.4798 209.007 81.2898 209.407 81.8998 209.607C82.5098 209.807 82.9098 209.807 83.1098 210.007C83.2498 210.147 83.2898 210.377 83.3698 210.647C82.5898 211.037 81.8998 211.087 81.4898 211.217C80.8798 211.417 80.8798 211.827 80.8798 212.227V213.647C80.8798 214.257 80.8798 215.057 80.6798 215.467C80.4798 215.867 80.0698 215.867 79.4698 215.667C78.8598 215.467 78.0498 215.057 76.4398 215.057C74.8298 215.057 72.3998 215.457 70.7798 215.457C69.1598 215.457 68.3498 215.057 67.7498 215.057C67.1498 215.057 66.7398 215.457 66.1298 215.667C65.5198 215.867 64.7098 215.867 64.1098 215.667C63.4998 215.467 63.0998 215.057 62.4898 215.057C61.8798 215.057 61.0698 215.457 60.4698 215.667C59.8598 215.867 59.4598 215.867 58.8498 215.867H56.8298C56.2198 215.867 55.8198 215.867 55.4098 215.667C55.0098 215.467 54.5998 215.057 54.1998 214.657C53.7998 214.257 53.3898 213.847 52.7798 213.237C52.1698 212.627 51.3598 211.817 50.9598 211.217C50.5598 210.607 50.5598 210.207 50.3498 210.007C50.1498 209.807 49.7398 209.807 48.9298 209.807H42.4598C41.6498 209.807 41.2498 209.807 40.8398 210.007C40.4398 210.207 40.0298 210.617 38.8198 211.427C37.6098 212.237 35.5898 213.447 34.1698 214.667C32.7598 215.877 31.9498 217.097 31.3398 217.497C30.7298 217.897 30.3298 217.497 29.9198 217.097C29.5198 216.697 29.1098 216.287 28.7098 216.287C28.3098 216.287 27.8998 216.687 27.2898 217.907C26.6798 219.117 25.8698 221.147 25.2698 222.157C24.6598 223.167 24.2598 223.167 23.8498 223.167C23.4398 223.167 23.0398 223.167 22.6398 222.967C22.2398 222.767 21.8298 222.357 21.4298 222.357C21.0298 222.357 20.6198 222.757 20.2198 222.967C19.8198 223.167 19.4098 223.167 19.0098 223.367C18.6098 223.567 18.1998 223.977 17.7998 224.377C17.3998 224.777 16.9898 225.187 16.7898 225.797C16.5898 226.407 16.5898 227.217 16.3898 227.617C16.1898 228.017 15.7798 228.017 15.3798 228.427C14.9798 228.827 14.5698 229.637 14.1698 229.847C13.7698 230.047 13.3598 229.647 12.7498 229.237C12.1398 228.837 11.3398 228.427 10.7298 228.027C10.1198 227.627 9.71977 227.217 9.30977 227.017C8.90977 226.817 8.49977 226.817 7.99977 227.117C7.51977 227.407 6.95977 227.957 4.86977 228.017C4.78977 227.507 4.71977 226.967 4.65977 226.407C4.45977 224.387 4.45977 221.957 4.65977 219.327C4.85977 216.697 5.26977 213.867 6.27977 210.637C7.28977 207.397 8.90977 203.767 10.6298 200.427C12.3098 197.167 14.0898 194.197 18.6998 188.397L18.6798 188.367Z" fill="#EEEF99"/>
<path d="M45.9003 225.977C46.1003 225.977 46.5103 226.377 46.9103 226.587C47.3103 226.787 47.7203 226.787 48.1203 226.787H49.5403C50.1503 226.787 50.9603 226.787 51.3603 226.987C51.7603 227.187 51.7603 227.597 51.9703 227.797C52.1703 227.997 52.5803 227.997 52.7803 228.197C52.9803 228.397 52.9803 228.807 52.7803 229.207C52.5803 229.607 52.1703 230.017 52.1703 230.217C52.1703 230.417 52.5703 230.417 52.9803 230.417C53.3903 230.417 53.7903 230.417 53.9903 230.617C54.1903 230.817 54.1903 231.227 54.3903 231.627C54.5903 232.027 55.0003 232.437 55.0003 232.837C55.0003 233.237 54.6003 233.647 54.1903 234.047C53.7903 234.447 53.3803 234.857 53.1803 235.257C52.9803 235.657 52.9803 236.067 52.7803 236.067C52.5803 236.067 52.1703 235.667 51.9703 235.257C51.7703 234.857 51.7703 234.447 51.5703 234.047C51.3703 233.647 50.9603 233.237 50.5603 233.237C50.1603 233.237 49.7503 233.647 49.5503 234.047C49.3503 234.447 49.3503 234.857 49.1503 235.057C48.9503 235.257 48.5403 235.257 48.3403 235.457C48.1403 235.657 48.1403 236.067 47.9403 236.267C47.7403 236.467 47.3303 236.467 46.9303 236.267C46.5303 236.067 46.1203 235.657 45.9203 235.257C45.7203 234.857 45.7203 234.447 45.7203 234.047C45.7203 233.647 45.7203 233.237 45.5203 233.037C45.3203 232.837 44.9103 232.837 44.5103 233.037C44.1103 233.237 43.7003 233.647 43.5003 233.647C43.3003 233.647 43.3003 233.237 43.1003 233.037C42.9003 232.837 42.4903 232.837 42.0903 232.637C41.6903 232.437 41.2803 232.027 41.0803 231.627C40.8803 231.227 40.8803 230.817 40.6803 230.217C40.4803 229.607 40.0703 228.797 40.0703 228.197C40.0703 227.597 40.4703 227.187 40.8803 227.187C41.2903 227.187 41.6903 227.587 42.0903 227.997C42.4903 228.397 42.9003 228.807 43.1003 228.807C43.3003 228.807 43.3003 228.407 43.5003 228.197C43.7003 227.997 44.1103 227.997 44.5103 227.997H45.7203C46.1203 227.997 46.5303 227.997 46.5303 227.797C46.5303 227.597 46.1303 227.187 45.9203 226.787C45.7203 226.387 45.7203 225.977 45.9203 225.977H45.9003Z" fill="#EEEF99"/>
<path d="M190.741 15.6475C190.061 17.3075 190.031 18.2175 189.861 18.7175C189.661 19.3275 189.251 19.3275 188.651 19.3275H186.631C186.021 19.3275 185.621 19.3275 185.221 19.9375C184.821 20.5475 184.411 21.7575 184.211 22.5675C184.011 23.3775 184.011 23.7775 184.211 23.9875C184.411 24.1875 184.821 24.1875 185.221 24.5975C185.621 25.0075 186.031 25.8075 186.841 26.8175C187.651 27.8275 188.861 29.0375 189.671 30.0475C190.481 31.0575 190.881 31.8675 191.491 32.2675C192.101 32.6675 192.911 32.6675 194.121 32.8775C195.331 33.0775 196.951 33.4875 198.161 33.6875C199.371 33.8875 200.181 33.8875 200.791 33.6875C201.401 33.4875 201.801 33.0775 202.211 32.6775C202.611 32.2775 203.021 31.8675 203.221 31.4675C203.421 31.0675 203.421 30.6575 203.421 30.2575C203.421 29.8575 203.421 29.4475 203.221 29.2475C203.021 29.0475 202.611 29.0475 202.211 28.8475C201.811 28.6475 201.401 28.2375 201.001 27.6375C200.601 27.0275 200.191 26.2175 199.991 25.6175C199.791 25.0075 199.791 24.6075 200.191 24.2075C200.591 23.8075 201.401 23.3975 202.411 23.1975C203.421 22.9975 204.631 22.9975 205.241 22.6875C205.641 22.4875 205.781 22.1575 206.531 21.5975C205.501 21.2475 204.491 20.9075 203.631 20.5575C202.621 20.1575 201.811 19.7475 200.601 19.5475C199.391 19.3475 197.771 19.3475 196.351 19.1475C194.941 18.9475 193.721 18.5375 192.911 17.9375C192.141 17.3675 191.741 16.6075 190.761 15.6675L190.741 15.6475Z" fill="#EEEF99"/>
<path d="M175.301 12.8573C174.901 12.4573 174.591 12.2473 174.041 12.1473C173.481 12.0473 172.671 12.0473 172.271 12.1973C171.871 12.3473 171.871 12.6573 171.461 12.8573C171.061 13.0573 170.251 13.1573 169.791 13.3673C169.331 13.5673 169.231 13.8773 169.131 14.4773C169.031 15.0873 168.931 15.9973 168.781 16.3973C168.631 16.7973 168.431 16.6973 167.921 16.6473C167.421 16.5973 166.611 16.5973 165.591 17.0473C164.581 17.4973 163.371 18.4073 162.761 19.2673C162.151 20.1273 162.151 20.9373 161.951 21.5973C161.751 22.2573 161.341 22.7573 161.141 23.1673C160.941 23.5673 160.941 23.8773 161.541 24.2773C162.151 24.6773 163.361 25.1873 164.071 25.3873C164.781 25.5873 164.981 25.4873 165.441 25.8973C165.901 26.2973 166.601 27.2073 166.961 27.7673C167.311 28.3273 167.311 28.5273 166.861 29.2873C166.401 30.0473 165.491 31.3573 165.091 32.6773C164.691 33.9873 164.791 35.3073 164.941 35.9073C165.091 36.5173 165.291 36.4173 165.601 36.3673C165.901 36.3173 166.311 36.3173 166.761 36.1173C167.221 35.9173 167.721 35.5073 168.121 35.3573C168.521 35.2073 168.831 35.3073 169.031 35.5073C169.231 35.7073 169.331 36.0173 169.541 36.1673C169.741 36.3173 170.041 36.3173 170.251 36.7273C170.451 37.1273 170.551 37.9373 170.811 38.5473C171.061 39.1573 171.471 39.5573 171.571 39.8573C171.671 40.1573 171.471 40.3673 171.871 40.5673C172.271 40.7673 173.281 40.9673 174.201 41.4773C175.111 41.9873 175.921 42.7873 176.831 43.0973C177.741 43.3973 178.751 43.1973 179.361 43.1973C179.971 43.1973 180.171 43.3973 180.471 43.0973C180.771 42.7973 181.181 41.9873 181.281 41.5273C181.381 41.0673 181.181 40.9673 180.571 40.9673C179.961 40.9673 178.951 41.0673 178.451 40.9173C177.941 40.7673 177.941 40.3573 177.941 39.9573C177.941 39.5573 177.941 39.1473 178.141 38.5373C178.341 37.9273 178.751 37.1273 179.151 36.7173C179.551 36.3173 179.961 36.3173 180.161 36.1073C180.361 35.9073 180.361 35.4973 180.561 35.2973C180.761 35.0973 181.171 35.0973 181.771 35.0973C182.371 35.0973 183.181 35.0973 183.791 35.2973C184.401 35.4973 184.801 35.9073 185.001 35.9073C185.201 35.9073 185.201 35.5073 185.201 35.0973C185.201 34.6873 185.201 34.2873 184.801 33.8873C184.401 33.4873 183.591 33.0773 182.981 32.6773C182.371 32.2773 181.971 31.8673 181.771 31.4673C181.571 31.0673 181.571 30.6573 181.371 30.0473C181.171 29.4373 180.761 28.6373 180.561 27.6173C180.361 26.6073 180.361 25.3973 180.561 24.7873C180.761 24.1773 181.171 24.1773 180.961 23.9773C180.761 23.7773 179.951 23.3673 179.551 22.9673C179.151 22.5673 179.151 22.1573 179.351 21.5473C179.551 20.9373 179.961 20.1273 179.961 19.5773C179.961 19.0273 179.561 18.7173 178.951 18.3173C178.341 17.9173 177.541 17.4073 177.131 16.7473C176.721 16.0873 176.731 15.2773 176.471 14.5773C176.221 13.8673 175.711 13.2673 175.311 12.8573H175.301Z" fill="#EEEF99"/>
<path d="M58.2305 146.517C58.2305 146.317 58.6305 145.907 59.0405 145.507C59.4405 145.107 59.8505 144.697 60.0505 144.297C60.2505 143.897 60.2505 143.487 60.0505 143.087C59.8505 142.687 59.4405 142.277 59.4405 141.877C59.4405 141.477 59.8405 141.067 60.0505 140.667C60.2505 140.267 60.2505 139.857 60.8605 139.657C61.4705 139.457 62.6805 139.457 63.8905 139.657C65.1005 139.857 66.3205 140.267 67.5305 140.467C68.7405 140.667 69.9605 140.667 70.7705 140.467C71.5805 140.267 71.9805 139.857 72.3905 139.857C72.8005 139.857 73.2005 140.257 73.0005 140.667C72.8005 141.067 71.9905 141.477 71.9905 141.877C71.9905 142.277 72.8005 142.687 73.6105 142.687C74.4205 142.687 75.2305 142.287 75.8305 141.877C76.4405 141.477 76.8405 141.067 77.2405 140.667C77.6405 140.267 78.0505 139.857 78.6605 139.657C79.2705 139.457 80.0805 139.457 80.8805 139.657C81.6905 139.857 82.5005 140.267 83.3105 140.667C84.1205 141.067 84.9305 141.477 85.1305 141.677C85.3305 141.877 84.9305 141.877 84.5205 142.077C84.1205 142.277 83.7105 142.687 83.3105 143.287C82.9105 143.897 82.5005 144.707 82.3005 145.307C82.1005 145.917 82.1005 146.317 81.4905 146.317C80.8805 146.317 79.6705 145.917 78.6605 145.917C77.6505 145.917 76.8405 146.317 76.0305 146.317C75.2205 146.317 74.4105 145.917 73.8105 145.917C73.2105 145.917 72.8005 146.317 72.8005 146.927C72.8005 147.537 73.2005 148.337 73.4105 148.947C73.6105 149.557 73.6105 149.957 73.2105 150.157C72.8105 150.357 72.0005 150.357 71.1905 150.557C70.3805 150.757 69.5705 151.167 68.9705 151.367C68.3605 151.567 67.9605 151.567 67.5505 151.977C67.1505 152.377 66.7405 153.187 66.3405 153.187C65.9405 153.187 65.5305 152.377 64.9205 151.977C64.3105 151.577 63.5005 151.577 63.1005 151.167C62.7005 150.767 62.7005 149.957 62.2905 149.547C61.8905 149.147 61.0805 149.147 60.4705 148.937C59.8605 148.737 59.4605 148.327 59.2605 147.927C59.0605 147.527 59.0605 147.117 58.8605 146.917C58.6605 146.717 58.2505 146.717 58.2505 146.517H58.2305Z" fill="#EEEF99"/>
<path d="M29.4996 324.787C29.6496 324.977 29.7896 325.157 29.9296 325.357C30.7396 326.467 31.5496 327.887 31.9496 328.897C32.3496 329.907 32.3496 330.517 32.2496 330.817C32.1496 331.117 31.9496 331.117 31.3396 331.317C30.7296 331.517 29.7196 331.927 29.4196 332.737C29.1196 333.547 29.5196 334.757 30.7296 336.577C31.9396 338.397 33.9696 340.827 35.3796 342.437C36.7996 344.057 37.5996 344.867 38.4096 345.677C39.2196 346.487 40.0296 347.297 40.6796 347.947C41.3396 348.607 41.8396 349.107 42.0396 349.517C42.2396 349.917 42.1396 350.227 41.9896 350.377C41.8396 350.527 41.6396 350.527 41.0296 350.177C40.4196 349.827 39.4096 349.117 38.9096 348.867C38.3996 348.617 38.3996 348.817 38.3996 349.067C38.3996 349.317 38.3996 349.627 39.0096 350.127C39.6196 350.637 40.8296 351.337 41.8396 351.697C42.6996 351.997 43.4096 352.037 43.9696 352.137C44.4796 351.447 44.5196 351.057 44.6696 350.837C44.8696 350.537 45.2796 350.537 45.6796 350.537C46.0796 350.537 46.4896 350.537 46.6896 350.337C46.8896 350.137 46.8896 349.727 47.0896 349.527C47.2896 349.327 47.6996 349.327 47.8996 349.127C48.0996 348.927 48.0996 348.517 48.2996 348.317C48.4996 348.117 48.9096 348.117 48.9096 347.917C48.9096 347.717 48.5096 347.307 48.2996 346.907C48.0996 346.507 48.0996 346.097 47.8996 345.897C47.6996 345.697 47.2896 345.697 47.0896 345.497C46.8896 345.297 46.8896 344.887 46.6896 344.487C46.4896 344.087 46.0796 343.677 45.6796 343.277C45.2796 342.877 44.8696 342.467 44.6696 342.467C44.4696 342.467 44.4696 342.867 44.2696 343.077C44.0696 343.287 43.6596 343.277 43.4596 343.077C43.2596 342.877 43.2596 342.467 42.8496 342.267C42.4396 342.067 41.6396 342.067 41.2296 342.267C40.8196 342.467 40.8296 342.877 40.6196 343.077C40.4196 343.277 40.0096 343.277 39.6096 343.277C39.2096 343.277 38.7996 343.277 38.5996 343.077C38.3996 342.877 38.3996 342.467 38.5996 342.267C38.7996 342.067 39.2096 342.067 39.6096 341.867C40.0096 341.667 40.4196 341.257 40.4196 341.057C40.4196 340.857 40.0196 340.857 39.6096 340.657C39.2096 340.457 38.7996 340.047 38.5996 339.647C38.3996 339.247 38.3996 338.837 38.7996 338.637C39.1996 338.437 40.0096 338.437 40.4196 338.637C40.8196 338.837 40.8196 339.247 41.0296 339.447C41.2296 339.647 41.6396 339.647 41.8396 338.837C42.0396 338.027 42.0396 336.407 41.8396 335.197C41.6396 333.987 41.2296 333.177 40.8296 332.567C40.4296 331.957 40.0196 331.557 39.8196 331.147C39.6196 330.747 39.6196 330.337 39.2096 330.137C38.8096 329.937 37.9996 329.937 37.5896 329.737C37.1896 329.537 37.1896 329.127 37.3896 328.927C37.5896 328.727 37.9996 328.727 38.3996 328.527C38.7996 328.327 39.2096 327.917 39.2096 327.517C39.2096 327.117 38.8096 326.707 38.5996 326.307C38.3996 325.897 38.3996 325.497 38.5996 325.297C38.7996 325.097 39.2096 325.097 39.6096 325.097C40.0096 325.097 40.4196 325.097 40.6196 324.697C40.8196 324.297 40.8196 323.487 40.6196 322.877C40.4196 322.267 40.0096 321.867 39.8096 321.457C39.6096 321.057 39.6096 320.647 39.4096 320.447C39.2096 320.247 38.7996 320.247 38.5996 320.047C38.3996 319.847 38.3996 319.437 38.1996 319.437C37.9996 319.437 37.5896 319.837 37.5896 320.247C37.5896 320.657 37.9896 321.057 38.1996 321.457C38.3996 321.857 38.3996 322.267 37.9996 322.467C37.5996 322.667 36.7896 322.667 36.3796 322.867C35.9796 323.067 35.9796 323.477 35.7696 323.677C35.5696 323.877 35.1596 323.877 34.7596 323.677C34.3596 323.477 33.9496 323.067 33.5496 322.667C33.1496 322.267 32.7396 321.857 32.3396 321.857C31.9396 321.857 31.5296 322.257 31.0296 322.767C30.6496 323.147 30.2096 323.587 29.4896 324.827L29.4996 324.787Z" fill="#EEEF99"/>
<path d="M17.8605 303.347C18.2305 302.777 18.5105 302.427 18.7605 302.097C18.4505 301.947 18.2405 301.897 18.1005 301.797C17.8005 301.597 17.8005 301.187 17.8005 300.787C17.8005 300.387 17.8005 299.977 18.0005 299.777C18.2005 299.577 18.6105 299.577 18.8105 299.377C19.0105 299.177 19.0105 298.767 19.2105 298.567C19.4105 298.367 19.8205 298.367 20.2205 298.567C20.6205 298.767 21.0305 299.177 21.4305 299.177C21.8305 299.177 22.2405 298.777 22.2405 298.567C22.2405 298.357 21.8405 298.367 21.6305 298.167C21.4305 297.967 21.4305 297.557 21.4305 297.157C21.4305 296.757 21.4305 296.347 21.6305 296.347C21.8305 296.347 22.2405 296.747 22.6405 296.957C23.0405 297.157 23.4505 297.157 23.6505 296.957C23.8505 296.757 23.8505 296.347 23.8505 295.947C23.8505 295.547 23.8505 295.137 23.6505 294.937C23.4505 294.737 23.0405 294.737 22.6405 294.537C22.2405 294.337 21.8305 293.927 21.4305 293.727C21.0305 293.527 20.6205 293.527 20.4205 293.317C20.2205 293.117 20.2205 292.707 20.2205 292.107C20.2205 291.507 20.2205 290.687 20.4205 290.087C20.6205 289.477 21.0305 289.077 21.4305 288.877C21.8305 288.677 22.2405 288.677 22.4405 288.477C22.6405 288.277 22.6405 287.867 22.4405 287.467C22.2405 287.067 21.8305 286.657 21.4305 286.457C21.0305 286.257 20.6205 286.257 20.2205 286.457C19.8205 286.657 19.4105 287.067 19.2105 287.067C19.0105 287.067 19.0105 286.667 19.0105 286.257C19.0105 285.847 19.0105 285.447 18.6105 285.247C18.2105 285.047 17.4005 285.047 16.9905 284.847C16.5905 284.647 16.5905 284.237 16.3805 284.037C16.1805 283.837 15.7705 283.837 15.5705 284.037C15.3705 284.237 15.3705 284.647 14.7605 284.647C14.1505 284.647 12.9405 284.247 12.1305 283.837C11.3205 283.437 10.9205 283.027 10.3105 282.827C9.70055 282.627 8.89055 282.627 8.09055 282.827C7.28055 283.027 6.47055 283.437 5.76055 284.247C5.26055 284.817 4.81055 285.587 3.31055 287.277C3.88055 288.127 4.75055 289.007 6.17055 290.417C8.70055 292.947 12.9405 297.187 17.8005 303.257C17.8205 303.297 17.8405 303.347 17.8705 303.387L17.8605 303.347Z" fill="#EEEF99"/>
<path d="M94.3802 57.5874C93.7502 58.3274 93.2002 59.1074 92.8102 59.9674C91.8002 62.1874 91.8002 65.0274 91.6002 67.2474C91.4002 69.4674 90.9902 71.0874 90.7902 72.5074C90.6602 73.4074 90.6102 74.2374 90.4902 74.9174C90.9902 74.6974 91.3102 74.3374 91.5002 74.0174C91.8002 73.5074 91.8002 73.1074 92.0102 72.9074C92.2102 72.7074 92.6202 72.7074 92.8202 72.9074C93.0202 73.1074 93.0202 73.5174 93.2202 73.9174C93.4202 74.3174 93.8302 74.7274 94.0302 75.3374C94.2302 75.9374 94.2302 76.7374 94.6202 77.1474C95.4502 76.1974 95.4702 75.6374 95.6402 74.8374C95.8402 73.9274 96.2502 72.7174 96.6502 71.7074C97.0502 70.6974 97.4602 69.8874 98.0602 69.2774C98.6702 68.6674 99.4702 68.2674 100.08 67.8574C100.69 67.4574 101.09 67.0474 101.7 66.8474C102.31 66.6474 103.12 66.6474 103.52 66.8474C103.92 67.0474 103.92 67.4574 104.13 67.6574C104.33 67.8574 104.74 67.8574 105.14 68.0574C105.54 68.2574 105.95 68.6674 106.15 69.0674C106.35 69.4674 106.35 69.8774 106.55 70.0774C106.75 70.2774 107.16 70.2774 107.36 70.0774C107.56 69.8774 107.56 69.4674 107.56 69.0674C107.56 68.6674 107.56 68.2574 107.36 67.8574C107.16 67.4574 106.75 67.0474 106.55 66.4474C106.35 65.8374 106.35 65.0274 106.15 64.2274C105.95 63.4174 105.54 62.6074 104.94 62.0074C104.33 61.3974 103.53 60.9974 102.72 60.7974C101.91 60.5974 101.1 60.5974 100.09 60.5974C99.0802 60.5974 97.8702 60.5974 97.2602 60.1974C96.6502 59.7974 96.6502 58.9874 96.3502 58.5774C96.1102 58.2674 95.7002 58.1974 94.3802 57.6074V57.5874Z" fill="#EEEF99"/>
</g>
<defs>
<clipPath id="clip0_2154_11386">
<rect width="227.6" height="425.2" fill="white" transform="translate(0 0.477539)"/>
</clipPath>
</defs>
</svg>
