<svg width="61" height="66" viewBox="0 0 61 66" fill="none" xmlns="http://www.w3.org/2000/svg">
<path d="M35.7502 0.167969C37.5702 0.697969 38.3902 0.937969 39.0702 1.09797C40.3802 1.39797 41.1902 1.39797 42.0002 1.80797C42.8102 2.20797 43.6202 3.01797 44.6302 3.82797C45.6402 4.63797 46.8502 5.44797 47.4602 6.25797C48.0702 7.06797 48.0702 7.87797 48.0702 8.68797C48.0702 9.49797 48.0701 10.308 47.8701 11.318C47.6701 12.328 47.2602 13.538 46.8602 14.348C46.4602 15.158 46.0502 15.558 45.6502 15.968C45.2502 16.368 44.8401 16.778 44.2301 17.178C43.6201 17.578 42.8201 17.988 42.0101 18.188C41.2001 18.388 40.3902 18.388 39.9902 18.588C39.5902 18.788 39.5902 19.198 39.3802 20.008C39.1802 20.818 38.7702 22.028 38.9702 23.038C39.1702 24.048 39.9802 24.858 40.7902 25.868C41.6002 26.878 42.4101 28.088 42.8102 29.308C43.2102 30.518 43.2102 31.738 43.4202 32.538C43.6202 33.348 44.0302 33.748 45.2402 34.158C46.4502 34.558 48.4802 34.968 49.8902 34.768C51.3102 34.568 52.1102 33.758 52.7202 33.558C53.3302 33.358 53.7302 33.758 53.9302 34.968C54.1302 36.178 54.1301 38.208 54.3401 39.818C54.5401 41.438 54.9502 42.648 55.3502 43.858C55.7602 45.068 56.1602 46.288 56.9702 47.898C57.7802 49.518 58.9902 51.538 59.8002 52.348C60.0602 52.608 60.2801 52.748 60.5101 52.788C59.4101 54.638 58.1302 56.408 57.2702 57.808C56.1602 59.628 55.7502 60.838 55.5502 62.358C55.4002 63.478 55.3602 64.768 54.8602 65.858C54.8202 65.798 54.7902 65.748 54.7402 65.688C54.1302 64.878 52.9202 64.068 51.7102 63.468C50.5002 62.858 49.2802 62.458 47.4602 61.248C45.6402 60.038 43.2102 58.018 41.6002 56.798C39.9802 55.588 39.1702 55.178 38.9702 54.578C38.7702 53.968 39.1702 53.168 39.3802 51.948C39.5802 50.738 39.5802 49.118 39.7802 47.908C39.9802 46.698 40.3902 45.888 40.1802 45.078C39.9802 44.268 39.1702 43.458 38.3602 42.858C37.5502 42.248 36.7402 41.848 34.7202 41.238C32.7002 40.628 29.4602 39.818 27.2402 39.018C25.0202 38.208 23.8002 37.398 22.9902 36.588C22.1802 35.778 21.7802 34.968 21.1702 34.158C20.5602 33.348 19.7502 32.538 18.7402 31.328C17.7302 30.118 16.5202 28.498 15.3002 27.488C14.0902 26.478 12.8702 26.068 11.4602 25.468C10.0402 24.858 8.43015 24.048 7.01015 23.648C5.60015 23.248 4.38015 23.248 3.17015 22.938C2.43015 22.758 1.69016 22.458 0.410156 22.258C1.73016 20.508 3.06016 18.908 4.38016 17.588C6.00016 15.968 7.62015 14.758 8.83015 13.948C10.0402 13.138 10.8502 12.738 13.0802 11.318C15.3002 9.89797 18.9402 7.47797 20.9602 5.85797C22.9802 4.23797 23.3902 3.42797 25.6102 2.62797C27.8302 1.81797 31.8802 1.00797 34.7102 0.407969C35.0702 0.327969 35.4101 0.257967 35.7301 0.187967L35.7502 0.167969Z" fill="#DBE7ED"/>
</svg>
