<svg width="1265" height="431" viewBox="0 0 1265 431" fill="none" xmlns="http://www.w3.org/2000/svg">
<path d="M229.662 72.7815C229.662 72.7815 236.751 67.9723 237.431 65.4377L239.132 50.1042C239.132 50.1042 238.556 48.3557 236.381 50.4129C234.422 52.3113 234.243 56.0128 234.243 56.0128L232.368 59.2219L231.026 56.0565L231.363 45.5993C231.363 45.5993 231.815 38.068 230.363 38.5079C228.911 38.9479 227.987 40.8812 227.8 44.1217C227.614 47.3622 227.383 51.4709 227.383 51.4709C227.383 51.4709 227.226 52.7043 226.466 50.3453C225.706 47.9862 226.608 38.9939 226.389 37.6982C226.171 36.4026 226.831 33.289 224.771 32.9154C222.71 32.5419 222.838 36.7722 222.838 36.7722L221.36 49.972C221.36 49.972 220.861 44.3668 220.736 43.4277C220.61 42.4885 220.808 39.5316 220.54 37.8272C220.272 36.1227 219.481 35.0691 218.576 34.9287C218.149 34.8371 217.71 34.8933 217.348 35.0858C216.986 35.2782 216.73 35.5923 216.631 35.9635L216.673 47.6063C216.673 47.6063 216.986 52.9833 216.792 53.2756C216.598 53.5679 215.165 50.6333 215.165 50.6333L214.525 46.6356C214.525 46.6356 214.508 41.2871 213.059 40.7456C211.609 40.204 211.256 41.1937 211.256 41.1937L211.317 50.9795L213.117 62.6087L215.365 71.5905C215.365 71.5905 221.649 72.3816 221.806 72.7169C221.962 73.0522 229.662 72.7815 229.662 72.7815Z" fill="#FFBE9D"/>
<path d="M220.095 65.5122C220.775 64.9107 221.396 64.2582 221.952 63.561C223.29 61.9354 225.296 60.8611 227.573 60.5521C228.678 60.4356 229.818 60.6604 230.809 61.1898L231.139 61.3674L231.309 61.0559C232.107 59.6498 233.021 58.4026 233.519 57.5159C233.877 57.0719 234.118 56.5581 234.228 56.0093C233.821 56.4003 233.463 56.83 233.159 57.2917C232.255 58.4154 231.42 59.5835 230.655 60.7914L231.169 60.6611C230.046 60.0265 228.737 59.7477 227.465 59.8727C226.092 59.9971 224.805 60.449 223.735 61.1819C222.898 61.7763 222.157 62.4692 221.529 63.2437C220.903 63.9118 220.418 64.6792 220.095 65.5122Z" fill="#EB996E"/>
<path d="M278.438 78.211L237.913 109.581L233.586 71.6133L214.091 70.6622C214.091 70.6622 209.242 118.848 210.882 124.198C212.523 129.548 219.747 138.575 231.239 140.226C242.731 141.877 271.943 121.556 271.943 121.556L278.438 78.211Z" fill="#ED9B59"/>
<path d="M229.982 124.406C230.852 118.465 233.827 113.047 238.48 108.929C237.615 109.335 236.85 109.881 236.22 110.543C234.56 112.032 233.187 113.76 232.151 115.664C231.096 117.557 230.382 119.602 230.033 121.728C229.84 122.601 229.823 123.508 229.982 124.406Z" fill="#263238"/>
<g opacity="0.3">
<path d="M230.185 122.406C229.616 122.15 229.118 121.776 228.735 121.318C228.352 120.859 228.096 120.33 227.989 119.777C227.786 118.659 227.913 117.532 228.358 116.509C229.109 114.559 230.415 112.844 232.153 111.525C233.892 110.206 236.005 109.326 238.295 108.968C234.167 112.571 231.367 117.232 230.232 122.393" fill="black"/>
</g>
<path d="M343.765 74.1426C351.432 73.7795 359.074 75.1807 365.937 78.208C373.263 81.214 380.182 85.6613 383.824 92.0058C387.466 98.3503 387.06 106.789 381.317 111.815C392.354 114.39 400.66 123.026 404.134 132.586C407.607 142.146 406.865 152.543 404.666 162.399C403.616 167.056 401.753 172.254 396.864 174.25C393.727 175.482 389.861 175.236 386.92 176.825C383.978 178.414 382.633 181.321 380.771 183.798C378.991 186.167 376.682 188.193 373.984 189.752C371.287 191.312 368.257 192.373 365.079 192.871C361.9 193.369 358.64 193.293 355.496 192.648C352.352 192.003 349.39 190.803 346.79 189.12L324.155 83.3206C328.596 77.8508 336.159 74.7093 343.765 74.1426Z" fill="#D5F0F0"/>
<path d="M328.554 85.5376C329.022 86.1229 329.542 86.6748 330.109 87.1884C331.159 88.2232 332.686 89.6523 334.619 91.5002C339.58 96.268 345.144 100.521 351.203 104.177C357.321 107.842 364.32 110.212 371.653 111.1C373.869 111.343 376.108 111.384 378.334 111.224C379.118 111.224 379.735 111.076 380.141 111.026C380.352 111.013 380.56 110.971 380.757 110.903C380.757 110.903 379.875 110.903 378.32 110.977C376.115 111.042 373.907 110.934 371.723 110.657C364.515 109.646 357.648 107.253 351.609 103.647C345.605 100.021 340.034 95.869 334.983 91.2538L330.319 87.0775C329.779 86.5232 329.189 86.0083 328.554 85.5376Z" fill="#263238"/>
<path d="M372.675 117.236C372.759 117.236 373.123 116.743 373.431 115.807C373.791 114.559 373.863 113.261 373.641 111.988C373.411 110.717 372.887 109.501 372.101 108.416C371.484 107.59 370.952 107.184 370.882 107.184C371.812 108.706 372.496 110.336 372.913 112.025C373.118 113.763 373.038 115.518 372.675 117.236Z" fill="#263238"/>
<path d="M365.056 121.166C364.927 121.347 364.824 121.542 364.748 121.745C364.566 122.127 364.286 122.694 363.992 123.457C363.123 125.576 362.407 127.74 361.849 129.937C359.888 137.228 359.888 144.821 361.849 152.112C363.923 159.409 368.471 165.978 374.889 170.949C376.83 172.433 378.959 173.714 381.234 174.768C382.018 175.162 382.635 175.371 383.111 175.556C383.331 175.649 383.561 175.723 383.797 175.778C383.011 175.328 382.197 174.917 381.36 174.546C379.169 173.422 377.113 172.106 375.225 170.616C369.017 165.618 364.61 159.129 362.549 151.952C360.613 144.762 360.531 137.282 362.311 130.061C362.955 127.276 363.712 125.133 364.202 123.556C364.545 122.776 364.83 121.978 365.056 121.166Z" fill="#263238"/>
<path d="M361.162 137.833C361.744 137.777 362.317 137.665 362.871 137.5C363.963 137.241 365.546 136.897 367.507 136.49C377.712 134.383 388.204 133.553 398.672 134.026C400.675 134.112 402.3 134.211 403.42 134.297C404.002 134.357 404.589 134.357 405.171 134.297C404.612 134.137 404.034 134.034 403.448 133.989C402.342 133.829 400.717 133.669 398.7 133.521C388.177 132.783 377.588 133.616 367.381 135.985C365.42 136.441 363.865 136.86 362.801 137.217C362.227 137.36 361.676 137.567 361.162 137.833Z" fill="#263238"/>
<g opacity="0.3">
<path d="M379.778 110.964C372.158 115.276 361.877 114.783 353.809 111.149C345.742 107.515 339.803 100.776 336.679 93.2983C347.226 104.016 362.886 111.79 379.778 110.964Z" fill="black"/>
</g>
<g opacity="0.3">
<path d="M383.852 175.753C380.685 175.557 377.607 174.749 374.838 173.386C372.068 172.023 369.674 170.139 367.828 167.869C364.515 163.253 362.508 158.006 361.973 152.568C364.005 157.219 366.577 161.673 369.649 165.86C371.423 167.836 373.448 169.625 375.686 171.195C378.192 173 380.939 174.531 383.866 175.753" fill="black"/>
</g>
<path d="M375.98 134.655C375.467 135.673 375.132 136.753 374.985 137.858C374.747 138.869 374.481 140.039 374.075 141.345C373.828 142.085 373.828 142.871 374.075 143.611C374.212 144.045 374.506 144.428 374.913 144.702C375.32 144.975 375.818 145.124 376.33 145.127C376.831 145.066 377.301 144.879 377.684 144.588C378.067 144.297 378.346 143.915 378.487 143.488C378.726 142.751 378.726 141.971 378.487 141.234C378.081 139.891 377.647 138.77 377.296 137.772C376.984 136.7 376.557 135.657 376.022 134.655C376.161 135.759 376.424 136.849 376.806 137.908C377.114 138.955 377.465 140.113 377.829 141.357C378.024 141.99 378.024 142.658 377.829 143.291C377.73 143.601 377.535 143.881 377.265 144.099C376.996 144.317 376.662 144.464 376.302 144.523C375.946 144.514 375.603 144.403 375.325 144.208C375.047 144.012 374.849 143.742 374.761 143.439C374.572 142.809 374.572 142.147 374.761 141.517C375.095 140.353 375.352 139.172 375.532 137.982C375.756 135.912 375.98 134.68 375.98 134.655Z" fill="#263238"/>
<path d="M342.826 95.0614C344.372 94.3802 345.869 93.6149 347.308 92.77C350.84 90.8355 354.503 89.0912 358.275 87.5466C362.038 86.0101 366.005 84.8927 370.083 84.2203C373.22 83.7152 375.209 83.7029 375.209 83.592C374.748 83.5123 374.277 83.4874 373.809 83.5181C372.538 83.5232 371.27 83.6056 370.013 83.7645C365.845 84.3172 361.789 85.3917 357.967 86.9552C354.16 88.5045 350.502 90.3213 347.028 92.3881C345.697 93.1642 344.633 93.8171 343.904 94.2853C343.509 94.5035 343.147 94.7642 342.826 95.0614Z" fill="#263238"/>
<path d="M344.928 94.2356C344.844 94.2356 344.774 94.6545 345.166 95.1842C345.432 95.5332 345.809 95.8056 346.25 95.9677C346.69 96.1298 347.176 96.1744 347.645 96.0959L348.107 96.0219L347.897 95.64C347.491 94.9259 346.782 94.3813 345.922 94.1248C345.278 93.94 344.858 94.0139 344.844 94.1248C344.83 94.2356 345.208 94.3219 345.712 94.5806C346.366 94.8969 346.897 95.3772 347.239 95.9604L347.477 95.5045C347.127 95.5553 346.768 95.5302 346.431 95.4315C346.094 95.3327 345.79 95.1633 345.544 94.9378C345.166 94.5559 345.04 94.2233 344.928 94.2356Z" fill="#263238"/>
<g opacity="0.3">
<path d="M272.147 122.626C271.184 122.058 270.382 121.3 269.808 120.413C269.233 119.527 268.903 118.538 268.843 117.528C268.737 115.511 269.003 113.501 269.632 111.577C271.651 103.69 274.204 95.5217 276.181 87.6313L272.368 121.806" fill="black"/>
</g>
<path d="M409.863 356.885C409.975 356.885 409.961 355.838 408.841 354.581C408.075 353.736 407.014 353.136 405.822 352.873C404.63 352.611 403.372 352.7 402.244 353.128C402.121 353.205 402.021 353.307 401.95 353.425C401.88 353.542 401.841 353.672 401.837 353.805C401.841 354.037 401.918 354.263 402.061 354.458C402.277 354.71 402.532 354.934 402.818 355.123C404.106 356.037 405.632 356.655 407.258 356.922C408.17 357.173 409.147 357.173 410.059 356.922C410.059 356.774 408.995 356.786 407.412 356.38C405.959 356.013 404.609 355.383 403.448 354.532C403.238 354.394 403.05 354.233 402.888 354.052C402.804 353.867 402.888 353.916 402.888 353.867C403.098 353.774 403.326 353.716 403.56 353.694C403.838 353.655 404.119 353.635 404.401 353.633C404.942 353.621 405.481 353.688 405.997 353.83C406.884 354.057 407.69 354.482 408.336 355.062C409.443 355.998 409.709 356.934 409.863 356.885Z" fill="#263238"/>
<path d="M312.866 20.7499C311.902 16.68 310.239 12.7628 307.936 9.13266C305.587 5.47961 301.786 2.71959 297.262 1.38377C292.562 0.301851 287.61 0.408604 282.976 1.69175C279.697 2.67602 276.707 4.28746 274.221 6.41007C270.019 9.6008 267.876 14.5778 266.112 19.1976" fill="#ED9B59"/>
<path d="M263.142 19.518C263.96 15.0392 266.696 11.0057 270.789 8.24573C274.951 5.68239 279.86 4.22039 284.936 4.03248C292.794 3.50275 301.982 5.38762 307.347 10.4386C312.712 15.4895 315.877 22.3638 315.205 28.5235C314.911 31.2953 311.857 38.7978 309.434 40.6088L264.416 39.5863C261.727 35.8165 262.329 23.9406 263.142 19.518Z" fill="#ED9B59"/>
<path d="M263.928 27.8085C264.414 22.3255 267.231 17.205 271.818 13.4674C276.405 9.72988 282.425 7.64974 288.678 7.6416H289.966C303.861 8.33149 310.977 19.0863 309.786 31.2825L307.349 87.6315H275.511L275.792 69.2879C275.792 69.2879 262.429 67.4893 262.247 55.7366C262.163 50.0696 263.06 38.3785 263.928 27.8085Z" fill="#FFBE9D"/>
<path d="M275.693 69.2767C281.893 69.2664 287.959 67.6931 293.173 64.7432C293.173 64.7432 289.083 73.1943 275.763 72.1348L275.693 69.2767Z" fill="#EB996E"/>
<path d="M269.194 37.0485C269.194 37.4857 269.386 37.9059 269.731 38.2207C270.076 38.5355 270.546 38.7203 271.043 38.7363C271.286 38.753 271.53 38.7268 271.76 38.6592C271.991 38.5916 272.204 38.484 272.387 38.3428C272.57 38.2015 272.719 38.0295 272.825 37.8368C272.931 37.6441 272.992 37.4347 273.004 37.221C273.004 36.7838 272.812 36.3636 272.467 36.0488C272.122 35.734 271.652 35.5492 271.155 35.5332C270.913 35.5165 270.669 35.5427 270.438 35.6103C270.207 35.6778 269.994 35.7854 269.811 35.9267C269.628 36.068 269.479 36.24 269.373 36.4327C269.267 36.6254 269.207 36.8348 269.194 37.0485Z" fill="#263238"/>
<path d="M266.882 33.5494C267.12 33.7712 268.562 32.8226 270.607 32.8226C272.652 32.8226 274.165 33.7219 274.389 33.5001C274.613 33.2784 274.263 33.0197 273.605 32.6008C272.716 32.0599 271.66 31.7718 270.579 31.7754C269.512 31.777 268.473 32.0744 267.61 32.6255C266.98 33.0566 266.727 33.4509 266.882 33.5494Z" fill="#263238"/>
<path d="M288.93 37.8983C288.926 38.3343 289.115 38.7545 289.458 39.0696C289.8 39.3848 290.269 39.57 290.764 39.586C291.007 39.6011 291.25 39.5737 291.48 39.5055C291.71 39.4372 291.922 39.3295 292.105 39.1886C292.287 39.0476 292.436 38.8763 292.542 38.6844C292.649 38.4925 292.711 38.2839 292.725 38.0707C292.733 37.6326 292.545 37.2093 292.202 36.8915C291.859 36.5737 291.388 36.3867 290.89 36.3707C290.647 36.3556 290.403 36.3834 290.172 36.4524C289.941 36.5214 289.728 36.6302 289.545 36.7724C289.363 36.9147 289.214 37.0875 289.109 37.2808C289.003 37.4741 288.942 37.684 288.93 37.8983Z" fill="#263238"/>
<path d="M287.079 34.4498C287.303 34.6715 288.76 33.7229 290.805 33.7352C292.85 33.7476 294.362 34.6346 294.587 34.4128C294.811 34.1911 294.446 33.92 293.788 33.5012C292.902 32.9572 291.843 32.6727 290.763 32.6881C289.697 32.6827 288.657 32.9761 287.793 33.5258C287.177 33.957 286.953 34.3512 287.079 34.4498Z" fill="#263238"/>
<path d="M279.628 47.2486C278.546 46.9522 277.426 46.7743 276.295 46.7188C275.776 46.7188 275.286 46.5833 275.188 46.2753C275.143 45.7988 275.265 45.3215 275.538 44.9079L277.079 41.3968C279.222 36.3952 280.763 32.2805 280.539 32.2066C280.315 32.1327 278.382 36.1241 276.253 41.1258C275.734 42.3578 275.244 43.5897 274.768 44.6615C274.441 45.2193 274.347 45.86 274.502 46.4724C274.578 46.635 274.696 46.7797 274.847 46.8951C274.997 47.0106 275.177 47.0936 275.37 47.1377C275.657 47.2117 275.954 47.2491 276.253 47.2486C277.373 47.3741 278.508 47.3741 279.628 47.2486Z" fill="#263238"/>
<path d="M285.679 48.4812C285.343 48.4812 285.343 50.4277 283.438 51.8197C281.533 53.2118 279.166 53.0517 279.152 53.2734C279.138 53.4952 279.67 53.6553 280.679 53.68C281.985 53.6892 283.253 53.297 284.265 52.5712C285.233 51.8737 285.852 50.8695 285.987 49.7747C286.072 48.9616 285.833 48.4689 285.679 48.4812Z" fill="#263238"/>
<path d="M286.014 30.3593C286.21 30.8521 288.269 30.6427 290.664 30.926C293.059 31.2093 295.006 31.7884 295.342 31.3572C295.482 31.1478 295.146 30.6796 294.376 30.1992C293.335 29.6082 292.154 29.2334 290.924 29.1032C289.693 28.973 288.445 29.0908 287.274 29.4477C286.336 29.7433 285.93 30.1253 286.014 30.3593Z" fill="#263238"/>
<path d="M266.377 28.3393C266.769 28.7828 268.548 28.5117 270.579 28.6719C272.61 28.832 274.361 29.2879 274.781 28.906C274.977 28.7089 274.781 28.2777 274.025 27.8219C273.02 27.2451 271.861 26.9096 270.663 26.8486C269.474 26.7446 268.274 26.9233 267.19 27.366C266.503 27.7233 266.209 28.1175 266.377 28.3393Z" fill="#263238"/>
<path d="M307.866 39.9804C308.09 39.8942 317.026 37.5781 316.76 45.6104C316.494 53.6426 307.376 51.7701 307.362 51.5114C307.348 51.2527 307.866 39.9804 307.866 39.9804Z" fill="#FFBE9D"/>
<path d="M309.448 48.5424C309.448 48.5424 309.616 48.641 309.882 48.7642C310.259 48.8997 310.682 48.8997 311.059 48.7642C311.66 48.4516 312.156 48.0039 312.496 47.467C312.836 46.9301 313.007 46.3233 312.992 45.709C313.037 45.0192 312.908 44.3293 312.614 43.6886C312.536 43.4363 312.39 43.2045 312.187 43.0133C311.984 42.8222 311.732 42.6776 311.451 42.5922C311.27 42.545 311.076 42.5548 310.902 42.6201C310.728 42.6853 310.585 42.8017 310.499 42.9494C310.372 43.1712 310.429 43.3313 310.372 43.3437C310.316 43.356 310.19 43.2081 310.274 42.8755C310.33 42.68 310.458 42.5065 310.639 42.3827C310.898 42.2192 311.22 42.1527 311.535 42.1979C311.907 42.274 312.251 42.4329 312.533 42.6594C312.815 42.8859 313.026 43.1725 313.146 43.4915C313.516 44.1918 313.68 44.9629 313.622 45.7336C313.646 46.4508 313.427 47.158 312.993 47.7655C312.559 48.3731 311.93 48.8536 311.185 49.1461C310.945 49.1989 310.695 49.2042 310.453 49.1616C310.211 49.1189 309.982 49.0295 309.784 48.8997C309.462 48.7396 309.42 48.5548 309.448 48.5424Z" fill="#EB996E"/>
<path d="M301.871 16.1048L297.361 12.68L283.018 14.6142L272.933 12.3351L270.286 14.8852C271.421 16.228 269.011 10.4995 271.309 8.97189C276.253 5.67029 280.427 5.79349 286.716 5.69493C293.005 5.59638 305.555 12.2488 310.051 16.0186C313.651 19.0368 313.623 21.6362 313.623 21.6362C314.197 25.985 311.438 30.9128 310.345 35.1876C309.771 37.3804 308.678 44.0329 308.678 44.0329C306.577 44.0329 305.877 42.5669 306.115 40.7436L306.507 33.5861C304.404 32.128 302.899 30.1056 302.221 27.8265C301.544 25.5473 301.731 23.1358 302.754 20.9587C303.23 20.3181 304.392 17.3368 301.871 16.1048Z" fill="#263238"/>
<path d="M303.734 18.0267C303.247 16.9003 302.369 15.9373 301.226 15.2739C300.082 14.6106 298.73 14.2807 297.361 14.3309C294.617 14.4882 292.034 15.5274 290.105 17.2506C289.614 17.7151 289.065 18.1285 288.466 18.4825C288.166 18.6456 287.824 18.7401 287.472 18.7573C287.12 18.7745 286.768 18.7139 286.449 18.5811C286.253 18.4949 286.057 18.3594 285.847 18.4086C285.702 18.4609 285.583 18.557 285.511 18.6796C284.992 19.4184 284.263 20.0256 283.396 20.4413C282.96 20.6386 282.464 20.7103 281.979 20.6462C281.494 20.5821 281.044 20.3854 280.693 20.0841C280.191 20.4888 279.566 20.7561 278.895 20.8534C278.223 20.9507 277.534 20.8738 276.911 20.632C276.288 20.3902 275.759 19.994 275.389 19.4919C275.018 18.9898 274.822 18.4036 274.824 17.805C274.208 17.9171 273.568 17.8723 272.98 17.6759C272.392 17.4795 271.88 17.1397 271.504 16.6962C270.84 16.0348 270.352 15.252 270.073 14.4043C269.795 13.5567 269.734 12.6652 269.895 11.7943C270.056 10.9234 270.434 10.0947 271.003 9.36807C271.572 8.64141 272.317 8.03486 273.185 7.59218C274.562 6.97703 276.059 6.59666 277.597 6.47112C279.992 6.17593 282.406 6.01545 284.825 5.99067C285.889 5.93915 286.956 6.05171 287.976 6.32329C289.377 6.76679 290.525 7.76466 291.982 7.92481C292.937 7.96287 293.89 7.82871 294.783 7.53059C296.075 7.13886 297.438 6.96337 298.803 7.01318C301.479 7.22261 303.692 8.91037 305.457 10.709C306.789 11.8959 307.754 13.3634 308.258 14.9715C308.492 15.7789 308.448 16.6294 308.131 17.4147C307.815 18.2 307.239 18.8848 306.479 19.3819C306.171 19.5676 305.818 19.6868 305.448 19.7296C305.078 19.7724 304.702 19.7377 304.35 19.6282C304.18 19.5662 304.025 19.4752 303.895 19.3604C303.764 19.2457 303.661 19.1094 303.591 18.9595C303.521 18.8095 303.485 18.6489 303.485 18.4867C303.486 18.3245 303.523 18.164 303.594 18.0144" fill="#263238"/>
<path d="M310.052 36.4073C311.032 30.2476 309.855 22.856 304.771 17.5956C299.687 12.3352 290.694 9.11983 284.741 10.1177C280.105 10.8938 270.02 11.2141 266.337 19.7515L266.855 12.7048C266.855 12.7048 271.337 4.69717 284.573 4.94356C297.81 5.18995 303.58 6.54508 309.982 13.3947C312.116 15.4821 313.579 18.0317 314.222 20.7814C314.864 23.5312 314.662 26.3819 313.637 29.0403C312.713 31.5913 311.512 34.0583 310.052 36.4073Z" fill="#ED9B59"/>
<path d="M273.591 6.68044C273.76 6.647 273.925 6.59743 274.081 6.53261C274.39 6.43406 274.838 6.26158 275.482 6.08911C277.168 5.55404 278.902 5.142 280.665 4.85717C283.274 4.47399 285.922 4.3377 288.564 4.45063C291.798 4.58349 294.99 5.14416 298.033 6.11375C301.073 7.12897 303.91 8.56367 306.437 10.3639C307.532 11.1491 308.54 12.0235 309.448 12.9757C309.897 13.4068 310.261 13.8627 310.639 14.2938C311.017 14.725 311.339 15.1562 311.619 15.5874C312.555 16.9269 313.343 18.3418 313.973 19.8129C314.211 20.318 314.351 20.7369 314.463 21.0449C314.508 21.191 314.574 21.3317 314.659 21.4637L314.533 21.0325C314.421 20.7492 314.309 20.3303 314.085 19.8006C313.5 18.306 312.739 16.8692 311.816 15.5134C311.535 15.0823 311.185 14.6511 310.849 14.1953C310.513 13.7395 310.107 13.2836 309.658 12.8401C308.738 11.8788 307.72 10.9923 306.619 10.1915C304.1 8.36503 301.262 6.90896 298.215 5.87968C295.142 4.89746 291.915 4.34057 288.648 4.22888C285.985 4.11483 283.315 4.27191 280.693 4.69701C278.928 4.97464 277.194 5.38684 275.51 5.92895C274.908 6.12607 274.474 6.32318 274.109 6.43405L273.591 6.68044Z" fill="#263238"/>
<path d="M309.169 26.0969C309.313 26.0629 309.45 26.0089 309.575 25.9368C309.925 25.7467 310.258 25.5325 310.569 25.2962C311.603 24.5078 312.393 23.503 312.868 22.3747C313.343 21.2464 313.487 20.031 313.287 18.8408C313.224 18.4849 313.125 18.1345 312.992 17.7937C312.894 17.5473 312.824 17.4241 312.81 17.4364C312.796 17.4487 312.964 17.9784 313.062 18.8654C313.187 20.0208 313.02 21.1861 312.572 22.2779C312.107 23.3648 311.37 24.3458 310.415 25.1483C309.687 25.7643 309.141 26.06 309.169 26.0969Z" fill="#263238"/>
<path d="M305.302 19.0497C305.74 18.8819 306.131 18.6341 306.451 18.3229C307.283 17.6076 307.912 16.7297 308.286 15.7605C308.673 14.7922 308.765 13.7514 308.552 12.7422C308.5 12.3072 308.342 11.8871 308.09 11.5103C308.09 11.5103 308.216 11.9784 308.342 12.7422C308.471 13.7181 308.351 14.7071 307.992 15.6373C307.622 16.5509 307.046 17.3891 306.297 18.1011C305.723 18.7418 305.274 19.0128 305.302 19.0497Z" fill="#263238"/>
<path d="M299.04 13.9123C299.4 13.7672 299.727 13.567 300.007 13.321C300.726 12.7588 301.324 12.0869 301.772 11.3376C302.212 10.5708 302.465 9.73153 302.514 8.87369C302.565 8.52654 302.532 8.17377 302.416 7.83887C302.346 8.99248 302.032 10.1245 301.491 11.1774C300.822 12.1843 299.997 13.1046 299.04 13.9123Z" fill="#263238"/>
<path d="M293.005 4.82129C292.758 5.04459 292.563 5.30825 292.431 5.59742C292.039 6.25496 291.734 6.94924 291.52 7.66708C291.311 8.3889 291.189 9.12801 291.156 9.87225C291.124 10.1822 291.152 10.4947 291.24 10.7962C291.338 10.7962 291.338 9.39179 291.828 7.74099C292.319 6.09019 293.089 4.85825 293.005 4.82129Z" fill="#263238"/>
<path d="M281.379 4.62402C281.161 4.86771 281.004 5.14889 280.917 5.44942C280.654 6.16034 280.545 6.90829 280.595 7.6546C280.637 8.4004 280.842 9.13214 281.197 9.81049C281.319 10.104 281.516 10.3694 281.771 10.5866C281.31 9.6506 281.017 8.65733 280.903 7.64227C280.889 6.62089 281.049 5.60346 281.379 4.62402Z" fill="#263238"/>
<path d="M273.912 6.47168C273.648 6.71368 273.438 6.99806 273.296 7.3094C272.909 8.05322 272.695 8.8573 272.666 9.67472C272.638 10.4887 272.805 11.2988 273.156 12.0524C273.272 12.3747 273.463 12.6724 273.716 12.927C273.256 11.8894 273.01 10.7882 272.988 9.67472C273.076 8.56707 273.389 7.48227 273.912 6.47168Z" fill="#263238"/>
<path d="M266.729 12.0034C266.608 12.2521 266.555 12.5221 266.574 12.7919C266.521 14.1093 267.02 15.398 267.975 16.4138C268.353 16.7957 268.647 16.9681 268.661 16.9435C268.056 16.2284 267.553 15.4505 267.163 14.6275C266.893 13.7724 266.747 12.8907 266.729 12.0034Z" fill="#263238"/>
<path d="M263.1 18.8898C263.101 19.5751 263.357 20.2414 263.829 20.787C264.208 21.3822 264.805 21.8469 265.523 22.1051C265.022 21.6385 264.554 21.1448 264.123 20.6268C263.408 19.8014 263.198 18.8775 263.1 18.8898Z" fill="#263238"/>
<path d="M262.609 26.6385C262.539 26.6385 262.609 27.1189 263.099 27.4885C263.59 27.8581 264.108 27.895 264.108 27.8211C264.108 27.7472 263.702 27.5994 263.309 27.2791C262.917 26.9588 262.707 26.6138 262.609 26.6385Z" fill="#263238"/>
<path d="M310.149 33.0323C311.189 32.9047 312.182 32.5669 313.05 32.0454C313.918 31.5239 314.636 30.8329 315.149 30.0264C313.802 31.3878 312.08 32.4227 310.149 33.0323Z" fill="#263238"/>
<path d="M309.38 36.9126C309.38 36.9742 309.828 37.3807 310.641 37.4177C311.453 37.4547 312.041 37.1097 311.957 37.0481C311.873 36.9865 311.369 37.1836 310.655 37.1344C309.94 37.0851 309.422 36.851 309.38 36.9126Z" fill="#263238"/>
<g opacity="0.3">
<path d="M274.685 6.41052C277.548 4.75849 280.759 3.62914 284.127 3.0895C287.496 2.54986 290.953 2.61093 294.294 3.26908C297.664 4.02625 300.83 5.36468 303.607 7.20669C306.384 9.0487 308.718 11.3576 310.472 13.9993C310.472 13.9993 302.222 4.82132 290.4 4.50102C278.579 4.18071 274.685 6.41052 274.685 6.41052Z" fill="black"/>
</g>
<path d="M283.817 37.344C283.872 36.8591 283.961 36.3777 284.083 35.9026C284.476 34.6129 285.349 33.4763 286.563 32.6749C287.387 32.1262 288.347 31.7549 289.364 31.5908C290.537 31.4031 291.745 31.4923 292.866 31.8495C294.1 32.249 295.172 32.9605 295.947 33.8945C296.783 34.8965 297.234 36.1071 297.234 37.3501C297.234 38.5931 296.783 39.8037 295.947 40.8057C295.172 41.7397 294.1 42.4512 292.866 42.8507C291.818 43.1857 290.691 43.2856 289.588 43.1415C288.485 42.9974 287.441 42.6138 286.549 42.0253C285.337 41.2219 284.465 40.0861 284.069 38.7976C283.945 38.3187 283.856 37.8331 283.803 37.344C283.764 37.8408 283.816 38.34 283.957 38.8223C284.308 40.1587 285.174 41.3471 286.409 42.1855C287.266 42.7595 288.263 43.1516 289.322 43.3312C290.539 43.5418 291.798 43.4566 292.964 43.0848C293.597 42.8913 294.192 42.6129 294.729 42.2594C295.288 41.9174 295.784 41.5019 296.199 41.0275C297.081 39.9813 297.556 38.7137 297.556 37.4117C297.556 36.1097 297.081 34.8421 296.199 33.796C295.789 33.2996 295.293 32.8631 294.729 32.5024C294.192 32.1489 293.597 31.8705 292.964 31.677C291.874 31.3262 290.701 31.2247 289.554 31.382C288.407 31.5393 287.325 31.9503 286.409 32.5763C285.174 33.4148 284.308 34.6031 283.957 35.9396C283.828 36.3985 283.781 36.8723 283.817 37.344Z" fill="#D5F0F0"/>
<path d="M263.48 36.6414C263.48 36.6414 263.48 36.1117 263.76 35.2C264.152 33.9104 265.025 32.7738 266.239 31.9723C267.062 31.4212 268.022 31.0497 269.04 30.8882C270.213 30.7005 271.421 30.7898 272.542 31.1469C273.144 31.3402 273.71 31.61 274.223 31.9477C275.054 32.4936 275.73 33.2027 276.195 34.0186C276.66 34.8346 276.903 35.7348 276.903 36.6476C276.903 37.5603 276.66 38.4605 276.195 39.2765C275.73 40.0924 275.054 40.8015 274.223 41.3474C273.71 41.6851 273.144 41.9549 272.542 42.1482C271.494 42.4831 270.367 42.5831 269.265 42.4389C268.162 42.2948 267.117 41.9112 266.225 41.3228C265.013 40.5193 264.141 39.3836 263.746 38.0951C263.48 37.1834 263.522 36.6414 263.466 36.6414C263.435 37.1381 263.487 37.6361 263.62 38.1197C263.983 39.4547 264.852 40.641 266.085 41.4829C266.943 42.0569 267.94 42.449 268.998 42.6286C270.215 42.8392 271.474 42.754 272.64 42.3822C273.272 42.1862 273.867 41.9079 274.405 41.5568C275.141 41.084 275.763 40.4877 276.236 39.8024C276.708 39.117 277.022 38.3562 277.159 37.5637C277.295 36.7712 277.252 35.9628 277.032 35.1849C276.812 34.4071 276.419 33.6754 275.875 33.0318C275.061 32.058 273.934 31.3202 272.64 30.9129C271.55 30.5621 270.377 30.4606 269.23 30.6179C268.084 30.7752 267.001 31.1861 266.085 31.8122C264.852 32.6541 263.983 33.8404 263.62 35.1754C263.492 35.6554 263.445 36.1493 263.48 36.6414Z" fill="#D5F0F0"/>
<path d="M276.855 34.3624C276.855 34.3624 277.247 34.1283 277.92 33.845C278.799 33.4547 279.781 33.2754 280.764 33.3252C281.748 33.3749 282.699 33.652 283.522 34.1283C284.167 34.4856 284.489 34.7936 284.517 34.7566C284.306 34.4349 284.007 34.164 283.648 33.9682C282.835 33.4316 281.862 33.1148 280.847 33.0565C279.82 33.0081 278.798 33.222 277.906 33.6725C277.498 33.8261 277.138 34.0626 276.855 34.3624Z" fill="#D5F0F0"/>
<path d="M296.955 36.2344C296.955 36.3083 299.658 37.1214 303.062 38.0577C306.465 38.994 309.238 39.6715 309.252 39.61C309.267 39.5484 306.549 38.723 303.16 37.7867C299.77 36.8504 296.983 36.1605 296.955 36.2344Z" fill="#D5F0F0"/>
<path d="M290.862 42.3078C291.265 42.3351 291.671 42.289 292.053 42.1723C292.986 41.9381 293.844 41.5163 294.56 40.9404C295.279 40.353 295.835 39.628 296.185 38.8214C296.348 38.4957 296.429 38.1426 296.423 37.7866C296.253 38.0994 296.104 38.4202 295.975 38.7475C295.166 40.2487 293.716 41.4085 291.941 41.9752C291.575 42.0692 291.215 42.1802 290.862 42.3078Z" fill="white"/>
<path d="M274.193 40.3506C274.193 40.3506 274.627 40.2767 275.104 39.8209C275.682 39.2195 276.064 38.4915 276.21 37.7143C276.391 36.9463 276.391 36.1539 276.21 35.3859C276.157 35.0654 276.007 34.7634 275.776 34.5112C275.776 34.5112 275.888 34.8562 276 35.4352C276.131 36.174 276.131 36.9262 276 37.665C275.856 38.398 275.526 39.093 275.033 39.6977C274.773 39.9338 274.492 40.152 274.193 40.3506Z" fill="white"/>
<path d="M284.042 48.8998C284.042 48.8382 283.845 48.5302 283.453 48.1976C283.061 47.865 282.725 47.6309 282.655 47.6925C282.585 47.7541 282.851 48.0621 283.243 48.3947C283.635 48.7273 283.972 48.9491 284.042 48.8998Z" fill="#263238"/>
<path d="M283.06 49.4292C283.06 49.4292 282.864 48.998 282.486 48.5792C282.107 48.1603 281.743 47.84 281.687 47.8893C281.631 47.9386 281.869 48.3205 282.247 48.7393C282.626 49.1582 282.99 49.4785 283.06 49.4292Z" fill="#263238"/>
<path d="M282.05 50.0823C282.134 50.0823 281.966 49.6511 281.7 49.1953C281.434 48.7394 281.14 48.4068 281.055 48.4315C280.971 48.4561 281.139 48.875 281.42 49.3308C281.7 49.7866 281.98 50.1192 282.05 50.0823Z" fill="#263238"/>
<path d="M280.525 50.0936C280.609 50.0936 280.651 49.8103 280.623 49.4777C280.595 49.145 280.497 48.874 280.413 48.874C280.329 48.874 280.287 49.1574 280.315 49.49C280.343 49.8226 280.427 50.0936 280.525 50.0936Z" fill="#263238"/>
<path d="M279.053 50.3044C279.151 50.3044 279.221 50.0581 279.221 49.7624C279.221 49.4667 279.151 49.208 279.053 49.208C278.955 49.208 278.899 49.4544 278.899 49.7624C278.899 50.0704 278.969 50.3044 279.053 50.3044Z" fill="#263238"/>
<path d="M277.68 50.4148C277.764 50.4148 277.918 50.1314 278.03 49.7372C278.142 49.343 278.142 48.998 278.03 48.9857C277.918 48.9734 277.792 49.2814 277.694 49.6756C277.596 50.0698 277.596 50.4024 277.68 50.4148Z" fill="#263238"/>
<path d="M309.252 51.8327C309.188 52.3171 309.333 52.8052 309.659 53.2001C309.818 53.4341 310.033 53.6347 310.29 53.7879C310.546 53.9411 310.837 54.0432 311.143 54.0871C311.522 54.1311 311.908 54.0832 312.259 53.9486C312.609 53.814 312.911 53.5978 313.132 53.3233C313.35 53.0551 313.504 52.7511 313.586 52.4295C313.668 52.1078 313.676 51.775 313.609 51.4508C313.465 50.9216 313.1 50.4595 312.586 50.1572C312.368 50.0081 312.117 49.9013 311.849 49.8439C311.581 49.7866 311.302 49.78 311.031 49.8246C311.533 49.8989 312.01 50.0669 312.432 50.3174C312.882 50.6218 313.19 51.0596 313.3 51.5493C313.398 52.1337 313.237 52.7286 312.852 53.2124C312.66 53.4468 312.401 53.632 312.1 53.7489C311.8 53.8658 311.47 53.9103 311.143 53.8777C310.876 53.8448 310.621 53.7618 310.393 53.6343C310.166 53.5067 309.973 53.3376 309.827 53.1385C309.542 52.7394 309.347 52.2961 309.252 51.8327Z" fill="#263238"/>
<path d="M239.471 350.245L221.739 385.749L171.035 366.974C173.374 362.835 205.729 364.942 205.729 364.942L216.935 340.833L239.471 350.245Z" fill="#ED9B59"/>
<g opacity="0.6">
<path d="M220.31 367.885C220.734 368.197 221.013 368.636 221.093 369.118C221.173 369.599 221.049 370.09 220.744 370.496C220.403 370.879 219.909 371.133 219.362 371.206C218.816 371.28 218.258 371.167 217.803 370.891C217.355 370.559 217.064 370.094 216.983 369.584C216.903 369.074 217.04 368.557 217.368 368.131C217.767 367.764 218.311 367.546 218.888 367.523C219.465 367.5 220.029 367.674 220.464 368.008" fill="white"/>
</g>
<g opacity="0.6">
<path d="M221.739 385.749L223.336 382.053L174.131 365.422C174.131 365.422 171.455 365.422 171.035 366.937L221.739 385.749Z" fill="white"/>
</g>
<path d="M204.777 365.053C204.679 365.275 205.87 365.841 206.752 366.987C207.635 368.133 207.845 369.291 208.153 369.291C208.461 369.291 208.657 367.899 207.551 366.519C206.444 365.139 204.819 364.843 204.777 365.053Z" fill="#263238"/>
<path d="M197.17 364.621C197.002 364.805 197.898 365.569 198.305 366.801C198.711 368.033 198.473 369.105 198.725 369.179C198.977 369.253 199.733 368.095 199.201 366.567C198.669 365.04 197.268 364.411 197.17 364.621Z" fill="#263238"/>
<path d="M191.679 368.922C191.875 369.045 192.744 368.084 192.674 366.667C192.604 365.25 191.679 364.339 191.497 364.474C191.315 364.61 191.707 365.521 191.749 366.692C191.791 367.862 191.441 368.811 191.679 368.922Z" fill="#263238"/>
<path d="M208.025 359.238C208.025 359.473 209.314 359.596 210.673 360.199C212.031 360.803 212.942 361.591 213.166 361.431C213.39 361.271 212.704 360.125 211.093 359.436C209.482 358.746 207.997 359.029 208.025 359.238Z" fill="#263238"/>
<path d="M328.121 232.927C326.426 232.927 256.448 296.988 256.448 301.435C256.448 305.883 246.055 351.009 241.041 357.957C236.026 364.905 233.015 363.279 233.015 363.279L209.75 353.744C209.75 353.744 222.636 283.523 225.465 275.626C228.295 267.73 281.66 205.627 281.66 205.627L332.084 214.066L328.121 232.927Z" fill="#53A3C6"/>
<path d="M244.724 287.132C244.919 287.992 245.259 288.823 245.732 289.596C246.732 291.52 247.933 293.36 249.318 295.09C250.686 296.839 252.264 298.454 254.024 299.907C254.717 300.55 255.538 301.076 256.447 301.459C255.807 300.797 255.119 300.172 254.388 299.587C252.766 298.041 251.272 296.394 249.92 294.659C246.698 290.717 244.934 287.021 244.724 287.132Z" fill="#D5F0F0"/>
<path d="M417.16 385.071L419.331 366.112L401.347 346.191L423.393 333.724L423.982 334.488L435.187 349.37L449.74 359.472L426.629 392.87L404.12 391.539C404.12 391.539 406.137 386.919 417.16 385.071Z" fill="#ED9B59"/>
<g opacity="0.6">
<path d="M449.768 359.472L426.657 392.87L404.148 391.54L406.907 388.718L425.284 388.916L446.672 357.329L449.768 359.472Z" fill="white"/>
</g>
<path d="M418 376.375C418.141 376.584 419.499 376.018 421.236 376.165C422.973 376.313 424.205 377.016 424.387 376.831C424.57 376.646 423.435 375.439 421.306 375.291C419.177 375.143 417.776 376.215 418 376.375Z" fill="#263238"/>
<path d="M418.687 371.68C418.911 371.84 420.003 370.732 421.81 370.534C423.617 370.337 425.018 371.138 425.172 370.941C425.326 370.744 425.018 370.51 424.416 370.165C423.597 369.728 422.634 369.549 421.684 369.66C420.734 369.768 419.854 370.16 419.191 370.769C418.715 371.237 418.589 371.619 418.687 371.68Z" fill="#263238"/>
<path d="M419.009 365.619C419.247 365.755 420.102 364.646 421.698 364.264C423.295 363.882 424.682 364.412 424.808 364.202C424.934 363.993 424.612 363.808 424.01 363.574C423.195 363.27 422.288 363.217 421.436 363.426C420.583 363.634 419.837 364.09 419.317 364.72C418.939 365.2 418.897 365.57 419.009 365.619Z" fill="#263238"/>
<path d="M413.336 360.58C413.602 360.679 414.316 359.582 415.773 358.88C417.229 358.178 418.574 358.129 418.672 357.882C418.77 357.636 417.047 357.217 415.282 358.116C413.518 359.016 413.069 360.531 413.336 360.58Z" fill="#263238"/>
<path d="M410.717 356.342C410.829 356.416 411.627 355.664 412.832 354.383C413.518 353.644 414.232 352.893 414.919 352.116C415.395 351.664 415.787 351.149 416.081 350.589C416.179 350.395 416.229 350.185 416.229 349.973C416.229 349.761 416.179 349.551 416.081 349.357C415.967 349.139 415.783 348.956 415.551 348.829C415.32 348.702 415.051 348.637 414.779 348.642C413.974 348.73 413.215 349.021 412.594 349.48C411.093 350.478 410.07 351.932 409.722 353.558C409.421 354.47 409.532 355.45 410.03 356.293C410.103 355.421 410.229 354.553 410.409 353.693C410.679 352.796 411.156 351.958 411.809 351.229C412.192 350.815 412.635 350.447 413.126 350.133C413.594 349.803 414.147 349.579 414.737 349.48C414.822 349.475 414.908 349.491 414.983 349.529C415.058 349.566 415.118 349.622 415.157 349.69C415.227 349.869 415.227 350.064 415.157 350.244C414.894 350.722 414.565 351.168 414.176 351.574C413.532 352.388 412.888 353.176 412.257 353.952C411.595 354.667 411.074 355.475 410.717 356.342Z" fill="#263238"/>
<g opacity="0.6">
<path d="M431.852 357.821C431.816 358.287 431.939 358.752 432.205 359.157C432.471 359.561 432.868 359.887 433.345 360.092C433.822 360.297 434.358 360.373 434.884 360.31C435.41 360.246 435.903 360.047 436.3 359.736C436.696 359.426 436.979 359.018 437.112 358.566C437.244 358.114 437.221 357.637 437.044 357.196C436.868 356.756 436.546 356.371 436.12 356.092C435.694 355.813 435.184 355.651 434.653 355.628C433.953 355.598 433.266 355.811 432.742 356.221C432.218 356.631 431.899 357.206 431.852 357.821Z" fill="white"/>
</g>
<path d="M353.962 200.896L368.501 279.863C368.501 279.863 413.981 319.914 416.81 324.373C416.81 324.373 421.881 322.883 423.575 326.837C424.928 330.558 425.981 334.357 426.727 338.208L404.148 354.889C404.148 354.889 344.493 311.389 338.849 304.933C333.204 298.478 309.561 255.914 305.037 244.999C300.512 234.084 295.232 209.877 295.232 209.877L353.962 200.896Z" fill="#53A3C6"/>
<path d="M360.35 285.333C362.137 285.225 363.828 284.582 365.14 283.51C366.588 282.608 367.653 281.308 368.166 279.814C367.079 280.955 365.914 282.037 364.678 283.054C363.29 283.891 361.845 284.652 360.35 285.333Z" fill="#D5F0F0"/>
<path d="M407.286 334.685C409.566 333.663 411.536 332.176 413.03 330.348C414.523 328.52 415.498 326.404 415.872 324.177C414.925 326.195 413.772 328.133 412.426 329.967C410.889 331.681 409.168 333.262 407.286 334.685Z" fill="#D5F0F0"/>
<path d="M335.191 212.576C335.237 212.883 335.337 213.182 335.485 213.463C335.815 214.25 336.208 215.016 336.662 215.754C339.679 220.693 344.457 224.623 350.262 226.94C351.129 227.292 352.023 227.588 352.938 227.827C353.262 227.947 353.609 228.013 353.96 228.024C353.96 227.913 352.56 227.482 350.487 226.534C347.734 225.289 345.189 223.718 342.923 221.864C340.668 219.995 338.713 217.865 337.11 215.532C335.892 213.734 335.359 212.526 335.191 212.576Z" fill="#D5F0F0"/>
<path d="M299.532 232.755C299.738 233.444 300 234.119 300.317 234.775C300.933 236.155 301.717 237.978 302.712 240.196C304.785 244.742 307.698 251.025 311.186 257.862C314.674 264.699 318.077 270.797 320.57 275.183L323.568 280.357C323.909 281.003 324.308 281.625 324.758 282.217C324.501 281.541 324.188 280.882 323.82 280.246L321.019 274.986C318.638 270.539 315.318 264.428 311.844 257.603C308.371 250.778 305.373 244.532 303.188 240.011C302.11 237.843 301.227 236.044 300.569 234.677C300.279 234.014 299.933 233.371 299.532 232.755Z" fill="#D5F0F0"/>
<path d="M311.802 72.6523C311.802 72.6523 327.209 78.1098 330.781 87.6327C332.602 92.4496 343.219 127.671 343.219 127.671C343.219 127.671 357.226 195.304 355.293 201.747L275.132 212.576C273.147 210.461 272.146 207.762 272.331 205.024L273.634 184.759L272.695 97.8948C272.683 97.2473 272.735 96.6002 272.849 95.9606L275.651 79.9454L274.754 73.0342L310.681 64.6816L311.802 72.6523Z" fill="#ED9B59"/>
<path d="M313.959 67.207C313.862 66.6676 313.637 66.152 313.3 65.6937C312.962 65.2353 312.519 64.8443 311.999 64.546C311.479 64.2476 310.894 64.0485 310.281 63.9615C309.668 63.8745 309.041 63.9016 308.44 64.0409L275.594 71.6666C274.606 71.8972 273.738 72.4198 273.137 73.1466C272.535 73.8734 272.235 74.7602 272.289 75.6581L272.373 76.89C272.413 77.4808 272.605 78.0559 272.935 78.5717C273.265 79.0876 273.724 79.5308 274.277 79.8678C274.83 80.2048 275.463 80.4268 276.128 80.5171C276.793 80.6073 277.473 80.5634 278.116 80.3887L310.877 71.5434C311.9 71.2696 312.775 70.6797 313.341 69.8826C313.908 69.0856 314.127 68.1352 313.959 67.207Z" fill="#ED9B59"/>
<path d="M275.131 80.0429C275.71 79.9989 276.283 79.9039 276.84 79.7596L281.392 78.7494C285.244 77.8624 290.539 76.6058 296.366 75.1768L304.181 73.2303C305.163 73.0956 306.132 72.898 307.081 72.639C307.532 72.5131 307.969 72.348 308.383 72.1462C308.608 72.0455 308.812 71.9123 308.986 71.752C309.136 71.5871 309.267 71.4097 309.378 71.2223C309.714 70.5447 309.821 69.7961 309.686 69.0664C309.593 68.4605 309.41 67.8681 309.14 67.3047C308.775 66.5134 308.264 65.7807 307.627 65.1365C307.165 64.7053 306.857 64.5328 306.843 64.5575C307.659 65.4183 308.308 66.3925 308.762 67.4402C309.302 68.5732 309.342 69.843 308.874 71.0005C308.565 71.6165 307.753 71.8506 306.885 72.1093C305.968 72.3487 305.031 72.5258 304.083 72.639L296.254 74.5362C290.427 75.9652 285.146 77.2957 281.336 78.232L276.84 79.4639C276.251 79.6083 275.679 79.8022 275.131 80.0429Z" fill="#263238"/>
<path d="M274.81 84.9707C274.733 85.1781 274.686 85.3934 274.67 85.6113C274.6 86.1041 274.516 86.7078 274.418 87.4469C274.222 89.0484 273.97 91.3645 273.732 94.2349C273.214 99.9757 272.695 107.909 272.401 116.681C272.107 125.452 272.135 133.411 272.401 139.164C272.499 142.034 272.639 144.363 272.765 145.964C272.835 146.716 272.905 147.319 272.948 147.812C272.947 148.029 272.985 148.245 273.06 148.453C273.09 148.24 273.09 148.025 273.06 147.812C273.06 147.307 273.06 146.703 273.06 145.952C273.06 144.35 272.948 142.022 272.92 139.151C272.821 133.411 272.92 125.465 273.172 116.693C273.424 107.922 273.9 100 274.278 94.2719C274.474 91.463 274.628 89.1716 274.754 87.4715C274.754 86.7324 274.824 86.1164 274.852 85.6236C274.866 85.4053 274.852 85.1863 274.81 84.9707Z" fill="#263238"/>
<path d="M298.116 66.873C298.658 68.0316 299.093 69.2262 299.419 70.4457C299.52 71.676 299.52 72.9112 299.419 74.1415C299.831 73.578 300.108 72.9465 300.233 72.2857C300.359 71.6248 300.329 70.9484 300.147 70.2978C300.084 69.6371 299.871 68.994 299.523 68.406C299.174 67.8181 298.696 67.297 298.116 66.873Z" fill="#263238"/>
<path d="M288.789 68.7578C288.719 68.7578 288.383 69.1028 288.103 69.8173C287.763 70.7697 287.7 71.782 287.92 72.7614C288.141 73.7408 288.637 74.6558 289.364 75.4226C289.924 75.9893 290.4 76.2234 290.456 76.1618C289.642 75.079 289.027 73.8899 288.635 72.6384C288.465 71.3454 288.517 70.0372 288.789 68.7578Z" fill="#263238"/>
<path d="M279.698 70.9761C279.628 70.9761 279.25 71.2717 278.914 71.9616C278.477 72.8792 278.341 73.8862 278.522 74.8683C278.703 75.8503 279.193 76.7682 279.937 77.5177C280.511 78.0844 280.987 78.2938 281.043 78.2322C280.087 77.2463 279.452 76.0514 279.206 74.7739C278.959 73.4965 279.11 72.1842 279.642 70.9761H279.698Z" fill="#263238"/>
<path d="M284.433 90.526C287.459 82.6663 294.798 75.8043 304.042 74.1905C313.287 72.5767 321.971 74.3014 328.568 81.0647L336.972 96.772C333.246 94.9487 327.28 84.2924 320.332 80.6705C313.385 77.0486 305.653 76.9747 299.938 82.0133C295.736 85.7092 292.585 91.0804 292.683 96.3531C292.879 106.677 297.767 116.36 301.325 126.215C305.891 138.855 309.505 152.332 320.052 161.831C328.526 169.456 339.872 174.002 350.867 178.376C353.472 180.261 359.495 187.11 356.386 188.231C353.276 189.352 341.973 185.767 338.765 184.893C330.767 182.749 322.461 180.445 316.354 175.394C310.752 170.701 307.642 164.159 304.729 157.827C299.126 145.606 295.456 132.868 289.84 120.635C285.077 110.225 280.343 101.17 284.433 90.526Z" fill="#D5F0F0"/>
<path d="M297.219 222.062L303.606 212.576L324.98 219.13C324.98 219.13 323.579 235.835 320.778 236.315C319.936 236.443 319.073 236.409 318.248 236.213C317.423 236.017 316.656 235.665 316.002 235.182C316.002 235.182 314.405 239.543 311.212 239.728L309.433 239.802C308.858 240.196 305.609 242.265 302.92 241.502C302.92 241.502 300.454 246.208 298.465 245.715C296.476 245.222 295.188 239.555 295.188 239.555L297.219 222.062Z" fill="#FFBE9D"/>
<path d="M316.522 78.4047C320.17 79.5271 323.425 81.4601 325.973 84.0158C328.52 86.5716 330.273 89.6634 331.061 92.9908C335.263 110.694 345.292 157.052 344.886 163.581C344.368 171.884 326.369 221.088 326.369 221.088L301.157 214.411L312.6 158.974C312.6 158.974 294.742 107.109 293.341 99.2244C291.8 90.6132 300.344 73.4769 316.522 78.4047Z" fill="#ED9B59"/>
<path d="M316.522 78.442C315.883 78.219 315.228 78.0337 314.561 77.8876C312.617 77.4209 310.582 77.3284 308.594 77.6166C305.388 78.1407 302.463 79.5676 300.26 81.682C295.6 86.2532 292.996 92.1619 292.934 98.3009C292.963 99.5167 293.136 100.727 293.453 101.91C293.733 103.142 294.083 104.374 294.419 105.606C295.82 110.534 297.556 115.868 299.405 121.511C303.117 132.795 307.431 145.423 312.222 159.06V158.925L300.75 214.362V214.645L301.058 214.732L312.88 217.848L326.326 221.409L326.676 221.495L326.775 221.199C330.514 211.11 334.044 201.254 337.294 191.719C338.904 186.951 340.473 182.27 341.888 177.65C342.588 175.346 343.288 173.067 343.891 170.788C344.213 169.655 344.479 168.509 344.731 167.376C344.967 166.24 345.112 165.092 345.165 163.939C345.096 161.678 344.867 159.423 344.479 157.188C344.129 154.995 343.779 152.839 343.387 150.708C342.63 146.457 341.804 142.355 341.005 138.388C339.395 130.455 337.798 123.1 336.327 116.41L332.279 98.3748C331.8 95.8819 331.164 93.4142 330.374 90.9832C329.594 88.9774 328.48 87.0843 327.069 85.3655C325.116 82.9867 322.585 81.0212 319.659 79.6124C318.655 79.107 317.594 78.6942 316.494 78.3804C316.494 78.3804 316.76 78.5036 317.292 78.7007C318.082 78.9889 318.849 79.3223 319.589 79.6986C322.459 81.1344 324.936 83.1068 326.845 85.4764C328.219 87.1856 329.304 89.0613 330.066 91.0448C330.819 93.455 331.431 95.8974 331.901 98.3625C333.064 103.672 334.38 109.721 335.851 116.41C337.322 123.1 338.848 130.479 340.431 138.401C341.215 142.367 342.014 146.47 342.77 150.72C343.162 152.839 343.513 154.995 343.849 157.188C344.216 159.392 344.436 161.613 344.507 163.84C344.418 164.967 344.24 166.086 343.975 167.191C343.737 168.324 343.457 169.445 343.134 170.579C342.546 172.846 341.832 175.125 341.131 177.416C339.731 182.024 338.134 186.705 336.523 191.46C333.26 200.983 329.73 210.839 325.99 220.928L326.438 220.719L312.992 217.171L301.17 214.042L301.422 214.411C305.484 194.7 309.336 175.938 312.838 158.974V158.9V158.826C308.034 145.189 303.677 132.586 299.924 121.314C298.061 115.684 296.324 110.386 294.881 105.446C294.092 103.109 293.581 100.706 293.354 98.2763C293.405 92.2243 295.931 86.3907 300.47 81.8422C302.62 79.752 305.479 78.3265 308.622 77.7768C310.585 77.4714 312.599 77.5344 314.533 77.9616C315.03 78.0521 315.521 78.1672 316.003 78.3065C316.173 78.36 316.346 78.4052 316.522 78.442Z" fill="#263238"/>
<path d="M312.292 158.677C316.3 156.141 321.082 154.721 326.018 154.6C323.526 154.237 320.97 154.42 318.576 155.131C316.182 155.842 314.024 157.06 312.292 158.677Z" fill="#263238"/>
<g opacity="0.3">
<path d="M332.461 205.567C344.213 190.242 350.39 168.818 343.666 153.579C345.501 162.708 343.75 171.048 340.655 179.906C337.559 188.763 333.862 197.596 333.259 206.848" fill="black"/>
</g>
<path d="M492.637 412.701C502.251 410.125 515.491 401.4 515.491 401.4L510.315 382.082C503.071 384.023 498.198 382.741 493.325 381.458C488.452 380.176 483.579 378.893 476.334 380.834C467.822 383.115 450.418 390.367 453.654 402.441C456.889 414.515 478.148 416.583 492.637 412.701ZM532.222 386.565C530.794 381.237 525.302 378.066 519.974 379.494L515.145 380.788L520.321 400.106L525.151 398.812C530.478 397.385 533.649 391.893 532.222 386.565Z" fill="white"/>
<path d="M578.97 337.498C564.481 333.616 543.222 335.684 539.986 347.758C536.751 359.832 554.155 367.083 562.667 369.364C569.911 371.305 574.784 370.023 579.657 368.74C584.53 367.458 589.403 366.175 596.648 368.117L601.824 348.798C601.824 348.798 588.584 340.074 578.97 337.498ZM618.554 363.634C619.982 358.306 616.811 352.814 611.483 351.386L606.654 350.092L601.477 369.411L606.307 370.705C611.635 372.132 617.127 368.961 618.554 363.634Z" fill="white"/>
<path d="M694.886 91.8699C694.886 91.8699 700.488 85.3899 700.488 82.7658L698.163 67.5144C698.163 67.5144 697.155 65.9745 695.586 68.5246C694.185 70.8653 694.97 74.4872 694.97 74.4872L693.989 78.0722L691.874 75.3619L689.493 65.1737C689.493 65.1737 687.98 57.7821 686.692 58.5829C685.403 59.3836 685.011 61.4902 685.669 64.6686C686.328 67.847 687.168 71.8755 687.168 71.8755C687.168 71.8755 687.336 73.1074 685.992 71.0255C684.647 68.9435 683.19 60.0242 682.644 58.8292C682.098 57.6343 681.93 54.4559 679.843 54.6283C677.756 54.8008 678.974 58.8539 678.974 58.8539L680.963 71.9864C680.963 71.9864 679.03 66.7013 678.666 65.8267C678.302 64.952 677.728 62.0446 677.027 60.4677C676.327 58.8908 675.29 58.0778 674.38 58.1763C673.944 58.1983 673.534 58.3664 673.234 58.6459C672.935 58.9254 672.768 59.2952 672.769 59.6793L675.823 70.9146C675.823 70.9146 677.517 76.0271 677.405 76.3598C677.293 76.6924 675.15 74.2285 675.15 74.2285L673.497 70.5327C673.497 70.5327 672.097 65.3708 670.556 65.223C669.015 65.0752 668.931 66.1223 668.931 66.1223L671.523 75.559L676.271 86.3262L680.767 94.42C680.767 94.42 687.042 93.5576 687.28 93.841C687.518 94.1243 694.886 91.8699 694.886 91.8699Z" fill="#FFBE9D"/>
<path d="M683.763 87.3246C684.264 86.5677 684.695 85.7767 685.052 84.9593C685.923 83.0429 687.583 81.4857 689.702 80.5982C690.739 80.1997 691.899 80.1215 692.993 80.3765L693.358 80.4627L693.442 80.1178C693.848 78.5532 694.408 77.1118 694.66 76.1263C694.891 75.6049 694.991 75.0462 694.954 74.4878C694.663 74.9706 694.428 75.4783 694.254 76.0031C693.672 77.3223 693.167 78.6669 692.741 80.0315L693.204 79.7728C691.955 79.4503 690.618 79.52 689.422 79.9699C688.128 80.4453 687.002 81.2149 686.158 82.1997C685.504 82.9904 684.967 83.8516 684.561 84.7622C684.13 85.5695 683.859 86.4364 683.763 87.3246Z" fill="#EB996E"/>
<path d="M743.405 84.4902L712.38 125.28L698.373 89.726L679.296 93.853C679.296 93.853 687.084 141.652 690.053 146.395C693.023 151.138 702.337 157.988 713.865 156.608C725.392 155.228 748.349 128.039 748.349 128.039L743.405 84.4902Z" fill="#ED9B59"/>
<path d="M708.556 141.653C707.859 135.689 709.33 129.685 712.758 124.504C712.028 125.119 711.43 125.845 710.993 126.647C709.775 128.516 708.896 130.54 708.388 132.647C707.86 134.749 707.699 136.909 707.912 139.053C707.951 139.946 708.169 140.826 708.556 141.653Z" fill="#263238"/>
<g opacity="0.3">
<path d="M708.234 139.668C707.619 139.568 707.041 139.336 706.552 138.992C706.063 138.648 705.679 138.203 705.433 137.697C704.948 136.67 704.778 135.548 704.943 134.445C705.164 132.367 705.982 130.372 707.319 128.648C708.657 126.925 710.471 125.528 712.59 124.589C709.535 129.138 708.037 134.365 708.276 139.644" fill="black"/>
</g>
<path d="M812.038 74.1426C819.705 73.7795 827.347 75.1807 834.21 78.208C841.536 81.214 848.455 85.6613 852.097 92.0058C855.738 98.3503 855.332 106.789 849.59 111.815C860.627 114.39 868.933 123.026 872.406 132.586C875.88 142.146 875.138 152.543 872.939 162.399C871.888 167.056 870.025 172.254 865.137 174.25C862 175.482 858.134 175.236 855.192 176.825C852.251 178.414 850.906 181.321 849.043 183.798C847.264 186.167 844.955 188.193 842.257 189.752C839.56 191.312 836.53 192.373 833.351 192.871C830.173 193.369 826.913 193.293 823.769 192.648C820.625 192.003 817.663 190.803 815.063 189.12L792.428 83.3206C796.868 77.8508 804.432 74.7093 812.038 74.1426Z" fill="#D5F0F0"/>
<path d="M796.827 85.5376C797.295 86.1229 797.815 86.6748 798.382 87.1884C799.432 88.2232 800.959 89.6523 802.892 91.5002C807.852 96.268 813.416 100.521 819.476 104.177C825.593 107.842 832.593 110.212 839.926 111.1C842.142 111.343 844.381 111.384 846.607 111.224C847.391 111.224 848.008 111.076 848.414 111.026C848.625 111.013 848.833 110.971 849.03 110.903C849.03 110.903 848.148 110.903 846.593 110.977C844.387 111.042 842.18 110.934 839.996 110.657C832.788 109.646 825.921 107.253 819.882 103.647C813.878 100.021 808.307 95.869 803.256 91.2538L798.592 87.0775C798.052 86.5232 797.461 86.0083 796.827 85.5376Z" fill="#263238"/>
<path d="M840.948 117.236C841.032 117.236 841.396 116.743 841.704 115.807C842.064 114.559 842.135 113.261 841.914 111.988C841.684 110.717 841.159 109.501 840.373 108.416C839.757 107.59 839.225 107.184 839.155 107.184C840.085 108.706 840.769 110.336 841.186 112.025C841.39 113.763 841.31 115.518 840.948 117.236Z" fill="#263238"/>
<path d="M833.329 121.166C833.2 121.347 833.097 121.542 833.021 121.745C832.839 122.127 832.559 122.694 832.265 123.457C831.396 125.576 830.68 127.74 830.121 129.937C828.161 137.228 828.161 144.821 830.121 152.112C832.196 159.409 836.744 165.978 843.162 170.949C845.102 172.433 847.232 173.714 849.507 174.768C850.291 175.162 850.907 175.371 851.384 175.556C851.604 175.649 851.834 175.723 852.07 175.778C851.284 175.328 850.47 174.917 849.633 174.546C847.442 173.422 845.386 172.106 843.498 170.616C837.29 165.618 832.883 159.129 830.822 151.952C828.885 144.762 828.804 137.282 830.584 130.061C831.228 127.276 831.984 125.133 832.475 123.556C832.818 122.776 833.103 121.978 833.329 121.166Z" fill="#263238"/>
<path d="M829.435 137.833C830.016 137.777 830.589 137.665 831.143 137.5C832.236 137.241 833.819 136.897 835.78 136.49C845.984 134.383 856.476 133.553 866.945 134.026C868.948 134.112 870.572 134.211 871.693 134.297C872.275 134.357 872.862 134.357 873.444 134.297C872.885 134.137 872.307 134.034 871.721 133.989C870.614 133.829 868.99 133.669 866.973 133.521C856.45 132.783 845.861 133.616 835.654 135.985C833.693 136.441 832.138 136.86 831.073 137.217C830.5 137.36 829.949 137.567 829.435 137.833Z" fill="#263238"/>
<g opacity="0.3">
<path d="M848.051 110.964C840.431 115.276 830.15 114.783 822.082 111.149C814.014 107.515 808.075 100.776 804.952 93.2983C815.499 104.016 831.158 111.79 848.051 110.964Z" fill="black"/>
</g>
<g opacity="0.3">
<path d="M852.124 175.753C848.958 175.557 845.88 174.749 843.11 173.386C840.34 172.023 837.947 170.139 836.101 167.869C832.788 163.253 830.781 158.006 830.246 152.568C832.278 157.219 834.85 161.673 837.921 165.86C839.695 167.836 841.721 169.625 843.958 171.195C846.465 173 849.212 174.531 852.138 175.753" fill="black"/>
</g>
<path d="M844.253 134.655C843.74 135.673 843.405 136.753 843.258 137.858C843.02 138.869 842.754 140.039 842.348 141.345C842.101 142.085 842.101 142.871 842.348 143.611C842.485 144.045 842.779 144.428 843.186 144.702C843.593 144.975 844.091 145.124 844.603 145.127C845.104 145.066 845.574 144.879 845.957 144.588C846.34 144.297 846.618 143.915 846.76 143.488C846.998 142.751 846.998 141.971 846.76 141.234C846.354 139.891 845.919 138.77 845.569 137.772C845.257 136.7 844.83 135.657 844.295 134.655C844.434 135.759 844.697 136.849 845.079 137.908C845.387 138.955 845.737 140.113 846.101 141.357C846.297 141.99 846.297 142.658 846.101 143.291C846.003 143.601 845.808 143.881 845.538 144.099C845.268 144.317 844.935 144.464 844.575 144.523C844.219 144.514 843.876 144.403 843.598 144.208C843.32 144.012 843.122 143.742 843.034 143.439C842.845 142.809 842.845 142.147 843.034 141.517C843.368 140.353 843.625 139.172 843.804 137.982C844.028 135.912 844.253 134.68 844.253 134.655Z" fill="#263238"/>
<path d="M811.098 95.0614C812.645 94.3802 814.142 93.6149 815.581 92.77C819.113 90.8355 822.775 89.0912 826.548 87.5466C830.311 86.0101 834.278 84.8927 838.355 84.2203C841.493 83.7152 843.482 83.7029 843.482 83.592C843.021 83.5123 842.55 83.4874 842.081 83.5181C840.811 83.5232 839.543 83.6056 838.285 83.7645C834.118 84.3172 830.061 85.3917 826.24 86.9552C822.433 88.5045 818.775 90.3213 815.3 92.3881C813.97 93.1642 812.905 93.8171 812.177 94.2853C811.782 94.5035 811.42 94.7642 811.098 95.0614Z" fill="#263238"/>
<path d="M813.2 94.2356C813.116 94.2356 813.046 94.6545 813.439 95.1842C813.705 95.5332 814.082 95.8056 814.522 95.9677C814.963 96.1298 815.448 96.1744 815.918 96.0959L816.38 96.0219L816.17 95.64C815.764 94.9259 815.055 94.3813 814.195 94.1248C813.551 93.94 813.13 94.0139 813.116 94.1248C813.102 94.2356 813.481 94.3219 813.985 94.5806C814.638 94.8969 815.17 95.3772 815.512 95.9604L815.75 95.5045C815.399 95.5553 815.04 95.5302 814.704 95.4315C814.367 95.3327 814.062 95.1633 813.817 94.9378C813.439 94.5559 813.313 94.2233 813.2 94.2356Z" fill="#263238"/>
<g opacity="0.3">
<path d="M741.064 136.712C740.05 136.24 739.179 135.562 738.522 134.736C737.864 133.909 737.439 132.957 737.282 131.957C736.981 129.96 737.052 127.934 737.492 125.958C738.739 117.913 740.49 109.536 741.694 101.491L741.204 135.875" fill="black"/>
</g>
<path d="M878.136 356.885C878.248 356.885 878.234 355.838 877.113 354.581C876.347 353.736 875.286 353.136 874.094 352.873C872.902 352.611 871.645 352.7 870.516 353.128C870.394 353.205 870.293 353.307 870.223 353.425C870.153 353.542 870.114 353.672 870.11 353.805C870.113 354.037 870.191 354.263 870.334 354.458C870.55 354.71 870.804 354.934 871.091 355.123C872.379 356.037 873.904 356.655 875.531 356.922C876.443 357.173 877.42 357.173 878.332 356.922C878.332 356.774 877.268 356.786 875.685 356.38C874.232 356.013 872.882 355.383 871.721 354.532C871.511 354.394 871.323 354.233 871.161 354.052C871.077 353.867 871.161 353.916 871.161 353.867C871.371 353.774 871.599 353.716 871.833 353.694C872.111 353.655 872.392 353.635 872.673 353.633C873.214 353.621 873.754 353.688 874.27 353.83C875.157 354.057 875.962 354.482 876.609 355.062C877.716 355.998 877.982 356.934 878.136 356.885Z" fill="#263238"/>
<path d="M781.139 20.7499C780.174 16.68 778.512 12.7628 776.208 9.13266C773.86 5.47961 770.058 2.71959 765.535 1.38377C760.835 0.301851 755.883 0.408604 751.248 1.69175C747.97 2.67602 744.98 4.28746 742.494 6.41007C738.292 9.6008 736.149 14.5778 734.384 19.1976" fill="#ED9B59"/>
<path d="M731.414 19.518C732.233 15.0392 734.969 11.0057 739.062 8.24573C743.224 5.68239 748.133 4.22039 753.209 4.03248C761.067 3.50275 770.255 5.38762 775.62 10.4386C780.984 15.4895 784.15 22.3638 783.477 28.5235C783.183 31.2953 780.13 38.7978 777.707 40.6088L732.689 39.5863C730 35.8165 730.602 23.9406 731.414 19.518Z" fill="#ED9B59"/>
<path d="M732.201 27.8085C732.687 22.3255 735.504 17.205 740.091 13.4674C744.678 9.72988 750.698 7.64974 756.951 7.6416H758.239C772.134 8.33149 779.249 19.0863 778.059 31.2825L775.622 87.6315H743.784L744.064 69.2879C744.064 69.2879 730.702 67.4893 730.52 55.7366C730.436 50.0696 731.332 38.3785 732.201 27.8085Z" fill="#FFBE9D"/>
<path d="M743.966 69.2767C750.165 69.2664 756.232 67.6931 761.446 64.7432C761.446 64.7432 757.356 73.1943 744.036 72.1348L743.966 69.2767Z" fill="#EB996E"/>
<path d="M737.467 37.0485C737.467 37.4857 737.659 37.9059 738.004 38.2207C738.349 38.5355 738.819 38.7203 739.316 38.7363C739.558 38.753 739.802 38.7268 740.033 38.6592C740.264 38.5916 740.477 38.484 740.66 38.3428C740.843 38.2015 740.992 38.0295 741.098 37.8368C741.203 37.6441 741.264 37.4347 741.277 37.221C741.277 36.7838 741.084 36.3636 740.74 36.0488C740.395 35.734 739.925 35.5492 739.428 35.5332C739.185 35.5165 738.941 35.5427 738.71 35.6103C738.48 35.6778 738.266 35.7854 738.084 35.9267C737.901 36.068 737.752 36.24 737.646 36.4327C737.54 36.6254 737.479 36.8348 737.467 37.0485Z" fill="#263238"/>
<path d="M735.154 33.5494C735.392 33.7712 736.835 32.8226 738.88 32.8226C740.925 32.8226 742.438 33.7219 742.662 33.5001C742.886 33.2784 742.536 33.0197 741.877 32.6008C740.989 32.0599 739.933 31.7718 738.852 31.7754C737.785 31.777 736.746 32.0744 735.883 32.6255C735.252 33.0566 735 33.4509 735.154 33.5494Z" fill="#263238"/>
<path d="M757.202 37.8983C757.198 38.3343 757.388 38.7545 757.73 39.0696C758.073 39.3848 758.542 39.57 759.037 39.586C759.279 39.6011 759.522 39.5737 759.753 39.5055C759.983 39.4372 760.195 39.3295 760.377 39.1886C760.56 39.0476 760.709 38.8763 760.815 38.6844C760.922 38.4925 760.984 38.2839 760.998 38.0707C761.006 37.6326 760.818 37.2093 760.475 36.8915C760.132 36.5737 759.661 36.3867 759.163 36.3707C758.92 36.3556 758.676 36.3834 758.445 36.4524C758.214 36.5214 758.001 36.6302 757.818 36.7724C757.636 36.9147 757.487 37.0875 757.381 37.2808C757.276 37.4741 757.215 37.684 757.202 37.8983Z" fill="#263238"/>
<path d="M755.352 34.4498C755.576 34.6715 757.032 33.7229 759.077 33.7352C761.122 33.7476 762.635 34.6346 762.859 34.4128C763.083 34.1911 762.719 33.92 762.061 33.5012C761.175 32.9572 760.116 32.6727 759.035 32.6881C757.97 32.6827 756.929 32.9761 756.066 33.5258C755.45 33.957 755.226 34.3512 755.352 34.4498Z" fill="#263238"/>
<path d="M747.901 47.2486C746.819 46.9522 745.699 46.7743 744.567 46.7188C744.049 46.7188 743.559 46.5833 743.461 46.2753C743.416 45.7988 743.538 45.3215 743.811 44.9079L745.352 41.3968C747.495 36.3952 749.035 32.2805 748.811 32.2066C748.587 32.1327 746.654 36.1241 744.525 41.1258C744.007 42.3578 743.517 43.5897 743.041 44.6615C742.714 45.2193 742.62 45.86 742.774 46.4724C742.851 46.635 742.969 46.7797 743.12 46.8951C743.27 47.0106 743.449 47.0936 743.643 47.1377C743.929 47.2117 744.227 47.2491 744.525 47.2486C745.646 47.3741 746.78 47.3741 747.901 47.2486Z" fill="#263238"/>
<path d="M753.952 48.4812C753.616 48.4812 753.616 50.4277 751.711 51.8197C749.806 53.2118 747.439 53.0517 747.425 53.2734C747.411 53.4952 747.943 53.6553 748.952 53.68C750.257 53.6892 751.526 53.297 752.537 52.5712C753.506 51.8737 754.125 50.8695 754.26 49.7747C754.344 48.9616 754.106 48.4689 753.952 48.4812Z" fill="#263238"/>
<path d="M754.286 30.3593C754.483 30.8521 756.542 30.6427 758.937 30.926C761.332 31.2093 763.279 31.7884 763.615 31.3572C763.755 31.1478 763.419 30.6796 762.648 30.1992C761.607 29.6082 760.427 29.2334 759.196 29.1032C757.966 28.973 756.718 29.0908 755.547 29.4477C754.609 29.7433 754.202 30.1253 754.286 30.3593Z" fill="#263238"/>
<path d="M734.65 28.3393C735.042 28.7828 736.821 28.5117 738.852 28.6719C740.883 28.832 742.634 29.2879 743.054 28.906C743.25 28.7089 743.054 28.2777 742.298 27.8219C741.293 27.2451 740.134 26.9096 738.936 26.8486C737.746 26.7446 736.547 26.9233 735.462 27.366C734.776 27.7233 734.482 28.1175 734.65 28.3393Z" fill="#263238"/>
<path d="M776.139 39.9804C776.363 39.8942 785.299 37.5781 785.033 45.6104C784.767 53.6426 775.649 51.7701 775.635 51.5114C775.621 51.2527 776.139 39.9804 776.139 39.9804Z" fill="#FFBE9D"/>
<path d="M777.721 48.5424C777.721 48.5424 777.889 48.641 778.155 48.7642C778.532 48.8997 778.954 48.8997 779.332 48.7642C779.933 48.4516 780.429 48.0039 780.769 47.467C781.108 46.9301 781.28 46.3233 781.264 45.709C781.309 45.0192 781.18 44.3293 780.886 43.6886C780.809 43.4363 780.663 43.2045 780.46 43.0133C780.257 42.8222 780.004 42.6776 779.724 42.5922C779.542 42.545 779.348 42.5548 779.174 42.6201C779.001 42.6853 778.858 42.8017 778.771 42.9494C778.645 43.1712 778.701 43.3313 778.645 43.3437C778.589 43.356 778.463 43.2081 778.547 42.8755C778.602 42.68 778.731 42.5065 778.911 42.3827C779.171 42.2192 779.493 42.1527 779.808 42.1979C780.18 42.274 780.523 42.4329 780.805 42.6594C781.088 42.8859 781.299 43.1725 781.419 43.4915C781.789 44.1918 781.953 44.9629 781.895 45.7336C781.918 46.4508 781.7 47.158 781.266 47.7655C780.832 48.3731 780.202 48.8536 779.458 49.1461C779.218 49.1989 778.968 49.2042 778.726 49.1616C778.483 49.1189 778.255 49.0295 778.057 48.8997C777.735 48.7396 777.693 48.5548 777.721 48.5424Z" fill="#EB996E"/>
<path d="M770.144 16.1048L765.634 12.68L751.291 14.6142L741.206 12.3351L738.559 14.8852C739.693 16.228 737.284 10.4995 739.581 8.97189C744.526 5.67029 748.7 5.79349 754.989 5.69493C761.278 5.59638 773.828 12.2488 778.324 16.0186C781.924 19.0368 781.896 21.6362 781.896 21.6362C782.47 25.985 779.711 30.9128 778.618 35.1876C778.044 37.3804 776.951 44.0329 776.951 44.0329C774.85 44.0329 774.15 42.5669 774.388 40.7436L774.78 33.5861C772.676 32.128 771.171 30.1056 770.494 27.8265C769.816 25.5473 770.003 23.1358 771.026 20.9587C771.503 20.3181 772.665 17.3368 770.144 16.1048Z" fill="#263238"/>
<path d="M772.007 18.0267C771.52 16.9003 770.642 15.9373 769.498 15.2739C768.354 14.6106 767.002 14.2807 765.633 14.3309C762.89 14.4882 760.307 15.5274 758.378 17.2506C757.887 17.7151 757.337 18.1285 756.739 18.4825C756.439 18.6456 756.097 18.7401 755.745 18.7573C755.393 18.7745 755.041 18.7139 754.722 18.5811C754.526 18.4949 754.33 18.3594 754.12 18.4086C753.975 18.4609 753.856 18.557 753.784 18.6796C753.265 19.4184 752.536 20.0256 751.669 20.4413C751.232 20.6386 750.737 20.7103 750.252 20.6462C749.766 20.5821 749.317 20.3854 748.965 20.0841C748.464 20.4888 747.839 20.7561 747.167 20.8534C746.496 20.9507 745.807 20.8738 745.184 20.632C744.561 20.3902 744.032 19.994 743.662 19.4919C743.291 18.9898 743.094 18.4036 743.097 17.805C742.481 17.9171 741.841 17.8723 741.253 17.6759C740.665 17.4795 740.153 17.1397 739.777 16.6962C739.113 16.0348 738.624 15.252 738.346 14.4043C738.068 13.5567 738.007 12.6652 738.167 11.7943C738.328 10.9234 738.707 10.0947 739.276 9.36807C739.845 8.64141 740.59 8.03486 741.458 7.59218C742.835 6.97703 744.332 6.59666 745.87 6.47112C748.265 6.17593 750.679 6.01545 753.097 5.99067C754.162 5.93915 755.229 6.05171 756.249 6.32329C757.65 6.76679 758.798 7.76466 760.255 7.92481C761.209 7.96287 762.163 7.82871 763.056 7.53059C764.348 7.13886 765.711 6.96337 767.076 7.01318C769.751 7.22261 771.964 8.91037 773.729 10.709C775.062 11.8959 776.026 13.3634 776.531 14.9715C776.765 15.7789 776.721 16.6294 776.404 17.4147C776.087 18.2 775.512 18.8848 774.752 19.3819C774.444 19.5676 774.091 19.6868 773.721 19.7296C773.351 19.7724 772.975 19.7377 772.623 19.6282C772.452 19.5662 772.298 19.4752 772.167 19.3604C772.037 19.2457 771.934 19.1094 771.864 18.9595C771.793 18.8095 771.757 18.6489 771.758 18.4867C771.758 18.3245 771.795 18.164 771.866 18.0144" fill="#263238"/>
<path d="M778.324 36.4073C779.305 30.2476 778.128 22.856 773.044 17.5956C767.959 12.3352 758.967 9.11983 753.014 10.1177C748.378 10.8938 738.293 11.2141 734.609 19.7515L735.128 12.7048C735.128 12.7048 739.61 4.69717 752.846 4.94356C766.082 5.18995 771.853 6.54508 778.254 13.3947C780.388 15.4821 781.852 18.0317 782.494 20.7814C783.137 23.5312 782.935 26.3819 781.91 29.0403C780.986 31.5913 779.785 34.0583 778.324 36.4073Z" fill="#ED9B59"/>
<path d="M741.864 6.68044C742.033 6.647 742.197 6.59743 742.354 6.53261C742.662 6.43406 743.11 6.26158 743.755 6.08911C745.441 5.55404 747.174 5.142 748.937 4.85717C751.547 4.47399 754.195 4.3377 756.837 4.45063C760.07 4.58349 763.262 5.14416 766.306 6.11375C769.346 7.12897 772.183 8.56367 774.71 10.3639C775.805 11.1491 776.813 12.0235 777.721 12.9757C778.169 13.4068 778.534 13.8627 778.912 14.2938C779.29 14.725 779.612 15.1562 779.892 15.5874C780.827 16.9269 781.615 18.3418 782.245 19.8129C782.483 20.318 782.623 20.7369 782.735 21.0449C782.781 21.191 782.847 21.3317 782.932 21.4637L782.806 21.0325C782.694 20.7492 782.581 20.3303 782.357 19.8006C781.773 18.306 781.012 16.8692 780.088 15.5134C779.808 15.0823 779.458 14.6511 779.122 14.1953C778.786 13.7395 778.379 13.2836 777.931 12.8401C777.01 11.8788 775.993 10.9923 774.892 10.1915C772.373 8.36503 769.535 6.90896 766.488 5.87968C763.415 4.89746 760.188 4.34057 756.921 4.22888C754.258 4.11483 751.588 4.27191 748.965 4.69701C747.2 4.97464 745.466 5.38684 743.783 5.92895C743.181 6.12607 742.746 6.32318 742.382 6.43405L741.864 6.68044Z" fill="#263238"/>
<path d="M777.441 26.0969C777.586 26.0629 777.723 26.0089 777.848 25.9368C778.198 25.7467 778.53 25.5325 778.842 25.2962C779.875 24.5078 780.666 23.503 781.141 22.3747C781.616 21.2464 781.76 20.031 781.559 18.8408C781.496 18.4849 781.398 18.1345 781.265 17.7937C781.167 17.5473 781.097 17.4241 781.083 17.4364C781.069 17.4487 781.237 17.9784 781.335 18.8654C781.46 20.0208 781.292 21.1861 780.845 22.2779C780.38 23.3648 779.642 24.3458 778.688 25.1483C777.96 25.7643 777.413 26.06 777.441 26.0969Z" fill="#263238"/>
<path d="M773.575 19.0497C774.012 18.8819 774.404 18.6341 774.724 18.3229C775.556 17.6076 776.185 16.7297 776.559 15.7605C776.946 14.7922 777.038 13.7514 776.825 12.7422C776.773 12.3072 776.615 11.8871 776.363 11.5103C776.363 11.5103 776.489 11.9784 776.615 12.7422C776.744 13.7181 776.624 14.7071 776.264 15.6373C775.895 16.5509 775.318 17.3891 774.57 18.1011C773.995 18.7418 773.547 19.0128 773.575 19.0497Z" fill="#263238"/>
<path d="M767.313 13.9123C767.673 13.7672 768 13.567 768.28 13.321C768.999 12.7588 769.597 12.0869 770.044 11.3376C770.484 10.5708 770.737 9.73153 770.787 8.87369C770.838 8.52654 770.805 8.17377 770.689 7.83887C770.618 8.99248 770.305 10.1245 769.764 11.1774C769.095 12.1843 768.27 13.1046 767.313 13.9123Z" fill="#263238"/>
<path d="M761.278 4.82129C761.03 5.04459 760.835 5.30825 760.703 5.59742C760.312 6.25496 760.007 6.94924 759.793 7.66708C759.584 8.3889 759.462 9.12801 759.429 9.87225C759.397 10.1822 759.425 10.4947 759.513 10.7962C759.611 10.7962 759.611 9.39179 760.101 7.74099C760.591 6.09019 761.362 4.85825 761.278 4.82129Z" fill="#263238"/>
<path d="M749.652 4.62402C749.434 4.86771 749.276 5.14889 749.189 5.44942C748.927 6.16034 748.817 6.90829 748.867 7.6546C748.91 8.4004 749.115 9.13214 749.47 9.81049C749.592 10.104 749.788 10.3694 750.044 10.5866C749.583 9.6506 749.29 8.65733 749.175 7.64227C749.162 6.62089 749.322 5.60346 749.652 4.62402Z" fill="#263238"/>
<path d="M742.185 6.47168C741.92 6.71368 741.711 6.99806 741.569 7.3094C741.182 8.05322 740.968 8.8573 740.938 9.67472C740.911 10.4887 741.078 11.2988 741.429 12.0524C741.545 12.3747 741.736 12.6724 741.989 12.927C741.529 11.8894 741.283 10.7882 741.26 9.67472C741.349 8.56707 741.662 7.48227 742.185 6.47168Z" fill="#263238"/>
<path d="M735.001 12.0034C734.881 12.2521 734.828 12.5221 734.847 12.7919C734.794 14.1093 735.293 15.398 736.248 16.4138C736.626 16.7957 736.92 16.9681 736.934 16.9435C736.329 16.2284 735.825 15.4505 735.435 14.6275C735.166 13.7724 735.02 12.8907 735.001 12.0034Z" fill="#263238"/>
<path d="M731.373 18.8898C731.374 19.5751 731.63 20.2414 732.101 20.787C732.481 21.3822 733.078 21.8469 733.796 22.1051C733.295 21.6385 732.827 21.1448 732.395 20.6268C731.681 19.8014 731.471 18.8775 731.373 18.8898Z" fill="#263238"/>
<path d="M730.882 26.6385C730.812 26.6385 730.882 27.1189 731.372 27.4885C731.862 27.8581 732.381 27.895 732.381 27.8211C732.381 27.7472 731.974 27.5994 731.582 27.2791C731.19 26.9588 730.98 26.6138 730.882 26.6385Z" fill="#263238"/>
<path d="M778.422 33.0323C779.462 32.9047 780.455 32.5669 781.323 32.0454C782.19 31.5239 782.909 30.8329 783.422 30.0264C782.075 31.3878 780.353 32.4227 778.422 33.0323Z" fill="#263238"/>
<path d="M777.653 36.9126C777.653 36.9742 778.101 37.3807 778.913 37.4177C779.726 37.4547 780.314 37.1097 780.23 37.0481C780.146 36.9865 779.642 37.1836 778.927 37.1344C778.213 37.0851 777.695 36.851 777.653 36.9126Z" fill="#263238"/>
<g opacity="0.3">
<path d="M742.958 6.41052C745.82 4.75849 749.031 3.62914 752.4 3.0895C755.768 2.54986 759.226 2.61093 762.567 3.26908C765.937 4.02625 769.103 5.36468 771.88 7.20669C774.657 9.0487 776.99 11.3576 778.745 13.9993C778.745 13.9993 770.495 4.82132 758.673 4.50102C746.851 4.18071 742.958 6.41052 742.958 6.41052Z" fill="black"/>
</g>
<path d="M752.09 37.344C752.145 36.8591 752.233 36.3777 752.356 35.9026C752.748 34.6129 753.621 33.4763 754.835 32.6749C755.66 32.1262 756.62 31.7549 757.637 31.5908C758.809 31.4031 760.018 31.4923 761.138 31.8495C762.372 32.249 763.444 32.9605 764.22 33.8945C765.056 34.8965 765.507 36.1071 765.507 37.3501C765.507 38.5931 765.056 39.8037 764.22 40.8057C763.444 41.7397 762.372 42.4512 761.138 42.8507C760.09 43.1857 758.964 43.2856 757.861 43.1415C756.758 42.9974 755.713 42.6138 754.821 42.0253C753.61 41.2219 752.737 40.0861 752.342 38.7976C752.218 38.3187 752.129 37.8331 752.076 37.344C752.036 37.8408 752.088 38.34 752.23 38.8223C752.581 40.1587 753.447 41.3471 754.681 42.1855C755.539 42.7595 756.536 43.1516 757.595 43.3312C758.811 43.5418 760.071 43.4566 761.236 43.0848C761.87 42.8913 762.465 42.6129 763.001 42.2594C763.56 41.9174 764.056 41.5019 764.472 41.0275C765.353 39.9813 765.829 38.7137 765.829 37.4117C765.829 36.1097 765.353 34.8421 764.472 33.796C764.062 33.2996 763.566 32.8631 763.001 32.5024C762.465 32.1489 761.87 31.8705 761.236 31.677C760.147 31.3262 758.973 31.2247 757.827 31.382C756.68 31.5393 755.598 31.9503 754.681 32.5763C753.447 33.4148 752.581 34.6031 752.23 35.9396C752.101 36.3985 752.054 36.8723 752.09 37.344Z" fill="#D5F0F0"/>
<path d="M731.752 36.6414C731.752 36.6414 731.752 36.1117 732.032 35.2C732.425 33.9104 733.298 32.7738 734.512 31.9723C735.335 31.4212 736.295 31.0497 737.313 30.8882C738.486 30.7005 739.694 30.7898 740.815 31.1469C741.416 31.3402 741.983 31.61 742.495 31.9477C743.327 32.4936 744.003 33.2027 744.468 34.0186C744.933 34.8346 745.175 35.7348 745.175 36.6476C745.175 37.5603 744.933 38.4605 744.468 39.2765C744.003 40.0924 743.327 40.8015 742.495 41.3474C741.983 41.6851 741.416 41.9549 740.815 42.1482C739.767 42.4831 738.64 42.5831 737.537 42.4389C736.434 42.2948 735.39 41.9112 734.498 41.3228C733.286 40.5193 732.414 39.3836 732.018 38.0951C731.752 37.1834 731.794 36.6414 731.738 36.6414C731.708 37.1381 731.76 37.6361 731.892 38.1197C732.255 39.4547 733.125 40.641 734.358 41.4829C735.215 42.0569 736.212 42.449 737.271 42.6286C738.488 42.8392 739.747 42.754 740.913 42.3822C741.544 42.1862 742.139 41.9079 742.677 41.5568C743.413 41.084 744.036 40.4877 744.508 39.8024C744.981 39.117 745.295 38.3562 745.431 37.5637C745.568 36.7712 745.525 35.9628 745.305 35.1849C745.085 34.4071 744.691 33.6754 744.148 33.0318C743.334 32.058 742.207 31.3202 740.913 30.9129C739.823 30.5621 738.65 30.4606 737.503 30.6179C736.356 30.7752 735.274 31.1861 734.358 31.8122C733.125 32.6541 732.255 33.8404 731.892 35.1754C731.765 35.6554 731.718 36.1493 731.752 36.6414Z" fill="#D5F0F0"/>
<path d="M745.128 34.3624C745.128 34.3624 745.52 34.1283 746.192 33.845C747.072 33.4547 748.053 33.2754 749.037 33.3252C750.021 33.3749 750.972 33.652 751.795 34.1283C752.439 34.4856 752.762 34.7936 752.79 34.7566C752.578 34.4349 752.28 34.164 751.921 33.9682C751.108 33.4316 750.134 33.1148 749.12 33.0565C748.092 33.0081 747.071 33.222 746.178 33.6725C745.771 33.8261 745.411 34.0626 745.128 34.3624Z" fill="#D5F0F0"/>
<path d="M765.227 36.2344C765.227 36.3083 767.931 37.1214 771.334 38.0577C774.738 38.994 777.511 39.6715 777.525 39.61C777.539 39.5484 774.822 38.723 771.432 37.7867C768.043 36.8504 765.255 36.1605 765.227 36.2344Z" fill="#D5F0F0"/>
<path d="M759.135 42.3078C759.538 42.3351 759.943 42.289 760.325 42.1723C761.258 41.9381 762.117 41.5163 762.833 40.9404C763.552 40.353 764.108 39.628 764.457 38.8214C764.621 38.4957 764.702 38.1426 764.696 37.7866C764.526 38.0994 764.376 38.4202 764.247 38.7475C763.438 40.2487 761.989 41.4085 760.213 41.9752C759.847 42.0692 759.487 42.1802 759.135 42.3078Z" fill="white"/>
<path d="M742.466 40.3506C742.466 40.3506 742.9 40.2767 743.376 39.8209C743.955 39.2195 744.337 38.4915 744.483 37.7143C744.664 36.9463 744.664 36.1539 744.483 35.3859C744.43 35.0654 744.28 34.7634 744.049 34.5112C744.049 34.5112 744.161 34.8562 744.273 35.4352C744.404 36.174 744.404 36.9262 744.273 37.665C744.129 38.398 743.799 39.093 743.306 39.6977C743.045 39.9338 742.764 40.152 742.466 40.3506Z" fill="white"/>
<path d="M752.314 48.8998C752.314 48.8382 752.118 48.5302 751.726 48.1976C751.334 47.865 750.998 47.6309 750.928 47.6925C750.858 47.7541 751.124 48.0621 751.516 48.3947C751.908 48.7273 752.244 48.9491 752.314 48.8998Z" fill="#263238"/>
<path d="M751.333 49.4292C751.333 49.4292 751.136 48.998 750.758 48.5792C750.38 48.1603 750.016 47.84 749.96 47.8893C749.904 47.9386 750.142 48.3205 750.52 48.7393C750.898 49.1582 751.263 49.4785 751.333 49.4292Z" fill="#263238"/>
<path d="M750.323 50.0823C750.407 50.0823 750.239 49.6511 749.973 49.1953C749.706 48.7394 749.412 48.4068 749.328 48.4315C749.244 48.4561 749.412 48.875 749.692 49.3308C749.973 49.7866 750.253 50.1192 750.323 50.0823Z" fill="#263238"/>
<path d="M748.798 50.0936C748.882 50.0936 748.924 49.8103 748.896 49.4777C748.868 49.145 748.77 48.874 748.686 48.874C748.602 48.874 748.56 49.1574 748.588 49.49C748.616 49.8226 748.7 50.0936 748.798 50.0936Z" fill="#263238"/>
<path d="M747.326 50.3044C747.424 50.3044 747.494 50.0581 747.494 49.7624C747.494 49.4667 747.424 49.208 747.326 49.208C747.228 49.208 747.172 49.4544 747.172 49.7624C747.172 50.0704 747.242 50.3044 747.326 50.3044Z" fill="#263238"/>
<path d="M745.953 50.4148C746.037 50.4148 746.191 50.1314 746.303 49.7372C746.415 49.343 746.415 48.998 746.303 48.9857C746.191 48.9734 746.065 49.2814 745.966 49.6756C745.868 50.0698 745.868 50.4024 745.953 50.4148Z" fill="#263238"/>
<path d="M777.525 51.8327C777.461 52.3171 777.606 52.8052 777.931 53.2001C778.09 53.4341 778.306 53.6347 778.562 53.7879C778.819 53.9411 779.11 54.0432 779.416 54.0871C779.795 54.1311 780.181 54.0832 780.531 53.9486C780.882 53.814 781.184 53.5978 781.405 53.3233C781.623 53.0551 781.777 52.7511 781.859 52.4295C781.941 52.1078 781.948 51.775 781.881 51.4508C781.738 50.9216 781.373 50.4595 780.859 50.1572C780.641 50.0081 780.39 49.9013 780.122 49.8439C779.854 49.7866 779.575 49.78 779.304 49.8246C779.806 49.8989 780.283 50.0669 780.705 50.3174C781.154 50.6218 781.463 51.0596 781.573 51.5493C781.67 52.1337 781.51 52.7286 781.125 53.2124C780.933 53.4468 780.673 53.632 780.373 53.7489C780.073 53.8658 779.742 53.9103 779.416 53.8777C779.149 53.8448 778.893 53.7618 778.666 53.6343C778.439 53.5067 778.246 53.3376 778.099 53.1385C777.815 52.7394 777.62 52.2961 777.525 51.8327Z" fill="#263238"/>
<path d="M752.178 351.311L746.272 390.556L692.249 388.352C693.196 383.693 724.621 375.707 724.621 375.707L727.836 349.317L752.178 351.311Z" fill="#ED9B59"/>
<g opacity="0.6">
<path d="M739.398 374.005C739.898 374.172 740.298 374.503 740.523 374.937C740.748 375.37 740.782 375.875 740.617 376.356C740.411 376.825 740.019 377.219 739.522 377.457C739.025 377.696 738.459 377.761 737.941 377.639C737.414 377.461 736.992 377.109 736.759 376.649C736.525 376.189 736.496 375.654 736.676 375.148C736.942 374.676 737.393 374.3 737.934 374.1C738.475 373.901 739.066 373.892 739.583 374.075" fill="white"/>
</g>
<g opacity="0.6">
<path d="M746.273 390.556L746.651 386.547L694.714 385.92C694.714 385.92 692.17 386.746 692.238 388.317L746.273 390.556Z" fill="white"/>
</g>
<path d="M723.75 376.107C723.725 376.349 725.032 376.52 726.225 377.337C727.419 378.155 727.976 379.191 728.269 379.096C728.562 379.001 728.319 377.616 726.84 376.646C725.362 375.675 723.725 375.895 723.75 376.107Z" fill="#263238"/>
<path d="M716.381 378.045C716.278 378.272 717.367 378.722 718.133 379.769C718.9 380.815 719.004 381.908 719.267 381.9C719.53 381.893 719.891 380.558 718.914 379.269C717.936 377.981 716.409 377.815 716.381 378.045Z" fill="#263238"/>
<path d="M712.486 383.831C712.711 383.887 713.24 382.705 712.736 381.379C712.232 380.054 711.071 379.472 710.94 379.657C710.809 379.842 711.463 380.588 711.864 381.688C712.266 382.788 712.225 383.799 712.486 383.831Z" fill="#263238"/>
<path d="M725.044 369.574C725.117 369.797 726.38 369.516 727.859 369.671C729.338 369.825 730.447 370.294 730.611 370.073C730.774 369.851 729.768 368.973 728.023 368.815C726.278 368.656 724.953 369.384 725.044 369.574Z" fill="#263238"/>
<path d="M800.277 212.357C798.665 212.88 751.883 295.415 753.256 299.645C754.629 303.875 758.676 350.006 756.051 358.162C753.427 366.319 750.06 365.702 750.06 365.702L724.988 363.815C724.988 363.815 715.566 293.047 715.819 284.662C716.072 276.278 747.658 200.734 747.658 200.734L798.225 193.193L800.277 212.357Z" fill="#53A3C6"/>
<path d="M737.689 289.66C738.141 290.418 738.72 291.103 739.408 291.692C740.954 293.214 742.664 294.593 744.515 295.811C746.357 297.053 748.356 298.102 750.479 298.94C751.337 299.338 752.28 299.585 753.263 299.668C752.449 299.236 751.602 298.854 750.726 298.523C748.706 297.554 746.777 296.448 744.955 295.215C740.674 292.46 737.854 289.49 737.689 289.66Z" fill="#D5F0F0"/>
<path d="M885.433 385.071L887.604 366.112L869.62 346.191L891.666 333.724L892.254 334.488L903.46 349.37L918.013 359.472L894.902 392.87L872.393 391.539C872.393 391.539 874.41 386.919 885.433 385.071Z" fill="#ED9B59"/>
<g opacity="0.6">
<path d="M918.041 359.472L894.929 392.87L872.421 391.54L875.18 388.718L893.557 388.916L914.945 357.329L918.041 359.472Z" fill="white"/>
</g>
<path d="M886.273 376.375C886.413 376.584 887.772 376.018 889.509 376.165C891.246 376.313 892.478 377.016 892.66 376.831C892.842 376.646 891.708 375.439 889.579 375.291C887.45 375.143 886.049 376.215 886.273 376.375Z" fill="#263238"/>
<path d="M886.96 371.68C887.184 371.84 888.276 370.732 890.083 370.534C891.89 370.337 893.291 371.138 893.445 370.941C893.599 370.744 893.291 370.51 892.688 370.165C891.87 369.728 890.906 369.549 889.957 369.66C889.006 369.768 888.127 370.16 887.464 370.769C886.988 371.237 886.862 371.619 886.96 371.68Z" fill="#263238"/>
<path d="M887.282 365.619C887.52 365.755 888.374 364.646 889.971 364.264C891.568 363.882 892.955 364.412 893.081 364.202C893.207 363.993 892.885 363.808 892.282 363.574C891.468 363.27 890.561 363.217 889.708 363.426C888.856 363.634 888.109 364.09 887.59 364.72C887.212 365.2 887.17 365.57 887.282 365.619Z" fill="#263238"/>
<path d="M881.608 360.58C881.874 360.679 882.589 359.582 884.045 358.88C885.502 358.178 886.847 358.129 886.945 357.882C887.043 357.636 885.32 357.217 883.555 358.116C881.79 359.016 881.342 360.531 881.608 360.58Z" fill="#263238"/>
<path d="M878.989 356.342C879.102 356.416 879.9 355.664 881.104 354.383C881.791 353.644 882.505 352.893 883.191 352.116C883.668 351.664 884.06 351.149 884.354 350.589C884.451 350.395 884.502 350.185 884.502 349.973C884.502 349.761 884.451 349.551 884.354 349.357C884.24 349.139 884.055 348.956 883.824 348.829C883.593 348.702 883.324 348.637 883.051 348.642C882.246 348.73 881.488 349.021 880.866 349.48C879.366 350.478 878.342 351.932 877.995 353.558C877.694 354.47 877.805 355.45 878.303 356.293C878.376 355.421 878.502 354.553 878.681 353.693C878.952 352.796 879.429 351.958 880.082 351.229C880.465 350.815 880.908 350.447 881.399 350.133C881.867 349.803 882.42 349.579 883.009 349.48C883.095 349.475 883.181 349.491 883.256 349.529C883.33 349.566 883.391 349.622 883.43 349.69C883.5 349.869 883.5 350.064 883.43 350.244C883.167 350.722 882.838 351.168 882.449 351.574C881.805 352.388 881.161 353.176 880.53 353.952C879.867 354.667 879.346 355.475 878.989 356.342Z" fill="#263238"/>
<g opacity="0.6">
<path d="M900.124 357.821C900.089 358.287 900.212 358.752 900.478 359.157C900.744 359.561 901.14 359.887 901.618 360.092C902.095 360.297 902.63 360.373 903.157 360.31C903.683 360.246 904.176 360.047 904.572 359.736C904.969 359.426 905.252 359.018 905.384 358.566C905.517 358.114 905.493 357.637 905.317 357.196C905.14 356.756 904.819 356.371 904.393 356.092C903.967 355.813 903.456 355.651 902.926 355.628C902.225 355.598 901.539 355.811 901.015 356.221C900.491 356.631 900.171 357.206 900.124 357.821Z" fill="white"/>
</g>
<path d="M822.235 200.896L836.774 279.863C836.774 279.863 882.254 319.914 885.083 324.373C885.083 324.373 890.153 322.883 891.848 326.837C893.2 330.558 894.254 334.357 895 338.208L872.421 354.889C872.421 354.889 812.766 311.389 807.122 304.933C801.477 298.478 777.834 255.914 773.309 244.999C768.785 234.084 763.505 209.877 763.505 209.877L822.235 200.896Z" fill="#53A3C6"/>
<path d="M828.623 285.333C830.409 285.225 832.1 284.582 833.413 283.51C834.861 282.608 835.926 281.308 836.438 279.814C835.352 280.955 834.187 282.037 832.951 283.054C831.563 283.891 830.117 284.652 828.623 285.333Z" fill="#D5F0F0"/>
<path d="M875.558 334.685C877.839 333.663 879.809 332.176 881.302 330.348C882.796 328.52 883.771 326.404 884.144 324.177C883.198 326.195 882.045 328.133 880.699 329.967C879.162 331.681 877.44 333.262 875.558 334.685Z" fill="#D5F0F0"/>
<path d="M803.464 212.576C803.51 212.883 803.609 213.182 803.758 213.463C804.088 214.25 804.481 215.016 804.935 215.754C807.952 220.693 812.73 224.623 818.535 226.94C819.402 227.292 820.296 227.588 821.21 227.827C821.535 227.947 821.881 228.013 822.233 228.024C822.233 227.913 820.832 227.482 818.759 226.534C816.007 225.289 813.462 223.718 811.196 221.864C808.941 219.995 806.985 217.865 805.383 215.532C804.164 213.734 803.632 212.526 803.464 212.576Z" fill="#D5F0F0"/>
<path d="M767.805 232.755C768.011 233.444 768.273 234.119 768.589 234.775C769.206 236.155 769.99 237.978 770.985 240.196C773.058 244.742 775.971 251.025 779.459 257.862C782.946 264.699 786.35 270.797 788.843 275.183L791.841 280.357C792.182 281.003 792.58 281.625 793.031 282.217C792.774 281.541 792.46 280.882 792.093 280.246L789.291 274.986C786.91 270.539 783.591 264.428 780.117 257.603C776.643 250.778 773.646 244.532 771.461 240.011C770.382 237.843 769.5 236.044 768.842 234.677C768.552 234.014 768.206 233.371 767.805 232.755Z" fill="#D5F0F0"/>
<path d="M780.075 72.6523C780.075 72.6523 795.482 78.1098 799.054 87.6327C800.875 92.4496 811.492 127.671 811.492 127.671C811.492 127.671 825.498 195.304 823.566 201.747L743.405 212.576C741.42 210.461 740.419 207.762 740.604 205.024L741.906 184.759L740.968 97.8948C740.956 97.2473 741.007 96.6002 741.122 95.9606L743.923 79.9454L743.027 73.0342L778.954 64.6816L780.075 72.6523Z" fill="#ED9B59"/>
<path d="M782.232 67.207C782.135 66.6676 781.91 66.152 781.573 65.6937C781.235 65.2353 780.792 64.8443 780.272 64.546C779.752 64.2476 779.166 64.0485 778.553 63.9615C777.94 63.8745 777.313 63.9016 776.713 64.0409L743.867 71.6666C742.879 71.8972 742.011 72.4198 741.409 73.1466C740.807 73.8734 740.508 74.7602 740.562 75.6581L740.646 76.89C740.686 77.4808 740.878 78.0559 741.208 78.5717C741.538 79.0876 741.996 79.5308 742.55 79.8678C743.103 80.2048 743.736 80.4268 744.401 80.5171C745.066 80.6073 745.746 80.5634 746.388 80.3887L779.15 71.5434C780.172 71.2696 781.048 70.6797 781.614 69.8826C782.18 69.0856 782.4 68.1352 782.232 67.207Z" fill="#ED9B59"/>
<path d="M743.404 80.0429C743.983 79.9989 744.556 79.9039 745.113 79.7596L749.665 78.7494C753.517 77.8624 758.812 76.6058 764.638 75.1768L772.454 73.2303C773.436 73.0956 774.405 72.898 775.353 72.639C775.805 72.5131 776.242 72.348 776.656 72.1462C776.881 72.0455 777.084 71.9123 777.258 71.752C777.409 71.5871 777.54 71.4097 777.651 71.2223C777.987 70.5447 778.094 69.7961 777.959 69.0664C777.866 68.4605 777.682 67.8681 777.412 67.3047C777.048 66.5134 776.537 65.7807 775.9 65.1365C775.438 64.7053 775.129 64.5328 775.115 64.5575C775.932 65.4183 776.581 66.3925 777.034 67.4402C777.575 68.5732 777.615 69.843 777.146 71.0005C776.838 71.6165 776.026 71.8506 775.157 72.1093C774.24 72.3487 773.304 72.5258 772.356 72.639L764.526 74.5362C758.699 75.9652 753.419 77.2957 749.609 78.232L745.113 79.4639C744.524 79.6083 743.951 79.8022 743.404 80.0429Z" fill="#263238"/>
<path d="M743.083 84.9707C743.006 85.1781 742.959 85.3934 742.943 85.6113C742.873 86.1041 742.789 86.7078 742.691 87.4469C742.495 89.0484 742.243 91.3645 742.005 94.2349C741.486 99.9757 740.968 107.909 740.674 116.681C740.38 125.452 740.408 133.411 740.674 139.164C740.772 142.034 740.912 144.363 741.038 145.964C741.108 146.716 741.178 147.319 741.22 147.812C741.22 148.029 741.258 148.245 741.332 148.453C741.363 148.24 741.363 148.025 741.332 147.812C741.332 147.307 741.332 146.703 741.332 145.952C741.332 144.35 741.22 142.022 741.192 139.151C741.094 133.411 741.192 125.465 741.444 116.693C741.696 107.922 742.173 100 742.551 94.2719C742.747 91.463 742.901 89.1716 743.027 87.4715C743.027 86.7324 743.097 86.1164 743.125 85.6236C743.139 85.4053 743.125 85.1863 743.083 84.9707Z" fill="#263238"/>
<path d="M766.389 66.873C766.93 68.0316 767.366 69.2262 767.692 70.4457C767.793 71.676 767.793 72.9112 767.692 74.1415C768.104 73.578 768.381 72.9465 768.506 72.2857C768.631 71.6248 768.602 70.9484 768.42 70.2978C768.356 69.6371 768.144 68.994 767.795 68.406C767.447 67.8181 766.969 67.297 766.389 66.873Z" fill="#263238"/>
<path d="M757.062 68.7578C756.992 68.7578 756.656 69.1028 756.376 69.8173C756.036 70.7697 755.973 71.782 756.193 72.7614C756.413 73.7408 756.91 74.6558 757.636 75.4226C758.197 75.9893 758.673 76.2234 758.729 76.1618C757.915 75.079 757.3 73.8899 756.908 72.6384C756.738 71.3454 756.79 70.0372 757.062 68.7578Z" fill="#263238"/>
<path d="M747.971 70.9761C747.901 70.9761 747.523 71.2717 747.187 71.9616C746.75 72.8792 746.614 73.8862 746.795 74.8683C746.975 75.8503 747.465 76.7682 748.209 77.5177C748.784 78.0844 749.26 78.2938 749.316 78.2322C748.36 77.2463 747.725 76.0514 747.478 74.7739C747.232 73.4965 747.383 72.1842 747.915 70.9761H747.971Z" fill="#263238"/>
<path d="M752.706 90.526C755.731 82.6663 763.071 75.8043 772.315 74.1905C781.56 72.5767 790.244 74.3014 796.841 81.0647L805.245 96.772C801.519 94.9487 795.552 84.2924 788.605 80.6705C781.658 77.0486 773.926 76.9747 768.211 82.0133C764.009 85.7092 760.858 91.0804 760.956 96.3531C761.152 106.677 766.04 116.36 769.598 126.215C774.164 138.855 777.778 152.332 788.325 161.831C796.799 169.456 808.144 174.002 819.14 178.376C821.745 180.261 827.768 187.11 824.658 188.231C821.549 189.352 810.245 185.767 807.038 184.893C799.04 182.749 790.734 180.445 784.627 175.394C779.024 170.701 775.915 164.159 773.002 157.827C767.399 145.606 763.729 132.868 758.112 120.635C753.35 110.225 748.616 101.17 752.706 90.526Z" fill="#D5F0F0"/>
<path d="M798.899 223.848L802.613 213.032L824.956 213.831C824.956 213.831 827.926 230.329 825.345 231.518C824.565 231.86 823.721 232.05 822.874 232.074C822.026 232.099 821.195 231.957 820.438 231.66C820.438 231.66 820.024 236.285 816.987 237.29L815.288 237.822C814.836 238.352 812.232 241.192 809.437 241.15C809.437 241.15 808.274 246.334 806.225 246.373C804.176 246.411 801.465 241.271 801.465 241.271L798.899 223.848Z" fill="#FFBE9D"/>
<path d="M780.364 80.0896C784.177 80.2298 787.822 81.2542 790.945 83.0636C794.067 84.8729 796.56 87.4057 798.182 90.4158C806.823 106.428 828.508 148.611 829.806 155.023C831.454 163.177 826.804 215.363 826.804 215.363L800.723 215.438L797.428 158.928C797.428 158.928 766.754 113.453 763.361 106.2C759.644 98.2806 763.462 79.5169 780.364 80.0896Z" fill="#ED9B59"/>
<path d="M780.436 79.6739C779.761 79.6238 779.081 79.6145 778.399 79.6459C776.4 79.6982 774.411 80.1356 772.565 80.9285C769.604 82.2644 767.148 84.3998 765.567 87.0124C762.25 92.6338 761.263 99.0152 762.792 104.961C763.135 106.128 763.616 107.252 764.227 108.313C764.817 109.431 765.474 110.53 766.117 111.633C768.746 116.03 771.804 120.734 775.05 125.705C781.556 135.644 788.991 146.725 797.148 158.658L797.113 158.527L800.381 215.045L800.454 215.318L800.774 215.322L813 215.273L826.909 215.231L827.27 215.224L827.288 214.913C828.289 204.199 829.148 193.766 829.819 183.715C830.141 178.693 830.444 173.765 830.615 168.936C830.695 166.53 830.782 164.147 830.774 161.79C830.792 160.612 830.752 159.436 830.702 158.276C830.636 157.118 830.479 155.972 830.232 154.844C829.58 152.678 828.775 150.56 827.822 148.5C826.916 146.473 826.02 144.481 825.089 142.524C823.259 138.614 821.399 134.866 819.601 131.241C815.992 123.994 812.546 117.303 809.394 111.223L800.816 94.8491C799.708 92.5652 798.455 90.3462 797.063 88.2024C795.79 86.4669 794.224 84.9267 792.416 83.6317C789.914 81.8392 786.961 80.5959 783.77 79.9923C782.669 79.7641 781.537 79.6399 780.393 79.6217C780.393 79.6217 780.682 79.6718 781.247 79.7244C782.085 79.7984 782.912 79.9218 783.724 80.0937C786.868 80.7379 789.771 82.002 792.228 83.7968C793.998 85.092 795.532 86.623 796.781 88.3417C798.132 90.4749 799.356 92.6756 800.447 94.9351C802.945 99.763 805.782 105.265 808.934 111.346C812.086 117.427 815.47 124.159 819.049 131.401C820.834 135.03 822.667 138.786 824.497 142.695C825.425 144.641 826.321 146.632 827.213 148.664C828.138 150.698 828.925 152.786 829.571 154.919C829.776 156.03 829.894 157.158 829.924 158.293C829.987 159.45 830.007 160.605 829.989 161.783C830.007 164.125 829.907 166.511 829.824 168.906C829.663 173.719 829.333 178.654 829.008 183.664C828.32 193.707 827.461 204.141 826.46 214.854L826.839 214.536L812.932 214.589L800.704 214.626L801.043 214.918C799.865 194.827 798.729 175.707 797.721 158.415L797.702 158.344L797.683 158.272C789.513 146.343 782.043 135.297 775.5 125.38C772.243 120.424 769.195 115.757 766.522 111.359C765.155 109.305 764.039 107.117 763.192 104.828C761.674 98.9696 762.604 92.681 765.812 87.1127C767.347 84.5372 769.74 82.4205 772.633 81.0759C774.451 80.2729 776.413 79.8124 778.391 79.7246C778.894 79.6833 779.399 79.6675 779.901 79.6772C780.078 79.6848 780.257 79.6838 780.436 79.6739Z" fill="#263238"/>
<path d="M797.386 156.788C800.601 153.301 804.852 150.691 809.589 149.297C807.088 149.592 804.666 150.43 802.538 151.736C800.41 153.042 798.64 154.777 797.386 156.788Z" fill="#263238"/>
<g opacity="0.3">
<path d="M771.469 123.111C774.064 142.248 784.915 161.726 800.466 167.692C792.695 162.562 788.011 155.443 783.906 147.006C779.801 138.568 776.138 129.721 769.997 122.775" fill="black"/>
</g>
<path d="M951.882 421.514C961.496 418.937 974.736 410.213 974.736 410.213L969.56 390.895C962.315 392.836 957.442 391.554 952.569 390.271C947.697 388.989 942.824 387.706 935.579 389.647C927.067 391.928 909.663 399.18 912.898 411.254C916.134 423.328 937.393 425.396 951.882 421.514ZM991.467 395.378C990.039 390.05 984.547 386.879 979.219 388.307L974.39 389.601L979.566 408.919L984.396 407.625C989.723 406.198 992.894 400.705 991.467 395.378Z" fill="white"/>
<path d="M1124.55 421.514C1134.16 418.937 1147.4 410.213 1147.4 410.213L1142.23 390.895C1134.98 392.836 1130.11 391.554 1125.23 390.271C1120.36 388.989 1115.49 387.706 1108.24 389.647C1099.73 391.928 1082.33 399.18 1085.56 411.254C1088.8 423.328 1110.06 425.396 1124.55 421.514ZM1164.13 395.378C1162.7 390.05 1157.21 386.879 1151.88 388.307L1147.05 389.601L1152.23 408.919L1157.06 407.625C1162.39 406.198 1165.56 400.705 1164.13 395.378Z" fill="white"/>
<path d="M1038.21 346.311C1023.73 342.429 1002.47 344.497 999.231 356.571C995.996 368.645 1013.4 375.896 1021.91 378.177C1029.16 380.118 1034.03 378.836 1038.9 377.553C1043.78 376.271 1048.65 374.988 1055.89 376.929L1061.07 357.611C1061.07 357.611 1047.83 348.887 1038.21 346.311ZM1077.8 372.447C1079.23 367.119 1076.06 361.627 1070.73 360.199L1065.9 358.905L1060.72 378.224L1065.55 379.518C1070.88 380.945 1076.37 377.774 1077.8 372.447Z" fill="white"/>
<path d="M1210.88 346.311C1196.39 342.429 1175.13 344.497 1171.9 356.571C1168.66 368.645 1186.07 375.896 1194.58 378.177C1201.82 380.118 1206.69 378.836 1211.57 377.553C1216.44 376.271 1221.31 374.988 1228.56 376.929L1233.73 357.611C1233.73 357.611 1220.49 348.887 1210.88 346.311ZM1250.46 372.447C1251.89 367.119 1248.72 361.627 1243.39 360.199L1238.56 358.905L1233.39 378.224L1238.22 379.518C1243.55 380.945 1249.04 377.774 1250.46 372.447Z" fill="white"/>
</svg>
