<svg width="16" height="21" viewBox="0 0 16 21" fill="none" xmlns="http://www.w3.org/2000/svg">
<g clip-path="url(#clip0_1206_3968)">
<path d="M12.6133 10.8789C12.6055 9.44531 13.2539 8.36328 14.5664 7.56641C13.832 6.51562 12.7227 5.9375 11.2578 5.82422C9.87109 5.71484 8.35547 6.63281 7.80078 6.63281C7.21484 6.63281 5.87109 5.86328 4.81641 5.86328C2.63672 5.89844 0.320312 7.60156 0.320312 11.0664C0.320312 12.0898 0.507812 13.1471 0.882812 14.2383C1.38281 15.6719 3.1875 19.1875 5.07031 19.1289C6.05469 19.1055 6.75 18.4297 8.03125 18.4297C9.27344 18.4297 9.91797 19.1289 11.0156 19.1289C12.9141 19.1016 14.5469 15.9062 15.0234 14.4688C12.4766 13.2695 12.6133 10.9531 12.6133 10.8789ZM10.4023 4.46484C11.4688 3.19922 11.3711 2.04688 11.3398 1.63281C10.3984 1.6875 9.30859 2.27344 8.6875 2.99609C8.00391 3.76953 7.60156 4.72656 7.6875 5.80469C8.70703 5.88281 9.63672 5.35938 10.4023 4.46484Z" fill="white"/>
</g>
<defs>
<clipPath id="clip0_1206_3968">
<rect width="15" height="20" fill="white" transform="translate(0.164062 0.382812)"/>
</clipPath>
</defs>
</svg>
