<svg width="18" height="21" viewBox="0 0 18 21" fill="none" xmlns="http://www.w3.org/2000/svg">
<g clip-path="url(#clip0_1206_3956)">
<path d="M15.7891 1.63281H2.03906C1.54178 1.63281 1.06487 1.83036 0.713237 2.18199C0.361607 2.53362 0.164063 3.01053 0.164062 3.50781L0.164063 17.2578C0.164063 17.7551 0.361607 18.232 0.713237 18.5836C1.06487 18.9353 1.54178 19.1328 2.03906 19.1328H7.40039V13.1832H4.93945V10.3828H7.40039V8.24844C7.40039 5.8207 8.8457 4.47969 11.0594 4.47969C12.1195 4.47969 13.2281 4.66875 13.2281 4.66875V7.05156H12.0066C10.8031 7.05156 10.4277 7.79844 10.4277 8.56445V10.3828H13.1145L12.6848 13.1832H10.4277V19.1328H15.7891C16.2863 19.1328 16.7633 18.9353 17.1149 18.5836C17.4665 18.232 17.6641 17.7551 17.6641 17.2578V3.50781C17.6641 3.01053 17.4665 2.53362 17.1149 2.18199C16.7633 1.83036 16.2863 1.63281 15.7891 1.63281Z" fill="white"/>
</g>
<defs>
<clipPath id="clip0_1206_3956">
<rect width="17.5" height="20" fill="white" transform="translate(0.164062 0.382812)"/>
</clipPath>
</defs>
</svg>
