<svg width="20" height="21" viewBox="0 0 20 21" fill="none" xmlns="http://www.w3.org/2000/svg">
<g clip-path="url(#clip0_1206_3962)">
<path d="M19.2266 10.6094C19.2266 16.1367 15.4414 20.0703 9.85156 20.0703C4.49219 20.0703 0.164062 15.7422 0.164062 10.3828C0.164062 5.02344 4.49219 0.695312 9.85156 0.695312C12.4609 0.695312 14.6562 1.65234 16.3477 3.23047L13.7109 5.76562C10.2617 2.4375 3.84766 4.9375 3.84766 10.3828C3.84766 13.7617 6.54688 16.5 9.85156 16.5C13.6875 16.5 15.125 13.75 15.3516 12.3242H9.85156V8.99219H19.0742C19.1641 9.48828 19.2266 9.96484 19.2266 10.6094Z" fill="white"/>
</g>
<defs>
<clipPath id="clip0_1206_3962">
<rect width="19.0625" height="20" fill="white" transform="translate(0.164062 0.382812)"/>
</clipPath>
</defs>
</svg>
