<svg width="361" height="242" viewBox="0 0 361 242" fill="none" xmlns="http://www.w3.org/2000/svg">
<path d="M176.467 4.28437V39.5677H165.441V117.853C165.441 124.836 163.726 129.981 160.295 133.289C156.987 136.474 151.536 138.557 143.94 139.537C136.467 140.395 124.828 140.823 109.024 140.823H77.2325C76.865 132.86 75.7624 125.755 73.9247 119.506C72.087 113.258 68.4117 107.99 62.8987 103.702C83.113 104.805 97.3244 105.356 105.533 105.356C110.678 105.356 114.476 105.173 116.926 104.805C119.499 104.315 121.153 103.702 121.888 102.967C122.623 102.232 122.991 101.13 122.991 99.6596V39.5677H74.8435V48.5723H62.5311V60.5171L75.5786 59.7821C75.0885 67.0102 74.8435 77.8525 74.8435 92.3089L62.5311 93.4115V110.134C62.5311 120.425 61.551 127.47 59.5908 131.268C57.7532 135.065 53.9553 137.516 48.1973 138.618C42.5617 139.598 31.4745 140.333 14.9354 140.823L10.3412 141.007C9.60616 133.166 8.68732 126.796 7.58472 121.895C6.48211 116.995 4.27691 111.849 0.969097 106.459C6.97216 106.459 11.1988 106.275 13.649 105.908C16.2218 105.418 17.7532 104.744 18.2432 103.886C18.8558 102.906 19.1621 101.375 19.1621 99.292V96.5355L4.46067 97.4544C4.09314 90.3487 3.60309 84.1618 2.99054 78.8939C2.50049 73.5033 1.70417 68.2354 0.601562 63.0899C8.93234 62.8449 15.1192 62.5998 19.1621 62.3548V48.5723H4.46067V16.0455H19.1621V0.976562H62.5311V16.0455H73.9247V4.28437H176.467Z" fill="#FF5E1E"/>
<path d="M305.288 16.0455L305.471 34.0547C305.716 50.2262 305.839 62.2936 305.839 70.2568C305.839 88.6335 305.471 103.702 304.736 115.464C304.246 122.202 303.021 127.47 301.061 131.268C299.223 134.943 296.283 137.699 292.24 139.537C288.32 141.375 282.746 142.6 275.517 143.212C274.905 132.921 274.047 124.284 272.945 117.301C271.107 128.082 269.024 136.536 266.697 142.661L262.102 140.088C258.304 137.883 255.242 136.229 252.914 135.127C250.709 134.024 248.32 133.044 245.747 132.186V133.289H216.161V136.964H190.249V4.10059H245.747V116.015C248.075 109.032 249.729 101.681 250.709 93.9628C251.811 86.2446 252.546 76.8724 252.914 65.8464L253.098 49.3073H248.871V16.0455H253.465V1.71163H283.971V16.0455H305.288ZM308.595 142.477V5.38698H360.602V142.477H336.528V140.64H332.853V142.477H308.595ZM332.853 33.1358V109.767H336.528V33.1358H332.853ZM216.161 37.73V96.7193H220.938V37.73H216.161ZM275.885 100.395C277.232 100.395 278.09 100.211 278.458 99.8433C278.948 99.3533 279.254 98.6182 279.376 97.6381C280.112 86.6121 280.602 70.5018 280.847 49.3073H277.355L276.987 64.3763C276.62 79.5677 275.946 91.5738 274.966 100.395H275.885Z" fill="#5AC4C4"/>
<path d="M143.532 158.711L182.838 241.406H104.227L143.532 158.711Z" fill="#FBDFB7"/>
<path d="M320.66 158.711L360.476 241.406H280.844L320.66 158.711Z" fill="#FBDFB7"/>
<path d="M14.3867 158.711H56.2448V241.406H14.3867V158.711Z" fill="#F6CE6E"/>
<rect x="41.9531" y="165.855" width="7.65697" height="7.65697" fill="#263238"/>
<rect x="41.9531" y="174.535" width="7.65697" height="7.65697" fill="#263238"/>
<rect x="41.9531" y="183.211" width="7.65697" height="7.65697" fill="#263238"/>
<rect x="41.9531" y="191.891" width="7.65697" height="7.65697" fill="#263238"/>
<rect x="41.9531" y="200.57" width="7.65697" height="7.65697" fill="#263238"/>
<rect x="41.9531" y="209.246" width="7.65697" height="7.65697" fill="#263238"/>
<rect x="41.9531" y="217.926" width="7.65697" height="7.65697" fill="#263238"/>
<rect x="41.9531" y="226.602" width="7.65697" height="7.65697" fill="#263238"/>
<rect x="32.25" y="165.855" width="7.65697" height="7.65697" fill="#263238"/>
<rect x="32.25" y="174.535" width="7.65697" height="7.65697" fill="#263238"/>
<rect x="32.25" y="183.211" width="7.65697" height="7.65697" fill="#263238"/>
<rect x="32.25" y="191.891" width="7.65697" height="7.65697" fill="#263238"/>
<rect x="32.25" y="200.57" width="7.65697" height="7.65697" fill="#263238"/>
<rect x="20.5078" y="185.766" width="7.65697" height="29.6069" fill="#263238"/>
<rect x="32.25" y="209.246" width="7.65697" height="7.65697" fill="#263238"/>
<rect x="32.25" y="217.926" width="7.65697" height="7.65697" fill="#263238"/>
<rect x="32.25" y="226.602" width="7.65697" height="7.65697" fill="#263238"/>
<path d="M59.8152 241.406C70.6459 241.406 81.033 237.05 88.6914 229.296C96.3499 221.542 100.652 211.025 100.652 200.059C100.652 189.092 96.3499 178.576 88.6914 170.821C81.033 163.067 70.6459 158.711 59.8152 158.711L59.8152 200.059L59.8152 241.406Z" fill="#5AC4C4"/>
<path fill-rule="evenodd" clip-rule="evenodd" d="M272.527 175.227L256.297 158.996L215.103 200.19L215.11 200.197L215.095 200.212L256.289 241.406L272.519 225.176L247.549 200.205L272.527 175.227Z" fill="#FF5E1E"/>
<path fill-rule="evenodd" clip-rule="evenodd" d="M199.543 163.719L205.675 160.049L207.51 163.114L209.262 162.065C209.848 163.043 210.302 164.086 210.601 165.135C210.9 166.183 211.036 167.216 211.002 168.175C210.969 169.135 210.766 170.001 210.405 170.725C210.167 171.203 209.864 171.612 209.503 171.944C210.05 172.876 210.474 173.779 210.788 174.653C211.835 177.56 211.665 180.121 210.864 182.331C210.067 184.528 208.654 186.357 207.244 187.834C206.537 188.573 205.826 189.229 205.188 189.801C204.989 189.98 204.798 190.148 204.618 190.308L204.617 190.309L204.617 190.309L204.617 190.309C204.212 190.667 203.858 190.982 203.564 191.263L203.39 191.43C201.853 192.9 199.327 195.316 198.382 198.905C197.42 202.555 198.069 207.547 203.45 214.133C209.936 214.314 215.144 220.299 215.144 227.656C215.144 235.127 209.773 241.184 203.148 241.184C196.523 241.184 191.152 235.127 191.152 227.656C191.152 220.546 196.017 214.717 202.199 214.171C197.109 207.696 196.381 202.575 197.415 198.65C198.434 194.781 201.143 192.194 202.677 190.728C202.744 190.664 202.809 190.601 202.872 190.541C203.18 190.246 203.559 189.91 203.972 189.545L203.972 189.544L203.972 189.544L203.972 189.544C204.15 189.387 204.334 189.224 204.521 189.056C205.152 188.491 205.84 187.855 206.52 187.143C207.884 185.716 209.193 184.004 209.924 181.99C210.649 179.989 210.811 177.668 209.848 174.992C209.563 174.201 209.179 173.376 208.68 172.517C208.097 172.813 207.434 172.954 206.718 172.932C205.909 172.908 205.05 172.677 204.188 172.253C203.327 171.83 202.481 171.221 201.698 170.463C200.915 169.704 200.211 168.81 199.626 167.833L201.378 166.784L199.543 163.719ZM202.389 164.991C202.752 164.774 202.87 164.304 202.653 163.941C202.435 163.578 201.965 163.46 201.602 163.677C201.239 163.894 201.121 164.364 201.339 164.727C201.556 165.09 202.026 165.208 202.389 164.991ZM205.719 162.105C205.936 162.468 205.818 162.938 205.455 163.155C205.092 163.372 204.622 163.254 204.405 162.891C204.188 162.529 204.306 162.058 204.669 161.841C205.032 161.624 205.502 161.742 205.719 162.105ZM202.533 215.149C202.728 215.136 202.924 215.13 203.121 215.129C203.183 215.141 203.247 215.142 203.31 215.13C209.202 215.229 214.144 220.685 214.144 227.656C214.144 234.691 209.112 240.184 203.148 240.184C197.185 240.184 192.152 234.691 192.152 227.656C192.152 220.92 196.767 215.598 202.395 215.158V218.816C200.926 219.184 199.832 220.603 199.832 222.296C199.832 223.993 200.93 225.414 202.403 225.778C202.397 225.809 202.395 225.84 202.395 225.871V230.465C202.395 230.742 202.618 230.965 202.895 230.965C203.171 230.965 203.395 230.742 203.395 230.465V225.871L203.394 225.86C205.113 225.725 206.468 224.181 206.468 222.296C206.468 220.411 205.113 218.867 203.395 218.732V215.149H202.533ZM200.832 222.296C200.832 220.922 201.77 219.896 202.865 219.743H203.395V219.737C204.507 219.871 205.468 220.905 205.468 222.296C205.468 223.788 204.362 224.869 203.15 224.869C201.938 224.869 200.832 223.788 200.832 222.296Z" fill="#FF5E1E"/>
</svg>
