<svg width="1100" height="1024" viewBox="0 0 1100 1024" fill="none" xmlns="http://www.w3.org/2000/svg">
<g clip-path="url(#clip0_1663_6591)">
<rect y="0.191406" width="1100" height="1023" rx="10" fill="white"/>
<path fill-rule="evenodd" clip-rule="evenodd" d="M962.588 1101.1C1023.76 1099.39 1093.98 1102.33 1130.37 1053.13C1166 1004.96 1143.47 939.18 1124.35 882.405C1108.21 834.481 1080.26 791.531 1034.79 769.387C989.074 747.118 937.381 750.234 889.789 768.157C834.94 788.813 779.678 817.926 759.65 873.006C736.734 936.026 738.066 1012.73 782.639 1062.83C825.526 1111.03 898.094 1102.9 962.588 1101.1Z" fill="#FBDFB7"/>
<path fill-rule="evenodd" clip-rule="evenodd" d="M962.588 -87.8499C1023.76 -86.1433 1093.98 -89.0814 1130.37 -39.8789C1166 8.28704 1143.47 74.0698 1124.35 130.845C1108.21 178.769 1080.26 221.719 1034.79 243.863C989.074 266.132 937.381 263.016 889.789 245.093C834.94 224.437 779.678 195.324 759.65 140.244C736.734 77.2236 738.066 0.519066 782.639 -49.5796C825.526 -97.782 898.094 -89.6491 962.588 -87.8499Z" fill="#D5F0F0"/>
<path d="M570.341 40.1914L588.141 77.6405H552.541L570.341 40.1914Z" fill="#FBDFB7"/>
<path d="M570.06 85.2695L588.091 122.719H552.029L570.06 85.2695Z" fill="#FBDFB7"/>
<path d="M511.857 40.1914H530.813V77.6405H511.857V40.1914Z" fill="#F6CE6E"/>
<path d="M535.208 77.871C540.113 77.871 544.816 75.8982 548.285 72.3867C551.753 68.8751 553.701 64.1125 553.701 59.1464C553.701 54.1804 551.753 49.4177 548.285 45.9062C544.816 42.3946 540.113 40.4219 535.208 40.4219L535.208 59.1464L535.208 77.871Z" fill="#5AC4C4"/>
<path fill-rule="evenodd" clip-rule="evenodd" d="M549.633 92.3852L542.283 85.0352L523.628 103.69L523.631 103.693L523.624 103.7L542.279 122.355L549.629 115.005L538.321 103.697L549.633 92.3852Z" fill="#FF5E1E"/>
<circle cx="517.952" cy="91.1294" r="6.09429" fill="#5AC4C4"/>
<rect x="512.088" y="110.926" width="11.3971" height="11.3971" fill="#F6CE6E"/>
<path fill-rule="evenodd" clip-rule="evenodd" d="M148.37 755.329C209.546 757.035 279.761 754.097 316.154 803.3C351.781 851.466 329.255 917.249 310.13 974.024C293.987 1021.95 266.04 1064.9 220.577 1087.04C174.857 1109.31 123.163 1106.19 75.5712 1088.27C20.7227 1067.62 -34.5394 1038.5 -54.568 983.422C-77.4836 920.402 -76.1519 843.698 -31.5784 793.599C11.3079 745.397 83.8761 753.53 148.37 755.329Z" fill="#F6CE6E"/>
<path fill-rule="evenodd" clip-rule="evenodd" d="M119.42 -107.948C180.595 -106.241 250.811 -109.179 287.204 -59.9765C322.83 -11.8106 300.305 53.9722 281.18 110.748C265.037 158.672 237.09 201.622 191.627 223.766C145.906 246.035 94.213 242.918 46.621 224.995C-8.22749 204.339 -63.4896 175.227 -83.5182 120.146C-106.434 57.126 -105.102 -19.5786 -60.5286 -69.6772C-17.6423 -117.88 54.9259 -109.747 119.42 -107.948Z" fill="#ED6F68"/>
</g>
<defs>
<clipPath id="clip0_1663_6591">
<rect y="0.191406" width="1100" height="1023" rx="10" fill="white"/>
</clipPath>
</defs>
</svg>
