<svg width="1510" height="53" viewBox="0 0 1510 53" fill="none" xmlns="http://www.w3.org/2000/svg">
<circle cx="27.3162" cy="26.4178" r="26.3631" fill="#5AC4C4"/>
<rect x="93.6797" y="1.76562" width="49.3024" height="49.3024" fill="#F6CE6E"/>
<circle cx="209.344" cy="26.4178" r="26.3631" fill="#5AC4C4"/>
<rect x="275.707" y="1.76562" width="49.3024" height="49.3024" fill="#F6CE6E"/>
<circle cx="391.375" cy="26.4178" r="26.3631" fill="#5AC4C4"/>
<rect x="457.738" y="1.76562" width="49.3024" height="49.3024" fill="#F6CE6E"/>
<circle cx="573.402" cy="26.4178" r="26.3631" fill="#5AC4C4"/>
<rect x="639.766" y="1.76562" width="49.3024" height="49.3024" fill="#F6CE6E"/>
<circle cx="755.43" cy="26.4178" r="26.3631" fill="#5AC4C4"/>
<rect x="821.793" y="1.76562" width="49.3024" height="49.3024" fill="#F6CE6E"/>
<circle cx="937.461" cy="26.4178" r="26.3631" fill="#5AC4C4"/>
<rect x="1003.82" y="1.76562" width="49.3024" height="49.3024" fill="#F6CE6E"/>
<circle cx="1119.49" cy="26.4178" r="26.3631" fill="#5AC4C4"/>
<rect x="1185.85" y="1.76562" width="49.3024" height="49.3024" fill="#F6CE6E"/>
<circle cx="1301.52" cy="26.4178" r="26.3631" fill="#5AC4C4"/>
<rect x="1367.88" y="1.76562" width="49.3024" height="49.3024" fill="#F6CE6E"/>
<circle cx="1483.55" cy="26.4178" r="26.3631" fill="#5AC4C4"/>
</svg>
