<svg width="51" height="70" viewBox="0 0 51 70" fill="none" xmlns="http://www.w3.org/2000/svg">
<path d="M24.1656 0.0179407C22.2341 0.114671 20.2616 0.612136 19.0972 1.30307C18.0972 1.89036 17.3849 2.87148 17.2205 3.88715C17.1794 4.1428 17.063 6.73378 16.9671 9.6426L16.7959 14.9282L13.6042 24.6082L10.4056 34.2881L9.57688 34.371C7.09749 34.6129 5.04959 35.4903 3.28936 37.0588C1.60447 38.5581 0.515455 40.3476 0.125053 42.2545C-0.0393268 43.0215 -0.0393268 44.4863 0.111355 45.2946C0.782571 48.7908 3.57018 52.3767 7.83035 55.2302C8.37828 55.5964 8.84402 55.9142 8.87827 55.935C10.2277 56.9559 10.1192 56.8347 9.98011 57.2521C9.841 57.6694 7.15001 67.2221 6.8966 68.0927C6.51304 69.4123 6.4514 69.6818 6.52674 69.7578C6.72736 69.7686 9.59745 64.8553 9.98011 64.2813C10.9844 62.2727 13.1845 59.8042 14.0562 58.4638C14.5699 58.6711 16.1589 59.1616 17.0151 59.3827C20.015 60.1497 22.8505 60.2947 25.2135 59.8042C28.5559 59.1063 30.8572 57.1579 31.8298 54.2007C32.9256 50.8704 32.4599 47.4089 30.5284 44.4932L30.0901 43.823L30.2134 43.6088C30.4257 43.2564 40.2748 27.8279 40.6926 27.1923C41.0624 26.6395 41.3022 26.4115 44.9048 23.2816C47.0075 21.4506 48.8842 19.8062 49.0691 19.6196C50.4252 18.2723 50.5006 16.3585 49.302 13.8227C47.9458 10.9761 45.0829 7.95674 41.4323 5.53849C39.0351 3.94934 35.8365 2.38783 33.1722 1.49653C29.96 0.418675 26.7409 -0.106427 24.1656 0.0179407Z" fill="#FF5E1E"/>
</svg>
