<svg width="201" height="62" viewBox="0 0 201 62" fill="none" xmlns="http://www.w3.org/2000/svg">
<path fill-rule="evenodd" clip-rule="evenodd" d="M36.5145 4.40334C46.6423 4.65172 58.2666 4.22411 64.2917 11.3849C70.1897 18.3949 66.4606 27.9688 63.2944 36.2318C60.6219 43.2065 55.9952 49.4574 48.4685 52.6802C40.8994 55.9212 32.3414 55.4676 24.4624 52.8591C15.3821 49.8529 6.2333 45.6159 2.9175 37.5996C-0.87625 28.4278 -0.655775 17.2644 6.72349 9.97312C13.8234 2.95785 25.8373 4.14149 36.5145 4.40334Z" fill="#F6CE6E"/>
<path fill-rule="evenodd" clip-rule="evenodd" d="M83.2567 0.942952C93.3845 1.22549 105.009 0.739072 111.034 8.8847C116.932 16.8587 113.203 27.7492 110.037 37.1486C107.364 45.0826 102.737 52.1931 95.2107 55.8591C87.6416 59.5458 79.0836 59.0298 71.2046 56.0626C62.1243 52.6429 52.9755 47.8233 49.6597 38.7045C45.8659 28.2714 46.0864 15.5727 53.4657 7.27872C60.5656 -0.701329 72.5795 0.64509 83.2567 0.942952Z" fill="#D5F0F0"/>
<path fill-rule="evenodd" clip-rule="evenodd" d="M127.53 4.43612C137.658 4.71865 149.282 4.23224 155.307 12.3779C161.205 20.3519 157.476 31.2424 154.31 40.6418C151.638 48.5757 147.011 55.6862 139.484 59.3523C131.915 63.039 123.357 62.523 115.478 59.5558C106.398 56.1361 97.2489 51.3165 93.9331 42.1977C90.1394 31.7645 90.3598 19.0659 97.7391 10.7719C104.839 2.79183 116.853 4.13825 127.53 4.43612Z" fill="#ED6F68"/>
<path fill-rule="evenodd" clip-rule="evenodd" d="M169.163 4.43612C179.291 4.71865 190.915 4.23224 196.94 12.3779C202.838 20.3519 199.109 31.2424 195.943 40.6418C193.27 48.5757 188.644 55.6862 181.117 59.3523C173.548 63.039 164.99 62.523 157.111 59.5558C148.031 56.1361 138.882 51.3165 135.566 42.1977C131.772 31.7645 131.993 19.0659 139.372 10.7719C146.472 2.79183 158.486 4.13825 169.163 4.43612Z" fill="#FBDFB7"/>
</svg>
