<svg width="134" height="30" viewBox="0 0 134 30" fill="none" xmlns="http://www.w3.org/2000/svg">
<path d="M2 0H0V30H2V0Z" fill="white"/>
<path d="M4 0H3V30H4V0Z" fill="white"/>
<path d="M9 0H6V30H9V0Z" fill="white"/>
<path d="M12 0H11V30H12V0Z" fill="white"/>
<path d="M15 0H13V30H15V0Z" fill="white"/>
<path d="M20 0H17V30H20V0Z" fill="white"/>
<path d="M23 0H22V30H23V0Z" fill="white"/>
<path d="M27 0H26V30H27V0Z" fill="white"/>
<path d="M30 0H28V30H30V0Z" fill="white"/>
<path d="M36 0H33V30H36V0Z" fill="white"/>
<path d="M40 0H39V30H40V0Z" fill="white"/>
<path d="M43 0H41V30H43V0Z" fill="white"/>
<path d="M46 0H44V30H46V0Z" fill="white"/>
<path d="M51 0H50V30H51V0Z" fill="white"/>
<path d="M53 0H52V30H53V0Z" fill="white"/>
<path d="M57 0H55V30H57V0Z" fill="white"/>
<path d="M62 0H58V30H62V0Z" fill="white"/>
<path d="M65 0H63V30H65V0Z" fill="white"/>
<path d="M69 0H66V30H69V0Z" fill="white"/>
<path d="M71 0H70V30H71V0Z" fill="white"/>
<path d="M76 0H72V30H76V0Z" fill="white"/>
<path d="M78 0H77V30H78V0Z" fill="white"/>
<path d="M80 0H79V30H80V0Z" fill="white"/>
<path d="M85 0H83V30H85V0Z" fill="white"/>
<path d="M89 0H88V30H89V0Z" fill="white"/>
<path d="M93 0H92V30H93V0Z" fill="white"/>
<path d="M96 0H94V30H96V0Z" fill="white"/>
<path d="M100 0H99V30H100V0Z" fill="white"/>
<path d="M104 0H103V30H104V0Z" fill="white"/>
<path d="M109 0H107V30H109V0Z" fill="white"/>
<path d="M111 0H110V30H111V0Z" fill="white"/>
<path d="M116 0H115V30H116V0Z" fill="white"/>
<path d="M119 0H117V30H119V0Z" fill="white"/>
<path d="M123 0H121V30H123V0Z" fill="white"/>
<path d="M129 0H126V30H129V0Z" fill="white"/>
<path d="M131 0H130V30H131V0Z" fill="white"/>
<path d="M134 0H132V30H134V0Z" fill="white"/>
</svg>
