<svg width="61" height="61" viewBox="0 0 61 61" fill="none" xmlns="http://www.w3.org/2000/svg">
<path d="M60.9532 43.7206C60.9532 36.3762 56.2545 30.1456 49.707 27.8263V8.09375H45.957V4.34187H49.707V0.59375H6.58198C6.42448 0.60125 5.25448 0.57875 3.87073 1.2575C2.46823 1.88 0.889479 3.67812 0.955104 6.21875C0.955104 6.23 0.956979 6.24125 0.956979 6.2525V56.8438C0.956979 60.5938 4.70698 60.5938 4.70698 60.5938H44.2339L44.2207 60.5863C53.4776 60.5094 60.9532 52.9925 60.9532 43.7206ZM6.3026 8.05813C5.96885 8.00938 5.48698 7.84812 5.21698 7.61188C4.95823 7.36063 4.7351 7.15625 4.70698 6.21875C4.76885 5.0075 5.07073 4.9325 5.5451 4.61375C5.78885 4.49188 6.08698 4.41313 6.3026 4.37937C6.52198 4.33812 6.57823 4.35312 6.58198 4.34187H42.207V8.09375H6.58198C6.57823 8.09375 6.52198 8.0975 6.3026 8.05813ZM8.45323 56.8438V11.8438H45.9532V26.9563C45.3364 26.8869 44.7101 26.8438 44.0745 26.8438C40.0582 26.8438 36.3757 28.2519 33.4789 30.5938H12.2032V34.3438H30.0457C29.2714 35.4987 28.6526 36.7606 28.1801 38.0938H12.2032V41.8438H27.3101C27.2426 42.4606 27.1995 43.085 27.1995 43.7206C27.1995 49.025 29.6501 53.7519 33.477 56.8438H8.45323ZM44.0782 56.8438C36.8314 56.8288 30.9645 50.9656 30.9532 43.7206C30.9645 36.4737 36.8314 30.605 44.0782 30.5956C51.3251 30.6069 57.1882 36.4737 57.2032 43.7206C57.1882 50.9656 51.3251 56.8288 44.0782 56.8438ZM42.2032 23.0938H12.2032V26.8438H42.2032V23.0938Z" fill="#5AC4C4"/>
<path d="M53.4531 41.8438H45.9569V34.3438H42.2031V41.8438H34.7031V45.5938H42.2031V53.0938H45.9569V45.5938H53.4531V41.8438Z" fill="#5AC4C4"/>
</svg>
