<?xml version="1.0" encoding="UTF-8"?>
<svg id="_圖層_2" data-name="圖層 2" xmlns="http://www.w3.org/2000/svg" xmlns:xlink="http://www.w3.org/1999/xlink" viewBox="0 0 375.71 164.43">
  <defs>
    <style>
      .cls-1 {
        font-family: Montserrat-Bold, 'Montserrat Bold';
        font-size: 13.46px;
      }

      .cls-1, .cls-2, .cls-3, .cls-4 {
        fill: #fff;
      }

      .cls-1, .cls-3 {
        font-weight: 700;
      }

      .cls-5 {
        stroke: #e2b080;
      }

      .cls-5, .cls-6, .cls-7, .cls-8, .cls-9, .cls-10, .cls-11 {
        fill: none;
      }

      .cls-5, .cls-6, .cls-7, .cls-8, .cls-9, .cls-11 {
        stroke-miterlimit: 10;
      }

      .cls-5, .cls-8 {
        stroke-width: .5px;
      }

      .cls-6 {
        stroke: #ffc091;
        stroke-width: 2px;
      }

      .cls-7 {
        stroke: #fff;
      }

      .cls-8 {
        stroke: #ffe67b;
      }

      .cls-12 {
        letter-spacing: -.02em;
      }

      .cls-13 {
        font-size: 32.01px;
        letter-spacing: 0em;
        opacity: .86;
      }

      .cls-13, .cls-14 {
        font-family: Montserrat-SemiBold, 'Montserrat SemiBold';
        font-weight: 600;
      }

      .cls-13, .cls-14, .cls-15 {
        fill: #c2400d;
      }

      .cls-16 {
        letter-spacing: .12em;
      }

      .cls-17 {
        fill: #ffc091;
      }

      .cls-18 {
        filter: url(#drop-shadow-1);
      }

      .cls-19 {
        letter-spacing: 0em;
      }

      .cls-20 {
        letter-spacing: .12em;
      }

      .cls-21 {
        clip-path: url(#clippath-1);
      }

      .cls-22 {
        fill: #e6e6e6;
      }

      .cls-23 {
        letter-spacing: .11em;
      }

      .cls-3 {
        font-family: Montserrat-ExtraBold, 'Montserrat ExtraBold';
        font-size: 5.29px;
      }

      .cls-24 {
        letter-spacing: .04em;
      }

      .cls-9, .cls-11 {
        stroke: #c2400d;
      }

      .cls-25 {
        letter-spacing: .12em;
      }

      .cls-26 {
        letter-spacing: .06em;
      }

      .cls-11 {
        stroke-width: 3px;
      }

      .cls-27 {
        letter-spacing: .1em;
      }

      .cls-14 {
        font-size: 23.52px;
      }

      .cls-4 {
        font-family: Montserrat-Regular, 'Montserrat Regular';
        font-size: 22.21px;
        letter-spacing: .05em;
      }

      .cls-28 {
        letter-spacing: -.08em;
      }

      .cls-29 {
        letter-spacing: .13em;
      }

      .cls-30 {
        letter-spacing: .1em;
      }

      .cls-31 {
        letter-spacing: .1em;
      }
    </style>
    <filter id="drop-shadow-1" filterUnits="userSpaceOnUse">
      <feOffset dx="5" dy="5"/>
      <feGaussianBlur result="blur" stdDeviation="10"/>
      <feFlood flood-color="#562f08" flood-opacity=".25"/>
      <feComposite in2="blur" operator="in"/>
      <feComposite in="SourceGraphic"/>
    </filter>
    <clipPath id="clippath-1">
      <rect class="cls-10" width="375.71" height="164.43"/>
    </clipPath>
  </defs>
  <g id="OBJECTS">
    <g class="cls-18">
      <rect class="cls-22" width="375.71" height="164.43"/>
      <path class="cls-2" d="M375.7,164.42V0H185.49c-5.11,11.78-6.83,32.65-5.59,45.27,3.73,37.91,29.38,55.87,44.91,71.04,27.25,26.61,27.84,45.04,29.1,48.11h121.79Z"/>
      <text class="cls-1" transform="translate(13.61 137.61)"><tspan class="cls-27" x="0" y="0">|</tspan><tspan class="cls-26" x="4.56" y="0"> </tspan><tspan class="cls-30" x="8.21" y="0">THE PERFE</tspan><tspan class="cls-29" x="79.49" y="0">C</tspan><tspan class="cls-30" x="89.03" y="0">T GIFT</tspan></text>
      <text class="cls-3" transform="translate(13.61 151.52)"><tspan class="cls-31" x="0" y="0">C</tspan><tspan class="cls-20" x="3.59" y="0">OM</tspan><tspan class="cls-24" x="12.76" y="0">P</tspan><tspan class="cls-20" x="15.77" y="0">A</tspan><tspan class="cls-23" x="19.64" y="0">NY</tspan><tspan class="cls-20" x="27.18" y="0">N</tspan><tspan class="cls-16" x="31.3" y="0">A</tspan><tspan class="cls-25" x="35.15" y="0">M</tspan><tspan class="cls-16" x="40.04" y="0">E</tspan><tspan class="cls-25" x="43.26" y="0">.</tspan><tspan class="cls-31" x="44.99" y="0">C</tspan><tspan class="cls-20" x="48.58" y="0">OM </tspan></text>
      <rect class="cls-17" x="256.55" y="66.24" width="97.64" height="31.35"/>
      <text class="cls-13" transform="translate(225.87 53.02)"><tspan x="0" y="0">WORLD</tspan></text>
      <text class="cls-4" transform="translate(268.96 89.52)"><tspan x="0" y="0">BOOK</tspan></text>
      <text class="cls-14" transform="translate(304.28 126.71)"><tspan class="cls-12" x="0" y="0">D</tspan><tspan class="cls-28" x="15.21" y="0">A</tspan><tspan class="cls-19" x="27.63" y="0">Y</tspan></text>
      <g class="cls-21">
        <circle class="cls-11" cx="247.88" cy="177.56" r="33.26"/>
        <circle class="cls-11" cx="43.44" cy="-1.92" r="16.96" transform="translate(12.34 28.47) rotate(-41.8)"/>
        <circle class="cls-9" cx="314.31" cy="1.12" r="9.44" transform="translate(262.71 311.17) rotate(-80.76)"/>
        <g>
          <path class="cls-5" d="M451.55,154.65c-16.26-4.12-31.44-11.77-47.68-15.97-16.23-4.2-34.74-4.48-48.45,5.18-10.75,7.57-16.84,19.91-23.74,31.09-10.39,16.83-25.48,33.09-45.15,35.24"/>
          <path class="cls-8" d="M-61.07,79.26c2.72-13.27,13.77-23.41,25.83-29.59C-18.38,41.03,.86,38.49,19.7,36.41c18.84-2.07,38.05-3.89,55.49-11.29,17.45-7.4,33.19-21.49,37.39-39.97"/>
          <path class="cls-8" d="M136.35-46.44c20.11,4.02,35.57,20.67,45.02,38.87,13.22,25.47,17.23,54.58,20.53,83.09s6.2,57.59,17.54,83.95c11.34,26.36,32.82,50.09,60.83,56.3"/>
        </g>
        <g>
          <g>
            <g>
              <path class="cls-15" d="M308.25,145.25c-.4,0-.73-.33-.73-.73s.33-.73,.73-.73,.73,.33,.73,.73-.33,.73-.73,.73Z"/>
              <path class="cls-15" d="M308.25,147.79c-.4,0-.73-.33-.73-.73s.33-.73,.73-.73,.73,.33,.73,.73-.33,.73-.73,.73Z"/>
              <path class="cls-15" d="M308.25,150.34c-.4,0-.73-.33-.73-.73s.33-.73,.73-.73,.73,.33,.73,.73-.33,.73-.73,.73Z"/>
              <path class="cls-15" d="M308.25,152.88c-.4,0-.73-.33-.73-.73s.33-.73,.73-.73,.73,.33,.73,.73-.33,.73-.73,.73Z"/>
              <path class="cls-15" d="M308.25,155.42c-.4,0-.73-.33-.73-.73s.33-.73,.73-.73,.73,.33,.73,.73-.33,.73-.73,.73Z"/>
              <path class="cls-15" d="M308.25,157.97c-.4,0-.73-.33-.73-.73s.33-.73,.73-.73,.73,.33,.73,.73-.33,.73-.73,.73Z"/>
            </g>
            <g>
              <path class="cls-15" d="M305.04,145.25c-.4,0-.73-.33-.73-.73s.33-.73,.73-.73,.73,.33,.73,.73-.33,.73-.73,.73Z"/>
              <path class="cls-15" d="M305.04,147.79c-.4,0-.73-.33-.73-.73s.33-.73,.73-.73,.73,.33,.73,.73-.33,.73-.73,.73Z"/>
              <path class="cls-15" d="M305.04,150.34c-.4,0-.73-.33-.73-.73s.33-.73,.73-.73,.73,.33,.73,.73-.33,.73-.73,.73Z"/>
              <path class="cls-15" d="M305.04,152.88c-.4,0-.73-.33-.73-.73s.33-.73,.73-.73,.73,.33,.73,.73-.33,.73-.73,.73Z"/>
              <path class="cls-15" d="M305.04,155.42c-.4,0-.73-.33-.73-.73s.33-.73,.73-.73,.73,.33,.73,.73-.33,.73-.73,.73Z"/>
              <path class="cls-15" d="M305.04,157.97c-.4,0-.73-.33-.73-.73s.33-.73,.73-.73,.73,.33,.73,.73-.33,.73-.73,.73Z"/>
            </g>
          </g>
          <g>
            <g>
              <path class="cls-15" d="M308.25,160.32c-.4,0-.73-.33-.73-.73s.33-.73,.73-.73,.73,.33,.73,.73-.33,.73-.73,.73Z"/>
              <path class="cls-15" d="M308.25,162.87c-.4,0-.73-.33-.73-.73s.33-.73,.73-.73,.73,.33,.73,.73-.33,.73-.73,.73Z"/>
              <path class="cls-15" d="M308.25,165.41c-.4,0-.73-.33-.73-.73s.33-.73,.73-.73,.73,.33,.73,.73-.33,.73-.73,.73Z"/>
            </g>
            <g>
              <path class="cls-15" d="M305.04,160.32c-.4,0-.73-.33-.73-.73s.33-.73,.73-.73,.73,.33,.73,.73-.33,.73-.73,.73Z"/>
              <path class="cls-15" d="M305.04,162.87c-.4,0-.73-.33-.73-.73s.33-.73,.73-.73,.73,.33,.73,.73-.33,.73-.73,.73Z"/>
              <path class="cls-15" d="M305.04,165.41c-.4,0-.73-.33-.73-.73s.33-.73,.73-.73,.73,.33,.73,.73-.33,.73-.73,.73Z"/>
            </g>
          </g>
        </g>
      </g>
      <g>
        <g>
          <g>
            <path class="cls-2" d="M151.72,105.18c0,.4-.33,.73-.73,.73s-.73-.33-.73-.73,.33-.73,.73-.73,.73,.33,.73,.73Z"/>
            <path class="cls-2" d="M154.26,105.18c0,.4-.33,.73-.73,.73s-.73-.33-.73-.73,.33-.73,.73-.73,.73,.33,.73,.73Z"/>
            <path class="cls-2" d="M156.81,105.18c0,.4-.33,.73-.73,.73s-.73-.33-.73-.73,.33-.73,.73-.73,.73,.33,.73,.73Z"/>
            <path class="cls-2" d="M159.35,105.18c0,.4-.33,.73-.73,.73s-.73-.33-.73-.73,.33-.73,.73-.73,.73,.33,.73,.73Z"/>
            <path class="cls-2" d="M161.89,105.18c0,.4-.33,.73-.73,.73s-.73-.33-.73-.73,.33-.73,.73-.73,.73,.33,.73,.73Z"/>
            <path class="cls-2" d="M164.44,105.18c0,.4-.33,.73-.73,.73s-.73-.33-.73-.73,.33-.73,.73-.73,.73,.33,.73,.73Z"/>
          </g>
          <g>
            <path class="cls-2" d="M151.72,108.39c0,.4-.33,.73-.73,.73s-.73-.33-.73-.73,.33-.73,.73-.73,.73,.33,.73,.73Z"/>
            <path class="cls-2" d="M154.26,108.39c0,.4-.33,.73-.73,.73s-.73-.33-.73-.73,.33-.73,.73-.73,.73,.33,.73,.73Z"/>
            <path class="cls-2" d="M156.81,108.39c0,.4-.33,.73-.73,.73s-.73-.33-.73-.73,.33-.73,.73-.73,.73,.33,.73,.73Z"/>
            <path class="cls-2" d="M159.35,108.39c0,.4-.33,.73-.73,.73s-.73-.33-.73-.73,.33-.73,.73-.73,.73,.33,.73,.73Z"/>
            <path class="cls-2" d="M161.89,108.39c0,.4-.33,.73-.73,.73s-.73-.33-.73-.73,.33-.73,.73-.73,.73,.33,.73,.73Z"/>
            <path class="cls-2" d="M164.44,108.39c0,.4-.33,.73-.73,.73s-.73-.33-.73-.73,.33-.73,.73-.73,.73,.33,.73,.73Z"/>
          </g>
        </g>
        <g>
          <g>
            <path class="cls-2" d="M166.79,105.18c0,.4-.33,.73-.73,.73s-.73-.33-.73-.73,.33-.73,.73-.73,.73,.33,.73,.73Z"/>
            <path class="cls-2" d="M169.34,105.18c0,.4-.33,.73-.73,.73s-.73-.33-.73-.73,.33-.73,.73-.73,.73,.33,.73,.73Z"/>
            <path class="cls-2" d="M171.88,105.18c0,.4-.33,.73-.73,.73s-.73-.33-.73-.73,.33-.73,.73-.73,.73,.33,.73,.73Z"/>
            <path class="cls-2" d="M174.43,105.18c0,.4-.33,.73-.73,.73s-.73-.33-.73-.73,.33-.73,.73-.73,.73,.33,.73,.73Z"/>
            <path class="cls-2" d="M176.97,105.18c0,.4-.33,.73-.73,.73s-.73-.33-.73-.73,.33-.73,.73-.73,.73,.33,.73,.73Z"/>
            <path class="cls-2" d="M179.51,105.18c0,.4-.33,.73-.73,.73s-.73-.33-.73-.73,.33-.73,.73-.73,.73,.33,.73,.73Z"/>
          </g>
          <g>
            <path class="cls-2" d="M166.79,108.39c0,.4-.33,.73-.73,.73s-.73-.33-.73-.73,.33-.73,.73-.73,.73,.33,.73,.73Z"/>
            <path class="cls-2" d="M169.34,108.39c0,.4-.33,.73-.73,.73s-.73-.33-.73-.73,.33-.73,.73-.73,.73,.33,.73,.73Z"/>
            <path class="cls-2" d="M171.88,108.39c0,.4-.33,.73-.73,.73s-.73-.33-.73-.73,.33-.73,.73-.73,.73,.33,.73,.73Z"/>
            <path class="cls-2" d="M174.43,108.39c0,.4-.33,.73-.73,.73s-.73-.33-.73-.73,.33-.73,.73-.73,.73,.33,.73,.73Z"/>
            <path class="cls-2" d="M176.97,108.39c0,.4-.33,.73-.73,.73s-.73-.33-.73-.73,.33-.73,.73-.73,.73,.33,.73,.73Z"/>
            <path class="cls-2" d="M179.51,108.39c0,.4-.33,.73-.73,.73s-.73-.33-.73-.73,.33-.73,.73-.73,.73,.33,.73,.73Z"/>
          </g>
        </g>
      </g>
      <g>
        <g>
          <g>
            <path class="cls-2" d="M120.31,22.03c-.4,0-.73-.33-.73-.73s.33-.73,.73-.73,.73,.33,.73,.73-.33,.73-.73,.73Z"/>
            <path class="cls-2" d="M120.31,24.58c-.4,0-.73-.33-.73-.73s.33-.73,.73-.73,.73,.33,.73,.73-.33,.73-.73,.73Z"/>
            <path class="cls-2" d="M120.31,27.12c-.4,0-.73-.33-.73-.73s.33-.73,.73-.73,.73,.33,.73,.73-.33,.73-.73,.73Z"/>
            <path class="cls-2" d="M120.31,29.66c-.4,0-.73-.33-.73-.73s.33-.73,.73-.73,.73,.33,.73,.73-.33,.73-.73,.73Z"/>
            <path class="cls-2" d="M120.31,32.21c-.4,0-.73-.33-.73-.73s.33-.73,.73-.73,.73,.33,.73,.73-.33,.73-.73,.73Z"/>
            <path class="cls-2" d="M120.31,34.75c-.4,0-.73-.33-.73-.73s.33-.73,.73-.73,.73,.33,.73,.73-.33,.73-.73,.73Z"/>
          </g>
          <g>
            <path class="cls-2" d="M117.1,22.03c-.4,0-.73-.33-.73-.73s.33-.73,.73-.73,.73,.33,.73,.73-.33,.73-.73,.73Z"/>
            <path class="cls-2" d="M117.1,24.58c-.4,0-.73-.33-.73-.73s.33-.73,.73-.73,.73,.33,.73,.73-.33,.73-.73,.73Z"/>
            <path class="cls-2" d="M117.1,27.12c-.4,0-.73-.33-.73-.73s.33-.73,.73-.73,.73,.33,.73,.73-.33,.73-.73,.73Z"/>
            <path class="cls-2" d="M117.1,29.66c-.4,0-.73-.33-.73-.73s.33-.73,.73-.73,.73,.33,.73,.73-.33,.73-.73,.73Z"/>
            <path class="cls-2" d="M117.1,32.21c-.4,0-.73-.33-.73-.73s.33-.73,.73-.73,.73,.33,.73,.73-.33,.73-.73,.73Z"/>
            <path class="cls-2" d="M117.1,34.75c-.4,0-.73-.33-.73-.73s.33-.73,.73-.73,.73,.33,.73,.73-.33,.73-.73,.73Z"/>
          </g>
        </g>
        <g>
          <g>
            <path class="cls-2" d="M120.31,37.11c-.4,0-.73-.33-.73-.73s.33-.73,.73-.73,.73,.33,.73,.73-.33,.73-.73,.73Z"/>
            <path class="cls-2" d="M120.31,39.65c-.4,0-.73-.33-.73-.73s.33-.73,.73-.73,.73,.33,.73,.73-.33,.73-.73,.73Z"/>
            <path class="cls-2" d="M120.31,42.19c-.4,0-.73-.33-.73-.73s.33-.73,.73-.73,.73,.33,.73,.73-.33,.73-.73,.73Z"/>
            <path class="cls-2" d="M120.31,44.74c-.4,0-.73-.33-.73-.73s.33-.73,.73-.73,.73,.33,.73,.73-.33,.73-.73,.73Z"/>
            <path class="cls-2" d="M120.31,47.28c-.4,0-.73-.33-.73-.73s.33-.73,.73-.73,.73,.33,.73,.73-.33,.73-.73,.73Z"/>
            <path class="cls-2" d="M120.31,49.83c-.4,0-.73-.33-.73-.73s.33-.73,.73-.73,.73,.33,.73,.73-.33,.73-.73,.73Z"/>
          </g>
          <g>
            <path class="cls-2" d="M117.1,37.11c-.4,0-.73-.33-.73-.73s.33-.73,.73-.73,.73,.33,.73,.73-.33,.73-.73,.73Z"/>
            <path class="cls-2" d="M117.1,39.65c-.4,0-.73-.33-.73-.73s.33-.73,.73-.73,.73,.33,.73,.73-.33,.73-.73,.73Z"/>
            <path class="cls-2" d="M117.1,42.19c-.4,0-.73-.33-.73-.73s.33-.73,.73-.73,.73,.33,.73,.73-.33,.73-.73,.73Z"/>
            <path class="cls-2" d="M117.1,44.74c-.4,0-.73-.33-.73-.73s.33-.73,.73-.73,.73,.33,.73,.73-.33,.73-.73,.73Z"/>
            <path class="cls-2" d="M117.1,47.28c-.4,0-.73-.33-.73-.73s.33-.73,.73-.73,.73,.33,.73,.73-.33,.73-.73,.73Z"/>
            <path class="cls-2" d="M117.1,49.83c-.4,0-.73-.33-.73-.73s.33-.73,.73-.73,.73,.33,.73,.73-.33,.73-.73,.73Z"/>
          </g>
        </g>
      </g>
      <g>
        <g>
          <g>
            <path class="cls-2" d="M18.85,91.99c0,.4-.33,.73-.73,.73s-.73-.33-.73-.73,.33-.73,.73-.73,.73,.33,.73,.73Z"/>
            <path class="cls-2" d="M21.4,91.99c0,.4-.33,.73-.73,.73s-.73-.33-.73-.73,.33-.73,.73-.73,.73,.33,.73,.73Z"/>
            <path class="cls-2" d="M23.94,91.99c0,.4-.33,.73-.73,.73s-.73-.33-.73-.73,.33-.73,.73-.73,.73,.33,.73,.73Z"/>
            <path class="cls-2" d="M26.48,91.99c0,.4-.33,.73-.73,.73s-.73-.33-.73-.73,.33-.73,.73-.73,.73,.33,.73,.73Z"/>
            <path class="cls-2" d="M29.03,91.99c0,.4-.33,.73-.73,.73s-.73-.33-.73-.73,.33-.73,.73-.73,.73,.33,.73,.73Z"/>
            <path class="cls-2" d="M31.57,91.99c0,.4-.33,.73-.73,.73s-.73-.33-.73-.73,.33-.73,.73-.73,.73,.33,.73,.73Z"/>
          </g>
          <g>
            <path class="cls-2" d="M18.85,95.2c0,.4-.33,.73-.73,.73s-.73-.33-.73-.73,.33-.73,.73-.73,.73,.33,.73,.73Z"/>
            <path class="cls-2" d="M21.4,95.2c0,.4-.33,.73-.73,.73s-.73-.33-.73-.73,.33-.73,.73-.73,.73,.33,.73,.73Z"/>
            <path class="cls-2" d="M23.94,95.2c0,.4-.33,.73-.73,.73s-.73-.33-.73-.73,.33-.73,.73-.73,.73,.33,.73,.73Z"/>
            <path class="cls-2" d="M26.48,95.2c0,.4-.33,.73-.73,.73s-.73-.33-.73-.73,.33-.73,.73-.73,.73,.33,.73,.73Z"/>
            <path class="cls-2" d="M29.03,95.2c0,.4-.33,.73-.73,.73s-.73-.33-.73-.73,.33-.73,.73-.73,.73,.33,.73,.73Z"/>
            <path class="cls-2" d="M31.57,95.2c0,.4-.33,.73-.73,.73s-.73-.33-.73-.73,.33-.73,.73-.73,.73,.33,.73,.73Z"/>
          </g>
        </g>
        <g>
          <g>
            <path class="cls-2" d="M33.93,91.99c0,.4-.33,.73-.73,.73s-.73-.33-.73-.73,.33-.73,.73-.73,.73,.33,.73,.73Z"/>
            <path class="cls-2" d="M36.47,91.99c0,.4-.33,.73-.73,.73s-.73-.33-.73-.73,.33-.73,.73-.73,.73,.33,.73,.73Z"/>
          </g>
          <g>
            <path class="cls-2" d="M33.93,95.2c0,.4-.33,.73-.73,.73s-.73-.33-.73-.73,.33-.73,.73-.73,.73,.33,.73,.73Z"/>
            <path class="cls-2" d="M36.47,95.2c0,.4-.33,.73-.73,.73s-.73-.33-.73-.73,.33-.73,.73-.73,.73,.33,.73,.73Z"/>
          </g>
        </g>
      </g>
      <circle class="cls-7" cx="87" cy="98.79" r="6.08"/>
      <circle class="cls-6" cx="227.18" cy="81.37" r="10.68"/>
    </g>
  </g>
</svg>