<svg width="420" height="188" viewBox="0 0 420 188" fill="none" xmlns="http://www.w3.org/2000/svg">
<g clip-path="url(#clip0_1131_1809)">
<path d="M419.524 0H0V188H419.524V0Z" fill="white"/>
<path d="M408.769 177.245V10.7545L10.7545 10.7545V177.245L408.769 177.245Z" stroke="#231F20" stroke-linecap="round" stroke-linejoin="round"/>
<path d="M135.072 159.65C134.999 159.601 134.963 159.548 134.963 159.491C134.954 159.435 134.967 159.378 134.999 159.321C135.032 159.256 135.08 159.191 135.145 159.126C135.21 159.069 135.287 158.923 135.377 158.688C135.466 158.46 135.559 158.184 135.657 157.86C135.762 157.527 135.864 157.165 135.961 156.776C136.067 156.386 136.164 156.004 136.253 155.631C136.343 155.257 136.42 154.912 136.485 154.596C136.55 154.279 136.599 154.027 136.631 153.841C136.672 153.613 136.716 153.366 136.765 153.098C136.806 152.862 136.85 152.59 136.899 152.282C136.948 151.965 136.992 151.616 137.033 151.234L138.007 150.796C138.145 150.731 138.243 150.747 138.299 150.845C138.356 150.934 138.356 151.125 138.299 151.417C138.275 151.563 138.23 151.803 138.165 152.136C138.101 152.46 138.023 152.822 137.934 153.22C137.853 153.609 137.764 154.011 137.666 154.425C137.577 154.831 137.488 155.192 137.398 155.509C137.317 155.809 137.224 156.155 137.118 156.544C136.931 157.21 136.672 158.119 136.339 159.272C136.452 159.467 136.663 159.565 136.972 159.565C137.313 159.565 137.707 159.435 138.153 159.175C138.608 158.915 139.046 158.525 139.469 158.006C139.891 157.486 140.26 156.837 140.577 156.057C140.902 155.27 141.105 154.352 141.186 153.305C141.226 152.736 141.198 152.237 141.101 151.807C141.003 151.377 140.853 151.015 140.65 150.723C140.455 150.431 140.211 150.211 139.919 150.065C139.635 149.919 139.318 149.846 138.969 149.846C138.149 149.846 137.301 150.187 136.424 150.869L136.363 149.858C136.574 149.623 136.814 149.444 137.082 149.322C137.358 149.193 137.613 149.095 137.849 149.03C138.125 148.957 138.405 148.916 138.689 148.908C139.209 148.908 139.708 149.01 140.187 149.213C140.674 149.408 141.092 149.708 141.441 150.114C141.799 150.52 142.071 151.031 142.257 151.648C142.444 152.257 142.509 152.972 142.452 153.792C142.42 154.263 142.322 154.754 142.16 155.266C142.006 155.769 141.799 156.264 141.539 156.751C141.287 157.238 140.987 157.701 140.638 158.14C140.289 158.578 139.907 158.96 139.493 159.284C139.079 159.617 138.636 159.877 138.165 160.064C137.695 160.259 137.207 160.356 136.704 160.356C136.55 160.348 136.383 160.32 136.205 160.271C136.05 160.23 135.876 160.161 135.681 160.064C135.486 159.966 135.283 159.828 135.072 159.65ZM146.384 156.215C146.306 156.512 146.2 156.79 146.067 157.047C145.935 157.305 145.774 157.528 145.587 157.715C145.407 157.903 145.2 158.047 144.966 158.149C144.739 158.258 144.489 158.313 144.216 158.313C143.896 158.313 143.642 158.243 143.454 158.102C143.274 157.969 143.138 157.801 143.044 157.598C142.958 157.395 142.907 157.172 142.892 156.93C142.868 156.688 142.857 156.462 142.857 156.251C142.857 156.102 142.876 155.938 142.915 155.758C142.946 155.579 142.993 155.395 143.056 155.208C143.118 155.02 143.196 154.833 143.29 154.645C143.392 154.458 143.509 154.286 143.642 154.13C143.689 153.997 143.759 153.88 143.853 153.778C143.954 153.676 144.067 153.594 144.192 153.532C144.325 153.462 144.466 153.411 144.614 153.38C144.763 153.34 144.907 153.321 145.048 153.321C145.071 153.321 145.091 153.325 145.107 153.333C145.13 153.34 145.153 153.348 145.177 153.356C145.278 153.364 145.403 153.403 145.552 153.473C145.708 153.544 145.857 153.649 145.997 153.79C146.146 153.93 146.271 154.11 146.372 154.329C146.474 154.54 146.524 154.797 146.524 155.102C146.524 155.165 146.521 155.243 146.513 155.337C146.505 155.422 146.497 155.497 146.489 155.559C146.669 155.489 146.857 155.403 147.052 155.301C147.247 155.2 147.435 155.094 147.614 154.985C147.802 154.868 147.974 154.751 148.13 154.633C148.286 154.516 148.411 154.411 148.505 154.317C148.583 154.247 148.649 154.208 148.704 154.2C148.759 154.192 148.798 154.208 148.821 154.247C148.845 154.286 148.849 154.34 148.833 154.411C148.817 154.481 148.774 154.559 148.704 154.645C148.665 154.692 148.564 154.786 148.399 154.926C148.243 155.067 148.056 155.219 147.837 155.383C147.618 155.547 147.38 155.708 147.122 155.864C146.864 156.02 146.618 156.137 146.384 156.215ZM144.403 154.434C144.38 154.505 144.368 154.579 144.368 154.657C144.368 154.782 144.376 154.915 144.392 155.055C144.407 155.188 144.446 155.309 144.509 155.419C144.571 155.528 144.669 155.622 144.802 155.7C144.942 155.77 145.134 155.805 145.376 155.805C145.415 155.805 145.454 155.805 145.493 155.805C145.532 155.797 145.571 155.79 145.61 155.782C145.634 155.68 145.653 155.59 145.669 155.512C145.692 155.426 145.704 155.352 145.704 155.29C145.72 155.141 145.72 154.989 145.704 154.833C145.689 154.676 145.657 154.536 145.61 154.411C145.571 154.278 145.517 154.172 145.446 154.094C145.384 154.008 145.306 153.965 145.212 153.965C145.064 153.965 144.919 154.008 144.778 154.094C144.646 154.172 144.521 154.286 144.403 154.434ZM143.653 156.497C143.653 156.637 143.661 156.778 143.677 156.919C143.692 157.051 143.724 157.172 143.771 157.282C143.817 157.383 143.88 157.469 143.958 157.54C144.036 157.602 144.138 157.633 144.263 157.633C144.403 157.633 144.532 157.602 144.649 157.54C144.767 157.469 144.872 157.383 144.966 157.282C145.06 157.172 145.142 157.051 145.212 156.919C145.29 156.778 145.357 156.633 145.411 156.485C145.357 156.493 145.302 156.501 145.247 156.508C145.2 156.508 145.146 156.508 145.083 156.508C144.786 156.508 144.528 156.422 144.31 156.251C144.099 156.071 143.935 155.844 143.817 155.571C143.771 155.735 143.732 155.895 143.7 156.051C143.669 156.208 143.653 156.356 143.653 156.497ZM151.118 158.372C150.939 158.372 150.782 158.337 150.649 158.266C150.524 158.204 150.423 158.118 150.345 158.008C150.267 157.899 150.216 157.774 150.192 157.633C150.169 157.485 150.177 157.329 150.216 157.165C150.239 157.055 150.278 156.911 150.333 156.731C150.388 156.544 150.442 156.344 150.497 156.133C150.56 155.915 150.614 155.7 150.661 155.489C150.716 155.27 150.751 155.075 150.767 154.903C150.782 154.723 150.774 154.579 150.743 154.469C150.712 154.352 150.646 154.294 150.544 154.294C150.419 154.294 150.29 154.337 150.157 154.422C150.024 154.501 149.888 154.61 149.747 154.751C149.614 154.891 149.478 155.055 149.337 155.243C149.204 155.422 149.071 155.61 148.939 155.805C148.868 156.071 148.81 156.305 148.763 156.508C148.716 156.704 148.673 156.883 148.634 157.047C148.603 157.204 148.571 157.344 148.54 157.469C148.509 157.587 148.482 157.7 148.458 157.809C148.435 157.887 148.364 157.965 148.247 158.044C148.13 158.114 148.005 158.172 147.872 158.219C147.739 158.266 147.626 158.29 147.532 158.29C147.431 158.29 147.388 158.255 147.403 158.184C147.411 158.137 147.439 158.032 147.485 157.868C147.524 157.704 147.575 157.512 147.638 157.294C147.692 157.067 147.751 156.829 147.814 156.579C147.876 156.329 147.935 156.09 147.989 155.864C148.028 155.684 148.071 155.485 148.118 155.266C148.157 155.079 148.204 154.86 148.259 154.61C148.321 154.36 148.392 154.087 148.47 153.79C148.524 153.743 148.579 153.708 148.634 153.684C148.696 153.653 148.759 153.63 148.821 153.614C148.884 153.59 148.95 153.575 149.021 153.567C149.083 153.567 149.146 153.571 149.208 153.579C149.263 153.587 149.317 153.602 149.372 153.626C149.435 153.641 149.489 153.669 149.536 153.708C149.513 153.762 149.485 153.84 149.454 153.942C149.423 154.036 149.392 154.137 149.36 154.247C149.329 154.372 149.29 154.501 149.243 154.633C149.345 154.493 149.458 154.352 149.583 154.212C149.716 154.063 149.857 153.93 150.005 153.813C150.161 153.696 150.325 153.602 150.497 153.532C150.669 153.454 150.845 153.415 151.024 153.415C151.173 153.415 151.306 153.458 151.423 153.544C151.54 153.63 151.63 153.751 151.692 153.907C151.763 154.055 151.802 154.235 151.81 154.446C151.825 154.657 151.798 154.887 151.728 155.137L151.599 155.653C151.56 155.817 151.509 156.012 151.446 156.239C151.392 156.458 151.321 156.7 151.235 156.965C151.189 157.137 151.169 157.286 151.177 157.411C151.192 157.536 151.271 157.598 151.411 157.598C151.552 157.598 151.728 157.512 151.939 157.34C152.157 157.169 152.376 156.962 152.595 156.719C152.814 156.477 153.021 156.231 153.216 155.981C153.411 155.723 153.56 155.516 153.661 155.36C153.732 155.258 153.798 155.192 153.86 155.161C153.923 155.13 153.97 155.126 154.001 155.149C154.04 155.172 154.06 155.227 154.06 155.313C154.06 155.391 154.028 155.493 153.966 155.618C153.911 155.727 153.825 155.872 153.708 156.051C153.599 156.231 153.466 156.422 153.31 156.626C153.153 156.829 152.985 157.036 152.806 157.247C152.626 157.45 152.439 157.637 152.243 157.809C152.048 157.973 151.853 158.106 151.657 158.208C151.47 158.317 151.29 158.372 151.118 158.372ZM154.317 151.317C154.192 151.301 154.087 151.247 154.001 151.153C153.923 151.051 153.896 150.911 153.919 150.731C153.935 150.614 153.974 150.508 154.036 150.415C154.099 150.313 154.173 150.227 154.259 150.157C154.353 150.087 154.454 150.036 154.564 150.005C154.673 149.973 154.786 149.962 154.903 149.969C155.107 149.993 155.235 150.094 155.29 150.274C155.353 150.446 155.364 150.637 155.325 150.848C155.31 150.958 155.278 151.087 155.232 151.235C155.185 151.383 155.114 151.536 155.021 151.692C154.935 151.848 154.825 152.001 154.692 152.149C154.567 152.297 154.415 152.43 154.235 152.547C154.157 152.594 154.095 152.618 154.048 152.618C154.009 152.61 153.982 152.59 153.966 152.559C153.95 152.52 153.946 152.473 153.954 152.419C153.97 152.364 153.997 152.313 154.036 152.266C154.122 152.18 154.212 152.051 154.306 151.88C154.407 151.7 154.478 151.508 154.517 151.305C154.478 151.313 154.442 151.321 154.411 151.329C154.38 151.337 154.349 151.333 154.317 151.317ZM159.357 155.114C159.388 155.067 159.427 155.04 159.474 155.032C159.528 155.016 159.571 155.02 159.603 155.044C159.634 155.067 159.649 155.106 159.649 155.161C159.657 155.215 159.638 155.29 159.591 155.383C159.435 155.68 159.228 156.001 158.97 156.344C158.72 156.688 158.454 157.012 158.173 157.317C157.892 157.614 157.618 157.86 157.353 158.055C157.087 158.251 156.864 158.348 156.685 158.348C156.427 158.348 156.212 158.297 156.04 158.196C155.868 158.094 155.732 157.969 155.63 157.821C155.536 157.672 155.47 157.512 155.431 157.34C155.392 157.161 155.38 156.997 155.396 156.848C155.403 156.723 155.431 156.501 155.478 156.18C155.524 155.852 155.587 155.477 155.665 155.055C155.743 154.626 155.829 154.169 155.923 153.684C156.024 153.192 156.13 152.719 156.239 152.266C156.107 152.282 155.974 152.297 155.841 152.313C155.708 152.329 155.587 152.337 155.478 152.337C155.228 152.337 154.993 152.309 154.774 152.255C154.548 152.192 154.38 152.133 154.271 152.079C154.208 152.047 154.181 152.005 154.189 151.95C154.196 151.887 154.22 151.829 154.259 151.774C154.298 151.712 154.349 151.661 154.411 151.622C154.466 151.575 154.517 151.551 154.564 151.551C154.712 151.567 154.872 151.583 155.044 151.598C155.216 151.606 155.403 151.606 155.607 151.598C155.755 151.59 155.896 151.579 156.028 151.563C156.169 151.547 156.306 151.528 156.439 151.505C156.54 151.13 156.638 150.805 156.732 150.532C156.833 150.251 156.923 150.055 157.001 149.946C157.024 149.907 157.075 149.876 157.153 149.852C157.239 149.821 157.329 149.801 157.423 149.794C157.517 149.778 157.607 149.778 157.692 149.794C157.778 149.801 157.841 149.829 157.88 149.876C157.919 149.938 157.935 150.098 157.927 150.356C157.919 150.614 157.876 150.942 157.798 151.34C158.126 151.34 158.415 151.36 158.665 151.399C158.923 151.43 159.142 151.469 159.321 151.516C159.501 151.555 159.646 151.598 159.755 151.645C159.864 151.684 159.946 151.712 160.001 151.727C160.056 151.743 160.083 151.782 160.083 151.844C160.091 151.907 160.079 151.973 160.048 152.044C160.024 152.106 159.982 152.161 159.919 152.208C159.857 152.255 159.786 152.27 159.708 152.255C159.63 152.247 159.54 152.231 159.439 152.208C159.345 152.184 159.228 152.165 159.087 152.149C158.954 152.133 158.794 152.118 158.607 152.102C158.419 152.087 158.2 152.079 157.95 152.079C157.903 152.079 157.849 152.083 157.786 152.09C157.732 152.09 157.673 152.09 157.61 152.09C157.579 152.215 157.548 152.34 157.517 152.465C157.493 152.583 157.458 152.708 157.411 152.84C157.31 153.153 157.192 153.493 157.06 153.86C156.942 154.18 156.802 154.547 156.638 154.962C156.474 155.376 156.29 155.817 156.087 156.286C156.04 156.622 156.044 156.88 156.099 157.059C156.161 157.231 156.235 157.356 156.321 157.434C156.423 157.52 156.548 157.567 156.696 157.575C156.814 157.59 156.954 157.551 157.118 157.458C157.29 157.356 157.466 157.223 157.646 157.059C157.825 156.895 158.005 156.715 158.185 156.52C158.372 156.325 158.544 156.133 158.7 155.946C158.857 155.758 158.993 155.59 159.11 155.442C159.228 155.286 159.31 155.176 159.357 155.114ZM167.478 157.54C167.478 157.376 167.493 157.188 167.524 156.977C167.564 156.766 167.61 156.551 167.665 156.333C167.72 156.106 167.774 155.887 167.829 155.676C167.884 155.465 167.931 155.278 167.97 155.114C168.017 154.911 168.013 154.755 167.958 154.645C167.903 154.536 167.81 154.481 167.677 154.481C167.614 154.481 167.489 154.536 167.302 154.645C167.122 154.755 166.923 154.946 166.704 155.219C166.493 155.485 166.282 155.848 166.071 156.309C165.868 156.762 165.708 157.34 165.591 158.044C165.442 158.122 165.302 158.172 165.169 158.196C165.099 158.212 165.036 158.223 164.982 158.231C164.825 158.239 164.724 158.212 164.677 158.149C164.63 158.094 164.638 157.954 164.7 157.727C164.732 157.618 164.786 157.442 164.864 157.2C164.95 156.958 165.032 156.696 165.11 156.415C165.189 156.126 165.255 155.84 165.31 155.559C165.372 155.27 165.403 155.02 165.403 154.809C165.403 154.661 165.376 154.559 165.321 154.505C165.274 154.45 165.204 154.422 165.11 154.422C165.04 154.422 164.923 154.462 164.759 154.54C164.595 154.618 164.411 154.77 164.208 154.997C164.005 155.223 163.802 155.54 163.599 155.946C163.403 156.344 163.235 156.864 163.095 157.505V157.481C163.079 157.544 163.064 157.606 163.048 157.669C163.032 157.723 163.021 157.782 163.013 157.844C163.005 157.907 162.993 157.965 162.978 158.02L162.392 158.278C162.353 158.294 162.302 158.305 162.239 158.313C162.185 158.321 162.13 158.309 162.075 158.278C162.028 158.255 161.993 158.2 161.97 158.114C161.946 158.028 161.954 157.899 161.993 157.727L162.732 154.669C162.755 154.567 162.774 154.469 162.79 154.376C162.806 154.29 162.814 154.208 162.814 154.13C162.821 154.044 162.817 153.973 162.802 153.919C162.935 153.856 163.052 153.809 163.153 153.778C163.255 153.747 163.337 153.723 163.399 153.708C163.478 153.684 163.544 153.672 163.599 153.672C163.849 153.672 163.931 153.887 163.845 154.317C163.814 154.442 163.767 154.626 163.704 154.868C163.853 154.68 164.009 154.505 164.173 154.34C164.345 154.169 164.517 154.016 164.689 153.883C164.86 153.751 165.032 153.645 165.204 153.567C165.384 153.489 165.56 153.45 165.732 153.45C165.864 153.45 165.974 153.489 166.06 153.567C166.153 153.645 166.224 153.751 166.271 153.883C166.325 154.008 166.357 154.161 166.364 154.34C166.372 154.512 166.364 154.692 166.341 154.88C166.466 154.715 166.603 154.551 166.751 154.387C166.907 154.215 167.067 154.063 167.232 153.93C167.403 153.797 167.579 153.688 167.759 153.602C167.939 153.516 168.118 153.473 168.298 153.473C168.509 153.473 168.669 153.536 168.778 153.661C168.896 153.786 168.974 153.946 169.013 154.141C169.06 154.337 169.071 154.547 169.048 154.774C169.032 155.001 169.001 155.219 168.954 155.43L168.556 157.012C168.47 157.403 168.552 157.598 168.802 157.598C168.997 157.598 169.212 157.505 169.446 157.317C169.681 157.13 169.907 156.907 170.126 156.649C170.353 156.391 170.564 156.126 170.759 155.852C170.954 155.579 171.118 155.36 171.251 155.196C171.298 155.141 171.345 155.11 171.392 155.102C171.446 155.094 171.489 155.106 171.521 155.137C171.56 155.161 171.579 155.204 171.579 155.266C171.587 155.329 171.567 155.407 171.521 155.501C171.364 155.774 171.173 156.079 170.946 156.415C170.72 156.743 170.47 157.051 170.196 157.34C169.931 157.63 169.646 157.872 169.341 158.067C169.036 158.262 168.72 158.36 168.392 158.36C168.282 158.36 168.173 158.348 168.064 158.325C167.962 158.301 167.864 158.258 167.771 158.196C167.685 158.133 167.614 158.051 167.56 157.95C167.505 157.84 167.478 157.704 167.478 157.54ZM173.208 151.176C173.185 151.262 173.138 151.348 173.067 151.434C173.005 151.512 172.931 151.579 172.845 151.633C172.767 151.68 172.685 151.712 172.599 151.727C172.513 151.743 172.442 151.727 172.388 151.68C172.224 151.555 172.138 151.422 172.13 151.282C172.122 151.133 172.157 150.997 172.235 150.872C172.314 150.739 172.411 150.63 172.528 150.544C172.646 150.45 172.747 150.395 172.833 150.38C172.919 150.364 172.989 150.383 173.044 150.438C173.106 150.485 173.153 150.551 173.185 150.637C173.216 150.715 173.231 150.805 173.231 150.907C173.239 151.008 173.231 151.098 173.208 151.176ZM171.591 153.672C171.63 153.626 171.704 153.587 171.814 153.555C171.923 153.524 172.036 153.501 172.153 153.485C172.271 153.462 172.376 153.45 172.47 153.45C172.571 153.442 172.63 153.442 172.646 153.45C172.653 153.458 172.634 153.54 172.587 153.696C172.54 153.852 172.481 154.036 172.411 154.247C172.341 154.458 172.267 154.676 172.189 154.903C172.11 155.122 172.052 155.301 172.013 155.442C171.974 155.583 171.927 155.743 171.872 155.922C171.817 156.094 171.767 156.266 171.72 156.438C171.681 156.602 171.653 156.758 171.638 156.907C171.622 157.055 171.634 157.169 171.673 157.247C171.712 157.34 171.755 157.407 171.802 157.446C171.849 157.477 171.899 157.493 171.954 157.493C172.11 157.493 172.306 157.407 172.54 157.235C172.782 157.063 173.024 156.86 173.267 156.626C173.517 156.383 173.747 156.141 173.958 155.899C174.169 155.649 174.325 155.45 174.427 155.301C174.489 155.223 174.552 155.172 174.614 155.149C174.685 155.126 174.739 155.13 174.778 155.161C174.825 155.192 174.849 155.243 174.849 155.313C174.856 155.383 174.833 155.465 174.778 155.559C174.653 155.778 174.47 156.04 174.228 156.344C173.985 156.641 173.728 156.93 173.454 157.212C173.181 157.485 172.911 157.719 172.646 157.915C172.388 158.11 172.177 158.212 172.013 158.219C171.88 158.227 171.747 158.204 171.614 158.149C171.489 158.102 171.372 158.036 171.263 157.95C171.161 157.856 171.075 157.751 171.005 157.633C170.935 157.508 170.896 157.38 170.888 157.247C170.864 157.051 170.864 156.786 170.888 156.45C170.911 156.106 170.954 155.758 171.017 155.407C171.079 155.047 171.157 154.708 171.251 154.387C171.353 154.067 171.466 153.829 171.591 153.672ZM175.575 157.68C175.622 157.712 175.681 157.727 175.751 157.727C175.829 157.727 175.903 157.712 175.974 157.68C176.052 157.649 176.122 157.606 176.185 157.551C176.255 157.497 176.306 157.426 176.337 157.34C176.368 157.255 176.368 157.133 176.337 156.977C176.306 156.813 176.255 156.641 176.185 156.462C176.122 156.274 176.052 156.087 175.974 155.899C175.896 155.712 175.829 155.54 175.774 155.383C175.728 155.266 175.689 155.157 175.657 155.055C175.626 154.969 175.595 154.887 175.564 154.809C175.54 154.723 175.521 154.665 175.505 154.633C175.466 154.696 175.396 154.797 175.294 154.938C175.2 155.079 175.095 155.227 174.978 155.383C174.868 155.532 174.763 155.672 174.661 155.805C174.56 155.93 174.489 156.016 174.45 156.063C174.388 156.133 174.325 156.176 174.263 156.192C174.208 156.2 174.161 156.188 174.122 156.157C174.083 156.118 174.06 156.067 174.052 156.005C174.052 155.934 174.083 155.852 174.146 155.758C174.192 155.696 174.263 155.598 174.356 155.465C174.45 155.325 174.544 155.184 174.638 155.044C174.731 154.895 174.817 154.766 174.896 154.657C174.974 154.54 175.017 154.469 175.024 154.446C175.04 154.383 175.017 154.301 174.954 154.2C174.899 154.098 174.892 153.981 174.931 153.848C174.962 153.739 175.032 153.614 175.142 153.473C175.251 153.325 175.38 153.192 175.528 153.075C175.677 152.958 175.829 152.872 175.985 152.817C176.142 152.755 176.282 152.755 176.407 152.817C176.509 152.88 176.591 152.95 176.653 153.028C176.716 153.098 176.739 153.172 176.724 153.251C176.708 153.29 176.685 153.34 176.653 153.403C176.622 153.465 176.575 153.544 176.513 153.637C176.45 153.723 176.36 153.837 176.243 153.977C176.267 154.157 176.298 154.321 176.337 154.469C176.384 154.618 176.427 154.747 176.466 154.856C176.513 154.989 176.564 155.11 176.618 155.219C176.689 155.36 176.763 155.505 176.841 155.653C176.919 155.801 176.989 155.95 177.052 156.098C177.114 156.239 177.165 156.372 177.204 156.497C177.243 156.622 177.255 156.727 177.239 156.813C177.216 156.946 177.146 157.106 177.028 157.294C176.919 157.481 176.778 157.665 176.606 157.844C176.442 158.016 176.251 158.165 176.032 158.29C175.821 158.415 175.599 158.477 175.364 158.477C175.2 158.477 175.04 158.426 174.884 158.325C174.735 158.223 174.606 158.106 174.497 157.973C174.396 157.833 174.317 157.696 174.263 157.563C174.216 157.43 174.212 157.329 174.251 157.258C174.298 157.165 174.341 157.09 174.38 157.036C174.419 156.981 174.478 156.919 174.556 156.848C174.587 156.825 174.626 156.797 174.673 156.766C174.712 156.743 174.767 156.719 174.837 156.696C174.907 156.672 174.989 156.645 175.083 156.614C175.161 156.856 175.231 157.047 175.294 157.188C175.356 157.321 175.407 157.426 175.446 157.505C175.493 157.59 175.536 157.649 175.575 157.68ZM179.794 157.68C179.841 157.712 179.899 157.727 179.97 157.727C180.048 157.727 180.122 157.712 180.192 157.68C180.271 157.649 180.341 157.606 180.403 157.551C180.474 157.497 180.524 157.426 180.556 157.34C180.587 157.255 180.587 157.133 180.556 156.977C180.524 156.813 180.474 156.641 180.403 156.462C180.341 156.274 180.271 156.087 180.192 155.899C180.114 155.712 180.048 155.54 179.993 155.383C179.946 155.266 179.907 155.157 179.876 155.055C179.845 154.969 179.814 154.887 179.782 154.809C179.759 154.723 179.739 154.665 179.724 154.633C179.685 154.696 179.614 154.797 179.513 154.938C179.419 155.079 179.314 155.227 179.196 155.383C179.087 155.532 178.981 155.672 178.88 155.805C178.778 155.93 178.708 156.016 178.669 156.063C178.606 156.133 178.544 156.176 178.481 156.192C178.427 156.2 178.38 156.188 178.341 156.157C178.302 156.118 178.278 156.067 178.271 156.005C178.271 155.934 178.302 155.852 178.364 155.758C178.411 155.696 178.481 155.598 178.575 155.465C178.669 155.325 178.763 155.184 178.856 155.044C178.95 154.895 179.036 154.766 179.114 154.657C179.192 154.54 179.235 154.469 179.243 154.446C179.259 154.383 179.235 154.301 179.173 154.2C179.118 154.098 179.11 153.981 179.149 153.848C179.181 153.739 179.251 153.614 179.36 153.473C179.47 153.325 179.599 153.192 179.747 153.075C179.896 152.958 180.048 152.872 180.204 152.817C180.36 152.755 180.501 152.755 180.626 152.817C180.728 152.88 180.81 152.95 180.872 153.028C180.935 153.098 180.958 153.172 180.942 153.251C180.927 153.29 180.903 153.34 180.872 153.403C180.841 153.465 180.794 153.544 180.731 153.637C180.669 153.723 180.579 153.837 180.462 153.977C180.485 154.157 180.517 154.321 180.556 154.469C180.603 154.618 180.646 154.747 180.685 154.856C180.731 154.989 180.782 155.11 180.837 155.219C180.907 155.36 180.981 155.505 181.06 155.653C181.138 155.801 181.208 155.95 181.271 156.098C181.333 156.239 181.384 156.372 181.423 156.497C181.462 156.622 181.474 156.727 181.458 156.813C181.435 156.946 181.364 157.106 181.247 157.294C181.138 157.481 180.997 157.665 180.825 157.844C180.661 158.016 180.47 158.165 180.251 158.29C180.04 158.415 179.817 158.477 179.583 158.477C179.419 158.477 179.259 158.426 179.103 158.325C178.954 158.223 178.825 158.106 178.716 157.973C178.614 157.833 178.536 157.696 178.481 157.563C178.435 157.43 178.431 157.329 178.47 157.258C178.517 157.165 178.56 157.09 178.599 157.036C178.638 156.981 178.696 156.919 178.774 156.848C178.806 156.825 178.845 156.797 178.892 156.766C178.931 156.743 178.985 156.719 179.056 156.696C179.126 156.672 179.208 156.645 179.302 156.614C179.38 156.856 179.45 157.047 179.513 157.188C179.575 157.321 179.626 157.426 179.665 157.505C179.712 157.59 179.755 157.649 179.794 157.68ZM188.302 151.176C188.278 151.262 188.231 151.348 188.161 151.434C188.099 151.512 188.024 151.579 187.939 151.633C187.86 151.68 187.778 151.712 187.692 151.727C187.606 151.743 187.536 151.727 187.481 151.68C187.317 151.555 187.231 151.422 187.224 151.282C187.216 151.133 187.251 150.997 187.329 150.872C187.407 150.739 187.505 150.63 187.622 150.544C187.739 150.45 187.841 150.395 187.927 150.38C188.013 150.364 188.083 150.383 188.138 150.438C188.2 150.485 188.247 150.551 188.278 150.637C188.31 150.715 188.325 150.805 188.325 150.907C188.333 151.008 188.325 151.098 188.302 151.176ZM186.685 153.672C186.724 153.626 186.798 153.587 186.907 153.555C187.017 153.524 187.13 153.501 187.247 153.485C187.364 153.462 187.47 153.45 187.564 153.45C187.665 153.442 187.724 153.442 187.739 153.45C187.747 153.458 187.728 153.54 187.681 153.696C187.634 153.852 187.575 154.036 187.505 154.247C187.435 154.458 187.36 154.676 187.282 154.903C187.204 155.122 187.146 155.301 187.106 155.442C187.067 155.583 187.021 155.743 186.966 155.922C186.911 156.094 186.86 156.266 186.814 156.438C186.774 156.602 186.747 156.758 186.731 156.907C186.716 157.055 186.728 157.169 186.767 157.247C186.806 157.34 186.849 157.407 186.896 157.446C186.942 157.477 186.993 157.493 187.048 157.493C187.204 157.493 187.399 157.407 187.634 157.235C187.876 157.063 188.118 156.86 188.36 156.626C188.61 156.383 188.841 156.141 189.052 155.899C189.263 155.649 189.419 155.45 189.521 155.301C189.583 155.223 189.646 155.172 189.708 155.149C189.778 155.126 189.833 155.13 189.872 155.161C189.919 155.192 189.942 155.243 189.942 155.313C189.95 155.383 189.927 155.465 189.872 155.559C189.747 155.778 189.564 156.04 189.321 156.344C189.079 156.641 188.821 156.93 188.548 157.212C188.274 157.485 188.005 157.719 187.739 157.915C187.481 158.11 187.271 158.212 187.106 158.219C186.974 158.227 186.841 158.204 186.708 158.149C186.583 158.102 186.466 158.036 186.356 157.95C186.255 157.856 186.169 157.751 186.099 157.633C186.028 157.508 185.989 157.38 185.981 157.247C185.958 157.051 185.958 156.786 185.981 156.45C186.005 156.106 186.048 155.758 186.11 155.407C186.173 155.047 186.251 154.708 186.345 154.387C186.446 154.067 186.56 153.829 186.685 153.672ZM193.341 155.114C193.372 155.067 193.411 155.04 193.458 155.032C193.513 155.016 193.556 155.02 193.587 155.044C193.618 155.067 193.634 155.106 193.634 155.161C193.642 155.215 193.622 155.29 193.575 155.383C193.419 155.68 193.212 156.001 192.954 156.344C192.704 156.688 192.439 157.012 192.157 157.317C191.876 157.614 191.603 157.86 191.337 158.055C191.071 158.251 190.849 158.348 190.669 158.348C190.411 158.348 190.196 158.297 190.024 158.196C189.853 158.094 189.716 157.969 189.614 157.821C189.521 157.672 189.454 157.512 189.415 157.34C189.376 157.161 189.364 156.997 189.38 156.848C189.388 156.723 189.415 156.501 189.462 156.18C189.509 155.852 189.571 155.477 189.649 155.055C189.728 154.626 189.814 154.169 189.907 153.684C190.009 153.192 190.114 152.719 190.224 152.266C190.091 152.282 189.958 152.297 189.825 152.313C189.692 152.329 189.571 152.337 189.462 152.337C189.212 152.337 188.978 152.309 188.759 152.255C188.532 152.192 188.364 152.133 188.255 152.079C188.192 152.047 188.165 152.005 188.173 151.95C188.181 151.887 188.204 151.829 188.243 151.774C188.282 151.712 188.333 151.661 188.396 151.622C188.45 151.575 188.501 151.551 188.548 151.551C188.696 151.567 188.856 151.583 189.028 151.598C189.2 151.606 189.388 151.606 189.591 151.598C189.739 151.59 189.88 151.579 190.013 151.563C190.153 151.547 190.29 151.528 190.423 151.505C190.524 151.13 190.622 150.805 190.716 150.532C190.817 150.251 190.907 150.055 190.985 149.946C191.009 149.907 191.06 149.876 191.138 149.852C191.224 149.821 191.314 149.801 191.407 149.794C191.501 149.778 191.591 149.778 191.677 149.794C191.763 149.801 191.825 149.829 191.864 149.876C191.903 149.938 191.919 150.098 191.911 150.356C191.903 150.614 191.86 150.942 191.782 151.34C192.11 151.34 192.399 151.36 192.649 151.399C192.907 151.43 193.126 151.469 193.306 151.516C193.485 151.555 193.63 151.598 193.739 151.645C193.849 151.684 193.931 151.712 193.985 151.727C194.04 151.743 194.067 151.782 194.067 151.844C194.075 151.907 194.064 151.973 194.032 152.044C194.009 152.106 193.966 152.161 193.903 152.208C193.841 152.255 193.771 152.27 193.692 152.255C193.614 152.247 193.524 152.231 193.423 152.208C193.329 152.184 193.212 152.165 193.071 152.149C192.939 152.133 192.778 152.118 192.591 152.102C192.403 152.087 192.185 152.079 191.935 152.079C191.888 152.079 191.833 152.083 191.771 152.09C191.716 152.09 191.657 152.09 191.595 152.09C191.564 152.215 191.532 152.34 191.501 152.465C191.478 152.583 191.442 152.708 191.396 152.84C191.294 153.153 191.177 153.493 191.044 153.86C190.927 154.18 190.786 154.547 190.622 154.962C190.458 155.376 190.274 155.817 190.071 156.286C190.024 156.622 190.028 156.88 190.083 157.059C190.146 157.231 190.22 157.356 190.306 157.434C190.407 157.52 190.532 157.567 190.681 157.575C190.798 157.59 190.939 157.551 191.103 157.458C191.274 157.356 191.45 157.223 191.63 157.059C191.81 156.895 191.989 156.715 192.169 156.52C192.356 156.325 192.528 156.133 192.685 155.946C192.841 155.758 192.978 155.59 193.095 155.442C193.212 155.286 193.294 155.176 193.341 155.114ZM198.521 149.278C198.599 149.262 198.681 149.255 198.767 149.255C198.837 149.255 198.911 149.262 198.989 149.278C199.075 149.294 199.153 149.325 199.224 149.372L197.442 155.969C197.419 156.055 197.349 156.141 197.231 156.227C197.114 156.313 196.989 156.383 196.856 156.438C196.731 156.485 196.618 156.512 196.517 156.52C196.423 156.52 196.384 156.481 196.399 156.403C196.431 156.278 196.501 155.973 196.61 155.489C196.657 155.278 196.716 155.02 196.786 154.715C196.856 154.403 196.939 154.028 197.032 153.59C197.134 153.153 197.251 152.645 197.384 152.067C197.517 151.481 197.669 150.813 197.841 150.063C197.849 150.008 197.856 149.954 197.864 149.899C197.872 149.86 197.872 149.817 197.864 149.77C197.864 149.723 197.856 149.688 197.841 149.665C197.903 149.594 197.974 149.536 198.052 149.489C198.13 149.434 198.204 149.391 198.274 149.36C198.36 149.329 198.442 149.301 198.521 149.278ZM196.716 157.188C196.919 157.157 197.083 157.176 197.208 157.247C197.333 157.309 197.388 157.43 197.372 157.61C197.364 157.712 197.321 157.809 197.243 157.903C197.165 157.989 197.071 158.067 196.962 158.137C196.86 158.208 196.751 158.262 196.634 158.301C196.524 158.34 196.427 158.36 196.341 158.36C196.177 158.36 196.036 158.325 195.919 158.255C195.802 158.184 195.751 158.071 195.767 157.915C195.774 157.813 195.81 157.723 195.872 157.645C195.927 157.559 195.997 157.485 196.083 157.422C196.177 157.36 196.278 157.309 196.388 157.27C196.497 157.231 196.606 157.204 196.716 157.188Z" fill="#231F20"/>
<path d="M190.121 42.7122V21.7307H197.211C198.85 21.7307 200.195 22.0108 201.247 22.5708C202.299 23.124 203.078 23.8856 203.583 24.8554C204.088 25.8252 204.341 26.9283 204.341 28.1645C204.341 29.4007 204.088 30.4969 203.583 31.4531C203.078 32.4093 202.302 33.1606 201.257 33.7069C200.212 34.2465 198.877 34.5163 197.252 34.5163H191.515V32.2214H197.17C198.29 32.2214 199.191 32.0575 199.874 31.7297C200.564 31.4019 201.063 30.9374 201.37 30.3364C201.684 29.7285 201.841 29.0046 201.841 28.1645C201.841 27.3244 201.684 26.5902 201.37 25.9618C201.056 25.3335 200.554 24.8486 199.864 24.5071C199.174 24.1588 198.263 23.9846 197.129 23.9846H192.662V42.7122H190.121ZM199.997 33.2869L205.161 42.7122H202.21L197.129 33.2869H199.997ZM208.575 42.7122V21.7307H221.237V23.9846H211.116V31.074H220.582V33.3279H211.116V40.4583H221.401V42.7122H208.575ZM234.504 31.0945V33.3484H225.325V31.0945H234.504Z" fill="#231F20"/>
<path d="M148.705 60.9861C148.705 64.0229 148.157 66.6473 147.06 68.8592C145.964 71.0712 144.459 72.7771 142.547 73.9768C140.635 75.1765 138.451 75.7763 135.996 75.7763C133.54 75.7763 131.356 75.1765 129.444 73.9768C127.532 72.7771 126.028 71.0712 124.931 68.8592C123.835 66.6473 123.286 64.0229 123.286 60.9861C123.286 57.9493 123.835 55.3249 124.931 53.113C126.028 50.901 127.532 49.1952 129.444 47.9954C131.356 46.7957 133.54 46.1959 135.996 46.1959C138.451 46.1959 140.635 46.7957 142.547 47.9954C144.459 49.1952 145.964 50.901 147.06 53.113C148.157 55.3249 148.705 57.9493 148.705 60.9861ZM145.331 60.9861C145.331 58.4929 144.914 56.3888 144.08 54.6735C143.255 52.9583 142.135 51.6602 140.72 50.7792C139.314 49.8981 137.739 49.4576 135.996 49.4576C134.252 49.4576 132.673 49.8981 131.258 50.7792C129.852 51.6602 128.732 52.9583 127.898 54.6735C127.073 56.3888 126.66 58.4929 126.66 60.9861C126.66 63.4793 127.073 65.5835 127.898 67.2987C128.732 69.0139 129.852 70.312 131.258 71.1931C132.673 72.0741 134.252 72.5146 135.996 72.5146C137.739 72.5146 139.314 72.0741 140.72 71.1931C142.135 70.312 143.255 69.0139 144.08 67.2987C144.914 65.5835 145.331 63.4793 145.331 60.9861ZM154.568 75.3827V46.5895H164.297C166.556 46.5895 168.402 46.9972 169.836 47.8127C171.28 48.6187 172.348 49.7107 173.042 51.0885C173.735 52.4663 174.082 54.0034 174.082 55.6999C174.082 57.3963 173.735 58.9382 173.042 60.3253C172.357 61.7125 171.298 62.8185 169.864 63.6433C168.43 64.4587 166.593 64.8664 164.353 64.8664H157.38V61.7734H164.241C165.787 61.7734 167.029 61.5063 167.966 60.972C168.904 60.4378 169.583 59.7161 170.005 58.8069C170.436 57.8884 170.652 56.8527 170.652 55.6999C170.652 54.547 170.436 53.516 170.005 52.6068C169.583 51.6977 168.899 50.9854 167.952 50.4699C167.006 49.945 165.75 49.6825 164.184 49.6825H158.055V75.3827H154.568ZM179.699 75.3827V46.5895H197.076V49.6825H183.185V59.4115H196.176V62.5045H183.185V72.2897H197.301V75.3827H179.699ZM226.192 46.5895V75.3827H222.818L207.128 52.7756H206.847V75.3827H203.36V46.5895H206.734L222.481 69.2529H222.762V46.5895H226.192ZM236.656 46.5895V75.3827H233.169V46.5895H236.656ZM266.479 46.5895V75.3827H263.105L247.415 52.7756H247.133V75.3827H243.647V46.5895H247.021L262.767 69.2529H263.048V46.5895H266.479ZM293.139 55.5874C292.829 54.6407 292.422 53.7925 291.915 53.0427C291.419 52.2835 290.823 51.6368 290.13 51.1025C289.446 50.5683 288.668 50.1605 287.796 49.8794C286.924 49.5982 285.968 49.4576 284.928 49.4576C283.222 49.4576 281.671 49.8981 280.274 50.7792C278.878 51.6602 277.767 52.9583 276.942 54.6735C276.118 56.3888 275.705 58.4929 275.705 60.9861C275.705 63.4793 276.122 65.5835 276.956 67.2987C277.791 69.0139 278.92 70.312 280.345 71.1931C281.769 72.0741 283.372 72.5146 285.153 72.5146C286.803 72.5146 288.255 72.1631 289.511 71.4602C290.777 70.7479 291.761 69.745 292.464 68.4515C293.176 67.1487 293.532 65.6163 293.532 63.8542L294.601 64.0791H285.94V60.9861H296.906V64.0791C296.906 66.4504 296.4 68.5124 295.388 70.2652C294.385 72.0179 292.998 73.3769 291.226 74.3423C289.464 75.2983 287.44 75.7763 285.153 75.7763C282.604 75.7763 280.363 75.1765 278.433 73.9768C276.511 72.7771 275.012 71.0712 273.934 68.8592C272.865 66.6473 272.331 64.0229 272.331 60.9861C272.331 58.7085 272.636 56.6606 273.245 54.8422C273.863 53.0146 274.735 51.4587 275.86 50.1746C276.985 48.8905 278.315 47.9064 279.853 47.2222C281.39 46.538 283.082 46.1959 284.928 46.1959C286.446 46.1959 287.862 46.4255 289.174 46.8848C290.495 47.3347 291.672 47.9767 292.703 48.8109C293.743 49.6357 294.61 50.6245 295.304 51.7774C295.997 52.9208 296.475 54.1908 296.738 55.5874H293.139Z" fill="#231F20"/>
<path d="M147.195 93.8949C146.918 91.5562 145.794 89.7406 143.825 88.4482C141.856 87.1557 139.44 86.5095 136.578 86.5095C134.486 86.5095 132.655 86.848 131.085 87.525C129.531 88.202 128.316 89.1329 127.439 90.3176C126.577 91.5023 126.146 92.8486 126.146 94.3565C126.146 95.6181 126.446 96.7029 127.046 97.6107C127.662 98.5031 128.446 99.2493 129.4 99.8494C130.354 100.434 131.354 100.919 132.401 101.303C133.447 101.673 134.409 101.973 135.286 102.203L140.086 103.496C141.317 103.819 142.686 104.265 144.194 104.834C145.718 105.404 147.172 106.181 148.556 107.165C149.956 108.135 151.11 109.381 152.018 110.904C152.926 112.428 153.38 114.297 153.38 116.513C153.38 119.067 152.711 121.375 151.372 123.436C150.049 125.498 148.11 127.137 145.556 128.352C143.017 129.568 139.932 130.176 136.301 130.176C132.916 130.176 129.985 129.629 127.508 128.537C125.046 127.445 123.107 125.921 121.692 123.967C120.292 122.013 119.499 119.744 119.315 117.159H125.223C125.377 118.944 125.977 120.421 127.023 121.59C128.085 122.744 129.424 123.606 131.039 124.175C132.67 124.729 134.424 125.006 136.301 125.006C138.486 125.006 140.448 124.652 142.186 123.944C143.925 123.221 145.302 122.221 146.318 120.944C147.333 119.651 147.841 118.144 147.841 116.42C147.841 114.851 147.402 113.574 146.525 112.589C145.648 111.604 144.494 110.804 143.063 110.189C141.632 109.573 140.086 109.035 138.424 108.573L132.608 106.912C128.916 105.85 125.992 104.334 123.838 102.365C121.684 100.396 120.607 97.8184 120.607 94.6334C120.607 91.987 121.323 89.6791 122.754 87.7096C124.2 85.7248 126.139 84.1862 128.57 83.0938C131.016 81.986 133.747 81.4321 136.763 81.4321C139.809 81.4321 142.517 81.9783 144.887 83.0707C147.256 84.1477 149.133 85.6248 150.518 87.5019C151.918 89.379 152.657 91.51 152.734 93.8949H147.195ZM202.672 105.711C202.672 110.697 201.771 115.005 199.971 118.636C198.171 122.267 195.702 125.067 192.563 127.037C189.424 129.006 185.839 129.991 181.808 129.991C177.777 129.991 174.192 129.006 171.053 127.037C167.914 125.067 165.445 122.267 163.644 118.636C161.844 115.005 160.944 110.697 160.944 105.711C160.944 100.726 161.844 96.4182 163.644 92.7871C165.445 89.1559 167.914 86.3556 171.053 84.3862C174.192 82.4168 177.777 81.4321 181.808 81.4321C185.839 81.4321 189.424 82.4168 192.563 84.3862C195.702 86.3556 198.171 89.1559 199.971 92.7871C201.771 96.4182 202.672 100.726 202.672 105.711ZM197.132 105.711C197.132 101.619 196.448 98.1646 195.078 95.3489C193.724 92.5332 191.886 90.4022 189.562 88.9559C187.255 87.5096 184.67 86.7865 181.808 86.7865C178.946 86.7865 176.353 87.5096 174.03 88.9559C171.722 90.4022 169.883 92.5332 168.514 95.3489C167.16 98.1646 166.483 101.619 166.483 105.711C166.483 109.804 167.16 113.258 168.514 116.074C169.883 118.89 171.722 121.021 174.03 122.467C176.353 123.913 178.946 124.637 181.808 124.637C184.67 124.637 187.255 123.913 189.562 122.467C191.886 121.021 193.724 118.89 195.078 116.074C196.448 113.258 197.132 109.804 197.132 105.711ZM252.177 105.711C252.177 110.697 251.277 115.005 249.476 118.636C247.676 122.267 245.207 125.067 242.068 127.037C238.929 129.006 235.344 129.991 231.313 129.991C227.282 129.991 223.697 129.006 220.558 127.037C217.419 125.067 214.95 122.267 213.15 118.636C211.349 115.005 210.449 110.697 210.449 105.711C210.449 100.726 211.349 96.4182 213.15 92.7871C214.95 89.1559 217.419 86.3556 220.558 84.3862C223.697 82.4168 227.282 81.4321 231.313 81.4321C235.344 81.4321 238.929 82.4168 242.068 84.3862C245.207 86.3556 247.676 89.1559 249.476 92.7871C251.277 96.4182 252.177 100.726 252.177 105.711ZM246.638 105.711C246.638 101.619 245.953 98.1646 244.584 95.3489C243.23 92.5332 241.391 90.4022 239.068 88.9559C236.76 87.5096 234.175 86.7865 231.313 86.7865C228.451 86.7865 225.859 87.5096 223.535 88.9559C221.227 90.4022 219.389 92.5332 218.019 95.3489C216.665 98.1646 215.988 101.619 215.988 105.711C215.988 109.804 216.665 113.258 218.019 116.074C219.389 118.89 221.227 121.021 223.535 122.467C225.859 123.913 228.451 124.637 231.313 124.637C234.175 124.637 236.76 123.913 239.068 122.467C241.391 121.021 243.23 118.89 244.584 116.074C245.953 113.258 246.638 109.804 246.638 105.711ZM299.282 82.0783V129.345H293.743L267.986 92.2332H267.524V129.345H261.801V82.0783H267.34L293.189 119.282H293.65V82.0783H299.282Z" fill="#FFCD60"/>
<path d="M143.248 90.2814L142.718 90.3441L142.773 90.8152H143.248V90.2814ZM139.878 84.8346L139.585 85.281L139.585 85.281L139.878 84.8346ZM127.138 83.9115L126.927 83.4213L126.925 83.422L127.138 83.9115ZM123.492 86.7041L123.063 86.3864L123.06 86.3901L123.492 86.7041ZM123.1 93.9971L122.654 94.2916L122.66 94.3002L123.1 93.9971ZM125.454 96.2358L125.169 96.6877L125.175 96.691L125.454 96.2358ZM128.454 97.6898L128.27 98.1909L128.276 98.1932L128.454 97.6898ZM131.339 98.5899L131.478 98.0744L131.475 98.0736L131.339 98.5899ZM136.139 99.8824L136.001 100.398L136.004 100.399L136.139 99.8824ZM140.247 101.221L140.059 101.72L140.061 101.721L140.247 101.221ZM144.609 103.552L144.3 103.987L144.306 103.991L144.609 103.552ZM148.071 107.291L148.53 107.018L148.53 107.018L148.071 107.291ZM147.425 119.823L146.977 119.532L146.976 119.535L147.425 119.823ZM141.609 124.739L141.38 124.257L141.379 124.257L141.609 124.739ZM123.561 124.923L123.345 125.411L123.346 125.412L123.561 124.923ZM117.745 120.354L117.311 120.665L117.313 120.667L117.745 120.354ZM115.368 113.545V113.011H114.795L114.835 113.583L115.368 113.545ZM121.276 113.545L121.808 113.499L121.766 113.011H121.276V113.545ZM123.076 117.977L122.679 118.333L122.684 118.338L123.076 117.977ZM127.092 120.561L126.915 121.065L126.921 121.067L127.092 120.561ZM138.24 120.331L138.441 120.825L138.445 120.824L138.24 120.331ZM142.371 117.33L142.789 117.663L142.791 117.66L142.371 117.33ZM142.579 108.976L142.977 108.621L142.977 108.621L142.579 108.976ZM139.117 106.575L138.906 107.066L138.906 107.066L139.117 106.575ZM134.478 104.96L134.331 105.473L134.335 105.474L134.478 104.96ZM128.662 103.298L128.514 103.811L128.515 103.811L128.662 103.298ZM119.892 98.7515L119.531 99.1455L119.531 99.1455L119.892 98.7515ZM118.807 84.0961L118.375 83.7817L118.375 83.7823L118.807 84.0961ZM124.623 79.4802L124.842 79.9672L124.843 79.9666L124.623 79.4802ZM140.94 79.4572L140.716 79.942L140.719 79.9432L140.94 79.4572ZM146.571 83.8884L146.142 84.2053L146.143 84.2076L146.571 83.8884ZM148.787 90.2814V90.8152H149.338L149.32 90.2641L148.787 90.2814ZM143.778 90.2186C143.482 87.7232 142.272 85.7673 140.171 84.3883L139.585 85.281C141.423 86.4869 142.459 88.1621 142.718 90.3441L143.778 90.2186ZM140.171 84.3883C138.098 83.0275 135.575 82.3621 132.631 82.3621V83.4298C135.412 83.4298 137.72 84.0569 139.585 85.281L140.171 84.3883ZM132.631 82.3621C130.482 82.3621 128.576 82.7098 126.927 83.4213L127.35 84.4017C128.839 83.7592 130.596 83.4298 132.631 83.4298V82.3621ZM126.925 83.422C125.298 84.1307 124.003 85.1158 123.063 86.3864L123.921 87.0217C124.734 85.9228 125.87 85.0462 127.352 84.4009L126.925 83.422ZM123.06 86.3901C122.13 87.6689 121.666 89.1258 121.666 90.7429H122.733C122.733 89.3444 123.13 88.1087 123.924 87.0181L123.06 86.3901ZM121.666 90.7429C121.666 92.0922 121.988 93.2831 122.654 94.2915L123.545 93.7027C123.011 92.8955 122.733 91.917 122.733 90.7429H121.666ZM122.66 94.3002C123.318 95.2546 124.157 96.0507 125.169 96.6877L125.738 95.7839C124.843 95.2209 124.112 94.5245 123.539 93.694L122.66 94.3002ZM125.175 96.691C126.159 97.294 127.19 97.794 128.27 98.1909L128.638 97.1888C127.625 96.8163 126.657 96.347 125.733 95.7807L125.175 96.691ZM128.276 98.1932C129.333 98.5663 130.309 98.871 131.203 99.1062L131.475 98.0736C130.615 97.8473 129.667 97.5518 128.632 97.1864L128.276 98.1932ZM131.2 99.1054L136.001 100.398L136.278 99.3669L131.478 98.0744L131.2 99.1054ZM136.004 100.399C137.213 100.716 138.564 101.156 140.059 101.72L140.436 100.722C138.915 100.147 137.528 99.6949 136.275 99.366L136.004 100.399ZM140.061 101.721C141.538 102.273 142.951 103.028 144.3 103.987L144.919 103.117C143.498 102.106 142.003 101.307 140.434 100.721L140.061 101.721ZM144.306 103.991C145.64 104.915 146.742 106.104 147.613 107.564L148.53 107.018C147.585 105.431 146.379 104.128 144.913 103.113L144.306 103.991ZM147.613 107.564C148.46 108.986 148.899 110.756 148.899 112.899H149.967C149.967 110.611 149.498 108.642 148.53 107.018L147.613 107.564ZM148.899 112.899C148.899 115.354 148.258 117.56 146.977 119.532L147.873 120.114C149.27 117.962 149.967 115.552 149.967 112.899H148.899ZM146.976 119.535C145.714 121.5 143.858 123.077 141.38 124.257L141.839 125.221C144.468 123.969 146.49 122.269 147.874 120.111L146.976 119.535ZM141.379 124.257C138.93 125.43 135.928 126.028 132.354 126.028V127.096C136.043 127.096 139.211 126.479 141.84 125.22L141.379 124.257ZM132.354 126.028C129.026 126.028 126.171 125.491 123.777 124.435L123.346 125.412C125.906 126.541 128.913 127.096 132.354 127.096V126.028ZM123.778 124.435C121.392 123.377 119.532 121.91 118.177 120.041L117.313 120.667C118.79 122.706 120.807 124.285 123.345 125.411L123.778 124.435ZM118.179 120.043C116.841 118.175 116.079 116.002 115.9 113.507L114.835 113.583C115.027 116.259 115.849 118.624 117.311 120.665L118.179 120.043ZM115.368 114.079H121.276V113.011H115.368V114.079ZM120.744 113.591C120.907 115.474 121.545 117.065 122.679 118.333L123.474 117.621C122.516 116.549 121.954 115.186 121.808 113.499L120.744 113.591ZM122.684 118.338C123.81 119.562 125.225 120.469 126.915 121.065L127.27 120.058C125.729 119.515 124.467 118.699 123.469 117.615L122.684 118.338ZM126.921 121.067C128.612 121.641 130.424 121.926 132.354 121.926V120.858C130.53 120.858 128.835 120.589 127.264 120.056L126.921 121.067ZM132.354 121.926C134.597 121.926 136.629 121.563 138.441 120.825L138.038 119.836C136.373 120.514 134.481 120.858 132.354 120.858V121.926ZM138.445 120.824C140.254 120.071 141.709 119.021 142.789 117.663L141.953 116.998C141.002 118.194 139.703 119.144 138.035 119.838L138.445 120.824ZM142.791 117.66C143.884 116.269 144.428 114.643 144.428 112.807H143.36C143.36 114.417 142.889 115.807 141.951 117.001L142.791 117.66ZM144.428 112.807C144.428 111.133 143.957 109.721 142.977 108.621L142.18 109.331C142.954 110.2 143.36 111.342 143.36 112.807H144.428ZM142.977 108.621C142.04 107.568 140.817 106.726 139.328 106.085L138.906 107.066C140.278 107.656 141.363 108.414 142.18 109.331L142.977 108.621ZM139.328 106.085C137.872 105.459 136.303 104.913 134.621 104.445L134.335 105.474C135.976 105.93 137.499 106.461 138.906 107.066L139.328 106.085ZM134.624 104.446L128.808 102.785L128.515 103.811L134.331 105.473L134.624 104.446ZM128.809 102.785C125.172 101.739 122.329 100.257 120.252 98.3575L119.531 99.1455C121.762 101.185 124.766 102.734 128.514 103.811L128.809 102.785ZM120.252 98.3575C118.219 96.499 117.194 94.0702 117.194 91.0199H116.127C116.127 94.3395 117.256 97.065 119.531 99.1455L120.252 98.3575ZM117.194 91.0199C117.194 88.4759 117.88 86.2801 119.239 84.4099L118.375 83.7823C116.872 85.851 116.127 88.2711 116.127 91.0199H117.194ZM119.238 84.4105C120.625 82.507 122.488 81.0249 124.842 79.9672L124.404 78.9933C121.896 80.1204 119.881 81.7155 118.375 83.7817L119.238 84.4105ZM124.843 79.9666C127.212 78.8937 129.867 78.3524 132.816 78.3524V77.2847C129.734 77.2847 126.926 77.8511 124.403 78.9939L124.843 79.9666ZM132.816 78.3524C135.798 78.3524 138.428 78.8868 140.716 79.942L141.163 78.9723C138.713 77.8426 135.927 77.2847 132.816 77.2847V78.3524ZM140.719 79.9432C143.015 80.987 144.817 82.4096 146.142 84.2053L147.001 83.5715C145.556 81.6129 143.603 80.0814 141.161 78.9712L140.719 79.9432ZM146.143 84.2076C147.477 85.9955 148.18 88.0206 148.253 90.2986L149.32 90.2641C149.24 87.7724 148.466 85.5356 146.999 83.5692L146.143 84.2076ZM148.787 89.7475H143.248V90.8152H148.787V89.7475ZM196.024 115.022L195.546 114.785L195.546 114.785L196.024 115.022ZM188.616 123.423L188.9 123.875L188.9 123.875L188.616 123.423ZM167.106 123.423L166.822 123.875L166.822 123.875L167.106 123.423ZM159.698 115.022L160.176 114.785L160.176 114.785L159.698 115.022ZM159.698 89.1736L159.219 88.9364L159.698 89.1736ZM188.616 80.7727L188.9 80.3205L188.9 80.3205L188.616 80.7727ZM196.024 89.1736L195.546 89.4107L195.546 89.4107L196.024 89.1736ZM191.132 91.7354L190.651 91.9667L190.652 91.9688L191.132 91.7354ZM185.616 85.3424L185.332 85.7948L185.334 85.7956L185.616 85.3424ZM170.083 85.3424L169.801 84.8892L169.8 84.89L170.083 85.3424ZM164.567 91.7354L164.087 91.5019L164.086 91.504L164.567 91.7354ZM164.567 112.461L164.086 112.692L164.087 112.694L164.567 112.461ZM170.083 118.854L169.8 119.306L169.801 119.307L170.083 118.854ZM185.616 118.854L185.334 118.4L185.332 118.401L185.616 118.854ZM191.132 112.461L190.652 112.227L190.651 112.229L191.132 112.461ZM198.191 102.098C198.191 107.019 197.302 111.243 195.546 114.785L196.503 115.26C198.347 111.54 199.259 107.147 199.259 102.098H198.191ZM195.546 114.785C193.785 118.337 191.38 121.059 188.332 122.971L188.9 123.875C192.13 121.849 194.663 118.97 196.503 115.26L195.546 114.785ZM188.332 122.971C185.286 124.882 181.801 125.844 177.861 125.844V126.911C181.983 126.911 185.668 125.903 188.9 123.875L188.332 122.971ZM177.861 125.844C173.921 125.844 170.436 124.882 167.39 122.971L166.822 123.875C170.054 125.903 173.739 126.911 177.861 126.911V125.844ZM167.39 122.971C164.342 121.059 161.937 118.337 160.176 114.785L159.219 115.26C161.059 118.97 163.592 121.849 166.822 123.875L167.39 122.971ZM160.176 114.785C158.42 111.243 157.531 107.019 157.531 102.098H156.463C156.463 107.147 157.375 111.54 159.219 115.26L160.176 114.785ZM157.531 102.098C157.531 97.1765 158.42 92.9531 160.176 89.4107L159.219 88.9364C157.375 92.6563 156.463 97.0491 156.463 102.098H157.531ZM160.176 89.4107C161.937 85.8592 164.342 83.1371 167.39 81.2249L166.822 80.3205C163.592 82.3471 161.059 85.2256 159.219 88.9364L160.176 89.4107ZM167.39 81.2249C170.436 79.3135 173.921 78.3524 177.861 78.3524V77.2847C173.739 77.2847 170.054 78.293 166.822 80.3205L167.39 81.2249ZM177.861 78.3524C181.801 78.3524 185.286 79.3135 188.332 81.2249L188.9 80.3205C185.668 78.293 181.983 77.2847 177.861 77.2847V78.3524ZM188.332 81.2249C191.38 83.1371 193.785 85.8592 195.546 89.4107L196.503 88.9364C194.663 85.2256 192.13 82.3471 188.9 80.3205L188.332 81.2249ZM195.546 89.4107C197.302 92.9531 198.191 97.1765 198.191 102.098H199.259C199.259 97.0491 198.347 92.6563 196.503 88.9364L195.546 89.4107ZM193.72 102.098C193.72 97.9482 193.026 94.4091 191.612 91.5019L190.652 91.9688C191.976 94.693 192.652 98.0623 192.652 102.098H193.72ZM191.613 91.504C190.221 88.6102 188.319 86.3963 185.898 84.8892L185.334 85.7956C187.559 87.1811 189.334 89.2291 190.651 91.9667L191.613 91.504ZM185.899 84.89C183.502 83.3877 180.818 82.6391 177.861 82.6391V83.7068C180.628 83.7068 183.114 84.4045 185.332 85.7948L185.899 84.89ZM177.861 82.6391C174.904 82.6391 172.213 83.3877 169.801 84.8892L170.365 85.7956C172.6 84.4045 175.094 83.7068 177.861 83.7068V82.6391ZM169.8 84.89C167.395 86.397 165.494 88.61 164.087 91.5019L165.047 91.9688C166.38 89.2294 168.156 87.1804 170.367 85.7948L169.8 84.89ZM164.086 91.504C162.688 94.4106 162.002 97.949 162.002 102.098H163.07C163.07 98.0615 163.738 94.6914 165.048 91.9667L164.086 91.504ZM162.002 102.098C162.002 106.247 162.688 109.785 164.086 112.692L165.048 112.229C163.738 109.505 163.07 106.134 163.07 102.098H162.002ZM164.087 112.694C165.494 115.586 167.395 117.799 169.8 119.306L170.367 118.401C168.156 117.016 166.38 114.967 165.047 112.227L164.087 112.694ZM169.801 119.307C172.213 120.808 174.904 121.557 177.861 121.557V120.489C175.094 120.489 172.6 119.791 170.365 118.4L169.801 119.307ZM177.861 121.557C180.818 121.557 183.502 120.808 185.899 119.306L185.332 118.401C183.114 119.791 180.628 120.489 177.861 120.489V121.557ZM185.898 119.307C188.319 117.8 190.221 115.586 191.613 112.692L190.651 112.229C189.334 114.967 187.559 117.015 185.334 118.4L185.898 119.307ZM191.612 112.694C193.026 109.787 193.72 106.248 193.72 102.098H192.652C192.652 106.134 191.976 109.503 190.652 112.227L191.612 112.694ZM245.53 115.022L245.051 114.785L245.051 114.785L245.53 115.022ZM238.121 123.423L238.405 123.875L238.405 123.875L238.121 123.423ZM216.611 123.423L216.327 123.875L216.327 123.875L216.611 123.423ZM209.203 115.022L209.681 114.785L209.681 114.785L209.203 115.022ZM209.203 89.1736L208.724 88.9364L209.203 89.1736ZM238.121 80.7727L238.405 80.3205L238.405 80.3205L238.121 80.7727ZM245.53 89.1736L245.051 89.4107L245.051 89.4107L245.53 89.1736ZM240.637 91.7354L240.156 91.9667L240.157 91.9688L240.637 91.7354ZM235.121 85.3424L234.837 85.7948L234.839 85.7956L235.121 85.3424ZM219.588 85.3424L219.306 84.8892L219.305 84.89L219.588 85.3424ZM214.072 91.7354L213.592 91.5019L213.591 91.504L214.072 91.7354ZM214.072 112.461L213.591 112.692L213.592 112.694L214.072 112.461ZM219.588 118.854L219.305 119.306L219.306 119.307L219.588 118.854ZM235.121 118.854L234.839 118.4L234.837 118.401L235.121 118.854ZM240.637 112.461L240.157 112.227L240.156 112.229L240.637 112.461ZM247.696 102.098C247.696 107.019 246.808 111.243 245.051 114.785L246.008 115.26C247.852 111.54 248.764 107.147 248.764 102.098H247.696ZM245.051 114.785C243.291 118.337 240.885 121.059 237.837 122.971L238.405 123.875C241.635 121.849 244.168 118.97 246.008 115.26L245.051 114.785ZM237.837 122.971C234.791 124.882 231.306 125.844 227.366 125.844V126.911C231.489 126.911 235.174 125.903 238.405 123.875L237.837 122.971ZM227.366 125.844C223.426 125.844 219.941 124.882 216.895 122.971L216.327 123.875C219.559 125.903 223.244 126.911 227.366 126.911V125.844ZM216.895 122.971C213.847 121.059 211.442 118.337 209.681 114.785L208.724 115.26C210.564 118.97 213.097 121.849 216.327 123.875L216.895 122.971ZM209.681 114.785C207.925 111.243 207.036 107.019 207.036 102.098H205.969C205.969 107.147 206.88 111.54 208.724 115.26L209.681 114.785ZM207.036 102.098C207.036 97.1765 207.925 92.9531 209.681 89.4107L208.724 88.9364C206.88 92.6563 205.969 97.0491 205.969 102.098H207.036ZM209.681 89.4107C211.442 85.8592 213.847 83.1371 216.895 81.2249L216.327 80.3205C213.097 82.3471 210.564 85.2256 208.724 88.9364L209.681 89.4107ZM216.895 81.2249C219.941 79.3135 223.426 78.3524 227.366 78.3524V77.2847C223.244 77.2847 219.559 78.293 216.327 80.3205L216.895 81.2249ZM227.366 78.3524C231.306 78.3524 234.791 79.3135 237.837 81.2249L238.405 80.3205C235.174 78.293 231.489 77.2847 227.366 77.2847V78.3524ZM237.837 81.2249C240.885 83.1371 243.291 85.8592 245.051 89.4107L246.008 88.9364C244.168 85.2256 241.635 82.3471 238.405 80.3205L237.837 81.2249ZM245.051 89.4107C246.808 92.9531 247.696 97.1765 247.696 102.098H248.764C248.764 97.0491 247.852 92.6563 246.008 88.9364L245.051 89.4107ZM243.225 102.098C243.225 97.9482 242.531 94.4091 241.117 91.5019L240.157 91.9688C241.482 94.693 242.157 98.0623 242.157 102.098H243.225ZM241.118 91.504C239.726 88.6102 237.824 86.3963 235.403 84.8892L234.839 85.7956C237.064 87.1811 238.839 89.2291 240.156 91.9667L241.118 91.504ZM235.404 84.89C233.007 83.3877 230.323 82.6391 227.366 82.6391V83.7068C230.133 83.7068 232.619 84.4045 234.837 85.7948L235.404 84.89ZM227.366 82.6391C224.409 82.6391 221.718 83.3877 219.306 84.8892L219.871 85.7956C222.105 84.4045 224.599 83.7068 227.366 83.7068V82.6391ZM219.305 84.89C216.9 86.397 214.999 88.61 213.592 91.5019L214.553 91.9688C215.885 89.2294 217.661 87.1804 219.872 85.7948L219.305 84.89ZM213.591 91.504C212.194 94.4106 211.508 97.949 211.508 102.098H212.575C212.575 98.0615 213.243 94.6914 214.554 91.9667L213.591 91.504ZM211.508 102.098C211.508 106.247 212.194 109.785 213.591 112.692L214.554 112.229C213.243 109.505 212.575 106.134 212.575 102.098H211.508ZM213.592 112.694C214.999 115.586 216.9 117.799 219.305 119.306L219.872 118.401C217.661 117.016 215.885 114.967 214.553 112.227L213.592 112.694ZM219.306 119.307C221.718 120.808 224.409 121.557 227.366 121.557V120.489C224.599 120.489 222.105 119.791 219.871 118.4L219.306 119.307ZM227.366 121.557C230.323 121.557 233.007 120.808 235.404 119.306L234.837 118.401C232.619 119.791 230.133 120.489 227.366 120.489V121.557ZM235.403 119.307C237.824 117.8 239.726 115.586 241.118 112.692L240.156 112.229C238.839 114.967 237.064 117.015 234.839 118.4L235.403 119.307ZM241.117 112.694C242.531 109.787 243.225 106.248 243.225 102.098H242.157C242.157 106.134 241.482 109.503 240.157 112.227L241.117 112.694ZM295.335 78.4647H295.869V77.9309H295.335V78.4647ZM295.335 125.731V126.265H295.869V125.731H295.335ZM289.796 125.731L289.357 126.036L289.516 126.265H289.796V125.731ZM264.039 88.6196L264.478 88.3153L264.319 88.0858H264.039V88.6196ZM263.578 88.6196V88.0858H263.044V88.6196H263.578ZM263.578 125.731V126.265H264.111V125.731H263.578ZM257.854 125.731H257.32V126.265H257.854V125.731ZM257.854 78.4647V77.9309H257.32V78.4647H257.854ZM263.393 78.4647L263.831 78.1601L263.672 77.9309H263.393V78.4647ZM289.242 115.669L288.803 115.973L288.963 116.202H289.242V115.669ZM289.703 115.669V116.202H290.237V115.669H289.703ZM289.703 78.4647V77.9309H289.17V78.4647H289.703ZM294.801 78.4647V125.731H295.869V78.4647H294.801ZM295.335 125.197H289.796V126.265H295.335V125.197ZM290.234 125.427L264.478 88.3153L263.601 88.924L289.357 126.036L290.234 125.427ZM264.039 88.0858H263.578V89.1535H264.039V88.0858ZM263.044 88.6196V125.731H264.111V88.6196H263.044ZM263.578 125.197H257.854V126.265H263.578V125.197ZM258.388 125.731V78.4647H257.32V125.731H258.388ZM257.854 78.9986H263.393V77.9309H257.854V78.9986ZM262.955 78.7694L288.803 115.973L289.68 115.364L263.831 78.1601L262.955 78.7694ZM289.242 116.202H289.703V115.135H289.242V116.202ZM290.237 115.669V78.4647H289.17V115.669H290.237ZM289.703 78.9986H295.335V77.9309H289.703V78.9986Z" fill="#231F20"/>
<path d="M138.25 115.805H123.301L130.442 103.362L123.301 91.6716H138.25V115.805Z" fill="#FFCD60"/>
<path d="M133.669 113.536H118.72L125.85 101.093L118.72 89.3916H133.669V113.536Z" stroke="#231F20" stroke-miterlimit="10"/>
<path d="M277.241 115.805H292.179L285.049 103.362L292.179 91.6716H277.241V115.805Z" fill="#FFCD60"/>
<path d="M281.823 113.536H296.761L289.631 101.093L296.761 89.3916H281.823V113.536Z" stroke="#231F20" stroke-miterlimit="10"/>
<mask id="mask0_1131_1809" style="mask-type:luminance" maskUnits="userSpaceOnUse" x="0" y="0" width="420" height="188">
<path d="M419.524 0H0V188H419.524V0Z" fill="white"/>
</mask>
<g mask="url(#mask0_1131_1809)">
<path d="M98.6514 27.6607C95.3175 28.1016 92.4353 28.4888 90.0478 25.983C87.6603 23.4772 88.1873 20.6165 88.8003 17.3041C89.424 13.9056 90.1338 10.0555 86.9935 6.75387C83.8532 3.45222 79.9708 3.96844 76.5509 4.43089C73.217 4.87182 70.3348 5.25898 67.9472 2.75318C65.5597 0.247371 66.0867 -2.61334 66.6997 -5.92573C67.3235 -9.32416 68.0333 -13.1743 64.9037 -16.4759C64.495 -16.9061 63.8175 -16.9276 63.3873 -16.5189C62.9571 -16.1103 62.9356 -15.4327 63.3443 -15.0026C65.7318 -12.4968 65.2048 -9.63604 64.5918 -6.32365C63.9681 -2.92522 63.2583 0.924905 66.3878 4.22655C69.5282 7.52819 73.4106 7.01198 76.8305 6.54953C80.1644 6.10859 83.0466 5.72143 85.4341 8.22724C87.8216 10.733 87.2947 13.5937 86.6816 16.9061C86.0579 20.3046 85.3481 24.1547 88.4884 27.4563C91.6287 30.758 95.5111 30.2418 98.9418 29.7793C102.276 29.3384 105.158 28.9512 107.545 31.457C109.933 33.9628 109.406 36.8235 108.793 40.1359C108.169 43.5344 107.459 47.3845 110.6 50.6861C111.008 51.1163 111.686 51.1378 112.116 50.7291C112.546 50.3205 112.568 49.6429 112.159 49.2128C109.772 46.707 110.299 43.8463 110.912 40.5339C111.535 37.1354 112.245 33.2853 109.105 29.9837C105.965 26.682 102.082 27.1982 98.6514 27.6607ZM106.653 20.0465C103.319 20.4874 100.437 20.8746 98.0492 18.3688C95.6617 15.863 96.1887 13.0022 96.8017 9.68985C97.4254 6.29142 98.1352 2.4413 94.9949 -0.860345C91.8546 -4.16199 87.9722 -3.64577 84.5415 -3.18332C81.2076 -2.74239 78.3254 -2.35523 75.9379 -4.86103C73.5504 -7.36684 74.0773 -10.2275 74.6903 -13.5399C75.3141 -16.9384 76.0239 -20.7885 72.8943 -24.0901C72.4857 -24.5203 71.8081 -24.5418 71.3779 -24.1332C70.9478 -23.7245 70.9263 -23.047 71.3349 -22.6168C73.7224 -20.111 73.1955 -17.2503 72.5824 -13.9379C71.9587 -10.5394 71.2489 -6.6893 74.3785 -3.38766C77.5188 -0.0860189 81.4012 -0.602237 84.8211 -1.06468C88.155 -1.50562 91.0372 -1.89278 93.4247 0.613025C95.8122 3.11883 95.2853 5.97954 94.6723 9.29194C94.0485 12.6904 93.3387 16.5405 96.479 19.8421C99.6193 23.1438 103.502 22.6276 106.932 22.1651C110.266 21.7242 113.149 21.337 115.536 23.8428C117.924 26.3486 117.397 29.2093 116.784 32.5217C116.16 35.9202 115.45 39.7703 118.59 43.0719C118.999 43.5021 119.677 43.5236 120.107 43.1149C120.537 42.7063 120.558 42.0287 120.15 41.5986C117.762 39.0927 118.289 36.232 118.902 32.9196C119.526 29.5212 120.236 25.6711 117.095 22.3694C113.955 19.0678 110.073 19.584 106.642 20.0465H106.653ZM104.803 2.07564C105.427 -1.32279 106.137 -5.17291 102.996 -8.47455C99.8559 -11.7762 95.9736 -11.26 92.5429 -10.7975C89.209 -10.3566 86.3267 -9.96944 83.9392 -12.4752C81.5517 -14.981 82.0787 -17.8418 82.6917 -21.1542C83.3155 -24.5526 84.0253 -28.4027 80.8957 -31.7043C80.487 -32.1345 79.8095 -32.156 79.3793 -31.7474C78.9491 -31.3387 78.9276 -30.6612 79.3363 -30.231C81.7238 -27.7252 81.1968 -24.8645 80.5838 -21.5521C79.9601 -18.1536 79.2503 -14.3035 82.3798 -11.0019C85.5202 -7.70023 89.4025 -8.21645 92.8225 -8.67889C96.1564 -9.11983 99.0386 -9.50699 101.426 -7.00118C103.814 -4.49538 103.287 -1.63467 102.674 1.67772C102.05 5.07616 101.34 8.92628 104.48 12.2279C107.621 15.5296 111.503 15.0133 114.934 14.5509C118.268 14.11 121.15 13.7228 123.537 16.2286C125.925 18.7344 125.398 21.5951 124.785 24.9075C124.161 28.306 123.451 32.1561 126.592 35.4577C127 35.8879 127.678 35.9094 128.108 35.5007C128.538 35.0921 128.56 34.4145 128.151 33.9843C125.764 31.4785 126.291 28.6178 126.904 25.3054C127.527 21.907 128.237 18.0569 125.097 14.7552C121.957 11.4536 118.074 11.9698 114.643 12.4323C111.31 12.8732 108.427 13.2604 106.04 10.7546C103.652 8.24875 104.179 5.38804 104.792 2.07564H104.803Z" fill="#231F20"/>
<path d="M342.457 210.359C339.123 210.8 336.24 211.187 333.853 208.681C331.465 206.175 331.992 203.314 332.605 200.002C333.229 196.604 333.939 192.754 330.799 189.452C327.658 186.15 323.776 186.666 320.356 187.129C317.022 187.57 314.14 187.957 311.752 185.451C309.365 182.945 309.892 180.085 310.505 176.772C311.129 173.374 311.838 169.524 308.709 166.222C308.3 165.792 307.623 165.77 307.193 166.179C306.762 166.588 306.741 167.265 307.149 167.695C309.537 170.201 309.01 173.062 308.397 176.374C307.773 179.773 307.063 183.623 310.193 186.925C313.333 190.226 317.216 189.71 320.636 189.248C323.97 188.807 326.852 188.419 329.239 190.925C331.627 193.431 331.1 196.292 330.487 199.604C329.863 203.003 329.153 206.853 332.294 210.154C335.434 213.456 339.316 212.94 342.747 212.477C346.081 212.036 348.963 211.649 351.351 214.155C353.738 216.661 353.211 219.522 352.598 222.834C351.974 226.232 351.265 230.082 354.405 233.384C354.814 233.814 355.491 233.836 355.921 233.427C356.351 233.018 356.373 232.341 355.964 231.911C353.577 229.405 354.104 226.544 354.717 223.232C355.341 219.833 356.05 215.983 352.91 212.682C349.77 209.38 345.887 209.896 342.457 210.359ZM350.458 202.744C347.124 203.185 344.242 203.573 341.854 201.067C339.467 198.561 339.994 195.7 340.607 192.388C341.231 188.989 341.94 185.139 338.8 181.838C335.66 178.536 331.777 179.052 328.347 179.515C325.013 179.956 322.131 180.343 319.743 177.837C317.356 175.331 317.882 172.47 318.495 169.158C319.119 165.76 319.829 161.909 316.7 158.608C316.291 158.178 315.613 158.156 315.183 158.565C314.753 158.974 314.731 159.651 315.14 160.081C317.528 162.587 317.001 165.448 316.388 168.76C315.764 172.159 315.054 176.009 318.184 179.31C321.324 182.612 325.206 182.096 328.626 181.633C331.96 181.192 334.842 180.805 337.23 183.311C339.617 185.817 339.09 188.678 338.477 191.99C337.854 195.388 337.144 199.238 340.284 202.54C343.425 205.842 347.307 205.326 350.738 204.863C354.072 204.422 356.954 204.035 359.341 206.541C361.729 209.047 361.202 211.907 360.589 215.22C359.965 218.618 359.255 222.468 362.396 225.77C362.804 226.2 363.482 226.222 363.912 225.813C364.342 225.404 364.364 224.727 363.955 224.297C361.567 221.791 362.094 218.93 362.707 215.618C363.331 212.219 364.041 208.369 360.901 205.067C357.76 201.766 353.878 202.282 350.447 202.744H350.458ZM348.608 184.774C349.232 181.375 349.942 177.525 346.801 174.223C343.661 170.922 339.779 171.438 336.359 171.9C333.025 172.341 330.143 172.729 327.755 170.223C325.368 167.717 325.895 164.856 326.508 161.544C327.131 158.145 327.841 154.295 324.712 150.994C324.303 150.563 323.625 150.542 323.195 150.951C322.765 151.359 322.744 152.037 323.152 152.467C325.54 154.973 325.013 157.834 324.4 161.146C323.776 164.544 323.066 168.394 326.196 171.696C329.336 174.998 333.218 174.482 336.638 174.019C339.972 173.578 342.855 173.191 345.242 175.697C347.63 178.203 347.103 181.063 346.49 184.376C345.866 187.774 345.156 191.624 348.296 194.926C351.437 198.228 355.319 197.711 358.75 197.249C362.084 196.808 364.966 196.421 367.353 198.927C369.741 201.432 369.214 204.293 368.601 207.606C367.977 211.004 367.267 214.854 370.408 218.156C370.816 218.586 371.494 218.607 371.924 218.199C372.354 217.79 372.376 217.113 371.967 216.682C369.58 214.177 370.106 211.316 370.72 208.003C371.343 204.605 372.053 200.755 368.913 197.453C365.772 194.152 361.89 194.668 358.459 195.13C355.125 195.571 352.243 195.958 349.856 193.453C347.468 190.947 347.995 188.086 348.608 184.774Z" fill="#231F20"/>
<path d="M87.3053 112.299L82.1108 124.462C81.0892 126.85 82.412 129.581 84.907 130.28L86.8966 130.829C89.1766 131.463 91.5426 130.13 92.1771 127.839L96.2853 113.009C96.3283 112.837 96.3498 112.664 96.3713 112.492L87.3053 112.299Z" fill="#231F20"/>
<path d="M87.4665 117.171C87.0686 118.257 87.2299 119.322 87.8429 119.547C88.4559 119.773 89.2732 119.074 89.6819 117.988C90.0798 116.902 89.9185 115.837 89.3055 115.611C88.6925 115.385 87.8752 116.084 87.4665 117.171Z" fill="#E48D39"/>
<path d="M57.6656 89.1766C54.4715 100.705 54.6866 110.836 58.1495 111.793C61.6125 112.75 67.0113 104.19 70.2054 92.6503C73.3995 81.1214 73.1844 70.9906 69.7214 70.0335C66.2585 69.0763 60.8597 77.6369 57.6656 89.1766Z" fill="#FFCD60"/>
<path d="M59.6876 89.1766C56.4935 100.705 56.7086 110.836 60.1715 111.793C63.6345 112.75 69.0333 104.19 72.2274 92.6503C75.4215 81.1214 75.2064 70.9906 71.7434 70.0335C68.2804 69.0763 62.8817 77.6369 59.6876 89.1766Z" stroke="#231F20" stroke-miterlimit="10"/>
<path d="M103.211 89.9186L72.9155 70.8401C73.2919 71.2918 73.5931 71.9263 73.8297 72.6899L102.641 90.8328C106.835 93.4784 108.771 98.4685 107.448 103.243C106.083 108.158 101.566 111.568 96.468 111.417L63.2042 110.707C62.5912 111.234 61.9997 111.578 61.4297 111.75L96.4465 112.492C96.5325 112.492 96.6185 112.492 96.7153 112.492C102.2 112.492 107.018 108.836 108.492 103.534C109.943 98.2857 107.825 92.8224 103.222 89.9186H103.211Z" fill="#231F20"/>
<path d="M74.9265 93.4139C77.5506 83.9714 77.6044 76.4862 76.1203 73.4965L77.2495 74.2063C78.4648 78.0994 77.9808 85.434 75.7116 93.6289C73.3671 102.093 69.8611 108.782 66.7316 111.32L65.355 111.288C68.1942 109.804 72.1949 103.233 74.9265 93.4031V93.4139Z" fill="#231F20"/>
<path d="M97.3283 99.6192C98.5221 95.3067 99.1781 91.4135 99.4039 88.1549L100.178 88.6389C99.9202 91.9513 99.2319 95.7906 98.1134 99.8343C96.8121 104.534 95.1559 108.685 93.3922 111.879L92.478 111.858C94.2095 108.782 95.9302 104.62 97.3176 99.6085L97.3283 99.6192Z" fill="#231F20"/>
<path d="M104.232 102.329L104.469 101.469L108.179 102.501C108.126 102.792 108.05 103.082 107.975 103.373L104.232 102.34V102.329Z" fill="#231F20"/>
<path d="M105.459 97.9093L108.287 98.6944C108.33 99.0063 108.362 99.3289 108.384 99.6515L105.222 98.7804L105.459 97.9201V97.9093Z" fill="#231F20"/>
<path d="M103.243 105.889L103.48 105.029L106.9 105.975C106.749 106.244 106.588 106.513 106.416 106.771L103.243 105.889Z" fill="#231F20"/>
<path d="M66.549 88.6389C67.0867 86.9934 68.8505 86.09 70.4959 86.6278L73.4427 87.5849C73.12 89.2304 72.7221 90.9296 72.2381 92.6611C71.8617 94.0054 71.4638 95.3067 71.0336 96.565L67.6352 95.4572C65.9898 94.9195 65.0864 93.1558 65.6241 91.5103L66.5598 88.6389H66.549Z" fill="#231F20"/>
<path d="M57.9131 74.2385L50.6431 67.2158" stroke="#231F20" stroke-linecap="round" stroke-linejoin="round"/>
<path d="M51.0731 98.7804L40.9746 98.2749" stroke="#231F20" stroke-linecap="round" stroke-linejoin="round"/>
<path d="M54.0628 81.6376L44.8677 77.4326" stroke="#231F20" stroke-linecap="round" stroke-linejoin="round"/>
<path d="M51.7615 89.8218L41.749 88.4237" stroke="#231F20" stroke-linecap="round" stroke-linejoin="round"/>
<path d="M331.068 107.201L336.262 119.365C337.284 121.752 335.961 124.484 333.466 125.183L331.476 125.731C329.196 126.366 326.83 125.032 326.196 122.741L322.087 107.911C322.044 107.739 322.023 107.567 322.001 107.395L331.068 107.201Z" fill="#231F20"/>
<path d="M330.906 112.073C331.304 113.159 331.143 114.224 330.53 114.45C329.917 114.676 329.1 113.977 328.691 112.89C328.282 111.804 328.454 110.739 329.067 110.514C329.68 110.288 330.498 110.987 330.906 112.073Z" fill="#E48D39"/>
<path d="M360.707 84.0789C363.901 95.6078 363.686 105.739 360.223 106.696C356.76 107.653 351.361 99.0922 348.167 87.5526C344.973 76.013 345.188 65.893 348.651 64.9358C352.114 63.9787 357.513 72.5393 360.707 84.0789Z" fill="#FFCD60"/>
<path d="M358.685 84.0789C361.879 95.6078 361.664 105.739 358.201 106.696C354.738 107.653 349.34 99.0922 346.146 87.5526C342.951 76.0238 343.167 65.893 346.63 64.9358C350.092 63.9787 355.491 72.5393 358.685 84.0789Z" stroke="#231F20" stroke-miterlimit="10"/>
<path d="M315.162 84.821L345.457 65.7424C345.081 66.1941 344.78 66.8286 344.543 67.5922L315.742 85.7351C311.548 88.3807 309.612 93.3708 310.935 98.1458C312.301 103.061 316.818 106.47 321.915 106.319L355.179 105.609C355.792 106.136 356.384 106.481 356.954 106.653L321.937 107.395C321.851 107.395 321.765 107.395 321.668 107.395C316.183 107.395 311.365 103.738 309.892 98.4362C308.44 93.188 310.559 87.7247 315.162 84.821Z" fill="#231F20"/>
<path d="M343.457 88.3162C340.833 78.8737 340.779 71.3886 342.263 68.3988L341.134 69.1086C339.919 73.0017 340.403 80.3363 342.672 88.5313C345.016 96.9951 348.522 103.684 351.652 106.222L353.028 106.19C350.189 104.706 346.188 98.1351 343.457 88.3054V88.3162Z" fill="#231F20"/>
<path d="M321.055 94.5216C319.861 90.209 319.205 86.3159 318.979 83.0573L318.205 83.5412C318.463 86.8536 319.151 90.693 320.27 94.7367C321.571 99.4364 323.227 103.588 324.991 106.782L325.905 106.76C324.174 103.684 322.453 99.5224 321.066 94.5108L321.055 94.5216Z" fill="#231F20"/>
<path d="M314.151 97.2317L313.914 96.3713L310.204 97.4038C310.257 97.6941 310.333 97.9845 310.408 98.2749L314.151 97.2425V97.2317Z" fill="#231F20"/>
<path d="M312.925 92.8116L310.096 93.5967C310.053 93.9086 310.021 94.2312 310 94.5539L313.161 93.6828L312.925 92.8224V92.8116Z" fill="#231F20"/>
<path d="M315.129 100.792L314.893 99.9312L311.473 100.878C311.623 101.146 311.785 101.415 311.957 101.673L315.129 100.792Z" fill="#231F20"/>
<path d="M351.824 83.5412C351.286 81.8958 349.522 80.9924 347.877 81.5301L344.93 82.4873C345.253 84.1327 345.651 85.8319 346.135 87.5634C346.511 88.9077 346.909 90.209 347.339 91.4673L350.738 90.3596C352.383 89.8219 353.286 88.0581 352.749 86.4127L351.813 83.5412H351.824Z" fill="#231F20"/>
<path d="M360.459 69.1409L367.74 62.1182" stroke="#231F20" stroke-linecap="round" stroke-linejoin="round"/>
<path d="M367.299 93.6827L377.398 93.1772" stroke="#231F20" stroke-linecap="round" stroke-linejoin="round"/>
<path d="M364.31 76.54L373.505 72.335" stroke="#231F20" stroke-linecap="round" stroke-linejoin="round"/>
<path d="M366.622 84.7241L376.635 83.326" stroke="#231F20" stroke-linecap="round" stroke-linejoin="round"/>
<path d="M-4.5608 105.011L-64.082 164.532L-4.5608 224.053L54.9604 164.532L-4.5608 105.011Z" fill="#FFCD60"/>
<path d="M-4.55445 97.9085L-64.0757 157.43L-4.55445 216.951L54.9668 157.43L-4.55445 97.9085Z" stroke="#231F20" stroke-linecap="round" stroke-linejoin="round"/>
<path d="M419.52 -33.4316L359.999 26.0896L419.52 85.6108L479.042 26.0896L419.52 -33.4316Z" fill="#FFCD60"/>
<path d="M419.527 -40.5447L360.005 18.9766L419.527 78.4978L479.048 18.9765L419.527 -40.5447Z" stroke="#231F20" stroke-linecap="round" stroke-linejoin="round"/>
<path d="M24.7679 73.0125C23.3913 73.0125 22.004 72.6039 20.7779 71.765C17.6053 69.5603 16.8203 65.2048 19.0249 62.0322C21.7243 58.1498 23.1547 53.5791 23.1547 48.8256C23.1547 36.0492 12.7658 25.6603 -0.0105768 25.6603C-12.787 25.6603 -23.1758 36.0492 -23.1758 48.8256C-23.1758 52.6865 -26.3054 55.8161 -30.1663 55.8161C-34.0272 55.8161 -37.1567 52.6865 -37.1567 48.8256C-37.146 28.3382 -20.4765 11.6794 0.000175889 11.6794C20.4768 11.6794 37.1463 28.3382 37.1463 48.8256C37.1463 56.4506 34.8556 63.7744 30.5108 70.012C29.1557 71.9694 26.9725 73.0125 24.7679 73.0125Z" fill="#FFCD60"/>
<path d="M446.539 188.85C445.022 188.85 443.485 188.355 442.205 187.333C439.183 184.935 438.667 180.536 441.065 177.514C444.001 173.804 445.711 169.341 446.012 164.598C446.399 158.425 444.356 152.467 440.269 147.832C436.182 143.197 430.525 140.422 424.352 140.035C418.168 139.637 412.221 141.691 407.586 145.778C402.951 149.864 400.176 155.521 399.789 161.694C399.542 165.545 396.229 168.491 392.379 168.233C388.529 167.997 385.593 164.673 385.84 160.823C386.464 150.918 390.906 141.852 398.337 135.292C405.779 128.732 415.318 125.462 425.234 126.075C435.139 126.699 444.205 131.141 450.765 138.572C457.326 146.014 460.595 155.564 459.982 165.469C459.509 173.073 456.756 180.246 452.034 186.204C450.658 187.946 448.614 188.85 446.55 188.85H446.539Z" fill="#FFCD60"/>
<path d="M306.052 33.7478C285.576 33.7478 268.906 17.089 268.906 -3.39835C268.906 -7.25922 272.036 -10.3888 275.897 -10.3888C279.758 -10.3888 282.887 -7.25922 282.887 -3.39835C282.887 9.37804 293.276 19.7669 306.052 19.7669C309.913 19.7669 313.043 22.8965 313.043 26.7574C313.043 30.6182 309.913 33.7478 306.052 33.7478Z" fill="#FFCD60"/>
<path d="M91.8007 165.717C112.224 167.255 127.581 185.129 126.043 205.541C125.753 209.391 122.397 212.273 118.547 211.983C114.697 211.692 111.815 208.337 112.105 204.487C113.062 191.753 103.491 180.612 90.7468 179.655C86.8967 179.364 84.0144 176.009 84.3048 172.159C84.5952 168.309 87.9506 165.426 91.8007 165.717Z" fill="#FFCD60"/>
<path d="M130.635 61.161C128.968 61.161 127.613 62.5161 127.613 64.183C127.613 65.85 128.968 67.2051 130.635 67.2051C132.302 67.2051 133.657 65.85 133.657 64.183C133.657 62.5161 132.302 61.161 130.635 61.161Z" fill="#FFCD60"/>
<path d="M118.719 61.161C117.052 61.161 115.697 62.5161 115.697 64.183C115.697 65.85 117.052 67.2051 118.719 67.2051C120.386 67.2051 121.741 65.85 121.741 64.183C121.741 62.5161 120.386 61.161 118.719 61.161Z" fill="#FFCD60"/>
<path d="M106.803 61.161C105.136 61.161 103.781 62.5161 103.781 64.183C103.781 65.85 105.136 67.2051 106.803 67.2051C108.47 67.2051 109.825 65.85 109.825 64.183C109.825 62.5161 108.47 61.161 106.803 61.161Z" fill="#FFCD60"/>
<path d="M94.8873 61.161C93.2203 61.161 91.8652 62.5161 91.8652 64.183C91.8652 65.85 93.2203 67.2051 94.8873 67.2051C96.5542 67.2051 97.9093 65.85 97.9093 64.183C97.9093 62.5161 96.5542 61.161 94.8873 61.161Z" fill="#FFCD60"/>
<path d="M320.604 61.161C318.937 61.161 317.582 62.5161 317.582 64.183C317.582 65.85 318.937 67.2051 320.604 67.2051C322.271 67.2051 323.626 65.85 323.626 64.183C323.626 62.5161 322.271 61.161 320.604 61.161Z" fill="#FFCD60"/>
<path d="M308.688 61.161C307.021 61.161 305.666 62.5161 305.666 64.183C305.666 65.85 307.021 67.2051 308.688 67.2051C310.355 67.2051 311.71 65.85 311.71 64.183C311.71 62.5161 310.355 61.161 308.688 61.161Z" fill="#FFCD60"/>
<path d="M296.761 61.161C295.094 61.161 293.739 62.5161 293.739 64.183C293.739 65.85 295.094 67.2051 296.761 67.2051C298.428 67.2051 299.783 65.85 299.783 64.183C299.783 62.5161 298.428 61.161 296.761 61.161Z" fill="#FFCD60"/>
<path d="M284.845 61.161C283.178 61.161 281.823 62.5161 281.823 64.183C281.823 65.85 283.178 67.2051 284.845 67.2051C286.512 67.2051 287.867 65.85 287.867 64.183C287.867 62.5161 286.512 61.161 284.845 61.161Z" fill="#FFCD60"/>
<path d="M34.7477 37.415C34.2745 37.415 33.8981 37.7914 33.8981 38.2646C33.8981 38.7378 34.2745 39.1143 34.7477 39.1143C35.2209 39.1143 35.5973 38.7378 35.5973 38.2646C35.5973 37.7914 35.2209 37.415 34.7477 37.415ZM34.7477 44.8572C34.2745 44.8572 33.8981 45.2336 33.8981 45.7068C33.8981 46.18 34.2745 46.5564 34.7477 46.5564C35.2209 46.5564 35.5973 46.18 35.5973 45.7068C35.5973 45.2336 35.2209 44.8572 34.7477 44.8572ZM34.7477 52.2993C34.2745 52.2993 33.8981 52.6757 33.8981 53.1489C33.8981 53.6221 34.2745 53.9985 34.7477 53.9985C35.2209 53.9985 35.5973 53.6221 35.5973 53.1489C35.5973 52.6757 35.2209 52.2993 34.7477 52.2993ZM34.7477 29.9837C34.2745 29.9837 33.8981 30.3601 33.8981 30.8333C33.8981 31.3065 34.2745 31.6829 34.7477 31.6829C35.2209 31.6829 35.5973 31.3065 35.5973 30.8333C35.5973 30.3601 35.2209 29.9837 34.7477 29.9837ZM34.7477 22.5415C34.2745 22.5415 33.8981 22.9179 33.8981 23.3911C33.8981 23.8643 34.2745 24.2407 34.7477 24.2407C35.2209 24.2407 35.5973 23.8643 35.5973 23.3911C35.5973 22.9179 35.2209 22.5415 34.7477 22.5415ZM40.8456 52.2886C40.3724 52.2886 39.9959 52.665 39.9959 53.1382C39.9959 53.6114 40.3724 53.9878 40.8456 53.9878C41.3188 53.9878 41.6952 53.6114 41.6952 53.1382C41.6952 52.665 41.3188 52.2886 40.8456 52.2886ZM28.6392 22.5415C28.166 22.5415 27.7896 22.9179 27.7896 23.3911C27.7896 23.8643 28.166 24.2407 28.6392 24.2407C29.1124 24.2407 29.4888 23.8643 29.4888 23.3911C29.4888 22.9179 29.1124 22.5415 28.6392 22.5415ZM28.6392 44.8572C28.166 44.8572 27.7896 45.2336 27.7896 45.7068C27.7896 46.18 28.166 46.5564 28.6392 46.5564C29.1124 46.5564 29.4888 46.18 29.4888 45.7068C29.4888 45.2336 29.1124 44.8572 28.6392 44.8572ZM53.052 24.2407C53.5251 24.2407 53.9016 23.8643 53.9016 23.3911C53.9016 22.9179 53.5251 22.5415 53.052 22.5415C52.5788 22.5415 52.2023 22.9179 52.2023 23.3911C52.2023 23.8643 52.5788 24.2407 53.052 24.2407ZM28.6392 52.2993C28.166 52.2993 27.7896 52.6757 27.7896 53.1489C27.7896 53.6221 28.166 53.9985 28.6392 53.9985C29.1124 53.9985 29.4888 53.6221 29.4888 53.1489C29.4888 52.6757 29.1124 52.2993 28.6392 52.2993ZM28.6392 37.4258C28.166 37.4258 27.7896 37.8022 27.7896 38.2754C27.7896 38.7486 28.166 39.125 28.6392 39.125C29.1124 39.125 29.4888 38.7486 29.4888 38.2754C29.4888 37.8022 29.1124 37.4258 28.6392 37.4258ZM28.6392 29.9837C28.166 29.9837 27.7896 30.3601 27.7896 30.8333C27.7896 31.3065 28.166 31.6829 28.6392 31.6829C29.1124 31.6829 29.4888 31.3065 29.4888 30.8333C29.4888 30.3601 29.1124 29.9837 28.6392 29.9837ZM40.8456 37.4258C40.3724 37.4258 39.9959 37.8022 39.9959 38.2754C39.9959 38.7486 40.3724 39.125 40.8456 39.125C41.3188 39.125 41.6952 38.7486 41.6952 38.2754C41.6952 37.8022 41.3188 37.4258 40.8456 37.4258ZM53.052 52.2993C52.5788 52.2993 52.2023 52.6757 52.2023 53.1489C52.2023 53.6221 52.5788 53.9985 53.052 53.9985C53.5251 53.9985 53.9016 53.6221 53.9016 53.1489C53.9016 52.6757 53.5251 52.2993 53.052 52.2993ZM53.052 44.8572C52.5788 44.8572 52.2023 45.2336 52.2023 45.7068C52.2023 46.18 52.5788 46.5564 53.052 46.5564C53.5251 46.5564 53.9016 46.18 53.9016 45.7068C53.9016 45.2336 53.5251 44.8572 53.052 44.8572ZM46.9541 29.9837C46.4809 29.9837 46.1045 30.3601 46.1045 30.8333C46.1045 31.3065 46.4809 31.6829 46.9541 31.6829C47.4273 31.6829 47.8037 31.3065 47.8037 30.8333C47.8037 30.3601 47.4273 29.9837 46.9541 29.9837ZM46.9541 22.5415C46.4809 22.5415 46.1045 22.9179 46.1045 23.3911C46.1045 23.8643 46.4809 24.2407 46.9541 24.2407C47.4273 24.2407 47.8037 23.8643 47.8037 23.3911C47.8037 22.9179 47.4273 22.5415 46.9541 22.5415ZM53.052 37.415C52.5788 37.415 52.2023 37.7914 52.2023 38.2646C52.2023 38.7378 52.5788 39.1143 53.052 39.1143C53.5251 39.1143 53.9016 38.7378 53.9016 38.2646C53.9016 37.7914 53.5251 37.415 53.052 37.415ZM53.052 29.9729C52.5788 29.9729 52.2023 30.3493 52.2023 30.8225C52.2023 31.2957 52.5788 31.6721 53.052 31.6721C53.5251 31.6721 53.9016 31.2957 53.9016 30.8225C53.9016 30.3493 53.5251 29.9729 53.052 29.9729ZM46.9541 37.415C46.4809 37.415 46.1045 37.7914 46.1045 38.2646C46.1045 38.7378 46.4809 39.1143 46.9541 39.1143C47.4273 39.1143 47.8037 38.7378 47.8037 38.2646C47.8037 37.7914 47.4273 37.415 46.9541 37.415ZM40.8563 29.9729C40.3831 29.9729 40.0067 30.3493 40.0067 30.8225C40.0067 31.2957 40.3831 31.6721 40.8563 31.6721C41.3295 31.6721 41.7059 31.2957 41.7059 30.8225C41.7059 30.3493 41.3295 29.9729 40.8563 29.9729ZM40.8563 22.5308C40.3831 22.5308 40.0067 22.9072 40.0067 23.3804C40.0067 23.8536 40.3831 24.23 40.8563 24.23C41.3295 24.23 41.7059 23.8536 41.7059 23.3804C41.7059 22.9072 41.3295 22.5308 40.8563 22.5308ZM40.8563 44.8464C40.3831 44.8464 40.0067 45.2228 40.0067 45.696C40.0067 46.1692 40.3831 46.5456 40.8563 46.5456C41.3295 46.5456 41.7059 46.1692 41.7059 45.696C41.7059 45.2228 41.3295 44.8464 40.8563 44.8464ZM46.9541 44.8464C46.4809 44.8464 46.1045 45.2228 46.1045 45.696C46.1045 46.1692 46.4809 46.5456 46.9541 46.5456C47.4273 46.5456 47.8037 46.1692 47.8037 45.696C47.8037 45.2228 47.4273 44.8464 46.9541 44.8464ZM46.9541 52.2886C46.4809 52.2886 46.1045 52.665 46.1045 53.1382C46.1045 53.6114 46.4809 53.9878 46.9541 53.9878C47.4273 53.9878 47.8037 53.6114 47.8037 53.1382C47.8037 52.665 47.4273 52.2886 46.9541 52.2886Z" fill="#231F20"/>
<path d="M377.764 146.692C377.291 146.692 376.914 147.068 376.914 147.542C376.914 148.015 377.291 148.391 377.764 148.391C378.237 148.391 378.613 148.015 378.613 147.542C378.613 147.068 378.237 146.692 377.764 146.692ZM377.764 154.134C377.291 154.134 376.914 154.51 376.914 154.984C376.914 155.457 377.291 155.833 377.764 155.833C378.237 155.833 378.613 155.457 378.613 154.984C378.613 154.51 378.237 154.134 377.764 154.134ZM377.764 161.576C377.291 161.576 376.914 161.953 376.914 162.426C376.914 162.899 377.291 163.275 377.764 163.275C378.237 163.275 378.613 162.899 378.613 162.426C378.613 161.953 378.237 161.576 377.764 161.576ZM377.764 139.261C377.291 139.261 376.914 139.637 376.914 140.11C376.914 140.583 377.291 140.96 377.764 140.96C378.237 140.96 378.613 140.583 378.613 140.11C378.613 139.637 378.237 139.261 377.764 139.261ZM377.764 131.818C377.291 131.818 376.914 132.195 376.914 132.668C376.914 133.141 377.291 133.518 377.764 133.518C378.237 133.518 378.613 133.141 378.613 132.668C378.613 132.195 378.237 131.818 377.764 131.818ZM383.862 161.565C383.388 161.565 383.012 161.942 383.012 162.415C383.012 162.888 383.388 163.265 383.862 163.265C384.335 163.265 384.711 162.888 384.711 162.415C384.711 161.942 384.335 161.565 383.862 161.565ZM371.655 131.818C371.182 131.818 370.806 132.195 370.806 132.668C370.806 133.141 371.182 133.518 371.655 133.518C372.128 133.518 372.505 133.141 372.505 132.668C372.505 132.195 372.128 131.818 371.655 131.818ZM371.655 154.134C371.182 154.134 370.806 154.51 370.806 154.984C370.806 155.457 371.182 155.833 371.655 155.833C372.128 155.833 372.505 155.457 372.505 154.984C372.505 154.51 372.128 154.134 371.655 154.134ZM396.068 133.518C396.541 133.518 396.918 133.141 396.918 132.668C396.918 132.195 396.541 131.818 396.068 131.818C395.595 131.818 395.218 132.195 395.218 132.668C395.218 133.141 395.595 133.518 396.068 133.518ZM371.655 161.576C371.182 161.576 370.806 161.953 370.806 162.426C370.806 162.899 371.182 163.275 371.655 163.275C372.128 163.275 372.505 162.899 372.505 162.426C372.505 161.953 372.128 161.576 371.655 161.576ZM371.655 146.703C371.182 146.703 370.806 147.079 370.806 147.552C370.806 148.025 371.182 148.402 371.655 148.402C372.128 148.402 372.505 148.025 372.505 147.552C372.505 147.079 372.128 146.703 371.655 146.703ZM371.655 139.261C371.182 139.261 370.806 139.637 370.806 140.11C370.806 140.583 371.182 140.96 371.655 140.96C372.128 140.96 372.505 140.583 372.505 140.11C372.505 139.637 372.128 139.261 371.655 139.261ZM383.862 146.703C383.388 146.703 383.012 147.079 383.012 147.552C383.012 148.025 383.388 148.402 383.862 148.402C384.335 148.402 384.711 148.025 384.711 147.552C384.711 147.079 384.335 146.703 383.862 146.703ZM396.068 161.576C395.595 161.576 395.218 161.953 395.218 162.426C395.218 162.899 395.595 163.275 396.068 163.275C396.541 163.275 396.918 162.899 396.918 162.426C396.918 161.953 396.541 161.576 396.068 161.576ZM396.068 154.134C395.595 154.134 395.218 154.51 395.218 154.984C395.218 155.457 395.595 155.833 396.068 155.833C396.541 155.833 396.918 155.457 396.918 154.984C396.918 154.51 396.541 154.134 396.068 154.134ZM389.97 139.261C389.497 139.261 389.121 139.637 389.121 140.11C389.121 140.583 389.497 140.96 389.97 140.96C390.443 140.96 390.82 140.583 390.82 140.11C390.82 139.637 390.443 139.261 389.97 139.261ZM389.97 131.818C389.497 131.818 389.121 132.195 389.121 132.668C389.121 133.141 389.497 133.518 389.97 133.518C390.443 133.518 390.82 133.141 390.82 132.668C390.82 132.195 390.443 131.818 389.97 131.818ZM396.068 146.692C395.595 146.692 395.218 147.068 395.218 147.542C395.218 148.015 395.595 148.391 396.068 148.391C396.541 148.391 396.918 148.015 396.918 147.542C396.918 147.068 396.541 146.692 396.068 146.692ZM396.068 139.25C395.595 139.25 395.218 139.626 395.218 140.099C395.218 140.573 395.595 140.949 396.068 140.949C396.541 140.949 396.918 140.573 396.918 140.099C396.918 139.626 396.541 139.25 396.068 139.25ZM389.97 146.692C389.497 146.692 389.121 147.068 389.121 147.542C389.121 148.015 389.497 148.391 389.97 148.391C390.443 148.391 390.82 148.015 390.82 147.542C390.82 147.068 390.443 146.692 389.97 146.692ZM383.872 139.25C383.399 139.25 383.023 139.626 383.023 140.099C383.023 140.573 383.399 140.949 383.872 140.949C384.346 140.949 384.722 140.573 384.722 140.099C384.722 139.626 384.346 139.25 383.872 139.25ZM383.872 131.808C383.399 131.808 383.023 132.184 383.023 132.657C383.023 133.13 383.399 133.507 383.872 133.507C384.346 133.507 384.722 133.13 384.722 132.657C384.722 132.184 384.346 131.808 383.872 131.808ZM383.872 154.123C383.399 154.123 383.023 154.5 383.023 154.973C383.023 155.446 383.399 155.822 383.872 155.822C384.346 155.822 384.722 155.446 384.722 154.973C384.722 154.5 384.346 154.123 383.872 154.123ZM389.97 154.123C389.497 154.123 389.121 154.5 389.121 154.973C389.121 155.446 389.497 155.822 389.97 155.822C390.443 155.822 390.82 155.446 390.82 154.973C390.82 154.5 390.443 154.123 389.97 154.123ZM389.97 161.565C389.497 161.565 389.121 161.942 389.121 162.415C389.121 162.888 389.497 163.265 389.97 163.265C390.443 163.265 390.82 162.888 390.82 162.415C390.82 161.942 390.443 161.565 389.97 161.565Z" fill="#231F20"/>
</g>
</g>
<defs>
<clipPath id="clip0_1131_1809">
<rect width="419.524" height="188" fill="white"/>
</clipPath>
</defs>
</svg>
