<?xml version="1.0" encoding="UTF-8"?>
<svg id="_圖層_2" data-name="圖層 2" xmlns="http://www.w3.org/2000/svg" xmlns:xlink="http://www.w3.org/1999/xlink" viewBox="0 0 390.09 174.81">
  <defs>
    <style>
      .cls-1, .cls-2 {
        stroke-miterlimit: 10;
      }

      .cls-1, .cls-2, .cls-3 {
        stroke: #231f20;
      }

      .cls-1, .cls-2, .cls-3, .cls-4 {
        fill: none;
      }

      .cls-5 {
        fill: #e48d39;
      }

      .cls-2, .cls-6, .cls-7, .cls-8 {
        font-family: BebasNeue, BebasNeue;
      }

      .cls-2, .cls-8 {
        font-size: 60.87px;
      }

      .cls-3 {
        stroke-linecap: round;
        stroke-linejoin: round;
      }

      .cls-9 {
        fill: #fff;
      }

      .cls-6 {
        font-size: 37.08px;
      }

      .cls-6, .cls-10, .cls-7, .cls-11 {
        fill: #231f20;
      }

      .cls-12 {
        letter-spacing: -.01em;
      }

      .cls-10 {
        font-family: Satisfy-Regular, 'Satisfy Regular';
        font-size: 23.24px;
      }

      .cls-13 {
        letter-spacing: 0em;
      }

      .cls-14 {
        letter-spacing: -.03em;
      }

      .cls-15 {
        clip-path: url(#clippath);
      }

      .cls-16 {
        letter-spacing: 0em;
      }

      .cls-7 {
        font-size: 27.02px;
      }

      .cls-8, .cls-17 {
        fill: #ffcd60;
      }
    </style>
    <clipPath id="clippath">
      <rect class="cls-4" width="390.09" height="174.81"/>
    </clipPath>
  </defs>
  <g id="OBJECTS">
    <g>
      <rect class="cls-9" width="390.09" height="174.81"/>
      <rect class="cls-3" x="117.64" y="-97.64" width="154.81" height="370.09" transform="translate(282.45 -107.64) rotate(90)"/>
      <g>
        <text class="cls-10" transform="translate(125.55 147.83) scale(1.08 1)"><tspan class="cls-16" x="0" y="0">D</tspan><tspan class="cls-13" x="15.57" y="0">o</tspan><tspan class="cls-14" x="28.33" y="0">n</tspan><tspan class="cls-12" x="40.46" y="0">’</tspan><tspan x="45.01" y="0">t miss it !</tspan></text>
        <text class="cls-7" transform="translate(174.42 40.7) scale(1.14 1)"><tspan x="0" y="0">RE-</tspan></text>
        <text class="cls-6" transform="translate(112.44 71.84) scale(1.14 1)"><tspan x="0" y="0">OPENING</tspan></text>
        <text class="cls-8" transform="translate(107.51 122.56) scale(1.14 1)"><tspan x="0" y="0">SOON</tspan></text>
        <text class="cls-2" transform="translate(103.84 119.2) scale(1.14 1)"><tspan x="0" y="0">SOON</tspan></text>
        <polygon class="cls-17" points="128.55 107.68 114.65 107.68 121.29 96.11 114.65 85.24 128.55 85.24 128.55 107.68"/>
        <polygon class="cls-1" points="124.29 105.57 110.39 105.57 117.02 94 110.39 83.12 124.29 83.12 124.29 105.57"/>
        <polygon class="cls-17" points="257.79 107.68 271.68 107.68 265.05 96.11 271.68 85.24 257.79 85.24 257.79 107.68"/>
        <polygon class="cls-1" points="262.05 105.57 275.94 105.57 269.31 94 275.94 83.12 262.05 83.12 262.05 105.57"/>
      </g>
      <g class="cls-15">
        <g>
          <path class="cls-11" d="M91.73,25.72c-3.1,.41-5.78,.77-8-1.56-2.22-2.33-1.73-4.99-1.16-8.07,.58-3.16,1.24-6.74-1.68-9.81-2.92-3.07-6.53-2.59-9.71-2.16-3.1,.41-5.78,.77-8-1.56-2.22-2.33-1.73-4.99-1.16-8.07,.58-3.16,1.24-6.74-1.67-9.81-.38-.4-1.01-.42-1.41-.04-.4,.38-.42,1.01-.04,1.41,2.22,2.33,1.73,4.99,1.16,8.07-.58,3.16-1.24,6.74,1.67,9.81,2.92,3.07,6.53,2.59,9.71,2.16,3.1-.41,5.78-.77,8,1.56s1.73,4.99,1.16,8.07c-.58,3.16-1.24,6.74,1.68,9.81,2.92,3.07,6.53,2.59,9.72,2.16,3.1-.41,5.78-.77,8,1.56,2.22,2.33,1.73,4.99,1.16,8.07-.58,3.16-1.24,6.74,1.68,9.81,.38,.4,1.01,.42,1.41,.04,.4-.38,.42-1.01,.04-1.41-2.22-2.33-1.73-4.99-1.16-8.07,.58-3.16,1.24-6.74-1.68-9.81-2.92-3.07-6.53-2.59-9.72-2.16Zm7.44-7.08c-3.1,.41-5.78,.77-8-1.56-2.22-2.33-1.73-4.99-1.16-8.07,.58-3.16,1.24-6.74-1.68-9.81-2.92-3.07-6.53-2.59-9.72-2.16-3.1,.41-5.78,.77-8-1.56-2.22-2.33-1.73-4.99-1.16-8.07,.58-3.16,1.24-6.74-1.67-9.81-.38-.4-1.01-.42-1.41-.04-.4,.38-.42,1.01-.04,1.41,2.22,2.33,1.73,4.99,1.16,8.07-.58,3.16-1.24,6.74,1.67,9.81,2.92,3.07,6.53,2.59,9.71,2.16,3.1-.41,5.78-.77,8,1.56,2.22,2.33,1.73,4.99,1.16,8.07-.58,3.16-1.24,6.74,1.68,9.81,2.92,3.07,6.53,2.59,9.72,2.16,3.1-.41,5.78-.77,8,1.56,2.22,2.33,1.73,4.99,1.16,8.07-.58,3.16-1.24,6.74,1.68,9.81,.38,.4,1.01,.42,1.41,.04,.4-.38,.42-1.01,.04-1.41-2.22-2.33-1.73-4.99-1.16-8.07,.58-3.16,1.24-6.74-1.68-9.81s-6.53-2.59-9.72-2.16Zm-1.72-16.71c.58-3.16,1.24-6.74-1.68-9.81-2.92-3.07-6.53-2.59-9.72-2.16-3.1,.41-5.78,.77-8-1.56-2.22-2.33-1.73-4.99-1.16-8.07,.58-3.16,1.24-6.74-1.67-9.81-.38-.4-1.01-.42-1.41-.04-.4,.38-.42,1.01-.04,1.41,2.22,2.33,1.73,4.99,1.16,8.07-.58,3.16-1.24,6.74,1.67,9.81,2.92,3.07,6.53,2.59,9.71,2.16,3.1-.41,5.78-.77,8,1.56,2.22,2.33,1.73,4.99,1.16,8.07-.58,3.16-1.24,6.74,1.68,9.81,2.92,3.07,6.53,2.59,9.72,2.16,3.1-.41,5.78-.77,8,1.56,2.22,2.33,1.73,4.99,1.16,8.07-.58,3.16-1.24,6.74,1.68,9.81,.38,.4,1.01,.42,1.41,.04,.4-.38,.42-1.01,.04-1.41-2.22-2.33-1.73-4.99-1.16-8.07,.58-3.16,1.24-6.74-1.68-9.81s-6.53-2.59-9.72-2.16c-3.1,.41-5.78,.77-8-1.56-2.22-2.33-1.73-4.99-1.16-8.07Z"/>
          <path class="cls-11" d="M318.43,195.6c-3.1,.41-5.78,.77-8-1.56-2.22-2.33-1.73-4.99-1.16-8.07,.58-3.16,1.24-6.74-1.68-9.81s-6.53-2.59-9.71-2.16c-3.1,.41-5.78,.77-8-1.56-2.22-2.33-1.73-4.99-1.16-8.07,.58-3.16,1.24-6.74-1.67-9.81-.38-.4-1.01-.42-1.41-.04-.4,.38-.42,1.01-.04,1.41,2.22,2.33,1.73,4.99,1.16,8.07-.58,3.16-1.24,6.74,1.67,9.81,2.92,3.07,6.53,2.59,9.71,2.16,3.1-.41,5.78-.77,8,1.56,2.22,2.33,1.73,4.99,1.16,8.07-.58,3.16-1.24,6.74,1.68,9.81,2.92,3.07,6.53,2.59,9.72,2.16,3.1-.41,5.78-.77,8,1.56,2.22,2.33,1.73,4.99,1.16,8.07-.58,3.16-1.24,6.74,1.68,9.81,.38,.4,1.01,.42,1.41,.04,.4-.38,.42-1.01,.04-1.41-2.22-2.33-1.73-4.99-1.16-8.07,.58-3.16,1.24-6.74-1.68-9.81s-6.53-2.59-9.72-2.16Zm7.44-7.08c-3.1,.41-5.78,.77-8-1.56-2.22-2.33-1.73-4.99-1.16-8.07,.58-3.16,1.24-6.74-1.68-9.81-2.92-3.07-6.53-2.59-9.72-2.16-3.1,.41-5.78,.77-8-1.56-2.22-2.33-1.73-4.99-1.16-8.07,.58-3.16,1.24-6.74-1.67-9.81-.38-.4-1.01-.42-1.41-.04-.4,.38-.42,1.01-.04,1.41,2.22,2.33,1.73,4.99,1.16,8.07-.58,3.16-1.24,6.74,1.67,9.81,2.92,3.07,6.53,2.59,9.71,2.16,3.1-.41,5.78-.77,8,1.56,2.22,2.33,1.73,4.99,1.16,8.07-.58,3.16-1.24,6.74,1.68,9.81,2.92,3.07,6.53,2.59,9.72,2.16,3.1-.41,5.78-.77,8,1.56,2.22,2.33,1.73,4.99,1.16,8.07-.58,3.16-1.24,6.74,1.68,9.81,.38,.4,1.01,.42,1.41,.04,.4-.38,.42-1.01,.04-1.41-2.22-2.33-1.73-4.99-1.16-8.07,.58-3.16,1.24-6.74-1.68-9.81s-6.53-2.59-9.72-2.16Zm-1.72-16.71c.58-3.16,1.24-6.74-1.68-9.81-2.92-3.07-6.53-2.59-9.71-2.16-3.1,.41-5.78,.77-8-1.56-2.22-2.33-1.73-4.99-1.16-8.07,.58-3.16,1.24-6.74-1.67-9.81-.38-.4-1.01-.42-1.41-.04-.4,.38-.42,1.01-.04,1.41,2.22,2.33,1.73,4.99,1.16,8.07-.58,3.16-1.24,6.74,1.67,9.81,2.92,3.07,6.53,2.59,9.71,2.16,3.1-.41,5.78-.77,8,1.56,2.22,2.33,1.73,4.99,1.16,8.07-.58,3.16-1.24,6.74,1.68,9.81,2.92,3.07,6.53,2.59,9.72,2.16,3.1-.41,5.78-.77,8,1.56,2.22,2.33,1.73,4.99,1.16,8.07-.58,3.16-1.24,6.74,1.68,9.81,.38,.4,1.01,.42,1.41,.04,.4-.38,.42-1.01,.04-1.41-2.22-2.33-1.73-4.99-1.16-8.07,.58-3.16,1.24-6.74-1.68-9.81-2.92-3.07-6.53-2.59-9.72-2.16-3.1,.41-5.78,.77-8-1.56-2.22-2.33-1.73-4.99-1.16-8.07Z"/>
          <g>
            <g>
              <path class="cls-11" d="M81.18,104.42l-4.83,11.31c-.95,2.22,.28,4.76,2.6,5.41l1.85,.51c2.12,.59,4.32-.65,4.91-2.78l3.82-13.79c.04-.16,.06-.32,.08-.48l-8.43-.18Z"/>
              <path class="cls-5" d="M81.33,108.95c-.37,1.01-.22,2,.35,2.21s1.33-.44,1.71-1.45c.37-1.01,.22-2-.35-2.21-.57-.21-1.33,.44-1.71,1.45Z"/>
              <path class="cls-17" d="M53.62,82.92c-2.97,10.72-2.77,20.14,.45,21.03s8.24-7.07,11.21-17.8c2.97-10.72,2.77-20.14-.45-21.03s-8.24,7.07-11.21,17.8Z"/>
              <path class="cls-1" d="M55.5,82.92c-2.97,10.72-2.77,20.14,.45,21.03s8.24-7.07,11.21-17.8c2.97-10.72,2.77-20.14-.45-21.03-3.22-.89-8.24,7.07-11.21,17.8Z"/>
              <path class="cls-11" d="M95.97,83.61l-28.17-17.74c.35,.42,.63,1.01,.85,1.72l26.79,16.87c3.9,2.46,5.7,7.1,4.47,11.54-1.27,4.57-5.47,7.74-10.21,7.6l-30.93-.66c-.57,.49-1.12,.81-1.65,.97l32.56,.69c.08,0,.16,0,.25,0,5.1,0,9.58-3.4,10.95-8.33,1.35-4.88-.62-9.96-4.9-12.66Z"/>
              <path class="cls-11" d="M69.67,86.86c2.44-8.78,2.49-15.74,1.11-18.52l1.05,.66c1.13,3.62,.68,10.44-1.43,18.06-2.18,7.87-5.44,14.09-8.35,16.45l-1.28-.03c2.64-1.38,6.36-7.49,8.9-16.63Z"/>
              <path class="cls-11" d="M90.5,92.63c1.11-4.01,1.72-7.63,1.93-10.66l.72,.45c-.24,3.08-.88,6.65-1.92,10.41-1.21,4.37-2.75,8.23-4.39,11.2l-.85-.02c1.61-2.86,3.21-6.73,4.5-11.39Z"/>
              <g>
                <path class="cls-11" d="M96.92,95.15l.22-.8,3.45,.96c-.05,.27-.12,.54-.19,.81l-3.48-.96Z"/>
                <path class="cls-11" d="M98.06,91.04l2.63,.73c.04,.29,.07,.59,.09,.89l-2.94-.81,.22-.8Z"/>
                <path class="cls-11" d="M96,98.46l.22-.8,3.18,.88c-.14,.25-.29,.5-.45,.74l-2.95-.82Z"/>
              </g>
              <path class="cls-11" d="M61.88,82.42c.5-1.53,2.14-2.37,3.67-1.87l2.74,.89c-.3,1.53-.67,3.11-1.12,4.72-.35,1.25-.72,2.46-1.12,3.63l-3.16-1.03c-1.53-.5-2.37-2.14-1.87-3.67l.87-2.67Z"/>
            </g>
            <line class="cls-3" x1="53.85" y1="69.03" x2="47.09" y2="62.5"/>
            <line class="cls-3" x1="47.49" y1="91.85" x2="38.1" y2="91.38"/>
            <line class="cls-3" x1="50.27" y1="75.91" x2="41.72" y2="72"/>
            <line class="cls-3" x1="48.13" y1="83.52" x2="38.82" y2="82.22"/>
          </g>
          <g>
            <g>
              <path class="cls-11" d="M307.84,99.68l4.83,11.31c.95,2.22-.28,4.76-2.6,5.41l-1.85,.51c-2.12,.59-4.32-.65-4.91-2.78l-3.82-13.79c-.04-.16-.06-.32-.08-.48l8.43-.18Z"/>
              <path class="cls-5" d="M307.69,104.21c.37,1.01,.22,2-.35,2.21s-1.33-.44-1.71-1.45-.22-2,.35-2.21c.57-.21,1.33,.44,1.71,1.45Z"/>
              <path class="cls-17" d="M335.4,78.18c2.97,10.72,2.77,20.14-.45,21.03-3.22,.89-8.24-7.07-11.21-17.8s-2.77-20.14,.45-21.03c3.22-.89,8.24,7.07,11.21,17.8Z"/>
              <path class="cls-1" d="M333.52,78.18c2.97,10.72,2.77,20.14-.45,21.03s-8.24-7.07-11.21-17.8c-2.97-10.72-2.77-20.14,.45-21.03s8.24,7.07,11.21,17.8Z"/>
              <path class="cls-11" d="M293.05,78.87l28.17-17.74c-.35,.42-.63,1.01-.85,1.72l-26.78,16.87c-3.9,2.46-5.7,7.1-4.47,11.54,1.27,4.57,5.47,7.74,10.21,7.6l30.93-.66c.57,.49,1.12,.81,1.65,.97l-32.56,.69c-.08,0-.16,0-.25,0-5.1,0-9.58-3.4-10.95-8.33-1.35-4.88,.62-9.96,4.9-12.66Z"/>
              <path class="cls-11" d="M319.36,82.12c-2.44-8.78-2.49-15.74-1.11-18.52l-1.05,.66c-1.13,3.62-.68,10.44,1.43,18.06,2.18,7.87,5.44,14.09,8.35,16.45l1.28-.03c-2.64-1.38-6.36-7.49-8.9-16.63Z"/>
              <path class="cls-11" d="M298.53,87.89c-1.11-4.01-1.72-7.63-1.93-10.66l-.72,.45c.24,3.08,.88,6.65,1.92,10.41,1.21,4.37,2.75,8.23,4.39,11.2l.85-.02c-1.61-2.86-3.21-6.73-4.5-11.39Z"/>
              <g>
                <path class="cls-11" d="M292.11,90.41l-.22-.8-3.45,.96c.05,.27,.12,.54,.19,.81l3.48-.96Z"/>
                <path class="cls-11" d="M290.97,86.3l-2.63,.73c-.04,.29-.07,.59-.09,.89l2.94-.81-.22-.8Z"/>
                <path class="cls-11" d="M293.02,93.72l-.22-.8-3.18,.88c.14,.25,.29,.5,.45,.74l2.95-.82Z"/>
              </g>
              <path class="cls-11" d="M327.14,77.68c-.5-1.53-2.14-2.37-3.67-1.87l-2.74,.89c.3,1.53,.67,3.11,1.12,4.72,.35,1.25,.72,2.46,1.12,3.63l3.16-1.03c1.53-.5,2.37-2.14,1.87-3.67l-.87-2.67Z"/>
            </g>
            <line class="cls-3" x1="335.17" y1="64.29" x2="341.94" y2="57.76"/>
            <line class="cls-3" x1="341.53" y1="87.11" x2="350.92" y2="86.64"/>
            <line class="cls-3" x1="338.75" y1="71.17" x2="347.3" y2="67.26"/>
            <line class="cls-3" x1="340.9" y1="78.78" x2="350.21" y2="77.48"/>
          </g>
          <rect class="cls-17" x="-43.37" y="113.86" width="78.27" height="78.27" transform="translate(-109.43 41.81) rotate(-45)"/>
          <rect class="cls-3" x="-43.37" y="107.25" width="78.27" height="78.27" transform="translate(-104.75 39.88) rotate(-45)"/>
          <rect class="cls-17" x="350.96" y="-14.87" width="78.27" height="78.27" transform="translate(97.09 282.94) rotate(-45)"/>
          <rect class="cls-3" x="350.96" y="-21.48" width="78.27" height="78.27" transform="translate(101.77 281) rotate(-45)"/>
          <path class="cls-17" d="M23.03,67.89c-1.28,0-2.57-.38-3.71-1.16-2.95-2.05-3.68-6.1-1.63-9.05,2.51-3.61,3.84-7.86,3.84-12.28,0-11.88-9.66-21.54-21.54-21.54s-21.54,9.66-21.54,21.54c0,3.59-2.91,6.5-6.5,6.5s-6.5-2.91-6.5-6.5C-34.54,26.35-19.04,10.86,0,10.86s34.54,15.49,34.54,34.54c0,7.09-2.13,13.9-6.17,19.7-1.26,1.82-3.29,2.79-5.34,2.79Z"/>
          <path class="cls-17" d="M415.21,175.6c-1.41,0-2.84-.46-4.03-1.41-2.81-2.23-3.29-6.32-1.06-9.13,2.73-3.45,4.32-7.6,4.6-12.01,.36-5.74-1.54-11.28-5.34-15.59s-9.06-6.89-14.8-7.25c-5.75-.37-11.28,1.54-15.59,5.34-4.31,3.8-6.89,9.06-7.25,14.8-.23,3.58-3.31,6.32-6.89,6.08-3.58-.22-6.31-3.31-6.08-6.89,.58-9.21,4.71-17.64,11.62-23.74,6.92-6.1,15.79-9.14,25.01-8.57,9.21,.58,17.64,4.71,23.74,11.62,6.1,6.92,9.14,15.8,8.57,25.01-.44,7.07-3,13.74-7.39,19.28-1.28,1.62-3.18,2.46-5.1,2.46Z"/>
          <path class="cls-17" d="M284.58,31.38c-19.04,0-34.54-15.49-34.54-34.54,0-3.59,2.91-6.5,6.5-6.5s6.5,2.91,6.5,6.5c0,11.88,9.66,21.54,21.54,21.54,3.59,0,6.5,2.91,6.5,6.5s-2.91,6.5-6.5,6.5Z"/>
          <path class="cls-17" d="M85.36,154.09c18.99,1.43,33.27,18.05,31.84,37.03-.27,3.58-3.39,6.26-6.97,5.99-3.58-.27-6.26-3.39-5.99-6.97,.89-11.84-8.01-22.2-19.86-23.09-3.58-.27-6.26-3.39-5.99-6.97,.27-3.58,3.39-6.26,6.97-5.99Z"/>
          <g>
            <path class="cls-17" d="M121.47,56.87c-1.55,0-2.81,1.26-2.81,2.81s1.26,2.81,2.81,2.81,2.81-1.26,2.81-2.81-1.26-2.81-2.81-2.81Z"/>
            <path class="cls-17" d="M110.39,56.87c-1.55,0-2.81,1.26-2.81,2.81s1.26,2.81,2.81,2.81,2.81-1.26,2.81-2.81-1.26-2.81-2.81-2.81Z"/>
            <path class="cls-17" d="M99.31,56.87c-1.55,0-2.81,1.26-2.81,2.81s1.26,2.81,2.81,2.81,2.81-1.26,2.81-2.81-1.26-2.81-2.81-2.81Z"/>
            <path class="cls-17" d="M88.23,56.87c-1.55,0-2.81,1.26-2.81,2.81s1.26,2.81,2.81,2.81,2.81-1.26,2.81-2.81-1.26-2.81-2.81-2.81Z"/>
            <path class="cls-17" d="M298.11,56.87c-1.55,0-2.81,1.26-2.81,2.81s1.26,2.81,2.81,2.81,2.81-1.26,2.81-2.81-1.26-2.81-2.81-2.81Z"/>
            <path class="cls-17" d="M287.03,56.87c-1.55,0-2.81,1.26-2.81,2.81s1.26,2.81,2.81,2.81,2.81-1.26,2.81-2.81-1.26-2.81-2.81-2.81Z"/>
            <path class="cls-17" d="M275.94,56.87c-1.55,0-2.81,1.26-2.81,2.81s1.26,2.81,2.81,2.81,2.81-1.26,2.81-2.81-1.26-2.81-2.81-2.81Z"/>
            <path class="cls-17" d="M264.86,56.87c-1.55,0-2.81,1.26-2.81,2.81s1.26,2.81,2.81,2.81,2.81-1.26,2.81-2.81-1.26-2.81-2.81-2.81Z"/>
          </g>
        </g>
        <path class="cls-11" d="M32.31,34.79c-.44,0-.79,.35-.79,.79s.35,.79,.79,.79,.79-.35,.79-.79-.35-.79-.79-.79Zm0,6.92c-.44,0-.79,.35-.79,.79s.35,.79,.79,.79,.79-.35,.79-.79-.35-.79-.79-.79Zm0,6.92c-.44,0-.79,.35-.79,.79s.35,.79,.79,.79,.79-.35,.79-.79-.35-.79-.79-.79Zm0-20.75c-.44,0-.79,.35-.79,.79s.35,.79,.79,.79,.79-.35,.79-.79-.35-.79-.79-.79Zm0-6.92c-.44,0-.79,.35-.79,.79s.35,.79,.79,.79,.79-.35,.79-.79-.35-.79-.79-.79Zm5.67,27.66c-.44,0-.79,.35-.79,.79s.35,.79,.79,.79,.79-.35,.79-.79-.35-.79-.79-.79Zm-11.35-27.66c-.44,0-.79,.35-.79,.79s.35,.79,.79,.79,.79-.35,.79-.79-.35-.79-.79-.79Zm0,20.75c-.44,0-.79,.35-.79,.79s.35,.79,.79,.79,.79-.35,.79-.79-.35-.79-.79-.79Zm22.7-19.17c.44,0,.79-.35,.79-.79s-.35-.79-.79-.79-.79,.35-.79,.79,.35,.79,.79,.79Zm-22.7,26.09c-.44,0-.79,.35-.79,.79s.35,.79,.79,.79,.79-.35,.79-.79-.35-.79-.79-.79Zm0-13.83c-.44,0-.79,.35-.79,.79s.35,.79,.79,.79,.79-.35,.79-.79-.35-.79-.79-.79Zm0-6.92c-.44,0-.79,.35-.79,.79s.35,.79,.79,.79,.79-.35,.79-.79-.35-.79-.79-.79Zm11.35,6.92c-.44,0-.79,.35-.79,.79s.35,.79,.79,.79,.79-.35,.79-.79-.35-.79-.79-.79Zm11.35,13.83c-.44,0-.79,.35-.79,.79s.35,.79,.79,.79,.79-.35,.79-.79-.35-.79-.79-.79Zm0-6.92c-.44,0-.79,.35-.79,.79s.35,.79,.79,.79,.79-.35,.79-.79-.35-.79-.79-.79Zm-5.67-13.83c-.44,0-.79,.35-.79,.79s.35,.79,.79,.79,.79-.35,.79-.79-.35-.79-.79-.79Zm0-6.92c-.44,0-.79,.35-.79,.79s.35,.79,.79,.79,.79-.35,.79-.79-.35-.79-.79-.79Zm5.67,13.83c-.44,0-.79,.35-.79,.79s.35,.79,.79,.79,.79-.35,.79-.79-.35-.79-.79-.79Zm0-6.92c-.44,0-.79,.35-.79,.79s.35,.79,.79,.79,.79-.35,.79-.79-.35-.79-.79-.79Zm-5.67,6.92c-.44,0-.79,.35-.79,.79s.35,.79,.79,.79,.79-.35,.79-.79-.35-.79-.79-.79Zm-5.67-6.92c-.44,0-.79,.35-.79,.79s.35,.79,.79,.79,.79-.35,.79-.79-.35-.79-.79-.79Zm0-6.92c-.44,0-.79,.35-.79,.79s.35,.79,.79,.79,.79-.35,.79-.79-.35-.79-.79-.79Zm0,20.75c-.44,0-.79,.35-.79,.79s.35,.79,.79,.79,.79-.35,.79-.79-.35-.79-.79-.79Zm5.67,0c-.44,0-.79,.35-.79,.79s.35,.79,.79,.79,.79-.35,.79-.79-.35-.79-.79-.79Zm0,6.92c-.44,0-.79,.35-.79,.79s.35,.79,.79,.79,.79-.35,.79-.79-.35-.79-.79-.79Z"/>
        <path class="cls-11" d="M351.26,136.4c-.44,0-.79,.35-.79,.79s.35,.79,.79,.79,.79-.35,.79-.79-.35-.79-.79-.79Zm0,6.92c-.44,0-.79,.35-.79,.79s.35,.79,.79,.79,.79-.35,.79-.79-.35-.79-.79-.79Zm0,6.92c-.44,0-.79,.35-.79,.79s.35,.79,.79,.79,.79-.35,.79-.79-.35-.79-.79-.79Zm0-20.75c-.44,0-.79,.35-.79,.79s.35,.79,.79,.79,.79-.35,.79-.79-.35-.79-.79-.79Zm0-6.92c-.44,0-.79,.35-.79,.79s.35,.79,.79,.79,.79-.35,.79-.79-.35-.79-.79-.79Zm5.67,27.66c-.44,0-.79,.35-.79,.79s.35,.79,.79,.79,.79-.35,.79-.79-.35-.79-.79-.79Zm-11.35-27.66c-.44,0-.79,.35-.79,.79s.35,.79,.79,.79,.79-.35,.79-.79-.35-.79-.79-.79Zm0,20.75c-.44,0-.79,.35-.79,.79s.35,.79,.79,.79,.79-.35,.79-.79-.35-.79-.79-.79Zm22.7-19.17c.44,0,.79-.35,.79-.79s-.35-.79-.79-.79-.79,.35-.79,.79,.35,.79,.79,.79Zm-22.7,26.09c-.44,0-.79,.35-.79,.79s.35,.79,.79,.79,.79-.35,.79-.79-.35-.79-.79-.79Zm0-13.83c-.44,0-.79,.35-.79,.79s.35,.79,.79,.79,.79-.35,.79-.79-.35-.79-.79-.79Zm0-6.92c-.44,0-.79,.35-.79,.79s.35,.79,.79,.79,.79-.35,.79-.79-.35-.79-.79-.79Zm11.35,6.92c-.44,0-.79,.35-.79,.79s.35,.79,.79,.79,.79-.35,.79-.79-.35-.79-.79-.79Zm11.35,13.83c-.44,0-.79,.35-.79,.79s.35,.79,.79,.79,.79-.35,.79-.79-.35-.79-.79-.79Zm0-6.92c-.44,0-.79,.35-.79,.79s.35,.79,.79,.79,.79-.35,.79-.79-.35-.79-.79-.79Zm-5.67-13.83c-.44,0-.79,.35-.79,.79s.35,.79,.79,.79,.79-.35,.79-.79-.35-.79-.79-.79Zm0-6.92c-.44,0-.79,.35-.79,.79s.35,.79,.79,.79,.79-.35,.79-.79-.35-.79-.79-.79Zm5.67,13.83c-.44,0-.79,.35-.79,.79s.35,.79,.79,.79,.79-.35,.79-.79-.35-.79-.79-.79Zm0-6.92c-.44,0-.79,.35-.79,.79s.35,.79,.79,.79,.79-.35,.79-.79-.35-.79-.79-.79Zm-5.67,6.92c-.44,0-.79,.35-.79,.79s.35,.79,.79,.79,.79-.35,.79-.79-.35-.79-.79-.79Zm-5.67-6.92c-.44,0-.79,.35-.79,.79s.35,.79,.79,.79,.79-.35,.79-.79-.35-.79-.79-.79Zm0-6.92c-.44,0-.79,.35-.79,.79s.35,.79,.79,.79,.79-.35,.79-.79-.35-.79-.79-.79Zm0,20.75c-.44,0-.79,.35-.79,.79s.35,.79,.79,.79,.79-.35,.79-.79-.35-.79-.79-.79Zm5.67,0c-.44,0-.79,.35-.79,.79s.35,.79,.79,.79,.79-.35,.79-.79-.35-.79-.79-.79Zm0,6.92c-.44,0-.79,.35-.79,.79s.35,.79,.79,.79,.79-.35,.79-.79-.35-.79-.79-.79Z"/>
      </g>
    </g>
  </g>
</svg>