<?xml version="1.0" encoding="UTF-8"?>
<svg id="_圖層_2" data-name="圖層 2" xmlns="http://www.w3.org/2000/svg" xmlns:xlink="http://www.w3.org/1999/xlink" viewBox="0 0 390.09 174.81">
  <defs>
    <style>
      .cls-1 {
        stroke-miterlimit: 10;
      }

      .cls-1, .cls-2 {
        stroke: #231f20;
      }

      .cls-1, .cls-2, .cls-3, .cls-4 {
        fill: none;
      }

      .cls-5 {
        fill: #e48d39;
      }

      .cls-2 {
        stroke-linecap: round;
        stroke-linejoin: round;
      }

      .cls-6, .cls-7, .cls-8 {
        fill: #fff;
      }

      .cls-7 {
        font-family: Satisfy-Regular, 'Satisfy Regular';
        font-size: 23.31px;
      }

      .cls-8, .cls-9, .cls-3, .cls-10 {
        font-family: BebasNeue, BebasNeue;
      }

      .cls-8, .cls-10 {
        font-size: 40.47px;
      }

      .cls-9, .cls-3 {
        font-size: 29.24px;
      }

      .cls-3 {
        stroke: #fff;
      }

      .cls-11 {
        fill: #fdae54;
      }

      .cls-12 {
        letter-spacing: .01em;
      }

      .cls-13 {
        fill: #ffda64;
      }

      .cls-10, .cls-14 {
        fill: #231f20;
      }

      .cls-15 {
        clip-path: url(#clippath);
      }

      .cls-16 {
        fill: #ffcd60;
      }
    </style>
    <clipPath id="clippath">
      <rect class="cls-4" y="0" width="390.09" height="174.81"/>
    </clipPath>
  </defs>
  <g id="OBJECTS">
    <g>
      <g>
        <rect class="cls-16" y="0" width="390.09" height="174.81"/>
        <polygon class="cls-13" points="0 174.81 78.84 174.81 97.53 151.95 0 16.29 0 174.81"/>
        <polygon class="cls-13" points="298.97 55.46 358.25 174.81 390.09 174.81 390.09 0 312.92 0 298.97 55.46"/>
        <g class="cls-15">
          <g>
            <g>
              <g>
                <path class="cls-14" d="M32.14,115.43l-1.85,.5c-2.12,.58-4.31-.68-4.89-2.8l-3.76-13.81c-.58-2.12,.68-4.31,2.8-4.89h0c1.93-.52,3.94,.46,4.72,2.3l5.61,13.3c.94,2.22-.3,4.76-2.63,5.39Z"/>
                <path class="cls-11" d="M44.3,60.36l-28.74,17.9c-4.07,2.54-6,7.45-4.74,12.08h0c1.3,4.8,5.7,8.1,10.67,8.01l33-.54-10.19-37.45Z"/>
                <path class="cls-14" d="M55.02,77.55c2.81,10.34,2.57,19.41-.53,20.26s-7.91-6.85-10.72-17.2-2.57-19.41,.53-20.26c3.11-.85,7.91,6.85,10.72,17.2Z"/>
                <path class="cls-14" d="M41.59,81.21c-2.39-8.8-2.41-15.75-1.02-18.53l-1.06,.66c-1.15,3.62-.73,10.43,1.34,18.07,2.14,7.88,5.37,14.12,8.27,16.49l1.28-.02c-2.63-1.4-6.33-7.52-8.81-16.67Z"/>
                <path class="cls-14" d="M20.74,86.88c-1.09-4.01-1.69-7.64-1.88-10.67l-.72,.45c.23,3.08,.85,6.65,1.87,10.42,1.19,4.38,2.71,8.24,4.33,11.22h.85c-1.6-2.88-3.18-6.76-4.45-11.42Z"/>
                <g>
                  <path class="cls-14" d="M14.3,89.37l-.22-.8-3.45,.94c.05,.27,.11,.54,.19,.81l3.48-.95Z"/>
                  <path class="cls-14" d="M13.18,85.25l-2.63,.72c-.04,.29-.07,.59-.09,.89l2.94-.8-.22-.8Z"/>
                  <path class="cls-14" d="M15.2,92.68l-.22-.8-3.18,.87c.14,.25,.29,.5,.45,.74l2.95-.8Z"/>
                </g>
              </g>
              <path class="cls-11" d="M65.78,55.48l-6.7,9.78c-.37,.54,.31,1.17,.82,.77l9.79-7.63c.3-.24,.29-.7-.02-.92l-3.09-2.15c-.26-.18-.62-.12-.8,.15Z"/>
              <path class="cls-5" d="M73.75,76.39l-11.8,1.21c-.65,.07-.7,.99-.06,1.13l12.15,2.54c.38,.08,.72-.23,.69-.61l-.35-3.75c-.03-.32-.31-.55-.63-.51Z"/>
              <path class="cls-14" d="M56.88,66.98c-.09,0-.18-.02-.25-.09-.12-.11-.14-.29-.05-.42l9.1-13.29c.05-.07,.12-.12,.21-.14,.09-.02,.17,0,.24,.05l4.2,2.93c.08,.06,.14,.16,.14,.26,0,.1-.04,.2-.13,.27l-13.3,10.37c-.05,.04-.11,.06-.17,.07Zm9.15-13.16l-7.73,11.29,11.29-8.81-3.56-2.49Z"/>
              <path class="cls-14" d="M75.55,83.29s-.07,0-.1,0l-16.42-3.81c-.16-.04-.26-.18-.25-.34,.01-.16,.13-.3,.3-.3l16.06-1.29c.09,0,.17,.02,.24,.08,.07,.06,.11,.14,.11,.22l.37,5.1c0,.1-.03,.2-.11,.27-.05,.04-.11,.07-.18,.08Zm-14.34-3.98l13.95,3.24-.31-4.34-13.64,1.1Z"/>
              <path class="cls-6" d="M79.45,59.64l-17.96,10.06c-.58,.33-.23,1.22,.42,1.05l19.28-4.98c.31-.08,.49-.39,.41-.7l-1.32-5.08c-.09-.36-.51-.54-.83-.35Z"/>
              <path class="cls-14" d="M58.58,72.96c-.15,.01-.29-.08-.34-.22-.05-.16,.02-.32,.17-.4l23.19-11.17c.09-.04,.2-.04,.29,0,.09,.05,.15,.13,.17,.23l1.61,6.56c.02,.08,0,.17-.05,.24-.05,.07-.12,.12-.21,.14l-24.8,4.61s-.02,0-.03,0Zm22.92-11.02l-20.54,9.9,22.01-4.07-1.46-5.83Z"/>
              <path class="cls-5" d="M29.82,103.24c.37,1.01,.21,2.01-.36,2.21-.57,.21-1.33-.45-1.7-1.46-.37-1.01-.21-2.01,.36-2.21,.57-.21,1.33,.45,1.7,1.46Z"/>
              <path class="cls-6" d="M48.88,77.04c-.47-1.48-2.05-2.29-3.52-1.82l-2.64,.84c.29,1.48,.63,3,1.05,4.55,.33,1.21,.69,2.37,1.06,3.5l3.05-.97c1.48-.47,2.29-2.05,1.82-3.52l-.82-2.58Z"/>
            </g>
            <path class="cls-14" d="M31.09,183.47c-2.53-1.84-4.72-3.43-4.72-6.65s2.19-4.8,4.72-6.64c2.6-1.89,5.55-4.03,5.55-8.26s-2.95-6.38-5.55-8.26c-2.53-1.84-4.72-3.43-4.72-6.64s2.19-4.8,4.72-6.64c2.6-1.89,5.55-4.03,5.55-8.26,0-.55-.45-1-1-1s-1,.45-1,1c0,3.22-2.19,4.8-4.72,6.64-2.6,1.89-5.55,4.03-5.55,8.26s2.95,6.38,5.55,8.26c2.53,1.84,4.72,3.43,4.72,6.64s-2.19,4.81-4.72,6.64c-2.6,1.89-5.55,4.03-5.55,8.26s2.95,6.38,5.55,8.26c2.53,1.84,4.72,3.43,4.72,6.65s-2.19,4.81-4.72,6.65c-2.6,1.89-5.55,4.03-5.55,8.26,0,.55,.45,1,1,1s1-.45,1-1c0-3.22,2.19-4.81,4.72-6.65,2.6-1.89,5.55-4.03,5.55-8.26s-2.95-6.38-5.55-8.26Zm10.27,0c-2.53-1.84-4.72-3.43-4.72-6.65s2.19-4.8,4.72-6.64c2.6-1.89,5.55-4.03,5.55-8.26s-2.95-6.38-5.55-8.26c-2.53-1.84-4.72-3.43-4.72-6.64s2.19-4.8,4.72-6.64c2.6-1.89,5.55-4.03,5.55-8.26,0-.55-.45-1-1-1s-1,.45-1,1c0,3.22-2.19,4.8-4.72,6.64-2.6,1.89-5.55,4.03-5.55,8.26s2.95,6.38,5.55,8.26c2.53,1.84,4.72,3.43,4.72,6.64s-2.19,4.81-4.72,6.64c-2.6,1.89-5.55,4.03-5.55,8.26s2.95,6.38,5.55,8.26c2.53,1.84,4.72,3.43,4.72,6.65s-2.19,4.81-4.72,6.65c-2.6,1.89-5.55,4.03-5.55,8.26,0,.55,.45,1,1,1s1-.45,1-1c0-3.22,2.19-4.81,4.72-6.65,2.6-1.89,5.55-4.03,5.55-8.26s-2.95-6.38-5.55-8.26Zm10.27-13.29c2.6-1.89,5.55-4.03,5.55-8.26s-2.95-6.38-5.55-8.26c-2.53-1.84-4.72-3.43-4.72-6.64s2.19-4.8,4.72-6.64c2.6-1.89,5.55-4.03,5.55-8.26,0-.55-.45-1-1-1s-1,.45-1,1c0,3.22-2.19,4.8-4.72,6.64-2.6,1.89-5.55,4.03-5.55,8.26s2.95,6.38,5.55,8.26c2.53,1.84,4.72,3.43,4.72,6.64s-2.19,4.81-4.72,6.64c-2.6,1.89-5.55,4.03-5.55,8.26s2.95,6.38,5.55,8.26c2.53,1.84,4.72,3.43,4.72,6.65s-2.19,4.81-4.72,6.65c-2.6,1.89-5.55,4.03-5.55,8.26,0,.55,.45,1,1,1s1-.45,1-1c0-3.22,2.19-4.81,4.72-6.65,2.6-1.89,5.55-4.03,5.55-8.26s-2.95-6.38-5.55-8.26c-2.53-1.84-4.72-3.43-4.72-6.65s2.19-4.8,4.72-6.64Z"/>
            <path class="cls-14" d="M332.52,8.54c-2.53-1.84-4.72-3.43-4.72-6.65s2.19-4.8,4.72-6.64c2.6-1.89,5.55-4.03,5.55-8.26s-2.95-6.38-5.55-8.26c-2.53-1.84-4.72-3.43-4.72-6.64s2.19-4.8,4.72-6.64c2.6-1.89,5.55-4.03,5.55-8.26,0-.55-.45-1-1-1s-1,.45-1,1c0,3.22-2.19,4.8-4.72,6.64-2.6,1.89-5.55,4.03-5.55,8.26s2.95,6.38,5.55,8.26c2.53,1.84,4.72,3.43,4.72,6.64s-2.19,4.81-4.72,6.64c-2.6,1.89-5.55,4.03-5.55,8.26s2.95,6.38,5.55,8.26c2.53,1.84,4.72,3.43,4.72,6.65s-2.19,4.81-4.72,6.65c-2.6,1.89-5.55,4.03-5.55,8.26,0,.55,.45,1,1,1s1-.45,1-1c0-3.22,2.19-4.81,4.72-6.65,2.6-1.89,5.55-4.03,5.55-8.26s-2.95-6.38-5.55-8.26Zm10.27,0c-2.53-1.84-4.72-3.43-4.72-6.65s2.19-4.8,4.72-6.64c2.6-1.89,5.55-4.03,5.55-8.26s-2.95-6.38-5.55-8.26c-2.53-1.84-4.72-3.43-4.72-6.64s2.19-4.8,4.72-6.64c2.6-1.89,5.55-4.03,5.55-8.26,0-.55-.45-1-1-1s-1,.45-1,1c0,3.22-2.19,4.8-4.72,6.64-2.6,1.89-5.55,4.03-5.55,8.26s2.95,6.38,5.55,8.26c2.53,1.84,4.72,3.43,4.72,6.64s-2.19,4.81-4.72,6.64c-2.6,1.89-5.55,4.03-5.55,8.26s2.95,6.38,5.55,8.26c2.53,1.84,4.72,3.43,4.72,6.65s-2.19,4.81-4.72,6.65c-2.6,1.89-5.55,4.03-5.55,8.26,0,.55,.45,1,1,1s1-.45,1-1c0-3.22,2.19-4.81,4.72-6.65,2.6-1.89,5.55-4.03,5.55-8.26s-2.95-6.38-5.55-8.26Zm10.27-13.29c2.6-1.89,5.55-4.03,5.55-8.26s-2.95-6.38-5.55-8.26c-2.53-1.84-4.72-3.43-4.72-6.64s2.19-4.8,4.72-6.64c2.6-1.89,5.55-4.03,5.55-8.26,0-.55-.45-1-1-1s-1,.45-1,1c0,3.22-2.19,4.8-4.72,6.64-2.6,1.89-5.55,4.03-5.55,8.26s2.95,6.38,5.55,8.26c2.53,1.84,4.72,3.43,4.72,6.64s-2.19,4.81-4.72,6.64c-2.6,1.89-5.55,4.03-5.55,8.26s2.95,6.38,5.55,8.26c2.53,1.84,4.72,3.43,4.72,6.65s-2.19,4.81-4.72,6.65c-2.6,1.89-5.55,4.03-5.55,8.26,0,.55,.45,1,1,1s1-.45,1-1c0-3.22,2.19-4.81,4.72-6.65,2.6-1.89,5.55-4.03,5.55-8.26s-2.95-6.38-5.55-8.26c-2.53-1.84-4.72-3.43-4.72-6.65s2.19-4.8,4.72-6.64Z"/>
            <g>
              <g>
                <path class="cls-14" d="M357.78,115.25l1.73,.47c1.98,.54,4.03-.63,4.57-2.61l3.51-12.89c.54-1.98-.63-4.03-2.61-4.57h0c-1.8-.49-3.68,.43-4.4,2.14l-5.23,12.42c-.87,2.07,.28,4.44,2.45,5.03Z"/>
                <path class="cls-11" d="M346.43,63.85l26.82,16.71c3.8,2.37,5.6,6.95,4.42,11.27h0c-1.22,4.48-5.32,7.56-9.95,7.48l-30.8-.51,9.51-34.95Z"/>
                <path class="cls-14" d="M336.43,79.9c-2.63,9.65-2.4,18.12,.5,18.91,2.9,.79,7.38-6.4,10-16.05s2.4-18.12-.5-18.91c-2.9-.79-7.38,6.4-10,16.05Z"/>
                <path class="cls-14" d="M348.96,83.31c2.23-8.21,2.25-14.7,.95-17.29l.99,.61c1.07,3.37,.69,9.74-1.25,16.86-2,7.36-5.02,13.18-7.72,15.39l-1.19-.02c2.46-1.3,5.9-7.02,8.23-15.56Z"/>
                <path class="cls-14" d="M368.43,88.6c1.02-3.75,1.58-7.13,1.76-9.96l.67,.42c-.21,2.88-.79,6.21-1.75,9.72-1.11,4.08-2.53,7.69-4.04,10.48h-.79c1.49-2.69,2.97-6.31,4.15-10.66Z"/>
                <g>
                  <path class="cls-14" d="M374.43,90.92l.2-.75,3.22,.88c-.05,.25-.11,.51-.17,.76l-3.25-.88Z"/>
                  <path class="cls-14" d="M375.48,87.08l2.46,.67c.04,.27,.07,.55,.08,.83l-2.74-.75,.2-.75Z"/>
                  <path class="cls-14" d="M373.59,94.01l.2-.75,2.97,.81c-.13,.24-.27,.47-.42,.69l-2.75-.75Z"/>
                </g>
              </g>
              <path class="cls-11" d="M326.38,59.3l6.25,9.13c.34,.5-.29,1.1-.77,.72l-9.13-7.12c-.28-.22-.27-.65,.02-.86l2.88-2.01c.24-.17,.58-.11,.74,.14Z"/>
              <path class="cls-5" d="M318.94,78.81l11.01,1.13c.61,.06,.65,.93,.05,1.05l-11.34,2.37c-.35,.07-.67-.21-.64-.57l.33-3.5c.03-.3,.29-.51,.59-.48Z"/>
              <path class="cls-14" d="M334.53,69.97l-12.41-9.68c-.08-.06-.12-.15-.12-.25,0-.1,.05-.19,.13-.24l3.92-2.73c.07-.05,.15-.07,.23-.05,.08,.01,.15,.06,.2,.13l8.49,12.41c.08,.12,.07,.29-.04,.39-.07,.06-.15,.09-.24,.08-.06,0-.11-.03-.16-.06Zm-11.71-9.9l10.54,8.22-7.22-10.54-3.33,2.32Z"/>
              <path class="cls-14" d="M317.1,85.18c-.07-.06-.11-.16-.11-.25l.34-4.76c0-.08,.04-.16,.11-.21,.06-.05,.14-.08,.22-.07l14.99,1.21c.16,0,.27,.13,.28,.28,.01,.15-.09,.28-.23,.32l-15.33,3.56s-.07,0-.1,0c-.06,0-.12-.03-.17-.07Zm.82-4.67l-.29,4.05,13.02-3.02-12.73-1.03Z"/>
              <path class="cls-6" d="M313.63,63.18l16.77,9.39c.54,.31,.21,1.14-.39,.98l-18-4.65c-.29-.07-.46-.36-.38-.65l1.23-4.74c.09-.34,.47-.5,.78-.33Z"/>
              <path class="cls-14" d="M333.08,75.61l-23.14-4.3c-.08-.02-.15-.06-.19-.13-.05-.07-.06-.15-.05-.23l1.5-6.12c.02-.09,.08-.17,.16-.21,.08-.04,.18-.04,.27,0l21.64,10.43c.14,.07,.2,.22,.16,.37-.05,.14-.18,.22-.32,.21,0,0-.02,0-.03,0Zm-22.73-4.84l20.54,3.8-19.17-9.24-1.37,5.44Z"/>
              <path class="cls-5" d="M359.95,103.87c-.34,.95-.19,1.87,.34,2.06,.53,.19,1.24-.42,1.59-1.36,.34-.95,.19-1.87-.34-2.07-.53-.19-1.24,.42-1.59,1.36Z"/>
              <path class="cls-6" d="M342.16,79.42c.44-1.38,1.91-2.14,3.29-1.7l2.47,.79c-.27,1.38-.59,2.8-.98,4.25-.31,1.13-.64,2.21-.99,3.26l-2.85-.91c-1.38-.44-2.14-1.91-1.7-3.29l.77-2.4Z"/>
            </g>
            <g>
              <circle class="cls-6" cx="16.6" cy="-3.43" r="54.44" transform="translate(15.94 13.5) rotate(-76.1)"/>
              <circle class="cls-1" cx="21.36" cy="-7.67" r="54.44" transform="translate(24.15 14.86) rotate(-77.31)"/>
            </g>
            <g>
              <circle class="cls-6" cx="379.58" cy="190.24" r="54.44"/>
              <circle class="cls-1" cx="384.35" cy="186.01" r="54.44"/>
            </g>
            <path class="cls-14" d="M61.37,10.12c-1.12,0-2.02,.91-2.02,2.02s.91,2.02,2.02,2.02,2.02-.91,2.02-2.02-.91-2.02-2.02-2.02Zm-18.61,0c-1.12,0-2.02,.91-2.02,2.02s.91,2.02,2.02,2.02,2.02-.91,2.02-2.02-.91-2.02-2.02-2.02Zm-18.61,0c-1.12,0-2.02,.91-2.02,2.02s.91,2.02,2.02,2.02,2.02-.91,2.02-2.02-.91-2.02-2.02-2.02Zm74.44,0c-1.12,0-2.02,.91-2.02,2.02s.91,2.02,2.02,2.02,2.02-.91,2.02-2.02-.91-2.02-2.02-2.02Zm-18.61,0c-1.12,0-2.02,.91-2.02,2.02s.91,2.02,2.02,2.02,2.02-.91,2.02-2.02-.91-2.02-2.02-2.02Z"/>
            <path class="cls-14" d="M327.93,157.35c-1.12,0-2.02,.91-2.02,2.02s.91,2.02,2.02,2.02,2.02-.91,2.02-2.02-.91-2.02-2.02-2.02Zm-18.61,0c-1.12,0-2.02,.91-2.02,2.02s.91,2.02,2.02,2.02,2.02-.91,2.02-2.02-.91-2.02-2.02-2.02Zm-18.61,0c-1.12,0-2.02,.91-2.02,2.02s.91,2.02,2.02,2.02,2.02-.91,2.02-2.02-.91-2.02-2.02-2.02Zm74.44,0c-1.12,0-2.02,.91-2.02,2.02s.91,2.02,2.02,2.02,2.02-.91,2.02-2.02-.91-2.02-2.02-2.02Zm-18.61,0c-1.12,0-2.02,.91-2.02,2.02s.91,2.02,2.02,2.02,2.02-.91,2.02-2.02-.91-2.02-2.02-2.02Z"/>
            <g>
              <rect class="cls-14" x="91.37" y="-.42" width="96.03" height=".84" transform="translate(70.49 121.17) rotate(-60.38)"/>
              <rect class="cls-14" x="97.84" y="-.42" width="96.03" height=".84" transform="translate(73.76 126.79) rotate(-60.38)"/>
              <rect class="cls-14" x="104.31" y="-.42" width="96.03" height=".84" transform="translate(77.03 132.41) rotate(-60.38)"/>
            </g>
            <g>
              <rect class="cls-14" x="183.1" y="189.82" width="96.03" height=".84" transform="translate(-48.5 297.12) rotate(-60.38)"/>
              <rect class="cls-14" x="189.57" y="189.82" width="96.03" height=".84" transform="translate(-45.22 302.74) rotate(-60.38)"/>
              <rect class="cls-14" x="196.03" y="189.82" width="96.03" height=".84" transform="translate(-41.95 308.36) rotate(-60.38)"/>
            </g>
            <g>
              <path class="cls-6" d="M262.23,38.22c0,3.04-2.46,5.5-5.5,5.5s-5.5-2.46-5.5-5.5,2.46-5.5,5.5-5.5,5.5,2.46,5.5,5.5Z"/>
              <circle class="cls-2" cx="253.95" cy="40.66" r="5.5"/>
            </g>
            <g>
              <path class="cls-6" d="M125.21,150.1c0-3.04,2.46-5.5,5.5-5.5s5.5,2.46,5.5,5.5-2.46,5.5-5.5,5.5-5.5-2.46-5.5-5.5Z"/>
              <path class="cls-2" d="M127.98,147.66c0-3.04,2.46-5.5,5.5-5.5s5.5,2.46,5.5,5.5-2.46,5.5-5.5,5.5-5.5-2.46-5.5-5.5Z"/>
            </g>
            <g>
              <path class="cls-6" d="M287.63,18.86h-.88c-.63,0-1.13-.51-1.13-1.13v-.88c0-.63-.51-1.13-1.13-1.13h0c-.63,0-1.13,.51-1.13,1.13v.88c0,.63-.51,1.13-1.13,1.13h-.88c-.63,0-1.13,.51-1.13,1.13h0c0,.63,.51,1.13,1.13,1.13h.88c.63,0,1.13,.51,1.13,1.13v.88c0,.63,.51,1.13,1.13,1.13h0c.63,0,1.13-.51,1.13-1.13v-.88c0-.63,.51-1.13,1.13-1.13h.88c.63,0,1.13-.51,1.13-1.13h0c0-.63-.51-1.13-1.13-1.13Z"/>
              <path class="cls-6" d="M298.03,17.28h-.44c-.31,0-.57-.25-.57-.57v-.44c0-.31-.25-.57-.57-.57h0c-.31,0-.57,.25-.57,.57v.44c0,.31-.25,.57-.57,.57h-.44c-.31,0-.57,.25-.57,.57h0c0,.31,.25,.57,.57,.57h.44c.31,0,.57,.25,.57,.57v.44c0,.31,.25,.57,.57,.57h0c.31,0,.57-.25,.57-.57v-.44c0-.31,.25-.57,.57-.57h.44c.31,0,.57-.25,.57-.57h0c0-.31-.25-.57-.57-.57Z"/>
            </g>
            <g>
              <path class="cls-6" d="M99.64,157.7h.88c.63,0,1.13,.51,1.13,1.13v.88c0,.63,.51,1.13,1.13,1.13h0c.63,0,1.13-.51,1.13-1.13v-.88c0-.63,.51-1.13,1.13-1.13h.88c.63,0,1.13-.51,1.13-1.13h0c0-.63-.51-1.13-1.13-1.13h-.88c-.63,0-1.13-.51-1.13-1.13v-.88c0-.63-.51-1.13-1.13-1.13h0c-.63,0-1.13,.51-1.13,1.13v.88c0,.63-.51,1.13-1.13,1.13h-.88c-.63,0-1.13,.51-1.13,1.13h0c0,.63,.51,1.13,1.13,1.13Z"/>
              <path class="cls-6" d="M89.24,159.27h.44c.31,0,.57,.25,.57,.57v.44c0,.31,.25,.57,.57,.57h0c.31,0,.57-.25,.57-.57v-.44c0-.31,.25-.57,.57-.57h.44c.31,0,.57-.25,.57-.57h0c0-.31-.25-.57-.57-.57h-.44c-.31,0-.57-.25-.57-.57v-.44c0-.31-.25-.57-.57-.57h0c-.31,0-.57,.25-.57,.57v.44c0,.31-.25,.57-.57,.57h-.44c-.31,0-.57,.25-.57,.57h0c0,.31,.25,.57,.57,.57Z"/>
            </g>
            <g>
              <circle class="cls-6" cx="87.82" cy="97.46" r=".99"/>
              <path class="cls-6" d="M88.81,108.81c0-.55-.44-.99-.99-.99s-.99,.44-.99,.99,.44,.99,.99,.99,.99-.44,.99-.99Z"/>
              <path class="cls-6" d="M88.81,120.16c0-.55-.44-.99-.99-.99s-.99,.44-.99,.99,.44,.99,.99,.99,.99-.44,.99-.99Z"/>
              <path class="cls-6" d="M88.81,131.51c0-.55-.44-.99-.99-.99s-.99,.44-.99,.99,.44,.99,.99,.99,.99-.44,.99-.99Z"/>
              <path class="cls-6" d="M88.81,142.86c0-.55-.44-.99-.99-.99s-.99,.44-.99,.99,.44,.99,.99,.99,.99-.44,.99-.99Z"/>
            </g>
            <g>
              <path class="cls-6" d="M305.82,52.16c0-.55-.44-.99-.99-.99s-.99,.44-.99,.99,.44,.99,.99,.99,.99-.44,.99-.99Z"/>
              <path class="cls-6" d="M305.82,63.51c0-.55-.44-.99-.99-.99s-.99,.44-.99,.99,.44,.99,.99,.99,.99-.44,.99-.99Z"/>
              <path class="cls-6" d="M305.82,74.86c0-.55-.44-.99-.99-.99s-.99,.44-.99,.99,.44,.99,.99,.99,.99-.44,.99-.99Z"/>
              <path class="cls-6" d="M305.82,86.21c0-.55-.44-.99-.99-.99s-.99,.44-.99,.99,.44,.99,.99,.99,.99-.44,.99-.99Z"/>
              <path class="cls-6" d="M305.82,97.56c0-.55-.44-.99-.99-.99s-.99,.44-.99,.99,.44,.99,.99,.99,.99-.44,.99-.99Z"/>
            </g>
          </g>
        </g>
      </g>
      <g>
        <rect class="cls-13" x="90.99" y="87.03" width="208.12" height="40.6"/>
        <path class="cls-14" d="M292.56,122.55H97.53v-46.71h195.03v46.71Zm-194.03-1h193.03v-44.71H98.53v44.71Z"/>
        <text class="cls-7" transform="translate(171.64 36.16) scale(1.08 1)"><tspan x="0" y="0">Hey!</tspan></text>
        <text class="cls-8" transform="translate(78.62 114.05) scale(1.14 1)"><tspan x="0" y="0">RE</tspan><tspan class="cls-12" x="41.68" y="0">-</tspan><tspan x="54.67" y="0">OPENING</tspan></text>
        <text class="cls-10" transform="translate(76.41 111.84) scale(1.14 1)"><tspan x="0" y="0">RE</tspan><tspan class="cls-12" x="41.68" y="0">-</tspan><tspan x="54.67" y="0">OPENING</tspan></text>
        <g>
          <path class="cls-14" d="M173.67,70.25c-2.41-6.26-3.69-9.37-6.41-15.55,.91-.14,1.37-.21,2.29-.35,1.27,3.15,1.89,4.73,3.08,7.91,.74,1.95,1.42,3.92,1.9,5.44,.02,0,.03,0,.05,0,.05-1.64,.3-3.62,.6-5.78,.47-3.37,.73-5.06,1.28-8.43,.91-.1,1.36-.14,2.27-.22,1.12,3.22,1.67,4.84,2.72,8.08,.61,1.89,1.18,3.79,1.53,5.49,.02,0,.03,0,.05,0,.19-1.81,.51-3.65,.87-5.72,.63-3.34,.97-5.01,1.69-8.35,.89-.05,1.34-.07,2.23-.1-1.65,6.6-2.38,9.91-3.68,16.54-.83,.06-1.24,.09-2.07,.15-1.05-3.33-1.59-4.98-2.72-8.29-.69-2.03-1.19-3.58-1.58-5.2-.02,0-.03,0-.05,0-.14,1.64-.34,3.27-.71,5.43-.55,3.48-.81,5.22-1.27,8.7-.82,.1-1.24,.15-2.06,.26Z"/>
          <path class="cls-14" d="M190.53,63.42c.13,2.88,1.9,4.02,3.92,4.01,1.45,0,2.32-.26,3.09-.59,.13,.61,.19,.92,.32,1.53-.71,.33-1.92,.69-3.67,.7-3.39,.02-5.5-2.25-5.64-5.78-.14-3.53,1.85-6.42,5.3-6.44,3.86-.03,4.82,3.4,4.77,5.55,0,.44-.06,.77-.09,.99-3.2-.07-4.8-.06-8,.02Zm6.08-1.58c.04-1.36-.52-3.48-2.92-3.46-2.16,.02-3.05,2.04-3.18,3.52,2.44-.07,3.66-.08,6.1-.05Z"/>
          <path class="cls-14" d="M203.73,52.46c-.68,2-1.84,4.55-2.56,5.63-.55,.05-.82,.07-1.36,.13,.57-1.41,1.3-3.91,1.64-5.64,.91-.05,1.37-.08,2.29-.12Z"/>
          <path class="cls-14" d="M204.67,61.04c.08-1.38,.12-2.56,.11-3.66,.75,.04,1.13,.07,1.88,.12-.03,.92-.05,1.38-.08,2.3,.04,0,.06,0,.1,0,.64-1.53,2.01-2.43,3.44-2.31,.24,.02,.41,.06,.6,.13-.07,.8-.11,1.2-.18,2-.21-.07-.43-.11-.72-.14-1.49-.13-2.64,.93-3.04,2.51-.07,.29-.14,.62-.16,.98-.17,2.49-.26,3.74-.43,6.23-.79-.05-1.19-.08-1.98-.12,.18-3.22,.27-4.83,.46-8.05Z"/>
          <path class="cls-14" d="M213.12,64.34c-.27,2.87,1.34,4.24,3.35,4.5,1.44,.19,2.34,.06,3.15-.16,.05,.62,.07,.94,.11,1.56-.75,.23-2,.43-3.74,.2-3.37-.44-5.15-2.98-4.81-6.49,.34-3.52,2.71-6.11,6.13-5.66,3.84,.5,4.33,4.02,3.99,6.15-.07,.43-.17,.76-.23,.97-3.17-.5-4.76-.71-7.95-1.06Zm6.26-.74c.22-1.34-.05-3.52-2.44-3.83-2.14-.28-3.31,1.6-3.63,3.05,2.43,.27,3.64,.42,6.07,.77Z"/>
        </g>
        <text class="cls-3" transform="translate(150.01 151.42) scale(1.14 1)"><tspan x="0" y="0">SOON</tspan></text>
        <text class="cls-9" transform="translate(153 148.55) scale(1.14 1)"><tspan x="0" y="0">SOON</tspan></text>
      </g>
    </g>
  </g>
</svg>