<svg width="420" height="188" viewBox="0 0 420 188" fill="none" xmlns="http://www.w3.org/2000/svg">
<g clip-path="url(#clip0_1131_1703)">
<path d="M419.524 0H0V188H419.524V0Z" fill="#FFCD60"/>
<path d="M0 188H84.7887L104.889 163.415L0 17.5192V188Z" fill="#FFDA64"/>
<path d="M321.528 59.6446L385.281 188H419.524V0H336.531L321.528 59.6446Z" fill="#FFDA64"/>
<mask id="mask0_1131_1703" style="mask-type:luminance" maskUnits="userSpaceOnUse" x="0" y="0" width="420" height="188">
<path d="M419.524 0H0V188H419.524V0Z" fill="white"/>
</mask>
<g mask="url(#mask0_1131_1703)">
<path d="M34.5652 124.139L32.5756 124.677C30.2957 125.301 27.9404 123.946 27.3167 121.666L23.273 106.814C22.6492 104.534 24.0043 102.179 26.2842 101.555C28.3599 100.996 30.5215 102.05 31.3604 104.029L37.3937 118.332C38.4046 120.72 37.071 123.451 34.5652 124.129V124.139Z" fill="#231F20"/>
<path d="M47.6428 64.9143L16.7343 84.1649C12.3572 86.8966 10.2816 92.177 11.6367 97.1564C13.0347 102.319 17.7667 105.868 23.1117 105.771L58.6017 105.19L47.6428 64.9143Z" fill="#FDAE54"/>
<path d="M59.1718 83.4014C62.1938 94.5215 61.9357 104.276 58.6018 105.19C55.2679 106.104 50.095 97.8232 47.0729 86.6922C44.0509 75.5613 44.309 65.8177 47.6429 64.9036C50.9876 63.9894 56.1498 72.2704 59.1718 83.4014Z" fill="#231F20"/>
<path d="M44.7281 87.3375C42.1578 77.8735 42.1363 70.3991 43.6312 67.4093L42.4912 68.1191C41.2544 72.0122 41.7061 79.3361 43.9323 87.5525C46.2338 96.0271 49.7075 102.738 52.8263 105.287L54.2029 105.265C51.3744 103.76 47.3953 97.1779 44.7281 87.3375Z" fill="#231F20"/>
<path d="M22.305 93.4353C21.1327 89.1227 20.4875 85.2188 20.2831 81.9602L19.5088 82.4442C19.7561 85.7566 20.4229 89.5959 21.5199 93.6504C22.7997 98.3609 24.4344 102.512 26.1766 105.717H27.0907C25.37 102.62 23.6708 98.4469 22.305 93.4353Z" fill="#231F20"/>
<path d="M15.379 96.1133L15.1424 95.2529L11.4321 96.2639C11.4859 96.5542 11.5504 96.8446 11.6365 97.135L15.379 96.1133Z" fill="#231F20"/>
<path d="M14.1747 91.6824L11.3463 92.4567C11.3033 92.7686 11.271 93.0912 11.2495 93.4139L14.4113 92.5535L14.1747 91.6931V91.6824Z" fill="#231F20"/>
<path d="M16.347 99.673L16.1104 98.8126L12.6904 99.7483C12.841 100.017 13.0023 100.286 13.1744 100.544L16.347 99.6837V99.673Z" fill="#231F20"/>
<path d="M70.7436 59.666L63.5381 70.184C63.1401 70.7647 63.8714 71.4422 64.4199 71.012L74.9486 62.8063C75.2713 62.5482 75.2605 62.0535 74.9271 61.8169L71.604 59.5047C71.3243 59.3111 70.9372 59.3756 70.7436 59.666Z" fill="#FDAE54"/>
<path d="M79.3151 82.1538L66.6247 83.4551C65.9257 83.5304 65.8719 84.5198 66.5602 84.6704L79.627 87.402C80.0357 87.4881 80.4013 87.1547 80.369 86.746L79.9926 82.713C79.9604 82.3689 79.6592 82.1215 79.3151 82.1646V82.1538Z" fill="#E48D39"/>
<path d="M61.1718 72.0338C61.0751 72.0338 60.9783 72.0122 60.903 71.937C60.7739 71.8187 60.7524 71.6251 60.8492 71.4853L70.6358 57.1925C70.6896 57.1172 70.7649 57.0634 70.8617 57.0419C70.9585 57.0204 71.0445 57.0419 71.1198 57.0957L75.6367 60.2468C75.7227 60.3113 75.7873 60.4189 75.7873 60.5264C75.7873 60.6339 75.7442 60.7415 75.6474 60.8168L61.3439 71.9692C61.2901 72.0122 61.2256 72.0337 61.1611 72.0445L61.1718 72.0338ZM71.0122 57.8808L62.699 70.0227L74.8409 60.5479L71.0122 57.87V57.8808Z" fill="#231F20"/>
<path d="M81.2509 89.5743C81.2509 89.5743 81.1757 89.5743 81.1434 89.5743L63.4844 85.4769C63.3124 85.4339 63.2048 85.2833 63.2156 85.1112C63.2263 84.9391 63.3554 84.7886 63.5382 84.7886L80.81 83.4012C80.9068 83.4012 80.9928 83.4227 81.0681 83.4873C81.1434 83.5518 81.1864 83.6378 81.1864 83.7239L81.5843 89.2087C81.5843 89.3162 81.5521 89.4238 81.466 89.4991C81.4123 89.5421 81.3477 89.5743 81.2724 89.5851L81.2509 89.5743ZM65.8289 85.294L80.8315 88.7785L80.4981 84.111L65.8289 85.294Z" fill="#231F20"/>
<path d="M85.4451 64.1399L66.13 74.959C65.5062 75.3139 65.8826 76.271 66.5816 76.0882L87.3164 70.7324C87.6498 70.6464 87.8434 70.313 87.7573 69.9796L86.3377 64.5163C86.2409 64.1292 85.7892 63.9356 85.4451 64.1399Z" fill="white"/>
<path d="M63.0005 78.4649C62.8392 78.4757 62.6887 78.3789 62.6349 78.2283C62.5811 78.0562 62.6564 77.8842 62.8177 77.7981L87.7575 65.7853C87.8543 65.7423 87.9726 65.7423 88.0694 65.7853C88.1662 65.8391 88.2307 65.9251 88.2522 66.0327L89.9837 73.0876C90.0052 73.1737 89.9837 73.2705 89.9299 73.3458C89.8761 73.421 89.8008 73.4748 89.7041 73.4963L63.0328 78.4542C63.0328 78.4542 63.0113 78.4542 63.0005 78.4542V78.4649ZM87.6499 66.6134L65.5601 77.2604L89.2309 72.8833L87.6607 66.6134H87.6499Z" fill="#231F20"/>
<path d="M32.0702 111.03C32.4682 112.116 32.2961 113.191 31.6831 113.406C31.0701 113.632 30.2527 112.922 29.8548 111.836C29.4569 110.75 29.629 109.675 30.242 109.46C30.855 109.234 31.6723 109.943 32.0702 111.03Z" fill="#E48D39"/>
<path d="M52.5686 82.8528C52.0632 81.2612 50.364 80.39 48.783 80.8955L45.9438 81.7989C46.2557 83.3906 46.6214 85.0252 47.0731 86.6922C47.428 87.9935 47.8151 89.241 48.2131 90.4563L51.4932 89.4131C53.0849 88.9076 53.956 87.2084 53.4505 85.6275L52.5686 82.8528Z" fill="white"/>
<path d="M33.436 197.313C30.7151 195.335 28.3599 193.625 28.3599 190.162C28.3599 186.699 30.7151 184.999 33.436 183.021C36.2322 180.988 39.4048 178.687 39.4048 174.137C39.4048 169.588 36.2322 167.276 33.436 165.254C30.7151 163.275 28.3599 161.565 28.3599 158.113C28.3599 154.661 30.7151 152.951 33.436 150.972C36.2322 148.94 39.4048 146.638 39.4048 142.089C39.4048 141.497 38.9208 141.013 38.3293 141.013C37.7378 141.013 37.2539 141.497 37.2539 142.089C37.2539 145.552 34.8986 147.251 32.1777 149.23C29.3816 151.262 26.209 153.564 26.209 158.113C26.209 162.662 29.3816 164.975 32.1777 166.996C34.8986 168.975 37.2539 170.685 37.2539 174.137C37.2539 177.59 34.8986 179.31 32.1777 181.278C29.3816 183.311 26.209 185.612 26.209 190.162C26.209 194.711 29.3816 197.023 32.1777 199.045C34.8986 201.024 37.2539 202.734 37.2539 206.197C37.2539 209.66 34.8986 211.37 32.1777 213.348C29.3816 215.381 26.209 217.682 26.209 222.232C26.209 222.823 26.6929 223.307 27.2844 223.307C27.8759 223.307 28.3599 222.823 28.3599 222.232C28.3599 218.769 30.7151 217.059 33.436 215.08C36.2322 213.047 39.4048 210.746 39.4048 206.197C39.4048 201.647 36.2322 199.335 33.436 197.313ZM44.4809 197.313C41.76 195.335 39.4048 193.625 39.4048 190.162C39.4048 186.699 41.76 184.999 44.4809 183.021C47.2771 180.988 50.4497 178.687 50.4497 174.137C50.4497 169.588 47.2771 167.276 44.4809 165.254C41.76 163.275 39.4048 161.565 39.4048 158.113C39.4048 154.661 41.76 152.951 44.4809 150.972C47.2771 148.94 50.4497 146.638 50.4497 142.089C50.4497 141.497 49.9657 141.013 49.3742 141.013C48.7828 141.013 48.2988 141.497 48.2988 142.089C48.2988 145.552 45.9436 147.251 43.2227 149.23C40.4265 151.262 37.2539 153.564 37.2539 158.113C37.2539 162.662 40.4265 164.975 43.2227 166.996C45.9436 168.975 48.2988 170.685 48.2988 174.137C48.2988 177.59 45.9436 179.31 43.2227 181.278C40.4265 183.311 37.2539 185.612 37.2539 190.162C37.2539 194.711 40.4265 197.023 43.2227 199.045C45.9436 201.024 48.2988 202.734 48.2988 206.197C48.2988 209.66 45.9436 211.37 43.2227 213.348C40.4265 215.381 37.2539 217.682 37.2539 222.232C37.2539 222.823 37.7378 223.307 38.3293 223.307C38.9208 223.307 39.4048 222.823 39.4048 222.232C39.4048 218.769 41.76 217.059 44.4809 215.08C47.2771 213.047 50.4497 210.746 50.4497 206.197C50.4497 201.647 47.2771 199.335 44.4809 197.313ZM55.5258 183.021C58.322 180.988 61.4946 178.687 61.4946 174.137C61.4946 169.588 58.322 167.276 55.5258 165.254C52.8049 163.275 50.4497 161.565 50.4497 158.113C50.4497 154.661 52.8049 152.951 55.5258 150.972C58.322 148.94 61.4946 146.638 61.4946 142.089C61.4946 141.497 61.0107 141.013 60.4192 141.013C59.8277 141.013 59.3437 141.497 59.3437 142.089C59.3437 145.552 56.9885 147.251 54.2676 149.23C51.4714 151.262 48.2988 153.564 48.2988 158.113C48.2988 162.662 51.4714 164.975 54.2676 166.996C56.9885 168.975 59.3437 170.685 59.3437 174.137C59.3437 177.59 56.9885 179.31 54.2676 181.278C51.4714 183.311 48.2988 185.612 48.2988 190.162C48.2988 194.711 51.4714 197.023 54.2676 199.045C56.9885 201.024 59.3437 202.734 59.3437 206.197C59.3437 209.66 56.9885 211.37 54.2676 213.348C51.4714 215.381 48.2988 217.682 48.2988 222.232C48.2988 222.823 48.7828 223.307 49.3742 223.307C49.9657 223.307 50.4497 222.823 50.4497 222.232C50.4497 218.769 52.8049 217.059 55.5258 215.08C58.322 213.047 61.4946 210.746 61.4946 206.197C61.4946 201.647 58.322 199.335 55.5258 197.313C52.8049 195.335 50.4497 193.625 50.4497 190.162C50.4497 186.699 52.8049 184.999 55.5258 183.021Z" fill="#231F20"/>
<path d="M357.61 9.18438C354.889 7.20555 352.534 5.49557 352.534 2.03262C352.534 -1.43034 354.889 -3.12956 357.61 -5.10839C360.406 -7.141 363.579 -9.44247 363.579 -13.9916C363.579 -18.5408 360.406 -20.853 357.61 -22.8749C354.889 -24.8537 352.534 -26.5637 352.534 -30.0159C352.534 -33.4681 354.889 -35.1781 357.61 -37.1569C360.406 -39.1895 363.579 -41.491 363.579 -46.0401C363.579 -46.6316 363.095 -47.1156 362.503 -47.1156C361.912 -47.1156 361.428 -46.6316 361.428 -46.0401C361.428 -42.5772 359.072 -40.878 356.352 -38.8991C353.555 -36.8665 350.383 -34.5651 350.383 -30.0159C350.383 -25.4667 353.555 -23.1545 356.352 -21.1326C359.072 -19.1538 361.428 -17.4438 361.428 -13.9916C361.428 -10.5394 359.072 -8.81871 356.352 -6.85063C353.555 -4.81802 350.383 -2.51655 350.383 2.03262C350.383 6.58178 353.555 8.89401 356.352 10.9159C359.072 12.8947 361.428 14.6047 361.428 18.0676C361.428 21.5306 359.072 23.2406 356.352 25.2194C353.555 27.252 350.383 29.5535 350.383 34.1026C350.383 34.6941 350.867 35.1781 351.458 35.1781C352.05 35.1781 352.534 34.6941 352.534 34.1026C352.534 30.6397 354.889 28.9297 357.61 26.9509C360.406 24.9183 363.579 22.6168 363.579 18.0676C363.579 13.5185 360.406 11.2062 357.61 9.18438ZM368.655 9.18438C365.934 7.20555 363.579 5.49557 363.579 2.03262C363.579 -1.43034 365.934 -3.12956 368.655 -5.10839C371.451 -7.141 374.624 -9.44247 374.624 -13.9916C374.624 -18.5408 371.451 -20.853 368.655 -22.8749C365.934 -24.8537 363.579 -26.5637 363.579 -30.0159C363.579 -33.4681 365.934 -35.1781 368.655 -37.1569C371.451 -39.1895 374.624 -41.491 374.624 -46.0401C374.624 -46.6316 374.14 -47.1156 373.548 -47.1156C372.957 -47.1156 372.473 -46.6316 372.473 -46.0401C372.473 -42.5772 370.117 -40.878 367.396 -38.8991C364.6 -36.8665 361.428 -34.5651 361.428 -30.0159C361.428 -25.4667 364.6 -23.1545 367.396 -21.1326C370.117 -19.1538 372.473 -17.4438 372.473 -13.9916C372.473 -10.5394 370.117 -8.81871 367.396 -6.85063C364.6 -4.81802 361.428 -2.51655 361.428 2.03262C361.428 6.58178 364.6 8.89401 367.396 10.9159C370.117 12.8947 372.473 14.6047 372.473 18.0676C372.473 21.5306 370.117 23.2406 367.396 25.2194C364.6 27.252 361.428 29.5535 361.428 34.1026C361.428 34.6941 361.912 35.1781 362.503 35.1781C363.095 35.1781 363.579 34.6941 363.579 34.1026C363.579 30.6397 365.934 28.9297 368.655 26.9509C371.451 24.9183 374.624 22.6168 374.624 18.0676C374.624 13.5185 371.451 11.2062 368.655 9.18438ZM379.7 -5.10839C382.496 -7.141 385.668 -9.44247 385.668 -13.9916C385.668 -18.5408 382.496 -20.853 379.7 -22.8749C376.979 -24.8537 374.624 -26.5637 374.624 -30.0159C374.624 -33.4681 376.979 -35.1781 379.7 -37.1569C382.496 -39.1895 385.668 -41.491 385.668 -46.0401C385.668 -46.6316 385.184 -47.1156 384.593 -47.1156C384.001 -47.1156 383.518 -46.6316 383.518 -46.0401C383.518 -42.5772 381.162 -40.878 378.441 -38.8991C375.645 -36.8665 372.473 -34.5651 372.473 -30.0159C372.473 -25.4667 375.645 -23.1545 378.441 -21.1326C381.162 -19.1538 383.518 -17.4438 383.518 -13.9916C383.518 -10.5394 381.162 -8.81871 378.441 -6.85063C375.645 -4.81802 372.473 -2.51655 372.473 2.03262C372.473 6.58178 375.645 8.89401 378.441 10.9159C381.162 12.8947 383.518 14.6047 383.518 18.0676C383.518 21.5306 381.162 23.2406 378.441 25.2194C375.645 27.252 372.473 29.5535 372.473 34.1026C372.473 34.6941 372.957 35.1781 373.548 35.1781C374.14 35.1781 374.624 34.6941 374.624 34.1026C374.624 30.6397 376.979 28.9297 379.7 26.9509C382.496 24.9183 385.668 22.6168 385.668 18.0676C385.668 13.5185 382.496 11.2062 379.7 9.18438C376.979 7.20555 374.624 5.49557 374.624 2.03262C374.624 -1.43034 376.979 -3.12956 379.7 -5.10839Z" fill="#231F20"/>
<path d="M384.775 123.946L386.636 124.451C388.765 125.032 390.97 123.774 391.551 121.645L395.326 107.782C395.906 105.653 394.648 103.448 392.519 102.867C390.583 102.34 388.561 103.33 387.787 105.169L382.162 118.526C381.226 120.752 382.463 123.301 384.797 123.935L384.775 123.946Z" fill="#231F20"/>
<path d="M372.569 68.6677L401.413 86.6385C405.499 89.1874 407.435 94.113 406.166 98.7589C404.854 103.577 400.445 106.889 395.465 106.803L362.341 106.255L372.569 68.6677Z" fill="#FDAE54"/>
<path d="M361.814 85.9287C358.986 96.3069 359.233 105.416 362.352 106.266C365.471 107.115 370.289 99.3827 373.107 89.0045C375.924 78.6264 375.688 69.5173 372.569 68.6677C369.45 67.8181 364.632 75.5506 361.814 85.9287Z" fill="#231F20"/>
<path d="M375.29 89.5961C377.688 80.7666 377.71 73.7869 376.312 71.0015L377.376 71.6575C378.527 75.2818 378.118 82.1324 376.032 89.7896C373.881 97.705 370.633 103.964 367.729 106.341L366.45 106.319C369.095 104.921 372.795 98.7697 375.301 89.5853L375.29 89.5961Z" fill="#231F20"/>
<path d="M396.229 95.2851C397.326 91.2522 397.928 87.6171 398.122 84.5736L398.842 85.0253C398.616 88.1226 397.992 91.7039 396.96 95.4787C395.766 99.8666 394.239 103.749 392.615 106.749H391.766C393.368 103.856 394.96 99.9633 396.229 95.2851Z" fill="#231F20"/>
<path d="M402.682 97.7802L402.897 96.9736L406.36 97.92C406.306 98.1889 406.241 98.4685 406.177 98.7374L402.682 97.791V97.7802Z" fill="#231F20"/>
<path d="M403.811 93.6505L406.456 94.3711C406.499 94.6614 406.532 94.9626 406.542 95.2637L403.596 94.4571L403.811 93.6505Z" fill="#231F20"/>
<path d="M401.778 101.103L401.993 100.297L405.188 101.168C405.048 101.426 404.897 101.673 404.736 101.91L401.778 101.103Z" fill="#231F20"/>
<path d="M351.006 63.7743L357.728 73.5932C358.093 74.131 357.416 74.7762 356.899 74.3676L347.081 66.7103C346.779 66.4737 346.79 66.0113 347.102 65.7854L350.199 63.6238C350.458 63.4409 350.823 63.5055 350.995 63.7743H351.006Z" fill="#FDAE54"/>
<path d="M343.005 84.7565L354.845 85.9718C355.501 86.0363 355.544 86.9719 354.899 87.101L342.704 89.6498C342.327 89.7251 341.983 89.424 342.015 89.0368L342.37 85.2727C342.402 84.9501 342.682 84.7242 343.005 84.7565Z" fill="#E48D39"/>
<path d="M359.771 75.2495L346.425 64.8391C346.339 64.7745 346.296 64.6777 346.296 64.5702C346.296 64.4627 346.35 64.3659 346.436 64.3121L350.651 61.3761C350.727 61.3223 350.813 61.3008 350.899 61.3223C350.985 61.3331 351.06 61.3869 351.114 61.4621L360.245 74.8085C360.331 74.9376 360.32 75.1204 360.202 75.2279C360.126 75.2925 360.04 75.3247 359.943 75.314C359.879 75.314 359.825 75.2817 359.771 75.2495ZM347.178 64.6025L358.513 73.4427L350.748 62.1074L347.167 64.6025H347.178Z" fill="#231F20"/>
<path d="M341.026 91.6071C340.951 91.5426 340.908 91.435 340.908 91.3382L341.273 86.2191C341.273 86.133 341.316 86.047 341.392 85.9932C341.456 85.9395 341.542 85.9072 341.628 85.918L357.749 87.2193C357.921 87.2193 358.04 87.3591 358.05 87.5204C358.061 87.6817 357.954 87.8215 357.803 87.8645L341.316 91.6931C341.316 91.6931 341.241 91.6931 341.209 91.6931C341.144 91.6931 341.08 91.6609 341.026 91.6179V91.6071ZM341.908 86.5847L341.596 90.9403L355.598 87.6925L341.908 86.5847Z" fill="#231F20"/>
<path d="M337.294 67.9471L355.33 78.0456C355.91 78.379 355.555 79.2716 354.91 79.0995L335.552 74.0987C335.24 74.0234 335.057 73.7115 335.143 73.3996L336.466 68.302C336.563 67.9363 336.972 67.7643 337.305 67.9471H337.294Z" fill="white"/>
<path d="M358.212 81.315L333.326 76.6905C333.24 76.669 333.164 76.626 333.121 76.5507C333.068 76.4755 333.057 76.3894 333.068 76.3034L334.681 69.7216C334.702 69.6248 334.767 69.5388 334.853 69.4958C334.939 69.4527 335.047 69.4527 335.143 69.4958L358.416 80.7127C358.567 80.788 358.631 80.9493 358.588 81.1107C358.534 81.2612 358.395 81.3473 358.244 81.3365C358.244 81.3365 358.223 81.3365 358.212 81.3365V81.315ZM333.767 76.1098L355.857 80.1965L335.24 70.2593L333.767 76.1098Z" fill="#231F20"/>
<path d="M387.109 111.707C386.743 112.729 386.905 113.718 387.475 113.923C388.045 114.127 388.808 113.471 389.185 112.46C389.55 111.438 389.389 110.449 388.819 110.234C388.249 110.03 387.486 110.686 387.109 111.697V111.707Z" fill="#E48D39"/>
<path d="M367.977 85.4125C368.45 83.9283 370.031 83.111 371.515 83.5842L374.172 84.4338C373.881 85.9179 373.537 87.4451 373.118 89.0045C372.784 90.2198 372.429 91.3812 372.053 92.5105L368.988 91.5318C367.504 91.0586 366.686 89.4777 367.16 87.9936L367.988 85.4125H367.977Z" fill="white"/>
<path d="M74.6838 10.3674C82.4516 -21.0207 63.3035 -52.7628 31.9154 -60.5306C0.52732 -68.2983 -31.2148 -49.1503 -38.9826 -17.7622C-46.7503 13.626 -27.6023 45.3681 3.78583 53.1358C35.1739 60.9036 66.9161 41.7555 74.6838 10.3674Z" fill="white"/>
<path d="M80.0888 4.62015C87.192 -26.925 67.3779 -58.2557 35.8328 -65.3589C4.28762 -72.4621 -27.0431 -52.648 -34.1463 -21.1029C-41.2495 10.4423 -21.4354 41.7729 10.1097 48.8762C41.6549 55.9794 72.9856 36.1653 80.0888 4.62015Z" stroke="#231F20" stroke-miterlimit="10"/>
<path d="M408.22 263.142C440.555 263.142 466.768 236.929 466.768 204.594C466.768 172.259 440.555 146.047 408.22 146.047C375.886 146.047 349.673 172.259 349.673 204.594C349.673 236.929 375.886 263.142 408.22 263.142Z" fill="white"/>
<path d="M413.35 258.593C445.685 258.593 471.898 232.38 471.898 200.045C471.898 167.71 445.685 141.497 413.35 141.497C381.015 141.497 354.803 167.71 354.803 200.045C354.803 232.38 381.015 258.593 413.35 258.593Z" stroke="#231F20" stroke-miterlimit="10"/>
<path d="M66.0006 10.8835C64.7961 10.8835 63.8282 11.8622 63.8282 13.056C63.8282 14.2497 64.8068 15.2284 66.0006 15.2284C67.1943 15.2284 68.173 14.2497 68.173 13.056C68.173 11.8622 67.1943 10.8835 66.0006 10.8835ZM45.9864 10.8835C44.7819 10.8835 43.814 11.8622 43.814 13.056C43.814 14.2497 44.7927 15.2284 45.9864 15.2284C47.1802 15.2284 48.1588 14.2497 48.1588 13.056C48.1588 11.8622 47.1802 10.8835 45.9864 10.8835ZM25.9722 10.8835C24.7677 10.8835 23.7998 11.8622 23.7998 13.056C23.7998 14.2497 24.7785 15.2284 25.9722 15.2284C27.166 15.2284 28.1446 14.2497 28.1446 13.056C28.1446 11.8622 27.166 10.8835 25.9722 10.8835ZM106.029 10.8835C104.824 10.8835 103.857 11.8622 103.857 13.056C103.857 14.2497 104.835 15.2284 106.029 15.2284C107.223 15.2284 108.201 14.2497 108.201 13.056C108.201 11.8622 107.223 10.8835 106.029 10.8835ZM86.0148 10.8835C84.8103 10.8835 83.8424 11.8622 83.8424 13.056C83.8424 14.2497 84.821 15.2284 86.0148 15.2284C87.2085 15.2284 88.1872 14.2497 88.1872 13.056C88.1872 11.8622 87.2085 10.8835 86.0148 10.8835Z" fill="#231F20"/>
<path d="M352.673 169.223C351.469 169.223 350.501 170.201 350.501 171.395C350.501 172.589 351.48 173.567 352.673 173.567C353.867 173.567 354.846 172.589 354.846 171.395C354.846 170.201 353.867 169.223 352.673 169.223ZM332.659 169.223C331.455 169.223 330.487 170.201 330.487 171.395C330.487 172.589 331.466 173.567 332.659 173.567C333.853 173.567 334.832 172.589 334.832 171.395C334.832 170.201 333.853 169.223 332.659 169.223ZM312.645 169.223C311.441 169.223 310.473 170.201 310.473 171.395C310.473 172.589 311.451 173.567 312.645 173.567C313.839 173.567 314.817 172.589 314.817 171.395C314.817 170.201 313.839 169.223 312.645 169.223ZM392.702 169.223C391.497 169.223 390.529 170.201 390.529 171.395C390.529 172.589 391.508 173.567 392.702 173.567C393.896 173.567 394.874 172.589 394.874 171.395C394.874 170.201 393.896 169.223 392.702 169.223ZM372.688 169.223C371.483 169.223 370.515 170.201 370.515 171.395C370.515 172.589 371.494 173.567 372.688 173.567C373.881 173.567 374.86 172.589 374.86 171.395C374.86 170.201 373.881 169.223 372.688 169.223Z" fill="#231F20"/>
<path d="M175.026 -45.1138L123.982 44.6661L124.768 45.1126L175.811 -44.6673L175.026 -45.1138Z" fill="#231F20"/>
<path d="M181.982 -45.1187L130.938 44.6613L131.723 45.1077L182.767 -44.6722L181.982 -45.1187Z" fill="#231F20"/>
<path d="M188.938 -45.1236L137.894 44.6564L138.679 45.1029L189.723 -44.6771L188.938 -45.1236Z" fill="#231F20"/>
<path d="M273.674 159.472L222.631 249.252L223.416 249.699L274.46 159.919L273.674 159.472Z" fill="#231F20"/>
<path d="M280.641 159.467L229.597 249.247L230.382 249.694L281.426 159.914L280.641 159.467Z" fill="#231F20"/>
<path d="M287.591 159.472L236.548 249.252L237.333 249.698L288.377 159.918L287.591 159.472Z" fill="#231F20"/>
<path d="M282.016 41.1038C282.016 44.3732 279.37 47.0188 276.101 47.0188C272.832 47.0188 270.186 44.3732 270.186 41.1038C270.186 37.8345 272.832 35.1888 276.101 35.1888C279.37 35.1888 282.016 37.8345 282.016 41.1038Z" fill="white"/>
<path d="M273.111 49.643C276.378 49.643 279.026 46.9947 279.026 43.728C279.026 40.4612 276.378 37.813 273.111 37.813C269.845 37.813 267.196 40.4612 267.196 43.728C267.196 46.9947 269.845 49.643 273.111 49.643Z" stroke="#231F20" stroke-linecap="round" stroke-linejoin="round"/>
<path d="M134.658 161.426C134.658 158.156 137.303 155.511 140.573 155.511C143.842 155.511 146.488 158.156 146.488 161.426C146.488 164.695 143.842 167.341 140.573 167.341C137.303 167.341 134.658 164.695 134.658 161.426Z" fill="white"/>
<path d="M137.637 158.801C137.637 155.532 140.282 152.886 143.552 152.886C146.821 152.886 149.467 155.532 149.467 158.801C149.467 162.071 146.821 164.716 143.552 164.716C140.282 164.716 137.637 162.071 137.637 158.801Z" stroke="#231F20" stroke-linecap="round" stroke-linejoin="round"/>
<path d="M309.333 20.2829H308.386C307.709 20.2829 307.171 19.7344 307.171 19.0677V18.1213C307.171 17.4437 306.623 16.906 305.956 16.906C305.278 16.906 304.741 17.4545 304.741 18.1213V19.0677C304.741 19.7452 304.192 20.2829 303.525 20.2829H302.579C301.902 20.2829 301.364 20.8314 301.364 21.4982C301.364 22.1757 301.912 22.7135 302.579 22.7135H303.525C304.203 22.7135 304.741 23.2619 304.741 23.9287V24.8751C304.741 25.5527 305.289 26.0904 305.956 26.0904C306.633 26.0904 307.171 25.5419 307.171 24.8751V23.9287C307.171 23.2512 307.72 22.7135 308.386 22.7135H309.333C310.01 22.7135 310.548 22.165 310.548 21.4982C310.548 20.8207 310 20.2829 309.333 20.2829Z" fill="white"/>
<path d="M320.518 18.5837H320.045C319.711 18.5837 319.432 18.3149 319.432 17.9707V17.4975C319.432 17.1641 319.163 16.8845 318.819 16.8845C318.485 16.8845 318.206 17.1534 318.206 17.4975V17.9707C318.206 18.3041 317.937 18.5837 317.593 18.5837H317.119C316.786 18.5837 316.506 18.8526 316.506 19.1967C316.506 19.5301 316.775 19.8098 317.119 19.8098H317.593C317.926 19.8098 318.206 20.0786 318.206 20.4228V20.896C318.206 21.2294 318.474 21.509 318.819 21.509C319.152 21.509 319.432 21.2401 319.432 20.896V20.4228C319.432 20.0894 319.7 19.8098 320.045 19.8098H320.518C320.851 19.8098 321.131 19.5409 321.131 19.1967C321.131 18.8634 320.862 18.5837 320.518 18.5837Z" fill="white"/>
<path d="M107.158 169.599H108.105C108.782 169.599 109.32 170.147 109.32 170.814V171.761C109.32 172.438 109.868 172.976 110.535 172.976C111.213 172.976 111.75 172.427 111.75 171.761V170.814C111.75 170.137 112.299 169.599 112.966 169.599H113.912C114.59 169.599 115.127 169.05 115.127 168.384C115.127 167.706 114.579 167.168 113.912 167.168H112.966C112.288 167.168 111.75 166.62 111.75 165.953V165.007C111.75 164.329 111.202 163.792 110.535 163.792C109.858 163.792 109.32 164.34 109.32 165.007V165.953C109.32 166.631 108.771 167.168 108.105 167.168H107.158C106.481 167.168 105.943 167.717 105.943 168.384C105.943 169.061 106.491 169.599 107.158 169.599Z" fill="white"/>
<path d="M95.9734 171.287H96.4466C96.78 171.287 97.0596 171.556 97.0596 171.9V172.374C97.0596 172.707 97.3284 172.987 97.6726 172.987C98.006 172.987 98.2856 172.718 98.2856 172.374V171.9C98.2856 171.567 98.5544 171.287 98.8986 171.287H99.3718C99.7052 171.287 99.9848 171.019 99.9848 170.674C99.9848 170.341 99.7159 170.061 99.3718 170.061H98.8986C98.5652 170.061 98.2856 169.793 98.2856 169.448V168.975C98.2856 168.642 98.0167 168.362 97.6726 168.362C97.3392 168.362 97.0596 168.631 97.0596 168.975V169.448C97.0596 169.782 96.7907 170.061 96.4466 170.061H95.9734C95.64 170.061 95.3604 170.33 95.3604 170.674C95.3604 171.008 95.6292 171.287 95.9734 171.287Z" fill="white"/>
<path d="M94.4465 105.878C95.0345 105.878 95.5112 105.402 95.5112 104.814C95.5112 104.226 95.0345 103.749 94.4465 103.749C93.8585 103.749 93.3818 104.226 93.3818 104.814C93.3818 105.402 93.8585 105.878 94.4465 105.878Z" fill="white"/>
<path d="M95.5112 117.02C95.5112 116.429 95.038 115.955 94.4465 115.955C93.855 115.955 93.3818 116.429 93.3818 117.02C93.3818 117.612 93.855 118.085 94.4465 118.085C95.038 118.085 95.5112 117.612 95.5112 117.02Z" fill="white"/>
<path d="M95.5112 129.226C95.5112 128.635 95.038 128.162 94.4465 128.162C93.855 128.162 93.3818 128.635 93.3818 129.226C93.3818 129.818 93.855 130.291 94.4465 130.291C95.038 130.291 95.5112 129.818 95.5112 129.226Z" fill="white"/>
<path d="M95.5112 141.433C95.5112 140.841 95.038 140.368 94.4465 140.368C93.855 140.368 93.3818 140.841 93.3818 141.433C93.3818 142.024 93.855 142.497 94.4465 142.497C95.038 142.497 95.5112 142.024 95.5112 141.433Z" fill="white"/>
<path d="M95.5112 153.639C95.5112 153.048 95.038 152.574 94.4465 152.574C93.855 152.574 93.3818 153.048 93.3818 153.639C93.3818 154.231 93.855 154.704 94.4465 154.704C95.038 154.704 95.5112 154.231 95.5112 153.639Z" fill="white"/>
<path d="M328.895 56.0956C328.895 55.5041 328.422 55.0309 327.83 55.0309C327.239 55.0309 326.766 55.5041 326.766 56.0956C326.766 56.6871 327.239 57.1603 327.83 57.1603C328.422 57.1603 328.895 56.6871 328.895 56.0956Z" fill="white"/>
<path d="M328.895 68.302C328.895 67.7105 328.422 67.2373 327.83 67.2373C327.239 67.2373 326.766 67.7105 326.766 68.302C326.766 68.8935 327.239 69.3667 327.83 69.3667C328.422 69.3667 328.895 68.8935 328.895 68.302Z" fill="white"/>
<path d="M328.895 80.5084C328.895 79.9169 328.422 79.4437 327.83 79.4437C327.239 79.4437 326.766 79.9169 326.766 80.5084C326.766 81.0999 327.239 81.5731 327.83 81.5731C328.422 81.5731 328.895 81.0999 328.895 80.5084Z" fill="white"/>
<path d="M328.895 92.7147C328.895 92.1232 328.422 91.65 327.83 91.65C327.239 91.65 326.766 92.1232 326.766 92.7147C326.766 93.3062 327.239 93.7794 327.83 93.7794C328.422 93.7794 328.895 93.3062 328.895 92.7147Z" fill="white"/>
<path d="M328.895 104.921C328.895 104.33 328.422 103.856 327.83 103.856C327.239 103.856 326.766 104.33 326.766 104.921C326.766 105.513 327.239 105.986 327.83 105.986C328.422 105.986 328.895 105.513 328.895 104.921Z" fill="white"/>
</g>
<path d="M321.679 93.5967H97.8555V137.26H321.679V93.5967Z" fill="#FFDA64"/>
<path d="M314.634 131.797H104.889V81.5624H314.634V131.797ZM105.964 130.721H313.559V82.6378H105.964V130.721Z" fill="#231F20"/>
<path d="M184.871 40.2846C184.676 40.2846 184.558 40.2603 184.518 40.2116C184.469 40.171 184.461 40.0857 184.493 39.9558C184.502 39.9152 184.542 39.7326 184.615 39.4078C184.688 39.0912 184.778 38.7014 184.883 38.2387C184.997 37.784 185.114 37.2887 185.236 36.7529C185.366 36.217 185.488 35.7137 185.602 35.2428C185.431 35.259 185.305 35.2468 185.224 35.2062C185.143 35.1575 185.102 35.0966 185.102 35.0235C185.11 34.9423 185.155 34.8612 185.236 34.78C185.326 34.6988 185.451 34.6298 185.614 34.5729C185.646 34.5567 185.695 34.5405 185.76 34.5242C185.801 34.3862 185.837 34.2441 185.87 34.098C185.902 33.9762 185.935 33.8463 185.967 33.7083C185.999 33.5702 186.032 33.4363 186.064 33.3064L186.917 29.665C186.966 29.4783 187.039 29.3402 187.136 29.2509C187.242 29.1535 187.432 29.0723 187.709 29.0074C187.936 28.9505 188.094 28.9302 188.183 28.9465C188.273 28.9546 188.313 28.979 188.305 29.0195C188.281 29.1089 188.22 29.324 188.123 29.665C188.025 30.006 187.907 30.4241 187.769 30.9194C187.64 31.4065 187.497 31.9464 187.343 32.5391C187.189 33.1237 187.039 33.7042 186.893 34.2807C187.38 34.2076 187.972 34.1467 188.671 34.098C188.939 34.0655 189.198 34.0452 189.45 34.0371C189.71 34.029 189.957 34.029 190.193 34.0371C190.307 33.5987 190.416 33.1602 190.522 32.7218C190.635 32.2834 190.741 31.8774 190.838 31.504C190.936 31.1305 191.021 30.8017 191.094 30.5175C191.175 30.2252 191.236 30.0101 191.277 29.872C191.326 29.7178 191.37 29.5919 191.411 29.4945C191.459 29.3971 191.512 29.3199 191.569 29.2631C191.634 29.2063 191.707 29.1657 191.788 29.1413C191.869 29.117 191.963 29.0967 192.068 29.0804C192.125 29.0804 192.194 29.0764 192.275 29.0683C192.34 29.0683 192.418 29.0683 192.507 29.0683C192.596 29.0601 192.698 29.0642 192.811 29.0804C192.503 29.9086 192.215 30.7489 191.947 31.6014C191.687 32.4458 191.443 33.2698 191.216 34.0736C191.362 34.0899 191.488 34.102 191.593 34.1102C191.707 34.1183 191.796 34.1305 191.861 34.1467C192.056 34.1792 192.178 34.2319 192.227 34.305C192.284 34.3781 192.267 34.4836 192.178 34.6216L192.032 34.8043C191.983 34.8693 191.922 34.9464 191.849 35.0357C191.776 35.1169 191.683 35.2103 191.569 35.3158C191.504 35.2915 191.435 35.2671 191.362 35.2428C191.297 35.2184 191.232 35.194 191.167 35.1697C191.086 35.1453 191.009 35.121 190.936 35.0966C190.879 35.2915 190.826 35.4823 190.777 35.669C190.729 35.8476 190.684 36.0303 190.644 36.217C190.546 36.6149 190.453 37.0249 190.363 37.4471C190.29 37.8124 190.213 38.2143 190.132 38.6527C190.059 39.0993 190.002 39.5377 189.962 39.968C189.897 40.0005 189.832 40.0208 189.767 40.0289C189.702 40.0451 189.645 40.0573 189.596 40.0654C189.539 40.0735 189.483 40.0817 189.426 40.0898H189.413H189.389H189.365C189.332 40.0898 189.3 40.0898 189.267 40.0898C189.235 40.0898 189.202 40.0817 189.17 40.0654C189.129 40.0573 189.089 40.0451 189.048 40.0289C189.008 40.0127 188.967 39.9964 188.926 39.9802C188.894 39.9721 188.857 39.9558 188.817 39.9315C188.882 39.6635 188.93 39.4119 188.963 39.1764C189.003 38.941 189.032 38.7339 189.048 38.5553C189.073 38.3442 189.089 38.1575 189.097 37.9951C189.105 37.784 189.081 37.5526 189.024 37.3009C188.975 37.0492 188.894 36.8016 188.78 36.558C188.675 36.3145 188.541 36.0871 188.378 35.876C188.224 35.6649 188.045 35.4863 187.842 35.3402C187.64 35.2022 187.445 35.1128 187.258 35.0723C187.079 35.0317 186.897 35.0195 186.71 35.0357C186.653 35.2793 186.6 35.5147 186.552 35.7421C186.503 35.9694 186.462 36.1886 186.43 36.3997C186.34 36.8706 186.255 37.3293 186.174 37.7759C186.109 38.1575 186.04 38.5512 185.967 38.9572C185.902 39.3713 185.853 39.7244 185.821 40.0167C185.691 40.0817 185.569 40.1304 185.455 40.1629C185.342 40.2035 185.24 40.2319 185.151 40.2481C185.054 40.2725 184.96 40.2846 184.871 40.2846ZM189.694 34.8774C189.409 34.8449 189.137 34.8287 188.878 34.8287C188.626 34.8206 188.403 34.8165 188.208 34.8165C188.37 34.9058 188.512 35.0235 188.634 35.1697C188.764 35.3158 188.898 35.4823 189.036 35.669C189.166 35.8395 189.271 36.0262 189.353 36.2292C189.434 36.4322 189.503 36.627 189.56 36.8138C189.625 36.4728 189.694 36.1399 189.767 35.8151C189.84 35.4904 189.909 35.1859 189.974 34.9018C189.925 34.8936 189.876 34.8896 189.828 34.8896C189.787 34.8815 189.742 34.8774 189.694 34.8774ZM198.206 35.4498C197.963 35.807 197.687 36.1561 197.378 36.4971C197.07 36.83 196.741 37.1304 196.392 37.3983C196.051 37.6582 195.698 37.8692 195.332 38.0316C194.975 38.194 194.626 38.2752 194.285 38.2752C194.106 38.2752 193.911 38.2305 193.7 38.1412C193.497 38.06 193.311 37.9301 193.14 37.7515C192.97 37.5729 192.832 37.3415 192.726 37.0573C192.629 36.7732 192.6 36.4281 192.641 36.0222C192.673 35.6893 192.775 35.3402 192.945 34.9748C193.124 34.6014 193.339 34.2604 193.591 33.9518C193.851 33.6433 194.139 33.3876 194.455 33.1846C194.78 32.9816 195.105 32.8801 195.43 32.8801C195.738 32.8801 195.961 32.9573 196.099 33.1115C196.238 33.2658 196.298 33.4566 196.282 33.6839C196.258 33.9356 196.185 34.167 196.063 34.3781C195.949 34.5892 195.811 34.78 195.649 34.9505C195.487 35.121 195.312 35.2752 195.125 35.4133C194.947 35.5513 194.776 35.6771 194.614 35.7908C194.435 35.9126 194.265 36.0303 194.102 36.144C193.94 36.2495 193.798 36.3469 193.676 36.4362C193.684 36.6392 193.721 36.8097 193.786 36.9477C193.851 37.0858 193.932 37.1994 194.029 37.2887C194.127 37.3699 194.236 37.4308 194.358 37.4714C194.488 37.5039 194.618 37.5201 194.748 37.5201C195.024 37.5201 195.312 37.4349 195.612 37.2644C195.913 37.0858 196.205 36.8747 196.489 36.6311C196.781 36.3794 197.049 36.1196 197.293 35.8517C197.545 35.5837 197.752 35.3524 197.914 35.1575C197.971 35.0926 198.028 35.056 198.085 35.0479C198.15 35.0317 198.198 35.0398 198.231 35.0723C198.271 35.0966 198.292 35.1453 198.292 35.2184C198.292 35.2833 198.263 35.3605 198.206 35.4498ZM195.089 33.5743C194.991 33.5743 194.874 33.623 194.735 33.7204C194.606 33.8179 194.476 33.96 194.346 34.1467C194.216 34.3253 194.094 34.5486 193.98 34.8165C193.867 35.0763 193.782 35.3767 193.725 35.7177C193.822 35.6446 193.928 35.5716 194.041 35.4985C194.155 35.4173 194.269 35.3321 194.382 35.2428C194.731 34.9748 194.975 34.7394 195.113 34.5364C195.251 34.3334 195.328 34.1589 195.344 34.0127C195.361 33.8585 195.344 33.7489 195.296 33.6839C195.247 33.6108 195.178 33.5743 195.089 33.5743ZM200.532 33.5012C200.638 33.42 200.739 33.3591 200.837 33.3186C200.942 33.2698 201.036 33.2374 201.117 33.2211C201.206 33.1968 201.296 33.1886 201.385 33.1968C201.604 33.213 201.738 33.282 201.787 33.4038C201.844 33.5256 201.852 33.7204 201.811 33.9884C201.787 34.1264 201.738 34.3009 201.665 34.512C201.592 34.7231 201.507 34.9829 201.409 35.2915C201.312 35.5919 201.206 35.9369 201.093 36.3266C200.987 36.7163 200.886 37.1548 200.788 37.6419C200.691 38.0397 200.585 38.4985 200.472 39.0181C200.374 39.4727 200.256 40.0208 200.118 40.6622C199.988 41.3036 199.846 42.0383 199.692 42.8665C199.652 43.0695 199.562 43.1872 199.424 43.2197C199.294 43.2521 199.156 43.2359 199.01 43.1709C198.953 43.1385 198.901 43.1019 198.852 43.0613C198.811 43.0207 198.767 42.972 198.718 42.9152C198.669 42.8665 198.629 42.7975 198.596 42.7082C198.783 42.0262 198.945 41.4051 199.083 40.8449C199.229 40.2846 199.359 39.7975 199.473 39.3834C199.595 38.9044 199.708 38.4741 199.814 38.0925C199.855 37.922 199.891 37.7556 199.924 37.5932C199.964 37.4227 200.005 37.2563 200.045 37.0939C199.94 37.2644 199.826 37.4268 199.704 37.581C199.583 37.7353 199.449 37.8692 199.302 37.9829C199.156 38.0966 198.998 38.1818 198.827 38.2387C198.665 38.3036 198.495 38.3239 198.316 38.2996C197.878 38.2427 197.565 38.0803 197.378 37.8124C197.2 37.5445 197.122 37.1954 197.147 36.7651C197.155 36.5946 197.179 36.4078 197.22 36.2049C197.261 36.0019 197.305 35.807 197.354 35.6203C197.403 35.4335 197.447 35.2671 197.488 35.121C197.537 34.9667 197.573 34.8571 197.597 34.7921C197.695 34.4836 197.764 34.2198 197.804 34.0005C197.853 33.7813 197.821 33.5987 197.707 33.4525C197.821 33.3794 197.926 33.3307 198.024 33.3064C198.129 33.2739 198.223 33.2495 198.304 33.2333C198.393 33.2252 198.482 33.2252 198.572 33.2333C198.791 33.2658 198.917 33.347 198.949 33.4769C198.99 33.6068 198.978 33.8016 198.913 34.0614C198.88 34.1995 198.827 34.3781 198.754 34.5973C198.681 34.8084 198.604 35.0276 198.523 35.2549C198.442 35.4823 198.369 35.6934 198.304 35.8882C198.239 36.0749 198.202 36.2089 198.194 36.2901C198.121 36.6555 198.117 36.9396 198.182 37.1426C198.247 37.3375 198.389 37.4349 198.608 37.4349C198.714 37.4349 198.832 37.3902 198.961 37.3009C199.091 37.2035 199.221 37.0776 199.351 36.9234C199.489 36.7691 199.623 36.5946 199.753 36.3997C199.883 36.1967 200.001 35.9938 200.106 35.7908C200.22 35.5878 200.317 35.3889 200.398 35.194C200.488 34.9992 200.553 34.8246 200.593 34.6704C200.65 34.37 200.687 34.1345 200.703 33.964C200.719 33.7935 200.662 33.6393 200.532 33.5012ZM205.014 28.8369C205.095 28.8206 205.181 28.8125 205.27 28.8125C205.343 28.8125 205.42 28.8206 205.501 28.8369C205.591 28.8531 205.672 28.8856 205.745 28.9343L203.894 35.7908C203.869 35.8801 203.796 35.9694 203.675 36.0587C203.553 36.148 203.423 36.2211 203.285 36.2779C203.155 36.3266 203.037 36.3551 202.932 36.3632C202.834 36.3632 202.794 36.3226 202.81 36.2414C202.842 36.1115 202.915 35.7948 203.029 35.2915C203.078 35.0723 203.139 34.8043 203.212 34.4877C203.285 34.1629 203.37 33.7732 203.467 33.3186C203.573 32.8639 203.695 32.3362 203.833 31.7353C203.971 31.1264 204.129 30.4323 204.308 29.6528C204.316 29.596 204.324 29.5392 204.332 29.4823C204.34 29.4417 204.34 29.3971 204.332 29.3484C204.332 29.2997 204.324 29.2631 204.308 29.2388C204.373 29.1657 204.446 29.1048 204.527 29.0561C204.608 28.9992 204.685 28.9546 204.758 28.9221C204.848 28.8896 204.933 28.8612 205.014 28.8369ZM203.139 37.0573C203.35 37.0249 203.52 37.0452 203.65 37.1182C203.78 37.1832 203.837 37.309 203.821 37.4958C203.813 37.6013 203.768 37.7028 203.687 37.8002C203.605 37.8895 203.508 37.9707 203.394 38.0438C203.289 38.1169 203.175 38.1737 203.053 38.2143C202.94 38.2549 202.838 38.2752 202.749 38.2752C202.578 38.2752 202.432 38.2387 202.311 38.1656C202.189 38.0925 202.136 37.9748 202.152 37.8124C202.16 37.7069 202.197 37.6135 202.262 37.5323C202.319 37.443 202.392 37.3659 202.481 37.3009C202.578 37.236 202.684 37.1832 202.798 37.1426C202.911 37.102 203.025 37.0736 203.139 37.0573Z" fill="white"/>
<path d="M88.3577 121.132V89.7063H98.9761C101.431 89.7063 103.446 90.1257 105.022 90.9645C106.597 91.7931 107.763 92.9337 108.52 94.3864C109.277 95.839 109.656 97.4911 109.656 99.3426C109.656 101.194 109.277 102.836 108.52 104.268C107.763 105.7 106.602 106.826 105.037 107.644C103.472 108.452 101.472 108.856 99.0375 108.856H90.4445V105.419H98.9147C100.592 105.419 101.943 105.174 102.966 104.683C103.999 104.191 104.746 103.496 105.206 102.596C105.677 101.685 105.912 100.601 105.912 99.3426C105.912 98.0844 105.677 96.9847 105.206 96.0436C104.735 95.1024 103.984 94.3761 102.95 93.8646C101.917 93.3429 100.551 93.0821 98.8533 93.0821H92.1631V121.132H88.3577ZM103.15 107.015L110.883 121.132H106.464L98.8533 107.015H103.15ZM115.997 121.132V89.7063H134.963V93.0821H119.802V103.7H133.981V107.076H119.802V117.756H135.208V121.132H115.997ZM153.767 104.835V107.996H140.891V104.835H153.767ZM185.029 106.415C185.029 109.52 184.468 112.202 183.347 114.463C182.227 116.725 180.689 118.468 178.734 119.695C176.78 120.921 174.547 121.534 172.037 121.534C169.527 121.534 167.295 120.921 165.34 119.695C163.386 118.468 161.848 116.725 160.727 114.463C159.606 112.202 159.045 109.52 159.045 106.415C159.045 103.311 159.606 100.629 160.727 98.3675C161.848 96.1064 163.386 94.3626 165.34 93.1363C167.295 91.9099 169.527 91.2967 172.037 91.2967C174.547 91.2967 176.78 91.9099 178.734 93.1363C180.689 94.3626 182.227 96.1064 183.347 98.3675C184.468 100.629 185.029 103.311 185.029 106.415ZM181.58 106.415C181.58 103.867 181.153 101.716 180.301 99.9627C179.458 98.2094 178.313 96.8824 176.866 95.9818C175.429 95.0812 173.819 94.6309 172.037 94.6309C170.255 94.6309 168.641 95.0812 167.194 95.9818C165.757 96.8824 164.612 98.2094 163.759 99.9627C162.916 101.716 162.495 103.867 162.495 106.415C162.495 108.964 162.916 111.115 163.759 112.868C164.612 114.622 165.757 115.949 167.194 116.849C168.641 117.75 170.255 118.2 172.037 118.2C173.819 118.2 175.429 117.75 176.866 116.849C178.313 115.949 179.458 114.622 180.301 112.868C181.153 111.115 181.58 108.964 181.58 106.415ZM191.022 121.132V91.6991H200.967C203.276 91.6991 205.163 92.1159 206.629 92.9494C208.105 93.7734 209.197 94.8896 209.906 96.298C210.615 97.7064 210.969 99.2777 210.969 101.012C210.969 102.746 210.615 104.322 209.906 105.74C209.207 107.158 208.124 108.289 206.658 109.132C205.192 109.965 203.314 110.382 201.024 110.382H193.896V107.22H200.909C202.49 107.22 203.76 106.947 204.718 106.401C205.676 105.855 206.371 105.117 206.802 104.188C207.242 103.249 207.463 102.19 207.463 101.012C207.463 99.8333 207.242 98.7794 206.802 97.8501C206.371 96.9207 205.671 96.1926 204.703 95.6656C203.736 95.1291 202.452 94.8608 200.852 94.8608H194.586V121.132H191.022ZM216.711 121.132V91.6991H234.474V94.8608H220.275V104.806H233.554V107.968H220.275V117.97H234.704V121.132H216.711ZM264.237 91.6991V121.132H260.788L244.75 98.0225H244.462V121.132H240.898V91.6991H244.347L260.443 114.866H260.731V91.6991H264.237ZM274.933 91.6991V121.132H271.369V91.6991H274.933ZM305.419 91.6991V121.132H301.969L285.931 98.0225H285.643V121.132H282.079V91.6991H285.528L301.625 114.866H301.912V91.6991H305.419ZM332.67 100.897C332.354 99.9292 331.938 99.0621 331.42 98.2956C330.912 97.5195 330.304 96.8585 329.595 96.3123C328.896 95.7662 328.1 95.3495 327.209 95.062C326.318 94.7746 325.341 94.6309 324.278 94.6309C322.534 94.6309 320.948 95.0812 319.521 95.9818C318.093 96.8824 316.958 98.2094 316.115 99.9627C315.271 101.716 314.85 103.867 314.85 106.415C314.85 108.964 315.276 111.115 316.129 112.868C316.982 114.622 318.136 115.949 319.592 116.849C321.049 117.75 322.687 118.2 324.507 118.2C326.194 118.2 327.679 117.841 328.963 117.122C330.256 116.394 331.262 115.369 331.981 114.047C332.709 112.715 333.073 111.148 333.073 109.347L334.165 109.577H325.312V106.415H336.522V109.577C336.522 112.001 336.005 114.109 334.97 115.901C333.945 117.692 332.527 119.082 330.716 120.068C328.915 121.046 326.845 121.534 324.507 121.534C321.901 121.534 319.612 120.921 317.638 119.695C315.674 118.468 314.141 116.725 313.039 114.463C311.947 112.202 311.401 109.52 311.401 106.415C311.401 104.087 311.712 101.994 312.335 100.135C312.967 98.2669 313.858 96.6764 315.008 95.3638C316.158 94.0512 317.518 93.0452 319.089 92.3458C320.661 91.6464 322.39 91.2967 324.278 91.2967C325.83 91.2967 327.276 91.5314 328.618 92.0009C329.969 92.4608 331.171 93.1171 332.225 93.9698C333.288 94.8129 334.175 95.8237 334.884 97.0022C335.593 98.1711 336.081 99.4693 336.35 100.897H332.67Z" fill="white"/>
<path d="M85.9807 118.755V87.3296H96.5991C99.0543 87.3296 101.069 87.749 102.645 88.5878C104.22 89.4164 105.386 90.557 106.143 92.0096C106.9 93.4623 107.279 95.1144 107.279 96.9659C107.279 98.8175 106.9 100.459 106.143 101.892C105.386 103.324 104.225 104.449 102.66 105.267C101.095 106.075 99.0952 106.48 96.6605 106.48H88.0676V103.042H96.5378C98.2154 103.042 99.5657 102.797 100.589 102.306C101.622 101.815 102.369 101.119 102.829 100.219C103.3 99.3085 103.535 98.2242 103.535 96.9659C103.535 95.7077 103.3 94.608 102.829 93.6669C102.358 92.7257 101.607 91.9994 100.573 91.4879C99.5402 90.9662 98.1745 90.7054 96.4764 90.7054H89.7862V118.755H85.9807ZM100.773 104.638L108.506 118.755H104.087L96.4764 104.638H100.773ZM113.62 118.755V87.3296H132.586V90.7054H117.425V101.324H131.604V104.7H117.425V115.379H132.831V118.755H113.62ZM151.391 102.458V105.62H138.514V102.458H151.391ZM182.652 104.039C182.652 107.143 182.092 109.826 180.971 112.087C179.85 114.348 178.312 116.092 176.357 117.318C174.403 118.544 172.17 119.158 169.66 119.158C167.15 119.158 164.918 118.544 162.963 117.318C161.009 116.092 159.471 114.348 158.35 112.087C157.229 109.826 156.668 107.143 156.668 104.039C156.668 100.935 157.229 98.2519 158.35 95.9908C159.471 93.7296 161.009 91.9859 162.963 90.7595C164.918 89.5332 167.15 88.92 169.66 88.92C172.17 88.92 174.403 89.5332 176.357 90.7595C178.312 91.9859 179.85 93.7296 180.971 95.9908C182.092 98.2519 182.652 100.935 182.652 104.039ZM179.203 104.039C179.203 101.49 178.776 99.3393 177.924 97.586C177.081 95.8327 175.936 94.5057 174.489 93.6051C173.052 92.7045 171.442 92.2542 169.66 92.2542C167.878 92.2542 166.264 92.7045 164.817 93.6051C163.38 94.5057 162.235 95.8327 161.382 97.586C160.539 99.3393 160.118 101.49 160.118 104.039C160.118 106.587 160.539 108.738 161.382 110.492C162.235 112.245 163.38 113.572 164.817 114.472C166.264 115.373 167.878 115.823 169.66 115.823C171.442 115.823 173.052 115.373 174.489 114.472C175.936 113.572 177.081 112.245 177.924 110.492C178.776 108.738 179.203 106.587 179.203 104.039ZM188.645 118.755V89.3224H198.59C200.899 89.3224 202.786 89.7392 204.252 90.5727C205.728 91.3967 206.82 92.5129 207.529 93.9213C208.238 95.3297 208.592 96.9009 208.592 98.6351C208.592 100.369 208.238 101.945 207.529 103.363C206.83 104.781 205.747 105.912 204.281 106.755C202.815 107.589 200.937 108.005 198.647 108.005H191.519V104.844H198.532C200.113 104.844 201.383 104.571 202.341 104.024C203.299 103.478 203.994 102.741 204.425 101.811C204.865 100.872 205.086 99.8136 205.086 98.6351C205.086 97.4566 204.865 96.4027 204.425 95.4734C203.994 94.544 203.294 93.8159 202.327 93.2889C201.359 92.7524 200.075 92.4841 198.475 92.4841H192.209V118.755H188.645ZM214.334 118.755V89.3224H232.097V92.4841H217.898V102.429H231.177V105.591H217.898V115.593H232.327V118.755H214.334ZM261.86 89.3224V118.755H258.411L242.373 95.6458H242.085V118.755H238.521V89.3224H241.97L258.066 112.489H258.354V89.3224H261.86ZM272.556 89.3224V118.755H268.992V89.3224H272.556ZM303.042 89.3224V118.755H299.592L283.554 95.6458H283.267V118.755H279.702V89.3224H283.152L299.248 112.489H299.535V89.3224H303.042ZM330.293 98.5201C329.977 97.5524 329.561 96.6854 329.043 95.9189C328.535 95.1428 327.927 94.4817 327.218 93.9356C326.519 93.3895 325.723 92.9727 324.832 92.6853C323.941 92.3979 322.964 92.2542 321.901 92.2542C320.157 92.2542 318.571 92.7045 317.144 93.6051C315.716 94.5057 314.581 95.8327 313.738 97.586C312.894 99.3393 312.473 101.49 312.473 104.039C312.473 106.587 312.899 108.738 313.752 110.492C314.605 112.245 315.759 113.572 317.215 114.472C318.672 115.373 320.31 115.823 322.131 115.823C323.817 115.823 325.302 115.464 326.586 114.745C327.879 114.017 328.885 112.992 329.604 111.67C330.332 110.338 330.696 108.772 330.696 106.971L331.788 107.2H322.935V104.039H334.145V107.2C334.145 109.624 333.628 111.732 332.593 113.524C331.568 115.316 330.15 116.705 328.339 117.692C326.538 118.669 324.468 119.158 322.131 119.158C319.524 119.158 317.235 118.544 315.261 117.318C313.297 116.092 311.764 114.348 310.662 112.087C309.57 109.826 309.024 107.143 309.024 104.039C309.024 101.711 309.335 99.6171 309.958 97.7584C310.59 95.8902 311.481 94.2997 312.631 92.9871C313.781 91.6745 315.141 90.6685 316.712 89.9691C318.284 89.2697 320.013 88.92 321.901 88.92C323.453 88.92 324.899 89.1547 326.241 89.6242C327.592 90.0841 328.794 90.7404 329.848 91.5931C330.911 92.4362 331.798 93.447 332.507 94.6255C333.216 95.7943 333.704 97.0926 333.973 98.5201H330.293Z" fill="#231F20"/>
<path d="M186.774 75.5505C184.182 68.8182 182.806 65.4735 179.88 58.8272C180.859 58.6767 181.354 58.6014 182.343 58.4508C183.709 61.8385 184.376 63.5377 185.656 66.9576C186.451 69.0548 187.183 71.1734 187.699 72.8081C187.72 72.8081 187.731 72.8081 187.753 72.8081C187.806 71.0444 188.075 68.915 188.398 66.592C188.903 62.9677 189.183 61.1502 189.775 57.5259C190.753 57.4184 191.237 57.3754 192.216 57.2893C193.42 60.7523 194.012 62.4945 195.141 65.979C195.797 68.0116 196.41 70.0549 196.786 71.8832C196.808 71.8832 196.819 71.8832 196.84 71.8832C197.045 69.9366 197.389 67.9578 197.776 65.7316C198.453 62.1396 198.819 60.3436 199.593 56.7516C200.551 56.6978 201.035 56.6763 201.992 56.644C200.217 63.742 199.432 67.3018 198.034 74.432C197.141 74.4966 196.7 74.5288 195.808 74.5934C194.679 71.0121 194.098 69.2376 192.883 65.6779C192.141 63.4947 191.603 61.8277 191.183 60.0855C191.162 60.0855 191.151 60.0855 191.13 60.0855C190.979 61.8492 190.764 63.6022 190.366 65.9252C189.775 69.6678 189.495 71.5391 189 75.2817C188.118 75.3892 187.667 75.443 186.785 75.5613L186.774 75.5505Z" fill="#231F20"/>
<path d="M204.906 68.2052C205.046 71.3025 206.95 72.5285 209.122 72.5178C210.682 72.5178 211.617 72.2382 212.445 71.8833C212.585 72.5393 212.65 72.8727 212.789 73.5287C212.026 73.8836 210.725 74.2708 208.843 74.2815C205.197 74.303 202.928 71.8618 202.777 68.0654C202.626 64.2691 204.767 61.161 208.477 61.1395C212.628 61.1072 213.661 64.796 213.607 67.1083C213.607 67.5815 213.542 67.9364 213.51 68.173C210.069 68.0977 208.348 68.1084 204.906 68.1945V68.2052ZM211.445 66.506C211.488 65.0434 210.886 62.7634 208.305 62.7849C205.982 62.8064 205.025 64.9789 204.885 66.5705C207.509 66.4953 208.821 66.4845 211.445 66.5168V66.506Z" fill="#231F20"/>
<path d="M219.102 56.4182C218.371 58.5691 217.123 61.3115 216.349 62.473C215.757 62.5268 215.467 62.5483 214.886 62.6128C215.499 61.0964 216.284 58.4078 216.65 56.5473C217.629 56.4935 218.123 56.4612 219.113 56.4182H219.102Z" fill="#231F20"/>
<path d="M220.113 65.6456C220.199 64.1615 220.242 62.8925 220.231 61.7095C221.038 61.7525 221.446 61.7848 222.253 61.8385C222.221 62.8279 222.199 63.3227 222.167 64.3121C222.21 64.3121 222.232 64.3121 222.275 64.3121C222.963 62.6666 224.436 61.6987 225.974 61.8278C226.232 61.8493 226.415 61.8923 226.619 61.9676C226.544 62.8279 226.501 63.2581 226.426 64.1185C226.2 64.0432 225.963 64.0002 225.651 63.9679C224.049 63.8281 222.812 64.9681 222.382 66.6673C222.307 66.9792 222.232 67.3341 222.21 67.7213C222.027 70.3991 221.93 71.7434 221.748 74.4213C220.898 74.3676 220.468 74.3353 219.618 74.2923C219.812 70.8293 219.909 69.0978 220.113 65.6349V65.6456Z" fill="#231F20"/>
<path d="M229.2 69.1946C228.91 72.2811 230.642 73.7545 232.803 74.0341C234.352 74.2385 235.32 74.0987 236.191 73.8621C236.245 74.5288 236.266 74.873 236.309 75.5398C235.503 75.7871 234.158 76.0022 232.287 75.7549C228.663 75.2817 226.748 72.55 227.114 68.7752C227.48 64.9896 230.029 62.2042 233.707 62.6881C237.836 63.2258 238.363 67.0114 237.998 69.3021C237.922 69.7646 237.815 70.1195 237.75 70.3453C234.341 69.8076 232.631 69.5818 229.2 69.2054V69.1946ZM235.933 68.3988C236.169 66.9577 235.879 64.6132 233.309 64.2798C231.007 63.9787 229.749 66.0005 229.405 67.5599C232.018 67.8503 233.319 68.0116 235.933 68.388V68.3988Z" fill="#231F20"/>
<path d="M176.495 144.37L175.965 144.433L176.021 144.904H176.495V144.37ZM174.876 141.753L174.583 142.2L174.583 142.2L174.876 141.753ZM168.757 141.31L168.545 140.82L168.543 140.821L168.757 141.31ZM167.005 142.651L166.576 142.334L166.573 142.337L167.005 142.651ZM166.816 146.155L166.371 146.449L166.377 146.458L166.816 146.155ZM167.947 147.23L167.663 147.682L167.668 147.685L167.947 147.23ZM169.389 147.929L169.204 148.43L169.211 148.432L169.389 147.929ZM170.774 148.361L170.913 147.845L170.91 147.845L170.774 148.361ZM173.08 148.982L172.942 149.497L172.945 149.498L173.08 148.982ZM175.054 149.625L174.865 150.124L174.867 150.125L175.054 149.625ZM177.149 150.745L176.84 151.18L176.845 151.184L177.149 150.745ZM178.812 152.541L179.271 152.267L179.271 152.267L178.812 152.541ZM178.502 158.561L178.054 158.27L178.052 158.272L178.502 158.561ZM175.708 160.922L175.478 160.44L175.477 160.441L175.708 160.922ZM167.038 161.011L166.822 161.499L166.823 161.499L167.038 161.011ZM164.244 158.816L163.81 159.127L163.812 159.129L164.244 158.816ZM163.102 155.545V155.011H162.529L162.57 155.583L163.102 155.545ZM165.941 155.545L166.473 155.499L166.43 155.011H165.941V155.545ZM166.805 157.674L166.407 158.03L166.412 158.035L166.805 157.674ZM168.734 158.915L168.557 159.419L168.563 159.421L168.734 158.915ZM174.089 158.805L174.291 159.299L174.294 159.297L174.089 158.805ZM176.074 157.363L176.492 157.696L176.494 157.693L176.074 157.363ZM176.174 153.35L176.572 152.995L176.572 152.995L176.174 153.35ZM174.511 152.197L174.3 152.687L174.3 152.687L174.511 152.197ZM172.282 151.421L172.135 151.934L172.139 151.935L172.282 151.421ZM169.488 150.623L169.341 151.136L169.342 151.136L169.488 150.623ZM165.275 148.439L164.915 148.833L164.915 148.833L165.275 148.439ZM164.754 141.399L164.323 141.084L164.322 141.085L164.754 141.399ZM167.548 139.181L167.767 139.668L167.768 139.668L167.548 139.181ZM175.386 139.17L175.163 139.655L175.165 139.656L175.386 139.17ZM178.092 141.299L177.662 141.616L177.664 141.618L178.092 141.299ZM179.156 144.37V144.904H179.707L179.689 144.353L179.156 144.37ZM177.025 144.307C176.874 143.027 176.247 142.014 175.169 141.307L174.583 142.2C175.398 142.734 175.85 143.466 175.965 144.433L177.025 144.307ZM175.169 141.307C174.119 140.618 172.851 140.288 171.395 140.288V141.356C172.688 141.356 173.742 141.647 174.583 142.2L175.169 141.307ZM171.395 140.288C170.333 140.288 169.379 140.46 168.545 140.82L168.968 141.8C169.642 141.509 170.447 141.356 171.395 141.356V140.288ZM168.543 140.821C167.724 141.177 167.061 141.679 166.576 142.334L167.434 142.969C167.792 142.486 168.296 142.093 168.97 141.799L168.543 140.821ZM166.573 142.337C166.091 143.001 165.85 143.758 165.85 144.592H166.918C166.918 143.977 167.091 143.44 167.437 142.965L166.573 142.337ZM165.85 144.592C165.85 145.285 166.016 145.913 166.371 146.449L167.262 145.86C167.04 145.525 166.918 145.11 166.918 144.592H165.85ZM166.377 146.458C166.715 146.949 167.146 147.357 167.663 147.682L168.232 146.778C167.832 146.527 167.509 146.218 167.256 145.852L166.377 146.458ZM167.668 147.685C168.156 147.985 168.669 148.233 169.204 148.43L169.573 147.428C169.103 147.255 168.655 147.038 168.226 146.775L167.668 147.685ZM169.211 148.432C169.724 148.613 170.2 148.762 170.639 148.877L170.91 147.845C170.506 147.738 170.058 147.599 169.566 147.425L169.211 148.432ZM170.636 148.876L172.942 149.497L173.219 148.466L170.913 147.846L170.636 148.876ZM172.945 149.498C173.514 149.648 174.154 149.856 174.865 150.124L175.242 149.125C174.505 148.847 173.829 148.626 173.216 148.465L172.945 149.498ZM174.867 150.125C175.553 150.381 176.211 150.732 176.84 151.18L177.459 150.31C176.757 149.811 176.018 149.415 175.241 149.125L174.867 150.125ZM176.845 151.184C177.452 151.604 177.955 152.145 178.354 152.814L179.271 152.267C178.797 151.473 178.191 150.817 177.453 150.306L176.845 151.184ZM178.354 152.814C178.729 153.445 178.932 154.243 178.932 155.235H180C180 154.098 179.767 153.1 179.271 152.267L178.354 152.814ZM178.932 155.235C178.932 156.363 178.639 157.37 178.054 158.27L178.949 158.851C179.651 157.771 180 156.561 180 155.235H178.932ZM178.052 158.272C177.478 159.167 176.63 159.892 175.478 160.44L175.937 161.404C177.24 160.784 178.254 159.935 178.951 158.849L178.052 158.272ZM175.477 160.441C174.348 160.982 172.949 161.264 171.262 161.264V162.332C173.064 162.332 174.629 162.03 175.938 161.404L175.477 160.441ZM171.262 161.264C169.692 161.264 168.361 161.011 167.254 160.522L166.823 161.499C168.095 162.06 169.58 162.332 171.262 162.332V161.264ZM167.255 160.523C166.148 160.032 165.295 159.356 164.677 158.502L163.812 159.129C164.553 160.152 165.563 160.94 166.822 161.499L167.255 160.523ZM164.678 158.505C164.068 157.652 163.717 156.658 163.635 155.507L162.57 155.583C162.665 156.915 163.076 158.102 163.81 159.127L164.678 158.505ZM163.102 156.079H165.941V155.011H163.102V156.079ZM165.409 155.591C165.491 156.546 165.817 157.37 166.408 158.03L167.203 157.318C166.788 156.854 166.538 156.258 166.473 155.499L165.409 155.591ZM166.412 158.035C166.987 158.66 167.706 159.119 168.557 159.419L168.912 158.412C168.21 158.165 167.644 157.797 167.198 157.312L166.412 158.035ZM168.563 159.421C169.406 159.707 170.307 159.848 171.262 159.848V158.781C170.414 158.781 169.63 158.656 168.906 158.41L168.563 159.421ZM171.262 159.848C172.37 159.848 173.382 159.669 174.291 159.299L173.888 158.31C173.126 158.62 172.254 158.781 171.262 158.781V159.848ZM174.294 159.297C175.2 158.921 175.939 158.39 176.492 157.696L175.656 157.031C175.232 157.564 174.649 157.994 173.884 158.312L174.294 159.297ZM176.494 157.693C177.059 156.973 177.339 156.132 177.339 155.19H176.272C176.272 155.905 176.064 156.511 175.654 157.033L176.494 157.693ZM177.339 155.19C177.339 154.332 177.097 153.584 176.572 152.995L175.775 153.705C176.093 154.062 176.272 154.541 176.272 155.19H177.339ZM176.572 152.995C176.09 152.454 175.468 152.027 174.721 151.707L174.3 152.687C174.928 152.958 175.414 153.3 175.775 153.705L176.572 152.995ZM174.721 151.707C174.01 151.4 173.244 151.134 172.425 150.907L172.139 151.935C172.917 152.151 173.637 152.402 174.3 152.687L174.721 151.707ZM172.429 150.908L169.635 150.109L169.342 151.136L172.135 151.934L172.429 150.908ZM169.636 150.11C167.917 149.615 166.594 148.92 165.636 148.045L164.915 148.833C166.027 149.849 167.512 150.61 169.341 151.136L169.636 150.11ZM165.636 148.045C164.722 147.21 164.257 146.12 164.257 144.725H163.189C163.189 146.389 163.759 147.776 164.915 148.833L165.636 148.045ZM164.257 144.725C164.257 143.556 164.571 142.559 165.186 141.712L164.322 141.085C163.563 142.13 163.189 143.351 163.189 144.725H164.257ZM165.186 141.713C165.821 140.841 166.676 140.158 167.767 139.668L167.329 138.694C166.084 139.254 165.077 140.049 164.323 141.084L165.186 141.713ZM167.768 139.668C168.866 139.17 170.102 138.917 171.484 138.917V137.849C169.969 137.849 168.58 138.128 167.328 138.695L167.768 139.668ZM171.484 138.917C172.883 138.917 174.106 139.168 175.163 139.655L175.61 138.685C174.391 138.123 173.012 137.849 171.484 137.849V138.917ZM175.165 139.656C176.231 140.14 177.057 140.795 177.662 141.616L178.521 140.982C177.796 139.999 176.819 139.235 175.607 138.684L175.165 139.656ZM177.664 141.618C178.27 142.431 178.589 143.348 178.622 144.387L179.689 144.353C179.649 143.1 179.259 141.971 178.519 140.98L177.664 141.618ZM179.156 143.836H176.495V144.904H179.156V143.836ZM201.847 156.255L201.369 156.018L201.369 156.018L201.847 156.255ZM198.288 160.29L198.572 160.742L198.572 160.742L198.288 160.29ZM187.956 160.29L187.672 160.742L187.672 160.742L187.956 160.29ZM184.397 156.255L184.875 156.018L184.875 156.018L184.397 156.255ZM184.397 143.838L183.919 143.601L184.397 143.838ZM198.288 139.802L198.572 139.35L198.572 139.35L198.288 139.802ZM201.847 143.838L201.369 144.075L201.369 144.075L201.847 143.838ZM199.497 145.068L199.016 145.3L199.017 145.302L199.497 145.068ZM196.847 141.997L196.564 142.45L196.565 142.451L196.847 141.997ZM189.386 141.997L189.104 141.544L189.102 141.545L189.386 141.997ZM186.736 145.068L186.256 144.835L186.255 144.837L186.736 145.068ZM186.736 155.024L186.255 155.255L186.256 155.258L186.736 155.024ZM189.386 158.095L189.102 158.547L189.104 158.548L189.386 158.095ZM196.847 158.095L196.565 157.642L196.564 157.643L196.847 158.095ZM199.497 155.024L199.017 154.791L199.016 154.793L199.497 155.024ZM202.611 150.046C202.611 152.377 202.19 154.362 201.369 156.018L202.326 156.492C203.234 154.659 203.678 152.505 203.678 150.046H202.611ZM201.369 156.018C200.544 157.682 199.421 158.949 198.005 159.838L198.572 160.742C200.171 159.739 201.421 158.316 202.326 156.492L201.369 156.018ZM198.005 159.838C196.589 160.726 194.967 161.175 193.122 161.175V162.243C195.15 162.243 196.972 161.746 198.572 160.742L198.005 159.838ZM193.122 161.175C191.277 161.175 189.655 160.726 188.24 159.838L187.672 160.742C189.272 161.746 191.094 162.243 193.122 162.243V161.175ZM188.24 159.838C186.823 158.949 185.701 157.682 184.875 156.018L183.919 156.492C184.823 158.316 186.073 159.739 187.672 160.742L188.24 159.838ZM184.875 156.018C184.055 154.362 183.634 152.377 183.634 150.046H182.566C182.566 152.505 183.01 154.659 183.919 156.492L184.875 156.018ZM183.634 150.046C183.634 147.715 184.055 145.73 184.875 144.075L183.919 143.601C183.01 145.434 182.566 147.588 182.566 150.046H183.634ZM184.875 144.075C185.701 142.41 186.823 141.143 188.24 140.254L187.672 139.35C186.073 140.353 184.823 141.777 183.919 143.601L184.875 144.075ZM188.24 140.254C189.655 139.366 191.277 138.917 193.122 138.917V137.849C191.094 137.849 189.272 138.346 187.672 139.35L188.24 140.254ZM193.122 138.917C194.967 138.917 196.589 139.366 198.005 140.254L198.572 139.35C196.972 138.346 195.15 137.849 193.122 137.849V138.917ZM198.005 140.254C199.421 141.143 200.544 142.41 201.369 144.075L202.326 143.601C201.421 141.777 200.171 140.353 198.572 139.35L198.005 140.254ZM201.369 144.075C202.19 145.73 202.611 147.715 202.611 150.046H203.678C203.678 147.588 203.234 145.434 202.326 143.601L201.369 144.075ZM201.017 150.046C201.017 148.023 200.679 146.279 199.977 144.835L199.017 145.302C199.63 146.563 199.95 148.137 199.95 150.046H201.017ZM199.978 144.837C199.29 143.406 198.343 142.3 197.129 141.544L196.565 142.451C197.583 143.084 198.403 144.025 199.016 145.3L199.978 144.837ZM197.131 141.545C195.933 140.794 194.592 140.421 193.122 140.421V141.489C194.402 141.489 195.544 141.811 196.564 142.45L197.131 141.545ZM193.122 140.421C191.652 140.421 190.308 140.794 189.104 141.544L189.668 142.451C190.695 141.811 191.842 141.489 193.122 141.489V140.421ZM189.102 141.545C187.897 142.3 186.951 143.406 186.256 144.835L187.216 145.302C187.837 144.025 188.658 143.084 189.669 142.45L189.102 141.545ZM186.255 144.837C185.561 146.28 185.227 148.024 185.227 150.046H186.294C186.294 148.136 186.611 146.561 187.217 145.3L186.255 144.837ZM185.227 150.046C185.227 152.068 185.561 153.812 186.255 155.255L187.217 154.793C186.611 153.531 186.294 151.956 186.294 150.046H185.227ZM186.256 155.258C186.951 156.686 187.897 157.792 189.102 158.547L189.669 157.643C188.658 157.009 187.837 156.067 187.216 154.791L186.256 155.258ZM189.104 158.548C190.308 159.298 191.652 159.671 193.122 159.671V158.603C191.842 158.603 190.695 158.281 189.668 157.642L189.104 158.548ZM193.122 159.671C194.592 159.671 195.933 159.298 197.131 158.547L196.564 157.643C195.544 158.281 194.402 158.603 193.122 158.603V159.671ZM197.129 158.548C198.343 157.793 199.29 156.686 199.978 155.255L199.016 154.793C198.403 156.067 197.583 157.008 196.565 157.642L197.129 158.548ZM199.977 155.258C200.679 153.813 201.017 152.069 201.017 150.046H199.95C199.95 151.955 199.63 153.53 199.017 154.791L199.977 155.258ZM225.628 156.255L225.15 156.018L225.15 156.018L225.628 156.255ZM222.069 160.29L222.353 160.742L222.353 160.742L222.069 160.29ZM211.736 160.29L211.453 160.742L211.453 160.742L211.736 160.29ZM208.178 156.255L208.656 156.018L208.656 156.018L208.178 156.255ZM208.178 143.838L207.699 143.601L208.178 143.838ZM222.069 139.802L222.353 139.35L222.353 139.35L222.069 139.802ZM225.628 143.838L225.15 144.075L225.15 144.075L225.628 143.838ZM223.278 145.068L222.796 145.3L222.797 145.302L223.278 145.068ZM220.628 141.997L220.344 142.45L220.346 142.451L220.628 141.997ZM213.167 141.997L212.884 141.544L212.883 141.545L213.167 141.997ZM210.517 145.068L210.037 144.835L210.036 144.837L210.517 145.068ZM210.517 155.024L210.036 155.255L210.037 155.258L210.517 155.024ZM213.167 158.095L212.883 158.547L212.885 158.548L213.167 158.095ZM220.628 158.095L220.346 157.642L220.344 157.643L220.628 158.095ZM223.278 155.024L222.797 154.791L222.796 154.793L223.278 155.024ZM226.391 150.046C226.391 152.377 225.97 154.362 225.15 156.018L226.106 156.492C227.015 154.659 227.459 152.505 227.459 150.046H226.391ZM225.15 156.018C224.324 157.682 223.202 158.949 221.785 159.838L222.353 160.742C223.952 159.739 225.202 158.316 226.106 156.492L225.15 156.018ZM221.785 159.838C220.37 160.726 218.748 161.175 216.903 161.175V162.243C218.93 162.243 220.753 161.746 222.353 160.742L221.785 159.838ZM216.903 161.175C215.058 161.175 213.436 160.726 212.02 159.838L211.453 160.742C213.053 161.746 214.875 162.243 216.903 162.243V161.175ZM212.02 159.838C210.604 158.949 209.481 157.682 208.656 156.018L207.699 156.492C208.604 158.316 209.854 159.739 211.453 160.742L212.02 159.838ZM208.656 156.018C207.835 154.362 207.414 152.377 207.414 150.046H206.347C206.347 152.505 206.791 154.659 207.699 156.492L208.656 156.018ZM207.414 150.046C207.414 147.715 207.835 145.73 208.656 144.075L207.699 143.601C206.791 145.434 206.347 147.588 206.347 150.046H207.414ZM208.656 144.075C209.481 142.41 210.604 141.143 212.02 140.254L211.453 139.35C209.854 140.353 208.604 141.777 207.699 143.601L208.656 144.075ZM212.02 140.254C213.436 139.366 215.058 138.917 216.903 138.917V137.849C214.875 137.849 213.053 138.346 211.453 139.35L212.02 140.254ZM216.903 138.917C218.748 138.917 220.37 139.366 221.785 140.254L222.353 139.35C220.753 138.346 218.93 137.849 216.903 137.849V138.917ZM221.785 140.254C223.202 141.143 224.324 142.41 225.15 144.075L226.106 143.601C225.202 141.777 223.952 140.353 222.353 139.35L221.785 140.254ZM225.15 144.075C225.97 145.73 226.391 147.715 226.391 150.046H227.459C227.459 147.588 227.015 145.434 226.106 143.601L225.15 144.075ZM224.798 150.046C224.798 148.023 224.46 146.279 223.758 144.835L222.797 145.302C223.411 146.563 223.73 148.137 223.73 150.046H224.798ZM223.759 144.837C223.071 143.406 222.124 142.3 220.91 141.544L220.346 142.451C221.364 143.084 222.184 144.025 222.796 145.3L223.759 144.837ZM220.911 141.545C219.713 140.794 218.372 140.421 216.903 140.421V141.489C218.183 141.489 219.325 141.811 220.344 142.45L220.911 141.545ZM216.903 140.421C215.433 140.421 214.089 140.794 212.885 141.544L213.449 142.451C214.476 141.811 215.623 141.489 216.903 141.489V140.421ZM212.883 141.545C211.678 142.3 210.732 143.406 210.037 144.835L210.997 145.302C211.618 144.025 212.438 143.084 213.45 142.45L212.883 141.545ZM210.036 144.837C209.342 146.28 209.007 148.024 209.007 150.046H210.075C210.075 148.136 210.391 146.561 210.998 145.3L210.036 144.837ZM209.007 150.046C209.007 152.068 209.342 153.812 210.036 155.255L210.998 154.793C210.391 153.531 210.075 151.956 210.075 150.046H209.007ZM210.037 155.258C210.732 156.686 211.678 157.792 212.883 158.547L213.45 157.643C212.438 157.009 211.618 156.067 210.997 154.791L210.037 155.258ZM212.885 158.548C214.089 159.298 215.433 159.671 216.903 159.671V158.603C215.623 158.603 214.476 158.281 213.449 157.642L212.885 158.548ZM216.903 159.671C218.372 159.671 219.713 159.298 220.911 158.547L220.344 157.643C219.325 158.281 218.183 158.603 216.903 158.603V159.671ZM220.91 158.548C222.124 157.793 223.071 156.686 223.759 155.255L222.796 154.793C222.184 156.067 221.364 157.008 220.346 157.642L220.91 158.548ZM223.758 155.258C224.46 153.813 224.798 152.069 224.798 150.046H223.73C223.73 151.955 223.411 153.53 222.797 154.791L223.758 155.258ZM249.553 138.694H250.087V138.16H249.553V138.694ZM249.553 161.399V161.933H250.087V161.399H249.553ZM246.892 161.399L246.453 161.703L246.613 161.933H246.892V161.399ZM234.519 143.572L234.958 143.267L234.799 143.038H234.519V143.572ZM234.298 143.572V143.038H233.764V143.572H234.298ZM234.298 161.399V161.933H234.831V161.399H234.298ZM231.548 161.399H231.014V161.933H231.548V161.399ZM231.548 138.694V138.16H231.014V138.694H231.548ZM234.209 138.694L234.647 138.389L234.488 138.16H234.209V138.694ZM246.626 156.565L246.187 156.87L246.347 157.099H246.626V156.565ZM246.848 156.565V157.099H247.381V156.565H246.848ZM246.848 138.694V138.16H246.314V138.694H246.848ZM249.019 138.694V161.399H250.087V138.694H249.019ZM249.553 160.865H246.892V161.933H249.553V160.865ZM247.331 161.094L234.958 143.267L234.081 143.876L246.453 161.703L247.331 161.094ZM234.519 143.038H234.298V144.105H234.519V143.038ZM233.764 143.572V161.399H234.831V143.572H233.764ZM234.298 160.865H231.548V161.933H234.298V160.865ZM232.082 161.399V138.694H231.014V161.399H232.082ZM231.548 139.227H234.209V138.16H231.548V139.227ZM233.771 138.998L246.187 156.87L247.064 156.26L234.647 138.389L233.771 138.998ZM246.626 157.099H246.848V156.031H246.626V157.099ZM247.381 156.565V138.694H246.314V156.565H247.381ZM246.848 139.227H249.553V138.16H246.848V139.227Z" fill="white"/>
<path d="M179.711 141.283C179.578 140.16 179.038 139.288 178.092 138.667C177.146 138.046 175.986 137.736 174.611 137.736C173.606 137.736 172.726 137.898 171.972 138.223C171.226 138.549 170.642 138.996 170.221 139.565C169.807 140.134 169.6 140.781 169.6 141.505C169.6 142.111 169.744 142.632 170.032 143.068C170.328 143.497 170.705 143.855 171.163 144.144C171.621 144.424 172.102 144.657 172.604 144.842C173.107 145.019 173.569 145.164 173.99 145.274L176.296 145.895C176.887 146.051 177.545 146.265 178.27 146.538C179.001 146.812 179.7 147.185 180.365 147.658C181.038 148.124 181.592 148.722 182.028 149.454C182.464 150.186 182.682 151.084 182.682 152.148C182.682 153.375 182.361 154.484 181.718 155.474C181.082 156.464 180.151 157.252 178.924 157.836C177.704 158.419 176.222 158.711 174.478 158.711C172.852 158.711 171.444 158.449 170.254 157.924C169.071 157.399 168.14 156.668 167.46 155.729C166.788 154.79 166.407 153.7 166.318 152.459H169.156C169.23 153.316 169.519 154.025 170.021 154.587C170.531 155.141 171.174 155.555 171.95 155.829C172.734 156.095 173.576 156.228 174.478 156.228C175.528 156.228 176.47 156.058 177.305 155.718C178.14 155.371 178.802 154.89 179.29 154.277C179.777 153.656 180.021 152.932 180.021 152.104C180.021 151.35 179.811 150.736 179.389 150.263C178.968 149.79 178.414 149.406 177.726 149.11C177.039 148.815 176.296 148.556 175.498 148.334L172.704 147.536C170.93 147.026 169.526 146.298 168.491 145.352C167.457 144.406 166.939 143.168 166.939 141.638C166.939 140.367 167.283 139.258 167.97 138.312C168.665 137.359 169.596 136.62 170.764 136.095C171.939 135.563 173.251 135.297 174.7 135.297C176.163 135.297 177.464 135.559 178.602 136.084C179.74 136.601 180.642 137.311 181.307 138.212C181.98 139.114 182.335 140.138 182.372 141.283H179.711ZM206.36 146.96C206.36 149.354 205.928 151.424 205.063 153.168C204.198 154.912 203.012 156.258 201.504 157.204C199.997 158.15 198.274 158.623 196.338 158.623C194.401 158.623 192.679 158.15 191.172 157.204C189.664 156.258 188.478 154.912 187.613 153.168C186.748 151.424 186.316 149.354 186.316 146.96C186.316 144.565 186.748 142.495 187.613 140.751C188.478 139.007 189.664 137.662 191.172 136.716C192.679 135.77 194.401 135.297 196.338 135.297C198.274 135.297 199.997 135.77 201.504 136.716C203.012 137.662 204.198 139.007 205.063 140.751C205.928 142.495 206.36 144.565 206.36 146.96ZM203.699 146.96C203.699 144.994 203.371 143.334 202.713 141.982C202.062 140.629 201.179 139.606 200.063 138.911C198.954 138.216 197.713 137.869 196.338 137.869C194.963 137.869 193.718 138.216 192.602 138.911C191.493 139.606 190.61 140.629 189.952 141.982C189.302 143.334 188.976 144.994 188.976 146.96C188.976 148.926 189.302 150.585 189.952 151.937C190.61 153.29 191.493 154.314 192.602 155.008C193.718 155.703 194.963 156.051 196.338 156.051C197.713 156.051 198.954 155.703 200.063 155.008C201.179 154.314 202.062 153.29 202.713 151.937C203.371 150.585 203.699 148.926 203.699 146.96ZM230.141 146.96C230.141 149.354 229.709 151.424 228.844 153.168C227.979 154.912 226.793 156.258 225.285 157.204C223.777 158.15 222.055 158.623 220.119 158.623C218.182 158.623 216.46 158.15 214.952 157.204C213.445 156.258 212.258 154.912 211.393 153.168C210.529 151.424 210.096 149.354 210.096 146.96C210.096 144.565 210.529 142.495 211.393 140.751C212.258 139.007 213.445 137.662 214.952 136.716C216.46 135.77 218.182 135.297 220.119 135.297C222.055 135.297 223.777 135.77 225.285 136.716C226.793 137.662 227.979 139.007 228.844 140.751C229.709 142.495 230.141 144.565 230.141 146.96ZM227.48 146.96C227.48 144.994 227.151 143.334 226.493 141.982C225.843 140.629 224.96 139.606 223.844 138.911C222.735 138.216 221.493 137.869 220.119 137.869C218.744 137.869 217.499 138.216 216.382 138.911C215.274 139.606 214.391 140.629 213.733 141.982C213.082 143.334 212.757 144.994 212.757 146.96C212.757 148.926 213.082 150.585 213.733 151.937C214.391 153.29 215.274 154.314 216.382 155.008C217.499 155.703 218.744 156.051 220.119 156.051C221.493 156.051 222.735 155.703 223.844 155.008C224.96 154.314 225.843 153.29 226.493 151.937C227.151 150.585 227.48 148.926 227.48 146.96ZM252.769 135.607V158.312H250.108L237.735 140.485H237.513V158.312H234.764V135.607H237.425L249.842 153.479H250.063V135.607H252.769Z" fill="black"/>
</g>
<defs>
<clipPath id="clip0_1131_1703">
<rect width="419.524" height="188" fill="white"/>
</clipPath>
</defs>
</svg>
