<svg width="160" height="139" viewBox="0 0 160 139" fill="none" xmlns="http://www.w3.org/2000/svg">
<path fill-rule="evenodd" clip-rule="evenodd" d="M86.1362 137.529C110.354 136.853 138.15 138.016 152.557 118.538C166.66 99.4709 157.743 73.4296 150.172 50.954C143.782 31.9823 132.718 14.9798 114.721 6.21361C96.6215 -2.60199 76.1576 -1.36823 57.3174 5.72699C35.6046 13.9041 13.7281 25.4286 5.79938 47.2334C-3.2722 72.1811 -2.745 102.546 14.9002 122.379C31.8776 141.46 60.6051 138.241 86.1362 137.529Z" fill="#D5F0F0"/>
<g clip-path="url(#clip0_2168_11354)">
<path d="M65.834 39.9224L65.8337 41.4224H65.834V39.9224ZM52.6236 44.6423L53.5744 45.8024L52.6236 44.6423ZM45.4007 56.6682L43.9298 56.3739L43.9298 56.3741L45.4007 56.6682ZM38.5923 90.7224L40.0632 91.0165L40.0632 91.0164L38.5923 90.7224ZM39.3497 96.7481L37.9973 97.3971L39.3497 96.7481ZM43.5768 101.109L44.2675 99.7771L43.5768 101.109ZM49.576 102.053L49.8243 103.532H49.8243L49.576 102.053ZM54.9382 99.2015L53.8506 98.1685L53.8506 98.1685L54.9382 99.2015ZM71.6673 81.589V80.089C71.2561 80.089 70.863 80.2578 70.5798 80.556L71.6673 81.589ZM88.334 81.589L89.4215 80.5559C89.1383 80.2578 88.7452 80.089 88.334 80.089V81.589ZM105.292 99.439L104.205 100.472L104.205 100.472L105.292 99.439ZM110.642 102.286L110.892 100.807H110.892L110.642 102.286ZM116.63 101.356L115.942 100.022L116.63 101.356ZM120.862 97.0187L119.512 96.3642V96.3642L120.862 97.0187ZM121.646 91.0098L123.119 90.7238L123.119 90.7236L121.646 91.0098ZM115.242 58.0607L113.755 58.2547C113.759 58.2856 113.764 58.3163 113.77 58.3469L115.242 58.0607ZM109.315 46.0243L110.376 44.9636V44.9636L109.315 46.0243ZM80.0007 41.4224H94.584V38.4224H80.0007V41.4224ZM65.834 41.4224H80.0007V38.4224H65.834V41.4224ZM53.5744 45.8024C57.0316 42.9691 61.3638 41.4213 65.8337 41.4224L65.8344 38.4224C60.6709 38.4211 55.6665 40.2092 51.6728 43.4821L53.5744 45.8024ZM46.8715 56.9625C47.7485 52.5795 50.1172 48.6358 53.5744 45.8024L51.6728 43.4821C47.6791 46.7551 44.9429 51.3108 43.9298 56.3739L46.8715 56.9625ZM40.0632 91.0164L46.8716 56.9623L43.9298 56.3741L37.1215 90.4283L40.0632 91.0164ZM40.702 96.0991C39.9437 94.5189 39.7195 92.7352 40.0632 91.0165L37.1215 90.4282C36.6502 92.7847 36.9576 95.2305 37.9973 97.3971L40.702 96.0991ZM44.2675 99.7771C42.7117 98.9701 41.4603 97.6792 40.702 96.0991L37.9973 97.3971C39.0371 99.5636 40.7529 101.334 42.8861 102.44L44.2675 99.7771ZM49.3277 100.574C47.5992 100.864 45.8233 100.584 44.2675 99.7771L42.8861 102.44C45.0193 103.547 47.4543 103.93 49.8243 103.532L49.3277 100.574ZM53.8506 98.1685C52.6436 99.4393 51.0562 100.283 49.3277 100.574L49.8243 103.532C52.1943 103.134 54.3708 101.977 56.0258 100.235L53.8506 98.1685ZM70.5798 80.556L53.8506 98.1685L56.0258 100.235L72.7549 82.6221L70.5798 80.556ZM88.334 80.089H71.6673V83.089H88.334V80.089ZM87.2465 82.6222L104.205 100.472L106.38 98.4059L89.4215 80.5559L87.2465 82.6222ZM104.205 100.472C105.857 102.21 108.027 103.366 110.392 103.765L110.892 100.807C109.167 100.516 107.584 99.6732 106.38 98.4057L104.205 100.472ZM110.392 103.765C112.756 104.165 115.186 103.787 117.317 102.689L115.942 100.022C114.388 100.823 112.616 101.099 110.892 100.807L110.392 103.765ZM117.317 102.689C119.448 101.59 121.165 99.8305 122.212 97.6732L119.512 96.3642C118.749 97.9376 117.497 99.2212 115.942 100.022L117.317 102.689ZM122.212 97.6732C123.258 95.5159 123.576 93.0774 123.119 90.7238L120.174 91.2959C120.507 93.0124 120.275 94.7908 119.512 96.3642L122.212 97.6732ZM123.119 90.7236L116.715 57.7745L113.77 58.3469L120.174 91.296L123.119 90.7236ZM108.255 47.085C111.286 50.116 113.207 54.05 113.755 58.2547L116.73 57.8667C116.096 53.0095 113.878 48.4651 110.376 44.9636L108.255 47.085ZM94.584 41.4224C99.7115 41.4224 104.629 43.4593 108.255 47.085L110.376 44.9636C106.188 40.7753 100.507 38.4224 94.584 38.4224V41.4224Z" fill="#5AC4C4"/>
<path d="M63.334 56.5889V64.9222" stroke="#5AC4C4" stroke-width="3" stroke-linecap="round" stroke-linejoin="round"/>
<path d="M59.166 60.7556H67.4993" stroke="#5AC4C4" stroke-width="3" stroke-linecap="round" stroke-linejoin="round"/>
<path d="M88.334 60.7556H96.6673" stroke="#5AC4C4" stroke-width="3" stroke-linecap="round" stroke-linejoin="round"/>
</g>
<defs>
<clipPath id="clip0_2168_11354">
<rect width="100" height="100" fill="white" transform="translate(30 19.0889)"/>
</clipPath>
</defs>
</svg>
