<svg width="49" height="129" viewBox="0 0 49 129" fill="none" xmlns="http://www.w3.org/2000/svg">
<path d="M34.8281 22.2617C34.8281 21.2305 35.0625 20.2773 35.5312 19.4023C35.6562 19.2253 35.8333 19.1367 36.0625 19.1367C36.2292 19.1367 36.375 19.194 36.5 19.3086C36.6354 19.4336 36.7031 19.5846 36.7031 19.7617C36.7031 19.8659 36.6823 19.9596 36.6406 20.043C36.4844 20.3971 36.3646 20.7409 36.2812 21.0742C36.2083 21.4076 36.1719 21.7721 36.1719 22.168C36.1719 23.3138 36.5365 23.8867 37.2656 23.8867C37.4948 23.8867 37.6719 23.7617 37.7969 23.5117C37.9219 23.2513 38.0625 22.8138 38.2187 22.1992C38.3542 21.5951 38.5052 21.0898 38.6719 20.6836C38.8385 20.2357 39.0885 19.8763 39.4219 19.6055C39.7552 19.3346 40.1667 19.1992 40.6562 19.1992C41.3958 19.1992 41.9948 19.4701 42.4531 20.0117C42.9115 20.5534 43.1406 21.3034 43.1406 22.2617C43.1406 23.0951 43.0104 23.8503 42.75 24.5273C42.7083 24.6732 42.6302 24.7878 42.5156 24.8711C42.401 24.9544 42.276 24.9961 42.1406 24.9961C41.974 24.9961 41.8229 24.9336 41.6875 24.8086C41.5625 24.6836 41.5 24.5326 41.5 24.3555L41.5312 24.1523C41.7187 23.5273 41.8125 22.9336 41.8125 22.3711C41.8125 21.8294 41.7135 21.3971 41.5156 21.0742C41.3177 20.7513 41.0573 20.5898 40.7344 20.5898C40.4323 20.5898 40.2083 20.7305 40.0625 21.0117C39.9271 21.3138 39.7865 21.7669 39.6406 22.3711C39.4948 22.9336 39.3437 23.4336 39.1875 23.8711C39.0208 24.2982 38.7656 24.6419 38.4219 24.9023C38.0885 25.1628 37.6667 25.293 37.1562 25.293C36.4792 25.293 35.9219 25.0221 35.4844 24.4805C35.0469 23.9388 34.8281 23.1992 34.8281 22.2617ZM34.8281 30.8711C34.8281 30.1315 34.9948 29.4388 35.3281 28.793C35.6719 28.1367 36.1615 27.6211 36.7969 27.2461C37.4323 26.8711 38.1615 26.6836 38.9844 26.6836C39.8281 26.6836 40.5677 26.8763 41.2031 27.2617C41.8177 27.6367 42.2917 28.1367 42.625 28.7617C42.9687 29.3971 43.1406 30.1003 43.1406 30.8711C43.1406 31.3919 43.0729 31.8503 42.9375 32.2461C42.8125 32.6419 42.6302 33.0378 42.3906 33.4336C42.2448 33.6419 42.0573 33.7461 41.8281 33.7461C41.6719 33.7461 41.526 33.6836 41.3906 33.5586C41.2552 33.4336 41.1875 33.293 41.1875 33.1367C41.1875 33.0326 41.2187 32.918 41.2812 32.793C41.4687 32.4284 41.599 32.1263 41.6719 31.8867C41.7448 31.6471 41.7812 31.3503 41.7812 30.9961C41.7812 30.1211 41.526 29.4232 41.0156 28.9023C40.5156 28.3919 39.8385 28.1367 38.9844 28.1367C38.1302 28.1367 37.4479 28.3919 36.9375 28.9023C36.4375 29.4232 36.1875 30.1211 36.1875 30.9961C36.1875 31.3503 36.224 31.6471 36.2969 31.8867C36.3698 32.1263 36.5 32.4284 36.6875 32.793C36.75 32.918 36.7812 33.0326 36.7812 33.1367C36.7812 33.293 36.7135 33.4336 36.5781 33.5586C36.4427 33.6836 36.2969 33.7461 36.1406 33.7461C35.9115 33.7461 35.724 33.6419 35.5781 33.4336C35.3385 33.0378 35.151 32.6419 35.0156 32.2461C34.8906 31.8503 34.8281 31.3919 34.8281 30.8711ZM34.9062 36.2148C34.9062 36.0169 34.974 35.8451 35.1094 35.6992C35.2552 35.5638 35.4271 35.4961 35.625 35.4961L42.3281 35.4961C42.526 35.4961 42.6979 35.5638 42.8437 35.6992C42.9896 35.8451 43.0625 36.0169 43.0625 36.2148C43.0625 36.4128 42.9896 36.5846 42.8437 36.7305C42.6979 36.8763 42.526 36.9492 42.3281 36.9492L41.7031 36.9492C42.6615 37.668 43.1406 38.4805 43.1406 39.3867L43.1406 39.4648C43.1406 39.6628 43.0677 39.8294 42.9219 39.9648C42.7865 40.1003 42.6198 40.168 42.4219 40.168C42.224 40.168 42.0573 40.0951 41.9219 39.9492C41.7969 39.8138 41.7344 39.6419 41.7344 39.4336L41.7344 39.3555C41.7344 38.8659 41.6146 38.4128 41.375 37.9961C41.1458 37.5898 40.8125 37.2409 40.375 36.9492L35.625 36.9492C35.4271 36.9492 35.2552 36.8763 35.1094 36.7305C34.974 36.5846 34.9062 36.4128 34.9062 36.2148ZM34.8281 44.7773C34.8281 43.9857 35 43.2826 35.3437 42.668C35.6979 42.0638 36.1927 41.5951 36.8281 41.2617C37.4635 40.9284 38.1823 40.7617 38.9844 40.7617C39.7969 40.7617 40.5208 40.9284 41.1562 41.2617C41.7917 41.5951 42.2812 42.0638 42.625 42.668C42.9687 43.2826 43.1406 43.9857 43.1406 44.7773C43.1406 45.569 42.9687 46.2669 42.625 46.8711C42.2708 47.4857 41.776 47.9596 41.1406 48.293C40.5156 48.6263 39.7969 48.793 38.9844 48.793C38.1719 48.793 37.4531 48.6263 36.8281 48.293C36.1823 47.9492 35.6875 47.4701 35.3437 46.8555C35 46.2513 34.8281 45.5586 34.8281 44.7773ZM39 42.2148C38.3333 42.2148 37.7969 42.3398 37.3906 42.5898C36.9844 42.819 36.6771 43.1211 36.4687 43.4961C36.2604 43.8815 36.1562 44.3086 36.1562 44.7773C36.1562 45.2044 36.2552 45.6159 36.4531 46.0117C36.6615 46.418 36.9792 46.7409 37.4062 46.9805C37.8437 47.2201 38.375 47.3398 39 47.3398C39.6562 47.3398 40.1875 47.2148 40.5937 46.9648C40.9896 46.7357 41.2917 46.4284 41.5 46.043C41.7083 45.668 41.8125 45.2461 41.8125 44.7773C41.8125 44.3503 41.7187 43.9388 41.5312 43.543C41.3229 43.1367 41.0052 42.8138 40.5781 42.5742C40.151 42.3346 39.625 42.2148 39 42.2148ZM34.9062 51.4648C34.9062 51.2669 34.974 51.0951 35.1094 50.9492C35.2552 50.8138 35.4271 50.7461 35.625 50.7461L45.7656 50.7461C45.9635 50.7461 46.1354 50.8138 46.2812 50.9492C46.4271 51.0951 46.5 51.2669 46.5 51.4648C46.5 51.6732 46.4271 51.8451 46.2812 51.9805C46.1458 52.1263 45.974 52.1992 45.7656 52.1992L35.625 52.1992C35.4271 52.1992 35.2552 52.1263 35.1094 51.9805C34.974 51.8346 34.9062 51.6628 34.9062 51.4648ZM34.9062 55.3555C34.9062 55.1576 34.974 54.9857 35.1094 54.8398C35.2552 54.7044 35.4271 54.6367 35.625 54.6367L45.7656 54.6367C45.9635 54.6367 46.1354 54.7044 46.2812 54.8398C46.4271 54.9857 46.5 55.1576 46.5 55.3555C46.5 55.5638 46.4271 55.7357 46.2812 55.8711C46.1458 56.0169 45.974 56.0898 45.7656 56.0898L35.625 56.0898C35.4271 56.0898 35.2552 56.0169 35.1094 55.8711C34.974 55.7253 34.9062 55.5534 34.9062 55.3555Z" fill="#263238"/>
<path fill-rule="evenodd" clip-rule="evenodd" d="M12.9431 0.477539H23.8815V5.947H27.0061C27.0061 7.69126 26.7838 9.41844 26.3518 11.0299C25.9199 12.6414 25.2869 14.1056 24.4888 15.339C23.6907 16.5724 22.7433 17.5508 21.7006 18.2183C20.6578 18.8858 19.5403 19.2293 18.4116 19.2293C17.283 19.2293 16.1654 18.8858 15.1227 18.2183C14.0799 17.5508 13.1325 16.5724 12.3344 15.339C11.5364 14.1056 10.9033 12.6414 10.4714 11.0299C10.0395 9.41844 9.81718 7.69126 9.81718 5.947L12.9431 5.947V0.477539ZM15.6762 4.38384C16.3234 4.38384 16.8481 3.85913 16.8481 3.21187C16.8481 2.56461 16.3234 2.0399 15.6762 2.0399C15.0289 2.0399 14.5042 2.56461 14.5042 3.21187C14.5042 3.85913 15.0289 4.38384 15.6762 4.38384ZM22.3175 3.21154C22.3175 3.8588 21.7928 4.38351 21.1456 4.38351C20.4983 4.38351 19.9736 3.8588 19.9736 3.21154C19.9736 2.56428 20.4983 2.03957 21.1456 2.03957C21.7928 2.03957 22.3175 2.56428 22.3175 3.21154ZM18.9194 125.095C27.0743 125.095 34.2803 117.518 34.2803 107.391C34.2803 97.7255 27.7167 90.3824 20.0288 89.7327V93.8489C22.3007 94.3934 23.9992 96.5768 23.9992 99.1875C23.9992 101.8 22.2981 103.985 20.0235 104.527C20.0271 104.57 20.029 104.613 20.029 104.656V111.688C20.029 112.516 19.3574 113.188 18.529 113.188C17.7005 113.188 17.029 112.516 17.029 111.688V104.656C17.029 104.528 17.0451 104.403 17.0754 104.284C15.183 103.489 13.8422 101.507 13.8422 99.1875C13.8422 96.8871 15.161 94.9184 17.0288 94.1104V89.8221C9.68276 90.8852 3.55859 98.0546 3.55859 107.391C3.55859 117.518 10.7645 125.095 18.9194 125.095ZM18.9194 128.095C29.0598 128.095 37.2803 118.826 37.2803 107.391C37.2803 95.9557 29.0598 86.6858 18.9194 86.6858C8.77902 86.6858 0.558594 95.9557 0.558594 107.391C0.558594 118.826 8.77902 128.095 18.9194 128.095ZM18.9207 101.657C19.8632 101.657 20.9992 100.764 20.9992 99.1875C20.9992 97.6106 19.8632 96.7183 18.9207 96.7183C17.9783 96.7183 16.8422 97.6106 16.8422 99.1875C16.8422 100.764 17.9783 101.657 18.9207 101.657Z" fill="#263238"/>
<path d="M18.6699 87.3604L18.6699 15.2101" stroke="#263238" stroke-width="3"/>
</svg>
