<svg width="120" height="98" viewBox="0 0 120 98" fill="none" xmlns="http://www.w3.org/2000/svg">
<path d="M32.6632 43.5602V54.4503H87.1135V43.5602C87.1135 33.4325 94.0831 24.9927 103.449 22.5424V16.3351C103.449 7.35079 96.0977 0 87.1135 0H32.6632C23.6789 0 16.3281 7.35079 16.3281 16.3351V22.5424C25.6936 24.9927 32.6632 33.4325 32.6632 43.5602Z" fill="white"/>
<path d="M108.901 32.6602C102.911 32.6602 98.0105 37.5607 98.0105 43.5502V65.3303H21.7801V43.5502C21.7801 37.5607 16.8796 32.6602 10.8901 32.6602C4.90052 32.6602 0 37.5607 0 43.5502V70.7753C0 79.7596 7.35079 87.1104 16.3351 87.1104V92.5554C16.3351 95.5502 18.7853 98.0005 21.7801 98.0005C24.7749 98.0005 27.2251 95.5502 27.2251 92.5554V87.1104H92.5654V92.5554C92.5654 95.5502 95.0157 98.0005 98.0105 98.0005C101.005 98.0005 103.455 95.5502 103.455 92.5554V87.1104C112.44 87.1104 119.791 79.7596 119.791 70.7753V43.5502C119.791 37.5607 114.89 32.6602 108.901 32.6602Z" fill="white"/>
</svg>
