<svg width="266" height="98" viewBox="0 0 266 98" fill="none" xmlns="http://www.w3.org/2000/svg">
<path d="M32.6632 43.5602V54.4503H87.1135V43.5602C87.1135 33.4325 94.0831 24.9927 103.449 22.5424V16.3351C103.449 7.35079 96.0977 0 87.1135 0H32.6632C23.6789 0 16.3281 7.35079 16.3281 16.3351V22.5424C25.6936 24.9927 32.6632 33.4325 32.6632 43.5602Z" fill="white"/>
<path d="M108.901 32.6602C102.911 32.6602 98.0105 37.5607 98.0105 43.5502V65.3303H21.7801V43.5502C21.7801 37.5607 16.8796 32.6602 10.8901 32.6602C4.90052 32.6602 0 37.5607 0 43.5502V70.7753C0 79.7596 7.35079 87.1104 16.3351 87.1104V92.5554C16.3351 95.5502 18.7853 98.0005 21.7801 98.0005C24.7749 98.0005 27.2251 95.5502 27.2251 92.5554V87.1104H92.5654V92.5554C92.5654 95.5502 95.0157 98.0005 98.0105 98.0005C101.005 98.0005 103.455 95.5502 103.455 92.5554V87.1104C112.44 87.1104 119.791 79.7596 119.791 70.7753V43.5502C119.791 37.5607 114.89 32.6602 108.901 32.6602Z" fill="white"/>
<path d="M178.663 43.5602V54.4503H233.113V43.5602C233.113 33.4325 240.083 24.9927 249.449 22.5424V16.3351C249.449 7.35079 242.098 0 233.113 0H178.663C169.679 0 162.328 7.35079 162.328 16.3351V22.5424C171.694 24.9927 178.663 33.4325 178.663 43.5602Z" fill="white"/>
<path d="M254.901 32.6602C248.911 32.6602 244.01 37.5607 244.01 43.5502V65.3303H167.78V43.5502C167.78 37.5607 162.88 32.6602 156.89 32.6602C150.901 32.6602 146 37.5607 146 43.5502V70.7753C146 79.7596 153.351 87.1104 162.335 87.1104V92.5554C162.335 95.5502 164.785 98.0005 167.78 98.0005C170.775 98.0005 173.225 95.5502 173.225 92.5554V87.1104H238.565V92.5554C238.565 95.5502 241.016 98.0005 244.01 98.0005C247.005 98.0005 249.455 95.5502 249.455 92.5554V87.1104C258.44 87.1104 265.791 79.7596 265.791 70.7753V43.5502C265.791 37.5607 260.89 32.6602 254.901 32.6602Z" fill="white"/>
</svg>
