<svg width="120" height="229" viewBox="0 0 120 229" fill="none" xmlns="http://www.w3.org/2000/svg">
<path d="M32.6632 43.5602V54.4503H87.1135V43.5602C87.1135 33.4325 94.0831 24.9927 103.449 22.5424V16.3351C103.449 7.35079 96.0977 0 87.1135 0H32.6632C23.6789 0 16.3281 7.35079 16.3281 16.3351V22.5424C25.6936 24.9927 32.6632 33.4325 32.6632 43.5602Z" fill="white"/>
<path d="M108.901 32.6602C102.911 32.6602 98.0105 37.5607 98.0105 43.5502V65.3303H21.7801V43.5502C21.7801 37.5607 16.8796 32.6602 10.8901 32.6602C4.90052 32.6602 0 37.5607 0 43.5502V70.7753C0 79.7596 7.35079 87.1104 16.3351 87.1104V92.5554C16.3351 95.5502 18.7853 98.0005 21.7801 98.0005C24.7749 98.0005 27.2251 95.5502 27.2251 92.5554V87.1104H92.5654V92.5554C92.5654 95.5502 95.0157 98.0005 98.0105 98.0005C101.005 98.0005 103.455 95.5502 103.455 92.5554V87.1104C112.44 87.1104 119.791 79.7596 119.791 70.7753V43.5502C119.791 37.5607 114.89 32.6602 108.901 32.6602Z" fill="white"/>
<path d="M32.6632 174.56V185.45H87.1135V174.56C87.1135 164.432 94.0831 155.993 103.449 153.542V147.335C103.449 138.351 96.0977 131 87.1135 131H32.6632C23.6789 131 16.3281 138.351 16.3281 147.335V153.542C25.6936 155.993 32.6632 164.432 32.6632 174.56Z" fill="white"/>
<path d="M108.901 163.66C102.911 163.66 98.0105 168.561 98.0105 174.55V196.33H21.7801V174.55C21.7801 168.561 16.8796 163.66 10.8901 163.66C4.90052 163.66 0 168.561 0 174.55V201.775C0 210.76 7.35079 218.11 16.3351 218.11V223.555C16.3351 226.55 18.7853 229 21.7801 229C24.7749 229 27.2251 226.55 27.2251 223.555V218.11H92.5654V223.555C92.5654 226.55 95.0157 229 98.0105 229C101.005 229 103.455 226.55 103.455 223.555V218.11C112.44 218.11 119.791 210.76 119.791 201.775V174.55C119.791 168.561 114.89 163.66 108.901 163.66Z" fill="white"/>
</svg>
